<svg width="160" height="64" viewBox="0 0 160 64" fill="none" xmlns="http://www.w3.org/2000/svg">
<g clip-path="url(#clip0_1_787)">
<rect width="64" height="64" rx="32" fill="#F4FAFF"/>
<ellipse cx="27.7516" cy="28.8849" rx="14.3212" ry="13.0265" fill="white"/>
<ellipse cx="2.74168" cy="2.8311" rx="2.74168" ry="2.8311" transform="matrix(0.995475 0.0950258 -0.0890687 0.996026 19.1425 19.9646)" fill="black"/>
<ellipse cx="33.9128" cy="28.8851" rx="2.94051" ry="2.97345" fill="black"/>
<path fill-rule="evenodd" clip-rule="evenodd" d="M26.6533 12.4162C26.6533 12.4162 20.8166 3.98349 18.9848 5.04888C18.6019 5.29624 18.4112 6.72194 18.1313 8.81465C17.6666 12.2891 16.9561 17.6022 14.7113 22.414C14.4871 22.8946 14.2607 23.3782 14.033 23.8647L14.0325 23.8659C13.8836 24.184 13.7324 24.5066 13.5792 24.8335C10.0282 32.4092 5.41002 42.2616 4.59107 49.9116C2.99559 64.8153 8.75444 76.1433 14.9549 88.3401C15.4796 89.3722 16.0074 90.4105 16.5342 91.4577C17.293 92.9659 19.0575 93.8762 20.7026 93.8762H21.2925C23.4369 93.8762 22.2621 91.0884 21.8871 90.1987L21.8869 90.1982C21.8468 90.1028 21.8158 90.0294 21.7991 89.9835C20.2242 85.6521 19.788 81.9574 19.2804 77.6577C19.1521 76.571 19.0193 75.4456 18.8623 74.2615C19.6014 75.1406 20.3843 75.981 21.2079 76.7788C22.299 81.9285 23.8599 86.9285 25.6916 91.7206C26.1925 93.0311 27.4269 93.8761 28.7907 93.8761L29.4669 93.8761C30.7002 93.8761 31.5789 92.6374 31.2609 91.4063C30.5265 88.5631 30.0013 85.6606 29.6558 82.7101C32.8473 84.2625 36.3373 85.3059 40.0393 85.729C53.3114 87.2457 65.6095 80.3665 71.9692 69.1992C72.1255 68.9366 72.2738 68.668 72.4136 68.3937L72.4452 68.3345C72.478 68.2729 72.5071 68.2128 72.5329 68.1541C73.2366 66.7065 73.7076 65.1074 73.8901 63.403C74.016 62.2269 73.9972 61.0687 73.8485 59.9474C73.4852 57.2092 81.4116 52.388 89.1153 47.7023C98.8996 41.751 108.325 36.0183 99.9501 35.0495C98.7656 34.9125 97.5819 34.7545 96.398 34.5965C88.3507 33.5225 80.2961 32.4476 71.9692 37.947C71.171 39.653 70.3784 41.146 69.5976 42.4526C69.2203 49.1007 63.8826 54.3717 57.3534 54.3717C50.5793 54.3717 45.0879 48.698 45.0879 41.6992C45.0879 39.4508 45.6546 37.3393 46.6484 35.5086C47.9476 32.1833 49.878 28.6379 51.522 25.6187C53.5588 21.878 55.1558 18.9449 54.5678 18.2383C53.323 16.7424 47.829 17.7973 44.381 18.4593L44.381 18.4593C43.744 18.5816 43.1769 18.6905 42.7193 18.7674C40.1102 15.2227 36.1538 12.7467 31.5315 12.2185C29.861 12.0276 28.2215 12.1046 26.6533 12.4162ZM20.1409 28.2294C22.7715 29.4298 25.6846 28.5768 26.6474 26.3242C27.6103 24.0717 26.2582 21.2726 23.6276 20.0723C22.0442 19.3498 20.3585 19.3712 19.0574 19.9939C18.1968 20.4058 17.5044 21.0807 17.121 21.9775C16.1582 24.23 17.5102 27.0291 20.1409 28.2294ZM39.4641 32.4003C38.4446 34.7683 35.3915 35.6645 32.6446 34.4022C29.8978 33.1399 28.4974 30.1969 29.5168 27.829C29.9227 26.8863 30.6508 26.1769 31.5537 25.744C32.9187 25.0896 34.6829 25.0674 36.3363 25.8271C39.0831 27.0895 40.4835 30.0324 39.4641 32.4003Z" fill="#72BDF8"/>
<path fill-rule="evenodd" clip-rule="evenodd" d="M23.999 30.6597L23.9484 31.2947C23.999 30.6597 23.9991 30.6597 23.9992 30.6597L23.9999 30.6597L24.0011 30.6598L24.0042 30.6601L24.0133 30.661L24.0422 30.664C24.0662 30.6666 24.0994 30.6705 24.1408 30.6761C24.2234 30.6874 24.339 30.7055 24.4785 30.7336C24.756 30.7896 25.1359 30.8868 25.5417 31.0528C25.9561 31.2224 26.3389 31.4544 26.6105 31.6367C26.7482 31.7291 26.8618 31.8117 26.9418 31.8719C26.9818 31.902 27.0137 31.9267 27.0361 31.9444L27.0627 31.9654L27.0705 31.9717L27.0729 31.9737L27.0738 31.9744L27.0743 31.9748C27.0744 31.9748 27.0744 31.9749 26.715 32.4453L27.0744 31.9749C27.3418 32.1929 27.3874 32.5936 27.1763 32.8698C26.9654 33.1458 26.578 33.1931 26.3106 32.9755L26.3103 32.9752L26.3102 32.9751L26.3068 32.9724L26.2894 32.9586C26.2732 32.9459 26.2483 32.9265 26.2156 32.902C26.1503 32.8528 26.055 32.7834 25.9387 32.7054C25.8606 32.653 25.7748 32.5979 25.684 32.5431C25.4137 33.1206 25.391 33.5302 25.4466 33.7917C25.5071 34.0757 25.676 34.2674 25.898 34.3771C26.1319 34.4926 26.4115 34.5083 26.6414 34.4275C26.8568 34.3517 27.0203 34.1973 27.0911 33.9464C27.1864 33.6086 27.5288 33.4146 27.8558 33.5131C28.1828 33.6116 28.3705 33.9654 28.2751 34.3032C28.0803 34.9933 27.5945 35.4383 27.0389 35.6338C26.4978 35.8242 25.8846 35.783 25.3659 35.5267C24.8866 35.2899 24.4783 34.863 24.2935 34.2635C23.9383 34.4494 23.561 34.5094 23.1981 34.4631C22.6834 34.3976 22.2285 34.1233 21.9152 33.7597C21.6051 33.3999 21.3867 32.8929 21.4625 32.3462C21.5108 31.9979 21.8233 31.7559 22.1604 31.8058C22.4976 31.8558 22.7317 32.1786 22.6834 32.5269C22.6719 32.6099 22.7009 32.755 22.8365 32.9124C22.9689 33.066 23.1579 33.174 23.349 33.1984C23.5227 33.2205 23.7275 33.1788 23.9416 32.9774C24.1172 32.8121 24.3148 32.5226 24.4812 32.0389C24.3949 32.0169 24.3145 31.9989 24.2422 31.9844C24.1305 31.9618 24.0402 31.9478 23.9796 31.9395C23.9493 31.9354 23.9267 31.9328 23.9127 31.9312L23.8983 31.9298L23.8964 31.9296C23.5576 31.9 23.3059 31.5926 23.3338 31.2424C23.3617 30.8917 23.6595 30.6308 23.999 30.6597Z" fill="black"/>
</g>
<path d="M98.5219 24.0148C100.358 24.0148 101.74 24.4886 102.667 25.4362C103.605 26.3837 104.074 27.9038 104.074 29.9963V38.7156C104.074 39.8202 103.179 40.7156 102.074 40.7156H100.595V30.6181C100.595 29.3745 100.353 28.4368 99.8692 27.8051C99.3856 27.1733 98.6502 26.8575 97.6632 26.8575C96.2813 26.8575 95.2844 27.3017 94.6724 28.19C94.0703 29.0685 93.7693 30.3467 93.7693 32.0247V38.7156C93.7693 39.8202 92.8738 40.7156 91.7693 40.7156H90.2899V30.6181C90.2899 29.789 90.1814 29.0981 89.9642 28.5453C89.7569 27.9827 89.4362 27.5632 89.0019 27.2869C88.5676 27.0006 88.0197 26.8575 87.3584 26.8575C86.401 26.8575 85.636 27.0746 85.0635 27.5089C84.5009 27.9432 84.0962 28.5848 83.8495 29.4337C83.6027 30.2727 83.4793 31.3041 83.4793 32.5281V38.7156C83.4793 39.8202 82.5839 40.7156 81.4793 40.7156H80V24.3257H82.7094L83.198 26.5318H83.3905C83.7261 25.9593 84.1407 25.4904 84.6342 25.1252C85.1376 24.7502 85.6952 24.4738 86.3072 24.2961C86.9192 24.1086 87.5558 24.0148 88.2171 24.0148C89.4411 24.0148 90.4725 24.232 91.3115 24.6663C92.1505 25.0907 92.7773 25.7421 93.1919 26.6206H93.4584C93.9716 25.7323 94.6872 25.0759 95.6052 24.6514C96.5231 24.227 97.4954 24.0148 98.5219 24.0148Z" fill="#343633"/>
<path d="M123.187 32.4837C123.187 33.8458 123.009 35.0549 122.654 36.111C122.299 37.1672 121.781 38.0605 121.1 38.7909C120.419 39.5114 119.599 40.0642 118.642 40.4491C117.684 40.8242 116.604 41.0117 115.399 41.0117C114.274 41.0117 113.243 40.8242 112.305 40.4491C111.367 40.0642 110.553 39.5114 109.862 38.7909C109.181 38.0605 108.653 37.1672 108.278 36.111C107.903 35.0549 107.715 33.8458 107.715 32.4837C107.715 30.6774 108.026 29.1474 108.648 27.8939C109.28 26.6305 110.178 25.6681 111.343 25.0068C112.507 24.3455 113.894 24.0148 115.503 24.0148C117.013 24.0148 118.346 24.3455 119.501 25.0068C120.655 25.6681 121.559 26.6305 122.21 27.8939C122.861 29.1573 123.187 30.6872 123.187 32.4837ZM111.298 32.4837C111.298 33.678 111.441 34.6996 111.728 35.5484C112.024 36.3973 112.478 37.0487 113.09 37.5028C113.702 37.9469 114.491 38.169 115.459 38.169C116.426 38.169 117.216 37.9469 117.828 37.5028C118.439 37.0487 118.889 36.3973 119.175 35.5484C119.461 34.6996 119.604 33.678 119.604 32.4837C119.604 31.2893 119.461 30.2776 119.175 29.4485C118.889 28.6095 118.439 27.9729 117.828 27.5386C117.216 27.0944 116.421 26.8723 115.444 26.8723C114.003 26.8723 112.952 27.356 112.29 28.3233C111.629 29.2906 111.298 30.6774 111.298 32.4837Z" fill="#343633"/>
<path d="M131.611 48C129.39 48 127.687 47.6002 126.503 46.8007C125.318 46.0012 124.726 44.8809 124.726 43.4399C124.726 42.4331 125.042 41.5793 125.674 40.8785C126.305 40.1875 127.208 39.7088 128.383 39.4423C127.939 39.2449 127.554 38.9389 127.228 38.5244C126.912 38.0999 126.754 37.6311 126.754 37.1178C126.754 36.5059 126.927 35.9827 127.273 35.5484C127.618 35.1141 128.136 34.6946 128.827 34.2899C127.968 33.9247 127.277 33.3325 126.754 32.5133C126.241 31.6841 125.984 30.7119 125.984 29.5965C125.984 28.4121 126.236 27.4053 126.74 26.5762C127.243 25.7372 127.978 25.1006 128.946 24.6663C129.913 24.2221 131.083 24 132.455 24C132.751 24 133.071 24.0197 133.417 24.0592C133.772 24.0888 134.098 24.1283 134.394 24.1777C134.7 24.2171 134.932 24.2616 135.09 24.3109H140.761V26.2505L137.977 26.7687C138.244 27.1437 138.456 27.5731 138.614 28.0568C138.772 28.5305 138.851 29.0487 138.851 29.6114C138.851 31.3091 138.263 32.6465 137.089 33.6237C135.924 34.591 134.315 35.0746 132.262 35.0746C131.769 35.0549 131.29 35.0154 130.826 34.9562C130.471 35.1733 130.199 35.4152 130.012 35.6817C129.824 35.9383 129.73 36.2295 129.73 36.5552C129.73 36.8217 129.824 37.0389 130.012 37.2067C130.199 37.3646 130.476 37.483 130.841 37.562C131.216 37.641 131.67 37.6804 132.203 37.6804H135.031C136.827 37.6804 138.199 38.0605 139.147 38.8205C140.094 39.5805 140.568 40.6959 140.568 42.1666C140.568 44.0321 139.798 45.4682 138.258 46.475C136.719 47.4917 134.503 48 131.611 48ZM131.744 45.5571C132.958 45.5571 133.98 45.4386 134.809 45.2017C135.638 44.9648 136.265 44.6243 136.689 44.1801C137.113 43.7458 137.326 43.2276 137.326 42.6255C137.326 42.0925 137.192 41.6829 136.926 41.3967C136.659 41.1104 136.26 40.913 135.727 40.8044C135.194 40.6959 134.532 40.6416 133.743 40.6416H131.166C130.525 40.6416 129.957 40.7403 129.464 40.9377C128.97 41.145 128.585 41.4411 128.309 41.826C128.042 42.211 127.909 42.6749 127.909 43.2178C127.909 43.9679 128.24 44.5453 128.901 44.95C129.572 45.3547 130.52 45.5571 131.744 45.5571ZM132.425 32.7946C133.442 32.7946 134.197 32.5182 134.69 31.9655C135.184 31.4028 135.43 30.6132 135.43 29.5965C135.43 28.4911 135.174 27.6619 134.661 27.1092C134.157 26.5564 133.407 26.2801 132.41 26.2801C131.433 26.2801 130.688 26.5614 130.174 27.124C129.671 27.6866 129.419 28.5207 129.419 29.6262C129.419 30.6231 129.671 31.4028 130.174 31.9655C130.688 32.5182 131.438 32.7946 132.425 32.7946Z" fill="#343633"/>
<path d="M157.786 24.3257V40.7156H155.047L154.573 38.5096H154.381C154.035 39.0722 153.596 39.541 153.063 39.9161C152.53 40.2813 151.938 40.5527 151.286 40.7304C150.635 40.918 149.949 41.0117 149.228 41.0117C147.995 41.0117 146.938 40.8044 146.06 40.3899C145.191 39.9655 144.525 39.314 144.061 38.4355C143.597 37.5571 143.365 36.422 143.365 35.0302V24.3257H146.859V34.3788C146.859 35.6521 147.116 36.6046 147.629 37.2363C148.152 37.868 148.962 38.1838 150.057 38.1838C151.114 38.1838 151.953 37.9667 152.574 37.5324C153.196 37.0981 153.636 36.4565 153.892 35.6076C154.159 34.7588 154.292 33.7175 154.292 32.4837V24.3257H157.786Z" fill="#343633"/>
<defs>
<clipPath id="clip0_1_787">
<rect width="64" height="64" rx="32" fill="white"/>
</clipPath>
</defs>
</svg>
