<svg width="130" height="53" viewBox="0 0 130 53" fill="none" xmlns="http://www.w3.org/2000/svg">
<mask id="mask0_1_808" style="mask-type:alpha" maskUnits="userSpaceOnUse" x="0" y="0" width="53" height="53">
<circle cx="26.3648" cy="26.3648" r="26.3648" fill="#F4FAFF"/>
</mask>
<g mask="url(#mask0_1_808)">
<circle cx="26.3648" cy="26.3648" r="26.3648" fill="#F4FAFF"/>
<ellipse cx="22.8646" cy="23.7983" rx="11.7992" ry="10.7326" fill="white"/>
<ellipse cx="2.25887" cy="2.33255" rx="2.25887" ry="2.33255" transform="matrix(0.995475 0.0950258 -0.0890687 0.996026 15.7715 16.4487)" fill="black"/>
<ellipse cx="27.9407" cy="23.7985" rx="2.42269" ry="2.44983" fill="black"/>
<path fill-rule="evenodd" clip-rule="evenodd" d="M21.9598 10.2296C21.9598 10.2296 17.1509 3.28192 15.6417 4.15969C15.3262 4.36349 15.1691 5.53813 14.9385 7.26231C14.5556 10.1249 13.9702 14.5024 12.1207 18.4668C11.936 18.8628 11.7495 19.2613 11.5619 19.6621L11.5614 19.663C11.4388 19.9251 11.3142 20.1909 11.188 20.4602C8.26229 26.7019 4.45739 34.8193 3.78265 41.1221C2.46814 53.4012 7.21286 62.7344 12.3214 72.7834C12.7537 73.6337 13.1886 74.4892 13.6226 75.3519C14.2477 76.5945 15.7015 77.3445 17.057 77.3445H17.543C19.3098 77.3445 18.3418 75.0477 18.0329 74.3146L18.0327 74.3141C17.9996 74.2356 17.9741 74.1751 17.9604 74.1373C16.6628 70.5687 16.3034 67.5247 15.8852 63.9822C15.7795 63.0868 15.6701 62.1596 15.5407 61.184C16.1497 61.9083 16.7947 62.6007 17.4733 63.258C18.3723 67.5009 19.6583 71.6204 21.1674 75.5686C21.5801 76.6483 22.5971 77.3445 23.7207 77.3445H24.2779C25.294 77.3445 26.0179 76.3239 25.7559 75.3096C25.1508 72.9671 24.7181 70.5758 24.4335 68.1448C27.063 69.4239 29.9383 70.2835 32.9885 70.6321C43.9234 71.8817 54.0558 66.2139 59.2955 57.0132C59.4243 56.7968 59.5465 56.5755 59.6617 56.3495L59.6877 56.3007C59.7147 56.25 59.7387 56.2004 59.76 56.1521C60.3398 54.9594 60.7278 53.642 60.8781 52.2377C60.9819 51.2687 60.9664 50.3144 60.8438 49.3906C60.5446 47.1346 67.0751 43.1624 73.4222 39.3018C81.4835 34.3986 89.2487 29.6754 82.349 28.8772C81.3731 28.7643 80.3978 28.6342 79.4224 28.504C72.7922 27.6192 66.1561 26.7335 59.2955 31.2644C58.6378 32.6701 57.9848 33.9003 57.3414 34.9769C57.0305 40.4542 52.6328 44.7969 47.2534 44.7969C41.6723 44.7969 37.1478 40.1223 37.1478 34.356C37.1478 32.5033 37.6149 30.7633 38.434 29.2548C39.5043 26.5152 41.0947 23.5945 42.449 21.1071C44.1272 18.0252 45.443 15.6086 44.9585 15.0264C43.9329 13.794 39.4064 14.6631 36.5656 15.2085C36.0408 15.3093 35.5736 15.399 35.1965 15.4624C33.0469 12.5419 29.7872 10.502 25.9789 10.0667C24.6025 9.90947 23.2518 9.97289 21.9598 10.2296ZM16.5941 23.2582C18.7615 24.2471 21.1616 23.5443 21.9549 21.6885C22.7482 19.8326 21.6342 17.5264 19.4669 16.5375C18.1623 15.9422 16.7735 15.9599 15.7015 16.4729C14.9924 16.8123 14.4219 17.3683 14.1061 18.1072C13.3128 19.963 14.4268 22.2692 16.5941 23.2582ZM32.5145 26.6946C31.6746 28.6455 29.1591 29.3839 26.896 28.3439C24.6329 27.3039 23.4791 24.8792 24.319 22.9282C24.6534 22.1516 25.2533 21.567 25.9971 21.2104C27.1218 20.6712 28.5754 20.6529 29.9375 21.2789C32.2007 22.3189 33.3544 24.7436 32.5145 26.6946Z" fill="#72BDF8"/>
<path fill-rule="evenodd" clip-rule="evenodd" d="M19.7728 25.2606L19.7311 25.7838C19.7728 25.2606 19.7728 25.2606 19.7729 25.2606L19.7736 25.2607L19.7745 25.2607L19.7771 25.261L19.7845 25.2617L19.8084 25.2641C19.8281 25.2663 19.8555 25.2695 19.8896 25.2742C19.9576 25.2834 20.0529 25.2984 20.1678 25.3215C20.3964 25.3676 20.7095 25.4477 21.0438 25.5845C21.3853 25.7242 21.7006 25.9154 21.9244 26.0656C22.0379 26.1417 22.1314 26.2098 22.1973 26.2593C22.2303 26.2842 22.2566 26.3045 22.2751 26.3191L22.297 26.3364L22.3034 26.3416L22.3054 26.3432L22.3061 26.3438L22.3065 26.3441C22.3066 26.3442 22.3066 26.3442 22.0105 26.7318L22.3066 26.3442C22.5269 26.5239 22.5645 26.854 22.3906 27.0815C22.2168 27.309 21.8976 27.3479 21.6774 27.1686L21.677 27.1684L21.6769 27.1683L21.6742 27.1661L21.6598 27.1547C21.6465 27.1442 21.6259 27.1283 21.5991 27.108C21.5452 27.0675 21.4667 27.0104 21.3709 26.9461C21.3066 26.9029 21.236 26.8576 21.1611 26.8124C20.9385 27.2883 20.9198 27.6257 20.9656 27.8411C21.0154 28.0752 21.1546 28.2331 21.3375 28.3235C21.5301 28.4186 21.7605 28.4316 21.9499 28.365C22.1275 28.3025 22.2621 28.1753 22.3204 27.9686C22.399 27.6903 22.6811 27.5305 22.9505 27.6116C23.2199 27.6928 23.3746 27.9843 23.296 28.2626C23.1355 28.8311 22.7352 29.1978 22.2775 29.3589C21.8316 29.5157 21.3265 29.4818 20.8991 29.2707C20.5041 29.0755 20.1678 28.7238 20.0155 28.2298C19.7228 28.383 19.412 28.4324 19.1129 28.3943C18.6889 28.3403 18.3141 28.1143 18.056 27.8148C17.8005 27.5183 17.6205 27.1006 17.683 26.6502C17.7228 26.3632 17.9802 26.1638 18.258 26.205C18.5358 26.2461 18.7287 26.5121 18.6889 26.7991C18.6794 26.8675 18.7033 26.987 18.815 27.1166C18.9241 27.2432 19.0798 27.3322 19.2373 27.3523C19.3804 27.3705 19.5491 27.3362 19.7255 27.1702C19.8702 27.034 20.033 26.7955 20.1701 26.3969C20.099 26.3788 20.0327 26.364 19.9732 26.352C19.8812 26.3335 19.8067 26.3219 19.7568 26.3151C19.7319 26.3117 19.7132 26.3095 19.7016 26.3083L19.6898 26.307L19.6882 26.3069C19.4091 26.2825 19.2017 26.0293 19.2247 25.7407C19.2477 25.4518 19.4931 25.2368 19.7728 25.2606Z" fill="black"/>
</g>
<path d="M81.1722 19.7859C82.6848 19.7859 83.8233 20.1762 84.5878 20.9569C85.3603 21.7376 85.7466 22.99 85.7466 24.714V31.5457C85.7466 32.6502 84.8512 33.5457 83.7466 33.5457H82.88V25.2264C82.88 24.2017 82.6808 23.4291 82.2823 22.9087C81.8838 22.3882 81.2779 22.128 80.4647 22.128C79.3262 22.128 78.5048 22.4939 78.0006 23.2258C77.5046 23.9496 77.2565 25.0027 77.2565 26.3852V31.5457C77.2565 32.6502 76.3611 33.5457 75.2565 33.5457H74.3899V25.2264C74.3899 24.5433 74.3005 23.974 74.1215 23.5186C73.9508 23.0551 73.6865 22.7094 73.3286 22.4817C72.9708 22.2459 72.5195 22.128 71.9746 22.128C71.1858 22.128 70.5555 22.3069 70.0839 22.6647C69.6203 23.0225 69.2869 23.5511 69.0836 24.2505C68.8803 24.9417 68.7786 25.7916 68.7786 26.8V31.5457C68.7786 32.6502 67.8832 33.5457 66.7786 33.5457H65.912V20.042H68.1443L68.5469 21.8596H68.7055C68.9819 21.3879 69.3235 21.0017 69.7301 20.7008C70.1449 20.3917 70.6043 20.164 71.1085 20.0176C71.6127 19.8631 72.1373 19.7859 72.6821 19.7859C73.6905 19.7859 74.5404 19.9648 75.2316 20.3226C75.9228 20.6723 76.4392 21.209 76.7808 21.9328H77.0004C77.4232 21.2009 78.0128 20.6601 78.7691 20.3104C79.5254 19.9607 80.3265 19.7859 81.1722 19.7859Z" fill="#343633"/>
<path d="M101.494 26.7634C101.494 27.8856 101.348 28.8818 101.055 29.752C100.762 30.6221 100.335 31.3581 99.774 31.9599C99.2128 32.5535 98.5379 33.0089 97.749 33.3261C96.9602 33.6351 96.0697 33.7896 95.0776 33.7896C94.1505 33.7896 93.3007 33.6351 92.5281 33.3261C91.7556 33.0089 91.0846 32.5535 90.5154 31.9599C89.9543 31.3581 89.5192 30.6221 89.2101 29.752C88.9011 28.8818 88.7466 27.8856 88.7466 26.7634C88.7466 25.2752 89.0028 24.0147 89.5151 22.9819C90.0356 21.9409 90.7756 21.148 91.7352 20.6032C92.6948 20.0583 93.8374 19.7859 95.163 19.7859C96.4072 19.7859 97.5051 20.0583 98.4565 20.6032C99.408 21.148 100.152 21.9409 100.689 22.9819C101.226 24.0228 101.494 25.2833 101.494 26.7634ZM91.6986 26.7634C91.6986 27.7474 91.8165 28.5891 92.0524 29.2884C92.2963 29.9878 92.6704 30.5245 93.1746 30.8986C93.6788 31.2646 94.3294 31.4476 95.1264 31.4476C95.9233 31.4476 96.5739 31.2646 97.0781 30.8986C97.5823 30.5245 97.9523 29.9878 98.1882 29.2884C98.424 28.5891 98.5419 27.7474 98.5419 26.7634C98.5419 25.7794 98.424 24.9458 98.1882 24.2627C97.9523 23.5715 97.5823 23.0469 97.0781 22.6891C96.5739 22.3231 95.9193 22.1402 95.1142 22.1402C93.9269 22.1402 93.0608 22.5387 92.5159 23.3356C91.9711 24.1326 91.6986 25.2752 91.6986 26.7634Z" fill="#343633"/>
<path d="M108.434 39.5473C106.604 39.5473 105.201 39.2179 104.226 38.5592C103.25 37.9005 102.762 36.9775 102.762 35.7902C102.762 34.9607 103.022 34.2573 103.542 33.6799C104.063 33.1106 104.807 32.7162 105.775 32.4966C105.409 32.334 105.092 32.0819 104.823 31.7403C104.563 31.3906 104.433 31.0043 104.433 30.5815C104.433 30.0773 104.575 29.6463 104.86 29.2884C105.145 28.9306 105.571 28.585 106.141 28.2516C105.433 27.9507 104.864 27.4627 104.433 26.7878C104.01 26.1047 103.799 25.3036 103.799 24.3847C103.799 23.4088 104.006 22.5793 104.421 21.8962C104.835 21.205 105.441 20.6804 106.238 20.3226C107.035 19.9567 107.999 19.7737 109.129 19.7737C109.373 19.7737 109.638 19.7899 109.922 19.8225C110.215 19.8469 110.483 19.8794 110.727 19.9201C110.979 19.9526 111.171 19.9892 111.301 20.0298H115.973V21.6278L113.679 22.0548C113.899 22.3638 114.074 22.7176 114.204 23.116C114.334 23.5064 114.399 23.9333 114.399 24.3969C114.399 25.7956 113.915 26.8975 112.947 27.7026C111.988 28.4996 110.662 28.8981 108.971 28.8981C108.564 28.8818 108.17 28.8493 107.787 28.8005C107.495 28.9794 107.271 29.1786 107.117 29.3982C106.962 29.6097 106.885 29.8496 106.885 30.1179C106.885 30.3375 106.962 30.5164 107.117 30.6547C107.271 30.7848 107.499 30.8824 107.8 30.9474C108.109 31.0125 108.483 31.045 108.922 31.045H111.252C112.732 31.045 113.862 31.3581 114.643 31.9843C115.424 32.6105 115.814 33.5294 115.814 34.7411C115.814 36.2781 115.18 37.4614 113.911 38.2909C112.642 39.1285 110.817 39.5473 108.434 39.5473ZM108.544 37.5346C109.544 37.5346 110.386 37.437 111.069 37.2418C111.752 37.0466 112.268 36.7661 112.618 36.4001C112.968 36.0423 113.143 35.6153 113.143 35.1193C113.143 34.6801 113.033 34.3426 112.813 34.1068C112.594 33.871 112.264 33.7083 111.825 33.6189C111.386 33.5294 110.841 33.4847 110.191 33.4847H108.068C107.539 33.4847 107.072 33.566 106.665 33.7287C106.259 33.8994 105.941 34.1434 105.714 34.4606C105.494 34.7777 105.384 35.1599 105.384 35.6072C105.384 36.2253 105.657 36.701 106.202 37.0344C106.755 37.3678 107.535 37.5346 108.544 37.5346ZM109.105 27.0195C109.943 27.0195 110.565 26.7918 110.971 26.3364C111.378 25.8729 111.581 25.2223 111.581 24.3847C111.581 23.4739 111.37 22.7908 110.947 22.3353C110.532 21.8799 109.914 21.6522 109.093 21.6522C108.288 21.6522 107.674 21.884 107.251 22.3475C106.836 22.8111 106.629 23.4983 106.629 24.4091C106.629 25.2304 106.836 25.8729 107.251 26.3364C107.674 26.7918 108.292 27.0195 109.105 27.0195Z" fill="#343633"/>
<path d="M130 20.042V33.5457H127.743L127.353 31.7281H127.194C126.91 32.1917 126.548 32.5779 126.109 32.887C125.67 33.1879 125.182 33.4115 124.645 33.5579C124.108 33.7124 123.543 33.7896 122.949 33.7896C121.933 33.7896 121.063 33.6189 120.339 33.2773C119.623 32.9276 119.074 32.3909 118.692 31.6671C118.31 30.9434 118.119 30.0081 118.119 28.8615V20.042H120.998V28.3248C120.998 29.3738 121.209 30.1586 121.632 30.6791C122.063 31.1995 122.73 31.4598 123.632 31.4598C124.503 31.4598 125.194 31.2808 125.706 30.923C126.218 30.5652 126.58 30.0366 126.792 29.3372C127.011 28.6379 127.121 27.7799 127.121 26.7634V20.042H130Z" fill="#343633"/>
</svg>
