<svg width="190" height="147" viewBox="0 0 190 147" fill="none" xmlns="http://www.w3.org/2000/svg">
<ellipse cx="95" cy="131.074" rx="95" ry="15" fill="#232323"/>
<mask id="mask0_1_1113" style="mask-type:alpha" maskUnits="userSpaceOnUse" x="32" y="0" width="124" height="135">
<path d="M155.519 67.0819C155.519 77.8713 154.112 87.4488 151.297 95.8145C148.481 104.18 144.376 111.256 138.98 117.041C133.585 122.749 127.094 127.127 119.509 130.176C111.924 133.147 103.361 134.633 93.8207 134.633C84.9061 134.633 76.7344 133.147 69.3055 130.176C61.8767 127.127 55.4253 122.749 49.9514 117.041C44.5557 111.256 40.3721 104.18 37.4006 95.8145C34.429 87.4488 32.9432 77.8713 32.9432 67.0819C32.9432 52.7742 35.4065 40.6557 40.333 30.7263C45.3377 20.7188 52.4538 13.0958 61.6812 7.85749C70.9086 2.61916 81.8954 0 94.6418 0C106.606 0 117.163 2.61916 126.312 7.85749C135.461 13.0958 142.616 20.7188 147.778 30.7263C152.939 40.7339 155.519 52.8524 155.519 67.0819ZM61.3293 67.0819C61.3293 76.5421 62.4631 84.6342 64.7309 91.358C67.0768 98.0818 70.674 103.242 75.5223 106.838C80.3706 110.357 86.6264 112.116 94.2899 112.116C101.953 112.116 108.209 110.357 113.057 106.838C117.906 103.242 121.464 98.0818 123.732 91.358C125.999 84.6342 127.133 76.5421 127.133 67.0819C127.133 57.6216 125.999 49.6077 123.732 43.0403C121.464 36.3946 117.906 31.3518 113.057 27.9117C108.209 24.3934 101.914 22.6343 94.1726 22.6343C82.7556 22.6343 74.4275 26.4653 69.1882 34.1273C63.9489 41.7893 61.3293 52.7742 61.3293 67.0819Z" fill="#DAD4C5"/>
</mask>
<g mask="url(#mask0_1_1113)">
<path d="M155.519 67.0819C155.519 77.8713 154.112 87.4488 151.297 95.8145C148.481 104.18 144.376 111.256 138.98 117.041C133.585 122.749 127.094 127.127 119.509 130.176C111.924 133.147 103.361 134.633 93.8207 134.633C84.9061 134.633 76.7344 133.147 69.3055 130.176C61.8767 127.127 55.4253 122.749 49.9514 117.041C44.5557 111.256 40.3721 104.18 37.4006 95.8145C34.429 87.4488 32.9432 77.8713 32.9432 67.0819C32.9432 52.7742 35.4065 40.6557 40.333 30.7263C45.3377 20.7188 52.4538 13.0958 61.6812 7.85749C70.9086 2.61916 81.8954 0 94.6418 0C106.606 0 117.163 2.61916 126.312 7.85749C135.461 13.0958 142.616 20.7188 147.778 30.7263C152.939 40.7339 155.519 52.8524 155.519 67.0819ZM61.3293 67.0819C61.3293 76.5421 62.4631 84.6342 64.7309 91.358C67.0768 98.0818 70.674 103.242 75.5223 106.838C80.3706 110.357 86.6264 112.116 94.2899 112.116C101.953 112.116 108.209 110.357 113.057 106.838C117.906 103.242 121.464 98.0818 123.732 91.358C125.999 84.6342 127.133 76.5421 127.133 67.0819C127.133 57.6216 125.999 49.6077 123.732 43.0403C121.464 36.3946 117.906 31.3518 113.057 27.9117C108.209 24.3934 101.914 22.6343 94.1726 22.6343C82.7556 22.6343 74.4275 26.4653 69.1882 34.1273C63.9489 41.7893 61.3293 52.7742 61.3293 67.0819Z" fill="#DAD4C5"/>
</g>
</svg>
