<svg width="160" height="206" viewBox="0 0 160 206" fill="none" xmlns="http://www.w3.org/2000/svg">
<ellipse cx="80" cy="190.548" rx="80" ry="15" fill="#232323"/>
<mask id="mask0_1_1396" style="mask-type:alpha" maskUnits="userSpaceOnUse" x="14" y="0" width="128" height="191">
<path d="M69.2039 190.104C51.6093 190.104 38.12 186.938 28.7362 180.605C19.3524 174.272 14.6605 165.398 14.6605 153.983C14.6605 146.009 17.1628 139.246 22.1675 133.695C27.1722 128.222 34.3274 124.43 43.633 122.319C40.1141 120.755 37.0643 118.331 34.4838 115.048C31.9814 111.686 30.7303 107.972 30.7303 103.907C30.7303 99.0591 32.0987 94.9154 34.8357 91.4753C37.5726 88.0352 41.6781 84.7124 47.1519 81.5068C40.3487 78.614 34.8748 73.923 30.7303 67.4337C26.6639 60.8662 24.6308 53.1651 24.6308 44.3303C24.6308 34.9482 26.6249 26.9735 30.613 20.406C34.6011 13.7604 40.4269 8.71752 48.0903 5.27742C55.7538 1.75914 65.0202 0 75.8898 0C78.2358 0 80.7772 0.156368 83.5142 0.469104C86.3293 0.703656 88.9098 1.01639 91.2558 1.40731C93.6799 1.72005 95.5177 2.07188 96.7688 2.4628H141.694V17.826L119.642 21.9306C121.753 24.9016 123.434 28.3026 124.686 32.1336C125.937 35.8865 126.562 39.9911 126.562 44.4476C126.562 57.8953 121.91 68.4892 112.604 76.2294C103.377 83.8914 90.6302 87.7224 74.3649 87.7224C70.455 87.5661 66.6624 87.2533 62.9871 86.7842C60.1719 88.5043 58.0215 90.4198 56.5357 92.5308C55.05 94.5635 54.3071 96.87 54.3071 99.4501C54.3071 101.561 55.05 103.281 56.5357 104.61C58.0215 105.861 60.2111 106.799 63.1044 107.425C66.0759 108.05 69.6731 108.363 73.8958 108.363H96.2996C110.532 108.363 121.401 111.373 128.908 117.393C136.415 123.413 140.169 132.248 140.169 143.898C140.169 158.674 134.069 170.05 121.87 178.025C109.672 186.078 92.116 190.104 69.2039 190.104ZM70.2596 170.754C79.878 170.754 87.9715 169.816 94.5402 167.939C101.109 166.063 106.074 163.365 109.437 159.847C112.799 156.407 114.481 152.302 114.481 147.533C114.481 143.311 113.425 140.067 111.314 137.799C109.202 135.532 106.035 133.968 101.813 133.108C97.5899 132.248 92.3506 131.818 86.0947 131.818H65.6849C60.602 131.818 56.1056 132.6 52.1957 134.164C48.2858 135.806 45.2361 138.151 43.0465 141.2C40.9352 144.249 39.8795 147.924 39.8795 152.224C39.8795 158.166 42.4991 162.74 47.7384 165.946C53.0559 169.151 60.563 170.754 70.2596 170.754ZM75.6552 69.6619C83.7097 69.6619 89.6919 67.4728 93.6018 63.0945C97.5117 58.638 99.4666 52.3833 99.4666 44.3303C99.4666 35.5737 97.4335 29.0063 93.3672 24.628C89.3791 20.2497 83.436 18.0605 75.5379 18.0605C67.7963 18.0605 61.8923 20.2887 57.826 24.7452C53.8379 29.2017 51.8438 35.8083 51.8438 44.5649C51.8438 52.4615 53.8379 58.638 57.826 63.0945C61.8923 67.4728 67.8354 69.6619 75.6552 69.6619Z" fill="#DAD4C5"/>
</mask>
<g mask="url(#mask0_1_1396)">
<path d="M69.2039 190.104C51.6093 190.104 38.12 186.938 28.7362 180.605C19.3524 174.272 14.6605 165.398 14.6605 153.983C14.6605 146.009 17.1628 139.246 22.1675 133.695C27.1722 128.222 34.3274 124.43 43.633 122.319C40.1141 120.755 37.0643 118.331 34.4838 115.048C31.9814 111.686 30.7303 107.972 30.7303 103.907C30.7303 99.0591 32.0987 94.9154 34.8357 91.4753C37.5726 88.0352 41.6781 84.7124 47.1519 81.5068C40.3487 78.614 34.8748 73.923 30.7303 67.4337C26.6639 60.8662 24.6308 53.1651 24.6308 44.3303C24.6308 34.9482 26.6249 26.9735 30.613 20.406C34.6011 13.7604 40.4269 8.71752 48.0903 5.27742C55.7538 1.75914 65.0202 0 75.8898 0C78.2358 0 80.7772 0.156368 83.5142 0.469104C86.3293 0.703656 88.9098 1.01639 91.2558 1.40731C93.6799 1.72005 95.5177 2.07188 96.7688 2.4628H141.694V17.826L119.642 21.9306C121.753 24.9016 123.434 28.3026 124.686 32.1336C125.937 35.8865 126.562 39.9911 126.562 44.4476C126.562 57.8953 121.91 68.4892 112.604 76.2294C103.377 83.8914 90.6302 87.7224 74.3649 87.7224C70.455 87.5661 66.6624 87.2533 62.9871 86.7842C60.1719 88.5043 58.0215 90.4198 56.5357 92.5308C55.05 94.5635 54.3071 96.87 54.3071 99.4501C54.3071 101.561 55.05 103.281 56.5357 104.61C58.0215 105.861 60.2111 106.799 63.1044 107.425C66.0759 108.05 69.6731 108.363 73.8958 108.363H96.2996C110.532 108.363 121.401 111.373 128.908 117.393C136.415 123.413 140.169 132.248 140.169 143.898C140.169 158.674 134.069 170.05 121.87 178.025C109.672 186.078 92.116 190.104 69.2039 190.104ZM70.2596 170.754C79.878 170.754 87.9715 169.816 94.5402 167.939C101.109 166.063 106.074 163.365 109.437 159.847C112.799 156.407 114.481 152.302 114.481 147.533C114.481 143.311 113.425 140.067 111.314 137.799C109.202 135.532 106.035 133.968 101.813 133.108C97.5899 132.248 92.3506 131.818 86.0947 131.818H65.6849C60.602 131.818 56.1056 132.6 52.1957 134.164C48.2858 135.806 45.2361 138.151 43.0465 141.2C40.9352 144.249 39.8795 147.924 39.8795 152.224C39.8795 158.166 42.4991 162.74 47.7384 165.946C53.0559 169.151 60.563 170.754 70.2596 170.754ZM75.6552 69.6619C83.7097 69.6619 89.6919 67.4728 93.6018 63.0945C97.5117 58.638 99.4666 52.3833 99.4666 44.3303C99.4666 35.5737 97.4335 29.0063 93.3672 24.628C89.3791 20.2497 83.436 18.0605 75.5379 18.0605C67.7963 18.0605 61.8923 20.2887 57.826 24.7452C53.8379 29.2017 51.8438 35.8083 51.8438 44.5649C51.8438 52.4615 53.8379 58.638 57.826 63.0945C61.8923 67.4728 67.8354 69.6619 75.6552 69.6619Z" fill="#DAD4C5"/>
<g filter="url(#filter0_f_1_1396)">
<ellipse cx="75.2785" cy="78.1701" rx="32.0916" ry="21.6902" transform="rotate(96.9963 75.2785 78.1701)" fill="#2B2B2B" fill-opacity="0.5"/>
</g>
<g filter="url(#filter1_f_1_1396)">
<ellipse cx="103.601" cy="-7.52666" rx="17.7215" ry="30.3186" transform="rotate(96.9963 103.601 -7.52666)" fill="#2B2B2B" fill-opacity="0.3"/>
</g>
</g>
<defs>
<filter id="filter0_f_1_1396" x="13.394" y="6.2063" width="123.769" height="143.928" filterUnits="userSpaceOnUse" color-interpolation-filters="sRGB">
<feFlood flood-opacity="0" result="BackgroundImageFix"/>
<feBlend mode="normal" in="SourceGraphic" in2="BackgroundImageFix" result="shape"/>
<feGaussianBlur stdDeviation="20" result="effect1_foregroundBlur_1_1396"/>
</filter>
<filter id="filter1_f_1_1396" x="33.4291" y="-65.5033" width="140.343" height="115.953" filterUnits="userSpaceOnUse" color-interpolation-filters="sRGB">
<feFlood flood-opacity="0" result="BackgroundImageFix"/>
<feBlend mode="normal" in="SourceGraphic" in2="BackgroundImageFix" result="shape"/>
<feGaussianBlur stdDeviation="20" result="effect1_foregroundBlur_1_1396"/>
</filter>
</defs>
</svg>
