<svg width="1090" height="333" viewBox="0 0 1090 333" fill="none" xmlns="http://www.w3.org/2000/svg">
<mask id="mask0_1_437" style="mask-type:alpha" maskUnits="userSpaceOnUse" x="0" y="0" width="1090" height="333">
<path fill-rule="evenodd" clip-rule="evenodd" d="M652.356 316.36C668.794 327.453 692.422 333 723.242 333C763.377 333 794.128 325.947 815.497 311.841C836.865 297.872 847.549 277.945 847.549 252.061C847.549 231.655 840.974 216.18 827.825 205.634C814.675 195.089 795.635 189.816 770.705 189.816H731.461C724.064 189.816 717.763 189.268 712.558 188.173C707.49 187.077 703.654 185.434 701.052 183.242C698.449 180.914 697.148 177.901 697.148 174.204C697.148 169.684 698.449 165.644 701.052 162.083C703.654 158.386 707.421 155.03 712.352 152.017C718.79 152.839 725.434 153.387 732.283 153.661C760.774 153.661 783.101 146.95 799.265 133.529C815.565 119.97 823.715 101.413 823.715 77.8575C823.715 70.0512 822.62 62.8612 820.428 56.2875C818.236 49.5768 815.291 43.6194 811.593 38.4152L850.221 31.2252V4.314H771.527C769.335 3.62924 766.116 3.01296 761.87 2.46515C757.761 1.78038 753.24 1.23257 748.309 0.821715C743.515 0.273905 739.063 0 734.954 0C715.914 0 699.682 3.08143 686.258 9.24429C672.834 15.2702 662.63 24.1036 655.644 35.7446C648.658 47.2486 645.165 61.2178 645.165 77.6521C645.165 93.1277 648.726 106.618 655.849 118.122C663.109 129.489 672.697 137.706 684.615 142.773C675.026 148.388 667.835 154.209 663.04 160.234C658.246 166.26 655.849 173.519 655.849 182.01C655.849 189.131 658.041 195.637 662.424 201.526C666.944 207.278 672.286 211.523 678.451 214.262C662.15 217.96 649.617 224.602 640.85 234.189C632.083 243.912 627.7 255.759 627.7 269.728C627.7 289.723 635.919 305.267 652.356 316.36ZM767.623 294.174C756.117 297.461 741.94 299.104 725.091 299.104C708.106 299.104 694.956 296.297 685.642 290.682C676.464 285.067 671.876 277.055 671.876 266.647C671.876 259.114 673.725 252.677 677.423 247.336C681.259 241.995 686.601 237.886 693.45 235.01C700.298 232.271 708.175 230.902 717.078 230.902H752.829C763.788 230.902 772.965 231.655 780.362 233.162C787.759 234.668 793.306 237.407 797.005 241.379C800.703 245.35 802.552 251.034 802.552 258.429C802.552 266.783 799.607 273.973 793.717 279.999C787.827 286.162 779.129 290.887 767.623 294.174ZM765.979 110.521C759.13 118.19 748.652 122.025 734.543 122.025C720.845 122.025 710.435 118.19 703.312 110.521C696.326 102.714 692.833 91.8951 692.833 78.0629C692.833 62.7242 696.326 51.1518 703.312 43.3455C710.435 35.5392 720.777 31.636 734.337 31.636C748.172 31.636 758.582 35.4707 765.568 43.14C772.691 50.8094 776.253 62.3134 776.253 77.6521C776.253 91.7582 772.828 102.714 765.979 110.521ZM257.039 0.205429C282.516 0.205429 301.693 6.77915 314.569 19.9266C327.582 33.074 334.089 54.1647 334.089 83.1986V201.929C334.089 218.498 320.657 231.929 304.089 231.929H285.804V91.8267C285.804 74.5706 282.448 61.5602 275.736 52.7952C269.024 44.0302 258.819 39.6477 245.122 39.6477C225.945 39.6477 212.11 45.8106 203.617 58.1363C195.262 70.3251 191.084 88.0605 191.084 111.342V201.929C191.084 218.498 177.652 231.929 161.084 231.929H142.799V91.8267C142.799 80.3226 141.292 70.736 138.279 63.0666C135.402 55.2603 130.951 49.4399 124.924 45.6052C118.897 41.6336 111.294 39.6477 102.117 39.6477C88.83 39.6477 78.2143 42.6607 70.2696 48.6866C62.4618 54.7125 56.8457 63.6144 53.4213 75.3924C49.9969 87.0333 48.2846 101.345 48.2846 118.327V231.929H0V4.51943H37.6004L44.3808 35.1283H47.0518C51.7091 27.1851 57.4621 20.6798 64.311 15.6126C71.2969 10.4084 79.0361 6.57372 87.5287 4.10857C96.0214 1.50648 104.856 0.205429 114.034 0.205429C131.019 0.205429 145.333 3.21838 156.976 9.24429C168.62 15.1333 177.318 24.1721 183.071 36.3609H186.769C193.892 24.0352 203.823 14.9278 216.562 9.03887C229.301 3.14991 242.793 0.205429 257.039 0.205429ZM602.839 117.711C602.839 136.61 600.373 153.387 595.442 168.041C590.511 182.695 583.319 195.089 573.868 205.223C564.417 215.221 553.047 222.89 539.761 228.231C526.474 233.436 511.475 236.038 494.763 236.038C479.148 236.038 464.834 233.436 451.821 228.231C438.808 222.89 427.507 215.221 417.919 205.223C408.467 195.089 401.139 182.695 395.934 168.041C390.729 153.387 388.126 136.61 388.126 117.711C388.126 92.6484 392.441 71.4207 401.071 54.0278C409.837 36.4978 422.302 23.145 438.466 13.9692C454.629 4.79334 473.874 0.205429 496.202 0.205429C517.159 0.205429 535.651 4.79334 551.678 13.9692C567.704 23.145 580.237 36.4978 589.278 54.0278C598.318 71.5577 602.839 92.7853 602.839 117.711ZM437.849 117.711C437.849 134.282 439.835 148.457 443.808 160.234C447.917 172.012 454.218 181.051 462.711 187.351C471.203 193.514 482.161 196.595 495.585 196.595C509.009 196.595 519.967 193.514 528.46 187.351C536.953 181.051 543.185 172.012 547.157 160.234C551.13 148.457 553.116 134.282 553.116 117.711C553.116 101.139 551.13 87.1018 547.157 75.5978C543.185 63.9568 536.953 55.1234 528.46 49.0975C519.967 42.9346 508.941 39.8532 495.38 39.8532C475.381 39.8532 460.793 46.5638 451.615 59.9852C442.438 73.4065 437.849 92.6484 437.849 117.711ZM1090 4.51943V231.929H1051.99L1045.41 201.32H1042.74C1037.95 209.126 1031.85 215.632 1024.46 220.836C1017.06 225.903 1008.84 229.669 999.8 232.134C990.76 234.737 981.24 236.038 971.24 236.038C954.118 236.038 939.462 233.162 927.271 227.41C915.216 221.521 905.97 212.482 899.532 200.293C893.095 188.104 889.875 172.355 889.875 153.044V4.51943H938.366V144.006C938.366 161.672 941.927 174.888 949.05 183.653C956.31 192.418 967.542 196.801 982.746 196.801C997.403 196.801 1009.05 193.788 1017.68 187.762C1026.31 181.736 1032.4 172.834 1035.96 161.056C1039.51 149.753 1041.36 135.99 1041.5 119.767C1041.62 119.267 1041.7 118.752 1041.74 118.229C1041.94 115.609 1042.13 112.986 1042.32 110.364V110.362L1042.33 110.303C1042.42 108.98 1042.52 107.658 1042.61 106.336C1042.61 106.319 1042.62 106.301 1042.62 106.284C1042.62 106.268 1042.62 106.251 1042.62 106.235L1042.62 106.198C1042.68 105.978 1042.73 105.754 1042.76 105.528L1043.37 102.463C1043.4 102.464 1043.42 102.463 1043.45 102.461C1043.57 102.451 1043.69 102.415 1043.79 102.354C1044.01 102.215 1044.21 102.053 1044.42 101.891L1044.42 101.891C1044.47 101.85 1044.52 101.809 1044.57 101.769C1044.62 101.729 1044.67 101.69 1044.72 101.652L1048.49 98.8044L1051.47 96.5538C1053.17 95.2997 1054.57 93.6202 1055.58 91.6494C1056.52 89.79 1056.91 87.7907 1057.32 85.7504L1057.32 85.7493L1057.32 85.7483L1057.32 85.7473L1057.41 85.2936L1059.11 76.7002L1061.24 65.9746L1062.93 57.476C1063.37 55.2744 1063.74 53.1397 1063.74 50.8565C1063.72 45.8285 1062.28 40.9347 1059.61 36.8838C1056.95 32.833 1053.2 29.8353 1048.9 28.3247L1041.82 25.8143L1041.51 25.7046V4.51943H1090Z" fill="#DAD4C5"/>
</mask>
<g mask="url(#mask0_1_437)">
<path fill-rule="evenodd" clip-rule="evenodd" d="M652.356 316.36C668.794 327.453 692.422 333 723.242 333C763.377 333 794.128 325.947 815.497 311.841C836.865 297.872 847.549 277.945 847.549 252.061C847.549 231.655 840.974 216.18 827.825 205.634C814.675 195.089 795.635 189.816 770.705 189.816H731.461C724.064 189.816 717.763 189.268 712.558 188.173C707.49 187.077 703.654 185.434 701.052 183.242C698.449 180.914 697.148 177.901 697.148 174.204C697.148 169.684 698.449 165.644 701.052 162.083C703.654 158.386 707.421 155.03 712.352 152.017C718.79 152.839 725.434 153.387 732.283 153.661C760.774 153.661 783.101 146.95 799.265 133.529C815.565 119.97 823.715 101.413 823.715 77.8575C823.715 70.0512 822.62 62.8612 820.428 56.2875C818.236 49.5768 815.291 43.6194 811.593 38.4152L850.221 31.2252V4.314H771.527C769.335 3.62924 766.116 3.01296 761.87 2.46515C757.761 1.78038 753.24 1.23257 748.309 0.821715C743.515 0.273905 739.063 0 734.954 0C715.914 0 699.682 3.08143 686.258 9.24429C672.834 15.2702 662.63 24.1036 655.644 35.7446C648.658 47.2486 645.165 61.2178 645.165 77.6521C645.165 93.1277 648.726 106.618 655.849 118.122C663.109 129.489 672.697 137.706 684.615 142.773C675.026 148.388 667.835 154.209 663.04 160.234C658.246 166.26 655.849 173.519 655.849 182.01C655.849 189.131 658.041 195.637 662.424 201.526C666.944 207.278 672.286 211.523 678.451 214.262C662.15 217.96 649.617 224.602 640.85 234.189C632.083 243.912 627.7 255.759 627.7 269.728C627.7 289.723 635.919 305.267 652.356 316.36ZM767.623 294.174C756.117 297.461 741.94 299.104 725.091 299.104C708.106 299.104 694.956 296.297 685.642 290.682C676.464 285.067 671.876 277.055 671.876 266.647C671.876 259.114 673.725 252.677 677.423 247.336C681.259 241.995 686.601 237.886 693.45 235.01C700.298 232.271 708.175 230.902 717.078 230.902H752.829C763.788 230.902 772.965 231.655 780.362 233.162C787.759 234.668 793.306 237.407 797.005 241.379C800.703 245.35 802.552 251.034 802.552 258.429C802.552 266.783 799.607 273.973 793.717 279.999C787.827 286.162 779.129 290.887 767.623 294.174ZM765.979 110.521C759.13 118.19 748.652 122.025 734.543 122.025C720.845 122.025 710.435 118.19 703.312 110.521C696.326 102.714 692.833 91.8951 692.833 78.0629C692.833 62.7242 696.326 51.1518 703.312 43.3455C710.435 35.5392 720.777 31.636 734.337 31.636C748.172 31.636 758.582 35.4707 765.568 43.14C772.691 50.8094 776.253 62.3134 776.253 77.6521C776.253 91.7582 772.828 102.714 765.979 110.521ZM257.039 0.205429C282.516 0.205429 301.693 6.77915 314.569 19.9266C327.582 33.074 334.089 54.1647 334.089 83.1986V201.929C334.089 218.498 320.657 231.929 304.089 231.929H285.804V91.8267C285.804 74.5706 282.448 61.5602 275.736 52.7952C269.024 44.0302 258.819 39.6477 245.122 39.6477C225.945 39.6477 212.11 45.8106 203.617 58.1363C195.262 70.3251 191.084 88.0605 191.084 111.342V201.929C191.084 218.498 177.652 231.929 161.084 231.929H142.799V91.8267C142.799 80.3226 141.292 70.736 138.279 63.0666C135.402 55.2603 130.951 49.4399 124.924 45.6052C118.897 41.6336 111.294 39.6477 102.117 39.6477C88.83 39.6477 78.2143 42.6607 70.2696 48.6866C62.4618 54.7125 56.8457 63.6144 53.4213 75.3924C49.9969 87.0333 48.2846 101.345 48.2846 118.327V231.929H0V4.51943H37.6004L44.3808 35.1283H47.0518C51.7091 27.1851 57.4621 20.6798 64.311 15.6126C71.2969 10.4084 79.0361 6.57372 87.5287 4.10857C96.0214 1.50648 104.856 0.205429 114.034 0.205429C131.019 0.205429 145.333 3.21838 156.976 9.24429C168.62 15.1333 177.318 24.1721 183.071 36.3609H186.769C193.892 24.0352 203.823 14.9278 216.562 9.03887C229.301 3.14991 242.793 0.205429 257.039 0.205429ZM602.839 117.711C602.839 136.61 600.373 153.387 595.442 168.041C590.511 182.695 583.319 195.089 573.868 205.223C564.417 215.221 553.047 222.89 539.761 228.231C526.474 233.436 511.475 236.038 494.763 236.038C479.148 236.038 464.834 233.436 451.821 228.231C438.808 222.89 427.507 215.221 417.919 205.223C408.467 195.089 401.139 182.695 395.934 168.041C390.729 153.387 388.126 136.61 388.126 117.711C388.126 92.6484 392.441 71.4207 401.071 54.0278C409.837 36.4978 422.302 23.145 438.466 13.9692C454.629 4.79334 473.874 0.205429 496.202 0.205429C517.159 0.205429 535.651 4.79334 551.678 13.9692C567.704 23.145 580.237 36.4978 589.278 54.0278C598.318 71.5577 602.839 92.7853 602.839 117.711ZM437.849 117.711C437.849 134.282 439.835 148.457 443.808 160.234C447.917 172.012 454.218 181.051 462.711 187.351C471.203 193.514 482.161 196.595 495.585 196.595C509.009 196.595 519.967 193.514 528.46 187.351C536.953 181.051 543.185 172.012 547.157 160.234C551.13 148.457 553.116 134.282 553.116 117.711C553.116 101.139 551.13 87.1018 547.157 75.5978C543.185 63.9568 536.953 55.1234 528.46 49.0975C519.967 42.9346 508.941 39.8532 495.38 39.8532C475.381 39.8532 460.793 46.5638 451.615 59.9852C442.438 73.4065 437.849 92.6484 437.849 117.711ZM1090 4.51943V231.929H1051.99L1045.41 201.32H1042.74C1037.95 209.126 1031.85 215.632 1024.46 220.836C1017.06 225.903 1008.84 229.669 999.8 232.134C990.76 234.737 981.24 236.038 971.24 236.038C954.118 236.038 939.462 233.162 927.271 227.41C915.216 221.521 905.97 212.482 899.532 200.293C893.095 188.104 889.875 172.355 889.875 153.044V4.51943H938.366V144.006C938.366 161.672 941.927 174.888 949.05 183.653C956.31 192.418 967.542 196.801 982.746 196.801C997.403 196.801 1009.05 193.788 1017.68 187.762C1026.31 181.736 1032.4 172.834 1035.96 161.056C1039.51 149.753 1041.36 135.99 1041.5 119.767C1041.62 119.267 1041.7 118.752 1041.74 118.229C1041.94 115.609 1042.13 112.986 1042.32 110.364V110.362L1042.33 110.303C1042.42 108.98 1042.52 107.658 1042.61 106.336C1042.61 106.319 1042.62 106.301 1042.62 106.284C1042.62 106.268 1042.62 106.251 1042.62 106.235L1042.62 106.198C1042.68 105.978 1042.73 105.754 1042.76 105.528L1043.37 102.463C1043.4 102.464 1043.42 102.463 1043.45 102.461C1043.57 102.451 1043.69 102.415 1043.79 102.354C1044.01 102.215 1044.21 102.053 1044.42 101.891L1044.42 101.891C1044.47 101.85 1044.52 101.809 1044.57 101.769C1044.62 101.729 1044.67 101.69 1044.72 101.652L1048.49 98.8044L1051.47 96.5538C1053.17 95.2997 1054.57 93.6202 1055.58 91.6494C1056.52 89.79 1056.91 87.7907 1057.32 85.7504L1057.32 85.7493L1057.32 85.7483L1057.32 85.7473L1057.41 85.2936L1059.11 76.7002L1061.24 65.9746L1062.93 57.476C1063.37 55.2744 1063.74 53.1397 1063.74 50.8565C1063.72 45.8285 1062.28 40.9347 1059.61 36.8838C1056.95 32.833 1053.2 29.8353 1048.9 28.3247L1041.82 25.8143L1041.51 25.7046V4.51943H1090Z" fill="#DAD4C5"/>
<g filter="url(#filter0_f_1_437)">
<ellipse cx="1032.14" cy="104.679" rx="18" ry="50.5" transform="rotate(12.0377 1032.14 104.679)" fill="#2B2B2B"/>
</g>
<g filter="url(#filter1_f_1_437)">
<ellipse cx="48.2437" cy="28.4305" rx="13.7975" ry="23.6201" transform="rotate(87.3005 48.2437 28.4305)" fill="#2B2B2B"/>
</g>
<g filter="url(#filter2_f_1_437)">
<ellipse cx="733.883" cy="136.928" rx="56.2139" ry="37.994" transform="rotate(96.9963 733.883 136.928)" fill="#2B2B2B" fill-opacity="0.5"/>
</g>
<g filter="url(#filter3_f_1_437)">
<ellipse cx="196.151" cy="244.395" rx="55.4062" ry="20.3495" transform="rotate(139.659 196.151 244.395)" fill="#2B2B2B"/>
</g>
<g filter="url(#filter4_f_1_437)">
<ellipse cx="274" cy="224.842" rx="70.8516" ry="19.9583" transform="rotate(-153.769 274 224.842)" fill="#2B2B2B"/>
</g>
<g filter="url(#filter5_f_1_437)">
<ellipse cx="251.248" cy="65.956" rx="25.4525" ry="25.8303" transform="rotate(-153.769 251.248 65.956)" fill="#2B2B2B"/>
</g>
<g filter="url(#filter6_f_1_437)">
<ellipse cx="154.248" cy="7.956" rx="25.4525" ry="25.8303" transform="rotate(-153.769 154.248 7.956)" fill="#2B2B2B" fill-opacity="0.5"/>
</g>
<g filter="url(#filter7_f_1_437)">
<ellipse cx="187.248" cy="1.956" rx="25.4525" ry="25.8303" transform="rotate(-153.769 187.248 1.956)" fill="#2B2B2B" fill-opacity="0.3"/>
</g>
<g filter="url(#filter8_f_1_437)">
<ellipse cx="107.248" cy="10.956" rx="25.4525" ry="25.8303" transform="rotate(-153.769 107.248 10.956)" fill="#2B2B2B" fill-opacity="0.5"/>
</g>
<g filter="url(#filter9_f_1_437)">
<ellipse cx="66.2482" cy="12.956" rx="25.4525" ry="25.8303" transform="rotate(-153.769 66.2482 12.956)" fill="#2B2B2B" fill-opacity="0.45"/>
</g>
<g filter="url(#filter10_f_1_437)">
<ellipse cx="173.823" cy="163.704" rx="6.57101" ry="50.9407" transform="rotate(-105.664 173.823 163.704)" fill="#2B2B2B"/>
</g>
<g filter="url(#filter11_f_1_437)">
<ellipse cx="783.494" cy="-13.1842" rx="31.0422" ry="53.1082" transform="rotate(96.9963 783.494 -13.1842)" fill="#2B2B2B" fill-opacity="0.3"/>
</g>
</g>
<defs>
<filter id="filter0_f_1_437" x="971.619" y="15.145" width="121.035" height="179.069" filterUnits="userSpaceOnUse" color-interpolation-filters="sRGB">
<feFlood flood-opacity="0" result="BackgroundImageFix"/>
<feBlend mode="normal" in="SourceGraphic" in2="BackgroundImageFix" result="shape"/>
<feGaussianBlur stdDeviation="20" result="effect1_foregroundBlur_1_437"/>
</filter>
<filter id="filter1_f_1_437" x="-15.3593" y="-25.3972" width="127.206" height="107.655" filterUnits="userSpaceOnUse" color-interpolation-filters="sRGB">
<feFlood flood-opacity="0" result="BackgroundImageFix"/>
<feBlend mode="normal" in="SourceGraphic" in2="BackgroundImageFix" result="shape"/>
<feGaussianBlur stdDeviation="20" result="effect1_foregroundBlur_1_437"/>
</filter>
<filter id="filter2_f_1_437" x="655.548" y="40.9382" width="156.669" height="191.98" filterUnits="userSpaceOnUse" color-interpolation-filters="sRGB">
<feFlood flood-opacity="0" result="BackgroundImageFix"/>
<feBlend mode="normal" in="SourceGraphic" in2="BackgroundImageFix" result="shape"/>
<feGaussianBlur stdDeviation="20" result="effect1_foregroundBlur_1_437"/>
</filter>
<filter id="filter3_f_1_437" x="111.901" y="165.308" width="168.499" height="158.173" filterUnits="userSpaceOnUse" color-interpolation-filters="sRGB">
<feFlood flood-opacity="0" result="BackgroundImageFix"/>
<feBlend mode="normal" in="SourceGraphic" in2="BackgroundImageFix" result="shape"/>
<feGaussianBlur stdDeviation="20" result="effect1_foregroundBlur_1_437"/>
</filter>
<filter id="filter4_f_1_437" x="169.828" y="148.764" width="208.345" height="152.156" filterUnits="userSpaceOnUse" color-interpolation-filters="sRGB">
<feFlood flood-opacity="0" result="BackgroundImageFix"/>
<feBlend mode="normal" in="SourceGraphic" in2="BackgroundImageFix" result="shape"/>
<feGaussianBlur stdDeviation="20" result="effect1_foregroundBlur_1_437"/>
</filter>
<filter id="filter5_f_1_437" x="185.716" y="0.193115" width="131.065" height="131.526" filterUnits="userSpaceOnUse" color-interpolation-filters="sRGB">
<feFlood flood-opacity="0" result="BackgroundImageFix"/>
<feBlend mode="normal" in="SourceGraphic" in2="BackgroundImageFix" result="shape"/>
<feGaussianBlur stdDeviation="20" result="effect1_foregroundBlur_1_437"/>
</filter>
<filter id="filter6_f_1_437" x="88.7158" y="-57.8069" width="131.065" height="131.526" filterUnits="userSpaceOnUse" color-interpolation-filters="sRGB">
<feFlood flood-opacity="0" result="BackgroundImageFix"/>
<feBlend mode="normal" in="SourceGraphic" in2="BackgroundImageFix" result="shape"/>
<feGaussianBlur stdDeviation="20" result="effect1_foregroundBlur_1_437"/>
</filter>
<filter id="filter7_f_1_437" x="121.716" y="-63.8069" width="131.065" height="131.526" filterUnits="userSpaceOnUse" color-interpolation-filters="sRGB">
<feFlood flood-opacity="0" result="BackgroundImageFix"/>
<feBlend mode="normal" in="SourceGraphic" in2="BackgroundImageFix" result="shape"/>
<feGaussianBlur stdDeviation="20" result="effect1_foregroundBlur_1_437"/>
</filter>
<filter id="filter8_f_1_437" x="41.7158" y="-54.8069" width="131.065" height="131.526" filterUnits="userSpaceOnUse" color-interpolation-filters="sRGB">
<feFlood flood-opacity="0" result="BackgroundImageFix"/>
<feBlend mode="normal" in="SourceGraphic" in2="BackgroundImageFix" result="shape"/>
<feGaussianBlur stdDeviation="20" result="effect1_foregroundBlur_1_437"/>
</filter>
<filter id="filter9_f_1_437" x="0.71582" y="-52.8069" width="131.065" height="131.526" filterUnits="userSpaceOnUse" color-interpolation-filters="sRGB">
<feFlood flood-opacity="0" result="BackgroundImageFix"/>
<feBlend mode="normal" in="SourceGraphic" in2="BackgroundImageFix" result="shape"/>
<feGaussianBlur stdDeviation="20" result="effect1_foregroundBlur_1_437"/>
</filter>
<filter id="filter10_f_1_437" x="84.7415" y="108.561" width="178.163" height="110.286" filterUnits="userSpaceOnUse" color-interpolation-filters="sRGB">
<feFlood flood-opacity="0" result="BackgroundImageFix"/>
<feBlend mode="normal" in="SourceGraphic" in2="BackgroundImageFix" result="shape"/>
<feGaussianBlur stdDeviation="20" result="effect1_foregroundBlur_1_437"/>
</filter>
<filter id="filter11_f_1_437" x="690.643" y="-84.6733" width="185.701" height="142.978" filterUnits="userSpaceOnUse" color-interpolation-filters="sRGB">
<feFlood flood-opacity="0" result="BackgroundImageFix"/>
<feBlend mode="normal" in="SourceGraphic" in2="BackgroundImageFix" result="shape"/>
<feGaussianBlur stdDeviation="20" result="effect1_foregroundBlur_1_437"/>
</filter>
</defs>
</svg>
