<svg width="201" height="336" viewBox="0 0 201 336" fill="none" xmlns="http://www.w3.org/2000/svg">
<path d="M25.1839 78.0997L23.2808 66.8923C23.0694 58.6454 33.1175 53.0939 40.6105 50.5682L47.3872 48.2839L49.2903 70.2757L46.1183 76.408" fill="#FC7F3A"/>
<path d="M25.9362 77.8921L24.8852 71.7029L24.2267 67.8254C24.1698 67.4901 24.0983 67.1537 24.0554 66.8164C24.0475 66.7538 24.0572 66.6012 24.0585 66.7667C24.0509 66.3039 24.0777 65.8411 24.1388 65.3822C24.6802 61.5696 27.5673 58.5599 30.5756 56.4081C33.7349 54.212 37.2002 52.4929 40.8601 51.3059C43.1042 50.5473 45.349 49.7906 47.5945 49.0359L46.607 48.2837L47.2514 55.7321L48.2741 67.5491L48.51 70.2754L48.6165 69.8818L45.4448 76.0139C44.9842 76.9045 46.33 77.6944 46.792 76.8014L49.6899 71.1988C49.9279 70.8454 50.0524 70.4277 50.0467 70.0016L49.8822 68.1008L48.5555 52.7708L48.1672 48.2836C48.1654 48.164 48.1365 48.0465 48.0826 47.9398C48.0287 47.8331 47.9513 47.74 47.8562 47.6676C47.7611 47.5952 47.6508 47.5453 47.5337 47.5217C47.4165 47.498 47.2955 47.5014 47.1798 47.5313C41.5204 49.439 35.7141 51.1192 30.6824 54.4461C27.3486 56.6505 24.1401 59.6239 22.9515 63.5609C22.535 64.8227 22.4124 66.163 22.5931 67.4794L23.1542 70.7835L24.4317 78.3067C24.5994 79.2945 26.1032 78.8756 25.9362 77.892V77.8921Z" fill="black"/>
<path d="M183.134 0.788574H44.5355C41.9134 0.788574 39.7878 2.9142 39.7878 5.53629V104.952C39.7878 107.574 41.9134 109.699 44.5355 109.699H183.134C185.756 109.699 187.882 107.574 187.882 104.952V5.53629C187.882 2.9142 185.756 0.788574 183.134 0.788574Z" fill="#458DC9"/>
<path d="M183.134 108.919H45.6796C45.312 108.919 44.944 108.925 44.5764 108.919C43.5117 108.915 42.492 108.489 41.7407 107.735C40.9893 106.981 40.5675 105.959 40.5676 104.895C40.5453 103.287 40.5676 101.678 40.5676 100.071V11.2732C40.5676 9.42607 40.5608 7.57876 40.5676 5.73161C40.5758 3.46968 42.2137 1.60909 44.536 1.56869C44.8021 1.56404 45.0688 1.56869 45.3348 1.56869H179.638C180.793 1.56869 181.949 1.54977 183.104 1.56869C184.169 1.57589 185.189 2.00548 185.938 2.76324C186.688 3.52099 187.106 4.54505 187.102 5.61082C187.108 6.13049 187.102 6.65071 187.102 7.17042V102.969C187.102 103.562 187.104 104.156 187.102 104.749C187.094 107.02 185.462 108.87 183.134 108.919C182.131 108.941 182.128 110.501 183.134 110.48C184.608 110.457 186.013 109.856 187.047 108.806C188.082 107.756 188.661 106.342 188.662 104.868C188.669 104.33 188.662 103.792 188.662 103.255V7.10847C188.662 6.60352 188.669 6.09816 188.662 5.59332C188.655 4.12361 188.072 2.7151 187.038 1.6707C186.004 0.626299 184.602 0.0294184 183.132 0.00841154C182.1 -0.0105144 181.066 0.00841154 180.034 0.00841154H45.249C44.876 0.00841154 44.4975 -0.00498758 44.1257 0.0258268C42.7234 0.148349 41.4185 0.793893 40.4703 1.83421C39.5221 2.87453 38.9999 4.23348 39.0075 5.64107C38.9956 7.37308 39.0075 9.10564 39.0075 10.8378V100.139C39.0075 101.729 38.9823 103.32 39.0075 104.91C39.0176 106.377 39.6026 107.783 40.637 108.824C41.6715 109.865 43.0729 110.46 44.5406 110.48C44.8398 110.485 45.1395 110.48 45.4387 110.48H183.134C184.138 110.48 184.14 108.919 183.134 108.919Z" fill="black"/>
<path d="M39.7878 103.35V69.5595L73.1741 33.4778C74.2412 32.3245 75.5312 31.3995 76.9659 30.7588C78.4007 30.1182 79.9504 29.775 81.5215 29.7502C83.0926 29.7254 84.6524 30.0194 86.1067 30.6145C87.5609 31.2096 88.8794 32.0933 89.9824 33.2123L124.016 67.7395L145.856 45.9002C148.013 43.7433 150.931 42.5208 153.981 42.4964C157.031 42.472 159.969 43.6476 162.16 45.7697L187.882 70.6815V116.827H39.948L39.7878 103.35Z" fill="#389B48"/>
<path d="M40.5676 103.35V69.5594L40.3391 70.1111L44.1658 65.9754L53.1424 56.2739L63.5139 45.0651L71.5251 36.4076C73.5472 34.2222 75.4102 31.9902 78.3853 31.0463C80.0741 30.5112 81.8675 30.3942 83.6115 30.7055C85.3555 31.0167 86.9978 31.7468 88.3972 32.8331C89.057 33.387 89.6816 33.9815 90.2676 34.613L97.0803 41.5244L107.485 52.0796L117.552 62.2922L123.2 68.0223L123.465 68.2911C123.612 68.4346 123.81 68.5149 124.016 68.5149C124.222 68.5149 124.42 68.4346 124.568 68.2911L134.599 58.2602C138.473 54.3861 142.347 50.5122 146.221 46.6382C147.614 45.2044 149.37 44.1765 151.302 43.6645C153.235 43.1525 155.27 43.1757 157.19 43.7317C159.524 44.4259 161.2 45.9258 162.888 47.5606L176.113 60.369L183.211 67.2436C184.515 68.507 185.773 69.8661 187.147 71.0553C187.211 71.1108 187.269 71.174 187.33 71.233L187.102 70.6814V116.827L187.882 116.047H45.9606C44.0518 116.047 42.099 115.927 40.1929 116.047C40.1119 116.052 40.0291 116.047 39.9478 116.047L40.7279 116.827L40.588 105.057L40.5677 103.35C40.5558 102.346 38.9955 102.344 39.0075 103.35L39.1475 115.12L39.1677 116.827C39.1709 117.033 39.254 117.23 39.3997 117.375C39.5453 117.521 39.7419 117.604 39.9478 117.607H181.869C183.79 117.607 185.716 117.643 187.637 117.607C187.718 117.606 187.8 117.607 187.882 117.607C188.088 117.604 188.285 117.521 188.43 117.376C188.576 117.23 188.659 117.033 188.662 116.827V72.2597C188.662 71.5664 188.852 70.5762 188.337 70.0362C185.834 67.4144 183.109 64.9731 180.506 62.452L168.143 50.4785L163.893 46.3628C162.857 45.2683 161.697 44.2976 160.437 43.4703C158.65 42.4157 156.628 41.8216 154.554 41.7413C152.48 41.661 150.418 42.0971 148.554 43.0103C146.866 43.8397 145.56 45.0924 144.254 46.3986L133.757 56.8959L124.01 66.6423L123.465 67.1879H124.568L117.869 60.392L104.045 46.3682L92.5069 34.6627C91.8498 33.996 91.1973 33.3244 90.5354 32.6627C88.8994 31.024 86.8412 29.8706 84.5894 29.3308C82.3376 28.791 79.9802 28.8858 77.7791 29.6047C73.8096 30.9434 71.2006 34.4627 68.455 37.43L55.8284 51.076L43.2654 64.6533L39.7893 68.41C39.6089 68.6048 39.4011 68.793 39.2394 69.0043C38.9473 69.386 39.0073 69.7918 39.0073 70.2436V103.35C39.0075 104.354 40.5676 104.355 40.5676 103.35Z" fill="black"/>
<path d="M122.165 34.7271C127.958 34.7271 132.655 30.0305 132.655 24.2371C132.655 18.4436 127.958 13.7471 122.165 13.7471C116.371 13.7471 111.675 18.4436 111.675 24.2371C111.675 30.0305 116.371 34.7271 122.165 34.7271Z" fill="#FFC41F"/>
<path d="M131.875 24.237C131.874 26.2361 131.256 28.1861 130.105 29.8209C128.955 31.4557 127.328 32.6955 125.446 33.3709C123.565 34.0464 121.521 34.1247 119.593 33.5951C117.665 33.0655 115.948 31.9537 114.676 30.4118C113.404 28.8698 112.638 26.9727 112.485 24.9795C112.331 22.9864 112.796 20.9943 113.817 19.2754C114.837 17.5565 116.364 16.1945 118.187 15.3755C120.011 14.5564 122.043 14.3202 124.006 14.699C126.214 15.1424 128.201 16.3329 129.635 18.07C131.068 19.8072 131.859 21.985 131.875 24.237C131.881 25.2406 133.442 25.2429 133.435 24.237C133.442 21.3174 132.318 18.5085 130.3 16.3989C128.281 14.2893 125.525 13.0426 122.608 12.9201C119.691 12.7976 116.839 13.8088 114.651 15.7418C112.463 17.6747 111.108 20.3795 110.87 23.2894C110.632 26.1993 111.529 29.0885 113.373 31.3517C115.218 33.6148 117.867 35.0763 120.765 35.43C123.663 35.7836 126.585 35.0019 128.92 33.2487C131.255 31.4955 132.82 28.9068 133.289 26.025C133.38 25.4333 133.429 24.8357 133.435 24.237C133.442 23.2328 131.881 23.2317 131.875 24.237Z" fill="black"/>
<path d="M95.2888 297.676V316.33L73.5598 320.635L72.9451 292.346" fill="#FC7F3A"/>
<path d="M94.5088 297.676V316.33L95.0814 315.578L87.7119 317.038L76.0313 319.352L73.3523 319.883L74.3398 320.635L74.1311 311.038L73.8011 295.855L73.7249 292.346C73.703 291.343 72.1428 291.34 72.1647 292.346L72.3733 301.942L72.7033 317.126L72.7796 320.635C72.7819 320.754 72.8111 320.871 72.8651 320.978C72.9191 321.084 72.9965 321.177 73.0914 321.25C73.1864 321.322 73.2965 321.372 73.4135 321.396C73.5305 321.419 73.6514 321.417 73.767 321.387L81.1366 319.927L92.8171 317.613L95.4962 317.082C95.6602 317.036 95.8047 316.937 95.908 316.802C96.0112 316.666 96.0676 316.5 96.0687 316.33V297.676C96.0687 296.672 94.5086 296.67 94.5086 297.676H94.5088Z" fill="black"/>
<path d="M72.3193 314.535L72.4062 335.189H118.267C118.267 335.189 119.05 322.166 101.924 320.793C100.383 320.664 98.9486 319.955 97.9089 318.811C96.8692 317.666 96.3017 316.17 96.3206 314.623C96.3296 313.717 96.3395 312.984 96.3494 312.391C96.3546 312.076 96.2969 311.763 96.1797 311.47C96.0625 311.177 95.8882 310.91 95.6669 310.685C95.4456 310.46 95.1817 310.282 94.8907 310.16C94.5996 310.038 94.2872 309.975 93.9717 309.975H92.0089L86.7874 313.197C85.4636 314.014 83.9372 314.443 82.3817 314.435C80.8262 314.428 79.3041 313.984 77.9884 313.154L76.5014 312.216C76.088 311.955 75.6121 311.811 75.1235 311.797C74.635 311.783 74.1517 311.901 73.7242 312.138C73.2968 312.375 72.9409 312.722 72.6937 313.144C72.4466 313.565 72.3173 314.046 72.3193 314.535Z" fill="#458DC9"/>
<path d="M71.5392 314.534L71.5686 321.539L71.6154 332.639L71.6261 335.189C71.6291 335.395 71.7122 335.592 71.8579 335.737C72.0035 335.883 72.2002 335.966 72.4062 335.969H112.616C114.468 335.969 116.335 336.038 118.186 335.969C118.213 335.968 118.24 335.969 118.267 335.969C118.473 335.965 118.669 335.881 118.814 335.736C118.96 335.591 119.043 335.395 119.048 335.189C119.094 333.37 118.749 331.562 118.037 329.887C116.44 325.925 113.213 323.116 109.271 321.577C107.919 321.058 106.52 320.671 105.094 320.421C104.226 320.264 103.349 320.147 102.471 320.062C101.727 320.025 100.993 319.869 100.299 319.597C99.6396 319.307 99.0458 318.886 98.5526 318.361C98.0595 317.836 97.677 317.217 97.428 316.541C97.1822 315.801 97.0727 315.024 97.1046 314.245C97.1139 313.385 97.2403 312.43 97.0352 311.586C96.8482 310.884 96.4295 310.266 95.847 309.832C95.2645 309.398 94.5524 309.173 93.8263 309.195C93.3353 309.193 92.8442 309.195 92.3532 309.195C92.0697 309.171 91.7852 309.226 91.5309 309.354C89.9374 310.247 88.4081 311.28 86.8532 312.24C85.9305 312.849 84.9041 313.285 83.8246 313.525C82.0544 313.861 80.2225 313.55 78.6622 312.649C77.8455 312.177 77.0873 311.534 76.1954 311.209C75.6661 311.026 75.1007 310.973 74.5464 311.053C73.9921 311.133 73.4651 311.345 73.0093 311.67C72.5536 311.996 72.1823 312.426 71.9265 312.924C71.6708 313.422 71.5379 313.974 71.5391 314.534C71.5207 315.539 73.0809 315.539 73.0993 314.534C73.1037 314.18 73.2035 313.834 73.3883 313.532C73.5731 313.23 73.836 312.983 74.1493 312.818C74.4625 312.653 74.8145 312.575 75.1682 312.594C75.5218 312.612 75.864 312.725 76.1586 312.922C77.54 313.764 78.8305 314.646 80.4477 314.998C82.7541 315.497 85.1639 315.093 87.1819 313.87C87.9858 313.383 88.7817 312.883 89.5815 312.389L92.4026 310.649L92.009 310.755C93.0948 310.755 94.6732 310.44 95.343 311.531C95.5404 311.92 95.617 312.359 95.563 312.792C95.5531 313.448 95.53 314.106 95.5407 314.762C95.5588 315.798 95.8031 316.818 96.2564 317.75C96.7087 318.669 97.3604 319.476 98.1639 320.112C98.9675 320.747 99.9028 321.196 100.902 321.424C102 321.665 103.149 321.669 104.26 321.853C105.232 322.011 106.194 322.227 107.141 322.5C110.005 323.334 112.647 324.791 114.577 327.067C115.27 327.905 115.854 328.826 116.315 329.811C116.504 330.203 116.665 330.607 116.799 331.021C116.943 331.444 117.066 331.874 117.169 332.311C117.263 332.715 117.336 333.122 117.398 333.531C117.424 333.696 117.375 333.335 117.394 333.497C117.399 333.539 117.405 333.581 117.409 333.623C117.42 333.716 117.43 333.808 117.439 333.901C117.453 334.041 117.464 334.181 117.473 334.322C117.495 334.61 117.5 334.9 117.487 335.189L118.267 334.409H74.2643C73.6827 334.409 73.0671 334.351 72.4876 334.409C72.461 334.411 72.433 334.409 72.4062 334.409L73.1863 335.189L73.1568 328.184L73.1101 317.084L73.0994 314.534C73.0951 313.531 71.5349 313.528 71.5392 314.534Z" fill="black"/>
<path d="M40.1957 287.408L30.2011 303.159L9.54755 295.152L24.1846 270.937" fill="#FC7F3A"/>
<path d="M39.5219 287.014L36.1463 292.334L30.7645 300.816L29.5276 302.765L30.4086 302.406L23.4038 299.691L12.3011 295.387L9.75467 294.399L10.2209 295.545L15.1863 287.331L23.0423 274.334L24.858 271.33C25.3789 270.469 24.0302 269.683 23.5109 270.543L18.5454 278.757L10.6894 291.754L8.8737 294.758C8.81567 294.862 8.78171 294.977 8.77435 295.096C8.76699 295.214 8.78641 295.333 8.83117 295.443C8.87593 295.553 8.94489 295.652 9.03294 295.731C9.12098 295.811 9.22585 295.87 9.33977 295.904L16.3446 298.619L27.4471 302.924L29.9935 303.911C30.1594 303.956 30.3353 303.945 30.4943 303.88C30.6534 303.815 30.7869 303.7 30.8745 303.552L34.2502 298.233L39.6319 289.751L40.8689 287.802C41.4084 286.951 40.0587 286.168 39.5217 287.014L39.5219 287.014Z" fill="black"/>
<path d="M11.7685 289.336L0.775452 306.823L39.4989 331.394C39.4989 331.394 47.1366 320.817 33.4123 310.482C32.1806 309.547 31.3488 308.18 31.0843 306.657C30.8198 305.133 31.1422 303.566 31.9866 302.27C32.4797 301.51 32.8811 300.896 33.2068 300.401C33.3802 300.138 33.4994 299.842 33.5574 299.532C33.6154 299.222 33.6111 298.903 33.5447 298.595C33.4783 298.286 33.3512 297.994 33.1707 297.735C32.9902 297.477 32.76 297.256 32.4935 297.087L30.8363 296.036L24.7013 295.959C23.1459 295.939 21.6272 295.483 20.3179 294.644C19.0086 293.804 17.9612 292.613 17.2948 291.208L16.5418 289.619C16.3324 289.178 16.0082 288.8 15.6031 288.527C15.198 288.254 14.7268 288.094 14.2389 288.065C13.751 288.036 13.2643 288.139 12.8297 288.362C12.3951 288.586 12.0286 288.922 11.7685 289.336Z" fill="#458DC9"/>
<path d="M11.0949 288.942L7.36693 294.873L1.459 304.27L0.101978 306.429C0.000981497 306.609 -0.0262844 306.82 0.0259438 307.019C0.0781719 307.219 0.205801 307.39 0.381851 307.496L4.24422 309.947L13.4756 315.805L24.6817 322.916L34.3338 329.04C35.8951 330.031 37.4299 331.108 39.0365 332.024C39.06 332.038 39.0824 332.053 39.1053 332.068C39.285 332.168 39.4963 332.194 39.6951 332.142C39.8939 332.09 40.065 331.963 40.1726 331.788C41.4836 329.966 42.1473 327.547 42.3453 325.346C42.8375 319.878 39.8185 314.981 35.8527 311.47C34.6241 310.382 33.1338 309.543 32.3564 308.045C31.7406 306.833 31.6084 305.433 31.9867 304.127C32.238 303.384 32.6003 302.683 33.061 302.048C33.5462 301.424 33.9443 300.737 34.2445 300.007C34.437 299.335 34.4054 298.619 34.1545 297.967C33.9035 297.315 33.4469 296.762 32.8538 296.393C32.499 296.157 32.1341 295.936 31.7744 295.708C31.5008 295.479 31.1734 295.323 30.8229 295.256C30.2117 295.215 29.5884 295.24 28.9761 295.232C27.344 295.212 25.6744 295.293 24.0471 295.144C21.2389 294.888 19.0205 293.033 17.843 290.549C17.4311 289.68 17.09 288.725 16.3261 288.096C15.9404 287.774 15.49 287.538 15.0055 287.405C14.5209 287.273 14.0134 287.245 13.5174 287.326C13.0213 287.406 12.5484 287.592 12.1304 287.871C11.7125 288.15 11.3594 288.515 11.095 288.943C10.5408 289.783 11.8913 290.566 12.4422 289.73C12.6406 289.425 12.9198 289.181 13.2488 289.025C13.5778 288.869 13.9436 288.808 14.3055 288.847C14.6507 288.895 14.9778 289.031 15.255 289.242C15.5321 289.453 15.7499 289.733 15.8872 290.053C16.6054 291.505 17.217 292.926 18.393 294.093C19.9698 295.647 22.0544 296.581 24.264 296.722C25.2799 296.788 26.3077 296.759 27.325 296.772L30.8365 296.816L30.4429 296.71L31.6328 297.465C32.0939 297.682 32.4708 298.045 32.7055 298.497C33.0319 299.302 32.5809 299.934 32.1549 300.585C31.5504 301.415 31.0403 302.311 30.634 303.254C30.014 304.974 30.0959 306.869 30.8621 308.529C31.7488 310.486 33.6191 311.526 35.143 312.928C37.6663 315.249 39.7826 318.118 40.5465 321.512C41.0268 323.669 40.9187 325.916 40.2333 328.017C40.1585 328.254 40.0775 328.488 39.9902 328.721C39.9531 328.819 39.9146 328.917 39.8758 329.015C39.8572 329.062 39.8376 329.109 39.8182 329.156C39.8072 329.183 39.8662 329.051 39.7933 329.213C39.6497 329.532 39.5008 329.848 39.3348 330.157C39.1835 330.449 39.0135 330.731 38.8258 331.001L39.8931 330.721L36.0307 328.27L26.799 322.412L15.5929 315.302L5.94084 309.177L2.73817 307.145C2.24654 306.833 1.7582 306.457 1.23805 306.193C1.2142 306.181 1.19193 306.164 1.16931 306.149L1.44914 307.217L5.177 301.286L11.085 291.889L12.4421 289.73C12.978 288.877 11.6286 288.094 11.0949 288.942Z" fill="black"/>
<path d="M80.874 159.101L78.2091 233.923L47.6654 299.11L14.2742 280.643C14.2742 280.643 36.545 236.712 45.6156 224.494L47.185 189.967C47.5001 183.034 49.5802 176.297 53.2281 170.393L63.2449 154.182" fill="#EA2F2F"/>
<path d="M80.0938 159.101L79.8377 166.29L79.2196 183.645L78.4669 204.778L77.797 223.586L77.443 233.528C77.4301 233.633 77.4263 233.74 77.4316 233.846C77.4664 234.082 77.3075 233.714 77.5313 233.538C77.4089 233.634 77.3198 233.99 77.2559 234.126L75.5333 237.802L68.711 252.363L59.8163 271.346L51.6723 288.727L47.1982 298.276L46.9916 298.717L48.0589 298.437L36.79 292.204L18.8136 282.263L14.6676 279.97L14.9475 281.037C15.8883 279.181 16.8372 277.33 17.794 275.482C20.1149 270.982 22.4606 266.496 24.8309 262.022C27.7711 256.475 30.7621 250.956 33.804 245.463C36.5906 240.459 39.4229 235.472 42.4593 230.614C43.587 228.809 44.741 227.017 45.9909 225.294C46.251 224.974 46.3984 224.578 46.4103 224.167L46.4739 222.764L47.0588 209.897L47.7387 194.934C47.9164 191.026 47.999 187.131 48.842 183.289C49.8172 178.865 51.529 174.636 53.9061 170.779C54.604 169.643 55.3046 168.509 56.0077 167.377L63.3918 155.427L63.9179 154.575C64.4472 153.719 63.0981 152.934 62.5707 153.788L56.5815 163.481C54.0822 167.527 51.368 171.512 49.5333 175.916C47.7294 180.264 46.678 184.887 46.424 189.587C46.3777 190.432 46.3451 191.278 46.3067 192.124L45.7021 205.425L45.0309 220.192L44.854 224.085C44.8404 224.199 44.8352 224.314 44.8383 224.429C44.8392 224.438 44.8291 224.483 44.8356 224.488C44.7255 224.397 45.0497 224.122 44.8346 224.245C44.7517 224.293 44.6715 224.468 44.6163 224.544C44.0466 225.331 43.4989 226.134 42.9623 226.944C40.0255 231.377 37.3621 235.993 34.7386 240.615C31.6261 246.1 28.6087 251.638 25.6335 257.197C23.0138 262.093 20.4271 267.006 17.8732 271.937C16.5028 274.579 15.1415 277.226 13.7891 279.878C13.7261 280.002 13.6632 280.126 13.6003 280.249C13.4996 280.429 13.4725 280.641 13.5247 280.84C13.5769 281.039 13.7044 281.21 13.8802 281.317L25.1491 287.549L43.1255 297.491L47.2715 299.784C47.4506 299.887 47.6628 299.915 47.8624 299.862C48.062 299.81 48.2331 299.682 48.3389 299.504L51.5078 292.742L59.0374 276.672L68.0368 257.465L75.635 241.248L77.9736 236.257C78.2733 235.618 78.6293 234.98 78.8815 234.32C79.1227 233.688 79.0267 232.867 79.0504 232.203L79.2309 227.134L79.8438 209.926L80.5984 188.743L81.2711 169.857L81.6374 159.571L81.6541 159.102C81.6899 158.097 80.1297 158.099 80.0939 159.102L80.0938 159.101Z" fill="black"/>
<path d="M31.1524 306.168C30.8001 306.153 30.4473 306.182 30.1022 306.254C29.4108 306.374 28.7569 306.654 28.1929 307.071C27.7271 307.42 27.3277 307.849 27.0137 308.338C26.911 308.517 26.8828 308.729 26.9351 308.929C26.9875 309.129 27.1162 309.3 27.2936 309.406C27.4732 309.505 27.6846 309.532 27.8835 309.48C28.0824 309.428 28.2534 309.301 28.3609 309.126C28.3994 309.066 28.4385 309.007 28.4797 308.949C28.4997 308.921 28.5201 308.893 28.5409 308.865C28.4706 308.955 28.4614 308.967 28.5131 308.903C28.5981 308.803 28.6826 308.705 28.7755 308.613C28.8632 308.526 28.9564 308.446 29.0505 308.366C29.1144 308.315 29.097 308.328 28.998 308.405C29.0214 308.387 29.045 308.37 29.0688 308.353C29.104 308.328 29.1396 308.303 29.1757 308.279C29.3579 308.16 29.5493 308.056 29.748 307.967C29.8721 307.911 29.5495 308.046 29.7376 307.973C29.7834 307.956 29.8296 307.939 29.8761 307.923C29.9593 307.895 30.0433 307.869 30.1281 307.846C30.2847 307.803 30.4431 307.772 30.603 307.745C30.7767 307.715 30.4099 307.766 30.5315 307.754C30.5652 307.75 30.5989 307.746 30.6326 307.742C30.6891 307.737 30.7456 307.733 30.8023 307.729C30.9189 307.721 31.0359 307.721 31.1526 307.728C31.3592 307.727 31.5571 307.645 31.7032 307.499C31.8493 307.352 31.9317 307.155 31.9327 306.948C31.9277 306.743 31.8439 306.547 31.6987 306.402C31.5534 306.257 31.3579 306.173 31.1526 306.168L31.1524 306.168Z" fill="black"/>
<path d="M32.8349 309.166C32.4826 309.151 32.1298 309.18 31.7847 309.253C31.0933 309.372 30.4394 309.652 29.8754 310.07C29.4096 310.418 29.0103 310.847 28.6963 311.336C28.5936 311.516 28.5653 311.728 28.6177 311.927C28.67 312.127 28.7988 312.298 28.9762 312.404C29.1558 312.504 29.3672 312.53 29.5661 312.478C29.7649 312.426 29.936 312.299 30.0435 312.124C30.0819 312.064 30.1211 312.005 30.1623 311.947C30.1823 311.919 30.2027 311.891 30.2235 311.863C30.1533 311.953 30.144 311.966 30.1957 311.901C30.2807 311.802 30.3652 311.703 30.4581 311.611C30.5458 311.524 30.6389 311.444 30.7331 311.364C30.797 311.313 30.7795 311.326 30.6806 311.403C30.704 311.386 30.7277 311.368 30.7514 311.351C30.7866 311.326 30.8222 311.302 30.8583 311.278C31.0405 311.159 31.2318 311.054 31.4305 310.966C31.5547 310.909 31.2321 311.044 31.4202 310.972C31.4661 310.954 31.5122 310.937 31.5587 310.921C31.6418 310.893 31.7258 310.867 31.8107 310.844C31.9673 310.801 32.1257 310.77 32.2856 310.743C32.4593 310.714 32.0925 310.765 32.2141 310.752C32.2478 310.748 32.2815 310.744 32.3152 310.741C32.3717 310.735 32.4282 310.731 32.4849 310.728C32.6015 310.719 32.7185 310.719 32.8352 310.726C33.0418 310.725 33.2397 310.643 33.3858 310.497C33.5318 310.351 33.6143 310.153 33.6153 309.946C33.6103 309.741 33.5265 309.545 33.3813 309.4C33.236 309.255 33.0405 309.171 32.8352 309.166H32.8349Z" fill="black"/>
<path d="M35.4097 311.627C35.0574 311.612 34.7046 311.641 34.3595 311.713C33.668 311.833 33.0142 312.113 32.4501 312.53C31.9844 312.879 31.585 313.308 31.2711 313.797C31.1683 313.976 31.1401 314.189 31.1924 314.388C31.2448 314.588 31.3735 314.759 31.5509 314.865C31.7306 314.965 31.9419 314.991 32.1408 314.939C32.3397 314.887 32.5107 314.76 32.6182 314.585C32.6567 314.525 32.6958 314.466 32.737 314.408C32.757 314.38 32.7775 314.352 32.7983 314.324C32.728 314.414 32.7187 314.427 32.7704 314.362C32.8554 314.262 32.94 314.164 33.0329 314.072C33.1206 313.985 33.2137 313.905 33.3078 313.825C33.3718 313.774 33.3543 313.787 33.2554 313.864C33.2788 313.847 33.3024 313.829 33.3262 313.812C33.3614 313.787 33.397 313.762 33.433 313.738C33.6152 313.619 33.8066 313.515 34.0053 313.426C34.1294 313.37 33.8068 313.505 33.9949 313.433C34.0408 313.415 34.087 313.398 34.1334 313.382C34.2166 313.354 34.3006 313.328 34.3854 313.305C34.542 313.262 34.7004 313.231 34.8604 313.204C35.034 313.174 34.6672 313.226 34.7888 313.213C34.8226 313.209 34.8562 313.205 34.8899 313.202C34.9464 313.196 35.003 313.192 35.0596 313.189C35.1762 313.18 35.2933 313.18 35.4099 313.187C35.6165 313.186 35.8144 313.104 35.9605 312.958C36.1066 312.812 36.1891 312.614 36.19 312.407C36.185 312.202 36.1013 312.006 35.956 311.861C35.8108 311.716 35.6153 311.632 35.4099 311.627H35.4097Z" fill="black"/>
<path d="M41.3557 326.783C41.042 328.426 40.4114 329.992 39.4989 331.394L0.775452 306.823L2.4931 304.02L2.47171 304.007L5.54336 299.166C5.54336 299.166 11.8432 300.736 15.2653 308.734C18.4309 312.927 22.1686 309.715 26.1663 312.98C30.164 316.245 27.8071 316.763 30.4501 318.405C30.4501 318.405 33.4938 320.543 36.779 319.957C40.0641 319.371 42.1438 321.979 41.3557 326.783Z" fill="white"/>
<path d="M40.6036 326.575C40.3195 328.156 39.7144 329.662 38.8255 331L39.8929 330.72L36.0304 328.27L26.799 322.412L15.5929 315.301L5.94081 309.177L2.73815 307.145C2.24651 306.833 1.75817 306.456 1.23802 306.193C1.21417 306.181 1.1919 306.164 1.16928 306.149L1.44911 307.217L3.16676 304.414C3.26758 304.235 3.29474 304.023 3.24253 303.824C3.19031 303.625 3.0628 303.454 2.88689 303.347L2.86546 303.333L3.14533 304.401L6.21699 299.56L5.33601 299.918C5.46822 299.952 5.59819 299.995 5.72702 300.04C5.87226 300.089 6.0152 300.145 6.1585 300.2C6.18971 300.212 6.22048 300.225 6.25158 300.238C6.42231 300.305 6.08773 300.165 6.2639 300.243C6.37348 300.291 6.48286 300.339 6.59133 300.389C7.75717 300.934 8.84384 301.633 9.82167 302.469C11.2837 303.729 12.521 305.228 13.4804 306.903C13.7569 307.381 14.0133 307.869 14.2497 308.369C14.3719 308.681 14.5226 308.982 14.7 309.268C14.9026 309.543 15.1264 309.803 15.3692 310.044C16.1174 310.797 17.0453 311.345 18.065 311.639C19.9202 312.169 21.9019 311.862 23.7398 312.488C24.8464 312.918 25.8429 313.589 26.6565 314.454C26.9684 314.745 27.2528 315.065 27.506 315.409C27.5934 315.534 27.6764 315.662 27.7522 315.794C27.7922 315.864 27.8304 315.935 27.8666 316.007C27.8801 316.034 28.0006 316.31 27.9357 316.15C28.1146 316.591 28.2114 317.061 28.4262 317.489C28.7493 318.064 29.2127 318.547 29.7731 318.894C30.9347 319.698 32.237 320.277 33.6124 320.601C34.2266 320.744 34.854 320.824 35.4845 320.838C36.1112 320.848 36.7076 320.712 37.3271 320.668C38.0654 320.577 38.8106 320.771 39.411 321.21C40.9056 322.374 40.8777 324.841 40.6035 326.575C40.5548 326.775 40.5841 326.985 40.6854 327.163C40.7866 327.342 40.9522 327.475 41.1482 327.535C41.3476 327.588 41.5601 327.561 41.7396 327.459C41.9192 327.357 42.0514 327.189 42.1078 326.99C42.4227 324.999 42.4752 322.687 41.2683 320.955C40.7955 320.286 40.1459 319.763 39.3922 319.442C38.6385 319.122 37.8105 319.018 37.001 319.142C35.8716 319.325 34.7167 319.273 33.6082 318.99C32.8024 318.765 32.0286 318.439 31.3054 318.019C30.9143 317.808 30.5464 317.556 30.2077 317.269C30.0992 317.172 29.9991 317.065 29.9083 316.951C30.0135 317.087 29.8505 316.844 29.8257 316.803C29.7962 316.755 29.774 316.702 29.7493 316.651C29.8403 316.836 29.7584 316.676 29.7442 316.633C29.7087 316.528 29.6726 316.423 29.6386 316.316C29.1002 314.631 27.9597 313.404 26.5817 312.32C25.6396 311.565 24.5396 311.033 23.3634 310.762C22.3451 310.572 21.3143 310.456 20.2791 310.416C19.3788 310.395 18.4919 310.193 17.6708 309.823C17.2278 309.593 16.8234 309.296 16.4724 308.941C16.274 308.76 16.0952 308.559 15.939 308.34C15.7599 307.998 15.5985 307.647 15.4554 307.289C14.5125 305.358 13.2493 303.601 11.7195 302.092C10.1028 300.516 7.98561 298.976 5.75087 298.414C5.58499 298.372 5.41006 298.384 5.25158 298.449C5.0931 298.513 4.95938 298.627 4.8699 298.773L1.79821 303.613C1.69716 303.793 1.66987 304.004 1.7221 304.204C1.77433 304.403 1.90199 304.574 2.07808 304.681L2.09951 304.694L1.81964 303.627L0.101988 306.429C0.00116855 306.609 -0.026003 306.82 0.0262038 307.019C0.0784105 307.219 0.205914 307.39 0.381822 307.497L4.24423 309.947L13.4757 315.805L24.6817 322.916L34.3338 329.04C35.8951 330.031 37.43 331.108 39.0366 332.024C39.0601 332.038 39.0825 332.053 39.1054 332.068C39.2851 332.168 39.4964 332.194 39.6952 332.142C39.894 332.09 40.0651 331.963 40.1727 331.788C41.1363 330.337 41.7948 328.704 42.1081 326.99C42.3115 326.01 40.8079 325.591 40.6036 326.575Z" fill="black"/>
<path d="M64.4604 189.643C63.3476 204.819 69.7774 305.852 69.7774 305.852L109.638 306.042L98.1587 161.766L69.2549 157.871" fill="#EA2F2F"/>
<path d="M63.6804 189.643C63.5187 191.876 63.5404 194.125 63.5572 196.363C63.5836 199.891 63.6765 203.418 63.7868 206.944C63.9264 211.413 64.0946 215.88 64.2914 220.347C64.5071 225.408 64.741 230.469 64.9933 235.529C65.2547 240.836 65.5284 246.142 65.8145 251.448C66.0951 256.68 66.384 261.91 66.6813 267.141C66.9511 271.895 67.2264 276.649 67.5073 281.403C67.741 285.361 67.9781 289.318 68.2187 293.275C68.3899 296.089 68.5629 298.902 68.7377 301.715C68.82 303.036 68.8816 304.361 68.9865 305.681C68.991 305.738 68.9937 305.795 68.9973 305.852C69.0013 306.057 69.0848 306.254 69.2302 306.399C69.3757 306.544 69.5717 306.628 69.7774 306.632L83.2989 306.697L104.687 306.799L109.638 306.823C109.845 306.821 110.042 306.738 110.188 306.592C110.334 306.446 110.417 306.249 110.418 306.042L110.112 302.192L109.275 291.665L108.04 276.147L106.534 257.219L104.878 236.414L103.213 215.487L101.661 195.977L100.349 179.489L99.4054 167.631C99.2563 165.757 99.1207 163.882 98.9581 162.009C98.9511 161.928 98.9452 161.847 98.9388 161.766C98.9364 161.596 98.8796 161.431 98.7765 161.296C98.6734 161.161 98.5296 161.062 98.3662 161.014L88.5983 159.698L73.0318 157.6L69.4626 157.119C68.4808 156.987 68.0559 158.49 69.0478 158.623L78.816 159.94L94.3822 162.037L97.9515 162.518L97.3789 161.766L97.6853 165.617L98.5229 176.143L99.7575 191.661L101.264 210.589L102.919 231.395L104.584 252.321L106.136 271.832L107.448 288.32L108.392 300.178C108.539 302.032 108.551 303.96 108.839 305.799C108.852 305.879 108.852 305.962 108.858 306.042L109.639 305.262L96.117 305.198L74.7288 305.095L69.7777 305.072L70.5578 305.852C70.5003 304.948 70.4434 304.044 70.3872 303.14C70.2321 300.66 70.0788 298.18 69.9272 295.7C69.7002 291.991 69.4764 288.282 69.2557 284.573C68.9825 279.982 68.7142 275.391 68.4506 270.8C68.1566 265.674 67.8696 260.548 67.5896 255.421C67.2986 250.082 67.0176 244.741 66.7467 239.4C66.4866 234.248 66.2405 229.095 66.0084 223.942C65.8016 219.298 65.6149 214.653 65.4483 210.007C65.3167 206.218 65.2025 202.429 65.144 198.638C65.1043 196.052 65.0709 193.46 65.1737 190.875C65.1901 190.464 65.211 190.053 65.2407 189.643C65.3133 188.641 63.7528 188.645 63.6805 189.643L63.6804 189.643Z" fill="black"/>
<path d="M97.7288 318.346C97.426 318.517 97.1456 318.726 96.8941 318.966C96.336 319.48 95.9071 320.118 95.6424 320.829C95.4614 321.327 95.37 321.853 95.3725 322.383C95.3725 322.589 95.4547 322.788 95.601 322.934C95.7473 323.08 95.9458 323.163 96.1526 323.163C96.3595 323.163 96.558 323.08 96.7043 322.934C96.8506 322.788 96.9327 322.589 96.9327 322.383C96.9333 322.283 96.9363 322.183 96.9437 322.084C96.9477 322.028 96.9548 321.973 96.9599 321.917C96.9678 321.829 96.9459 322.014 96.9476 322.008C96.9548 321.978 96.9571 321.946 96.9624 321.916C96.9952 321.728 97.0427 321.543 97.1042 321.362C97.1178 321.322 97.132 321.283 97.1469 321.244C97.1542 321.224 97.1628 321.205 97.1694 321.186C97.1959 321.107 97.125 321.287 97.13 321.278C97.173 321.196 97.2068 321.109 97.2499 321.026C97.3254 320.882 97.41 320.743 97.5031 320.61C97.5235 320.581 97.5443 320.552 97.5655 320.523C97.5759 320.509 97.5868 320.495 97.5971 320.481C97.6441 320.415 97.5159 320.584 97.5281 320.57C97.5764 320.517 97.6197 320.458 97.6676 320.404C97.7557 320.304 97.8482 320.208 97.9454 320.117C98.0289 320.039 98.1158 319.965 98.2044 319.892C98.3385 319.783 98.0286 320.021 98.1797 319.912C98.2135 319.888 98.2473 319.863 98.2816 319.84C98.3569 319.786 98.4352 319.738 98.5161 319.693C98.6935 319.588 98.8223 319.417 98.8747 319.217C98.927 319.017 98.8988 318.805 98.796 318.626C98.6885 318.451 98.5174 318.324 98.3186 318.272C98.1197 318.22 97.9084 318.246 97.7287 318.346H97.7288Z" fill="black"/>
<path d="M100.756 319.976C100.453 320.147 100.172 320.355 99.9208 320.596C99.3628 321.109 98.9339 321.748 98.6692 322.459C98.4882 322.956 98.3968 323.482 98.3993 324.012C98.3993 324.219 98.4815 324.417 98.6278 324.564C98.7741 324.71 98.9725 324.792 99.1794 324.792C99.3863 324.792 99.5848 324.71 99.7311 324.564C99.8773 324.417 99.9595 324.219 99.9595 324.012C99.9602 323.913 99.9632 323.813 99.9705 323.714C99.9747 323.658 99.9816 323.602 99.9867 323.546C99.9947 323.458 99.9727 323.644 99.9744 323.637C99.9816 323.608 99.9839 323.576 99.9892 323.546C100.022 323.358 100.069 323.172 100.131 322.992C100.145 322.952 100.159 322.912 100.174 322.873C100.181 322.854 100.19 322.835 100.196 322.815C100.223 322.737 100.152 322.917 100.157 322.907C100.2 322.825 100.234 322.738 100.277 322.656C100.352 322.512 100.437 322.373 100.53 322.24C100.55 322.211 100.571 322.182 100.592 322.153C100.603 322.139 100.614 322.125 100.624 322.111C100.671 322.045 100.543 322.214 100.555 322.2C100.603 322.146 100.646 322.088 100.694 322.033C100.782 321.934 100.875 321.838 100.972 321.747C101.056 321.668 101.143 321.594 101.231 321.522C101.365 321.413 101.055 321.651 101.207 321.542C101.24 321.518 101.274 321.493 101.308 321.469C101.384 321.416 101.462 321.367 101.543 321.323C101.72 321.217 101.849 321.046 101.901 320.847C101.954 320.647 101.926 320.435 101.823 320.256C101.715 320.08 101.544 319.953 101.345 319.901C101.146 319.849 100.935 319.876 100.755 319.976H100.756Z" fill="black"/>
<path d="M104.249 320.675C103.946 320.846 103.665 321.054 103.414 321.295C102.855 321.808 102.427 322.447 102.162 323.158C101.981 323.655 101.89 324.181 101.892 324.711C101.892 324.918 101.974 325.116 102.121 325.263C102.267 325.409 102.465 325.491 102.672 325.491C102.879 325.491 103.077 325.409 103.224 325.263C103.37 325.116 103.452 324.918 103.452 324.711C103.453 324.612 103.456 324.512 103.463 324.413C103.467 324.357 103.474 324.301 103.479 324.245C103.487 324.157 103.465 324.343 103.467 324.336C103.474 324.307 103.477 324.275 103.482 324.245C103.515 324.057 103.562 323.871 103.624 323.691C103.637 323.651 103.652 323.611 103.666 323.572C103.674 323.553 103.682 323.534 103.689 323.514C103.715 323.436 103.645 323.616 103.65 323.606C103.693 323.524 103.726 323.437 103.769 323.355C103.845 323.211 103.93 323.072 104.023 322.939C104.043 322.909 104.064 322.881 104.085 322.852C104.095 322.838 104.106 322.824 104.117 322.81C104.164 322.744 104.035 322.913 104.048 322.899C104.096 322.845 104.139 322.787 104.187 322.732C104.275 322.633 104.368 322.537 104.465 322.446C104.548 322.367 104.635 322.293 104.724 322.221C104.858 322.112 104.548 322.35 104.699 322.241C104.733 322.217 104.767 322.192 104.801 322.168C104.876 322.115 104.955 322.066 105.036 322.022C105.213 321.916 105.342 321.745 105.394 321.546C105.447 321.346 105.418 321.134 105.316 320.955C105.208 320.779 105.037 320.652 104.838 320.6C104.639 320.548 104.428 320.575 104.248 320.675H104.249Z" fill="black"/>
<path d="M117.365 330.301C117.98 331.856 118.287 333.517 118.267 335.189H72.4062L72.3553 331.903H72.3299V326.17C72.3299 326.17 78.4901 324.12 85.6648 329.04C90.5847 330.884 92.0196 326.17 97.1444 326.785C102.269 327.4 100.556 329.1 103.668 329.07C103.668 329.07 107.383 329.244 109.843 326.99C112.303 324.735 115.456 325.822 117.365 330.301Z" fill="white"/>
<path d="M116.612 330.508C117.22 331.992 117.518 333.585 117.487 335.189L118.268 334.409H74.2643C73.6827 334.409 73.0671 334.351 72.4876 334.409C72.461 334.412 72.433 334.409 72.4061 334.409L73.1862 335.189L73.1353 331.903C73.1321 331.697 73.0489 331.5 72.9033 331.355C72.7577 331.209 72.5611 331.126 72.3552 331.123H72.3298L73.1099 331.903V326.17L72.5373 326.922C73.1558 326.731 73.7947 326.616 74.4407 326.577C76.1391 326.439 77.8486 326.59 79.4965 327.024C80.6353 327.319 81.7404 327.731 82.7941 328.254C83.9554 328.83 84.9965 329.728 86.2608 330.044C88.0275 330.486 89.6757 330.101 91.2646 329.288C92.6976 328.554 94.071 327.648 95.7234 327.528C96.7975 327.472 97.8732 327.598 98.9054 327.9C99.2346 327.983 99.5549 328.098 99.8619 328.243C99.9775 328.301 100.091 328.364 100.201 328.431C100.268 328.472 100.607 328.714 100.473 328.61C100.805 328.909 101.161 329.181 101.537 329.422C102.131 329.715 102.787 329.862 103.449 329.849C104.686 329.881 105.922 329.717 107.108 329.363C108.298 329.008 109.4 328.404 110.339 327.591C110.916 327.018 111.683 326.676 112.495 326.63C114.598 326.635 115.953 328.992 116.691 330.694C116.796 330.872 116.968 331.001 117.167 331.053C117.367 331.106 117.58 331.077 117.758 330.974C117.933 330.866 118.06 330.695 118.112 330.496C118.164 330.298 118.138 330.087 118.038 329.907C117.202 327.977 115.867 325.976 113.776 325.278C112.979 325.016 112.12 325.003 111.315 325.242C110.357 325.53 109.719 326.138 108.949 326.73C107.538 327.734 105.853 328.277 104.122 328.288C103.978 328.293 103.834 328.291 103.69 328.29C103.575 328.289 103.46 328.29 103.345 328.286C103.28 328.284 103.215 328.281 103.15 328.276C103.119 328.274 102.806 328.235 102.931 328.256C102.79 328.233 102.656 328.195 102.519 328.158C102.304 328.101 102.554 328.2 102.374 328.101C102.279 328.048 102.19 327.991 102.098 327.933C102.086 327.926 101.947 327.822 102.05 327.901C102.153 327.979 101.982 327.844 101.965 327.83C101.565 327.467 101.124 327.154 100.649 326.896C99.776 326.489 98.8439 326.221 97.8874 326.104C96.7837 325.908 95.6531 325.918 94.5531 326.134C93.6784 326.346 92.8352 326.671 92.045 327.101C90.694 327.799 89.3739 328.708 87.7927 328.69C87.371 328.682 86.952 328.62 86.546 328.506C85.9126 328.267 85.3141 327.944 84.7665 327.546C83.6338 326.884 82.4385 326.335 81.1981 325.907C79.1423 325.189 76.9665 324.878 74.792 324.992C73.8877 325.02 72.9907 325.163 72.1226 325.417C71.9598 325.466 71.8167 325.565 71.7138 325.7C71.6109 325.835 71.5536 326 71.55 326.169V331.903C71.553 332.109 71.6361 332.305 71.7818 332.451C71.9274 332.597 72.1242 332.68 72.3302 332.683H72.3555L71.5754 331.903L71.6264 335.189C71.6296 335.395 71.7128 335.592 71.8584 335.737C72.004 335.883 72.2006 335.966 72.4065 335.969H112.616C114.468 335.969 116.335 336.038 118.186 335.969C118.213 335.968 118.24 335.969 118.268 335.969C118.473 335.965 118.669 335.882 118.815 335.736C118.96 335.591 119.043 335.395 119.048 335.189C119.086 333.445 118.769 331.711 118.117 330.093C117.766 329.162 116.257 329.566 116.612 330.508Z" fill="black"/>
<path d="M69.0608 294.68H105.817C106.312 294.68 106.823 294.717 107.317 294.68C107.339 294.678 107.362 294.68 107.383 294.68C107.485 294.677 107.58 294.634 107.651 294.561C107.721 294.488 107.76 294.391 107.76 294.29C107.76 294.189 107.721 294.092 107.651 294.019C107.58 293.946 107.485 293.903 107.383 293.9H70.627C70.1321 293.9 69.6208 293.863 69.1269 293.9C69.1051 293.902 69.0827 293.9 69.0608 293.9C68.9597 293.903 68.8639 293.946 68.7936 294.019C68.7234 294.092 68.6841 294.189 68.6841 294.29C68.6841 294.391 68.7234 294.488 68.7936 294.561C68.8639 294.634 68.9597 294.677 69.0608 294.68Z" fill="black"/>
<path d="M19.5897 270.544L22.9191 272.259L30.8705 276.357L40.5345 281.337L48.891 285.644C50.2338 286.336 51.5626 287.117 52.9434 287.732C52.9638 287.741 52.9834 287.753 53.0033 287.763C53.4486 287.993 53.8439 287.32 53.3969 287.089L50.0675 285.374L42.1161 281.276L32.4521 276.296L24.0957 271.989C22.7528 271.297 21.424 270.516 20.0433 269.901C20.0228 269.892 20.0032 269.88 19.9834 269.87C19.5378 269.64 19.1428 270.313 19.5897 270.544L19.5897 270.544Z" fill="black"/>
<path d="M47.574 186.692H56.07L55.2899 185.912L54.6761 194.348L54.3358 199.026C54.22 200.617 53.8229 202.081 52.6445 203.246C51.5988 204.272 50.1938 204.849 48.7289 204.854C47.9854 204.861 47.2418 204.854 46.4983 204.854C45.4944 204.854 45.4927 206.415 46.4983 206.415C48.6226 206.415 50.6966 206.503 52.5677 205.293C53.5263 204.663 54.3234 203.817 54.8947 202.823C55.466 201.828 55.7954 200.713 55.8564 199.568C56.1045 196.226 56.3476 192.884 56.5858 189.542L56.8499 185.912C56.8479 185.706 56.765 185.508 56.6192 185.362C56.4733 185.217 56.2761 185.134 56.0698 185.132H47.5738C46.5699 185.132 46.5683 186.692 47.5738 186.692L47.574 186.692Z" fill="black"/>
<path d="M76.2879 206.415C78.4122 206.415 80.4861 206.503 82.3572 205.293C83.3159 204.663 84.113 203.817 84.6843 202.823C85.2555 201.828 85.585 200.713 85.646 199.568C85.8941 196.226 86.1372 192.884 86.3754 189.542L86.6396 185.912C86.6375 185.706 86.5546 185.508 86.4088 185.363C86.2629 185.217 86.0657 185.134 85.8595 185.132H71.2025C70.9965 185.135 70.7998 185.218 70.6541 185.363C70.5084 185.509 70.4253 185.706 70.4225 185.912V198.429C70.3857 199.307 70.398 200.186 70.4591 201.062C70.6223 202.507 71.302 203.844 72.373 204.828C73.444 205.811 74.8343 206.375 76.288 206.415C77.2923 206.435 77.2922 204.875 76.288 204.854C75.1866 204.821 74.1369 204.38 73.3426 203.616C72.5483 202.853 72.0662 201.821 71.9899 200.722C71.9507 199.961 71.9826 199.191 71.9826 198.429V185.912L71.2025 186.692H85.8595L85.0794 185.912L84.4656 194.348L84.1253 199.026C84.0095 200.617 83.6124 202.081 82.434 203.247C81.3883 204.273 79.9833 204.85 78.5184 204.855C77.7748 204.861 77.0313 204.855 76.2878 204.855C75.284 204.854 75.2823 206.415 76.2879 206.415Z" fill="black"/>
<path d="M196.372 62.2853C196.372 62.2853 195.197 60.2033 188.219 60.6263C184.201 61.895 189.699 71.8336 189.699 71.8336L194.563 69.9305" fill="#FC7272"/>
<path d="M197.046 61.8916C196.662 61.2231 195.829 60.8318 195.151 60.5578C194.297 60.2367 193.404 60.0273 192.496 59.9345C191.845 59.854 191.19 59.8076 190.534 59.7954C189.728 59.7444 188.918 59.7661 188.115 59.8602C186.37 60.1464 185.878 62.1551 185.989 63.6401C186.193 65.4648 186.688 67.2451 187.454 68.9135C187.918 70.0457 188.442 71.1519 189.026 72.2274C189.113 72.3753 189.246 72.4905 189.406 72.5552C189.565 72.62 189.741 72.6307 189.907 72.5859L194.77 70.6828C194.966 70.6226 195.132 70.4897 195.233 70.3112C195.335 70.1328 195.364 69.9224 195.315 69.7231C195.259 69.5245 195.126 69.3559 194.947 69.254C194.767 69.1521 194.555 69.1249 194.355 69.1784L189.492 71.0816L190.373 71.4401C189.137 69.3138 188.233 67.0116 187.692 64.6128C187.547 63.966 187.501 63.301 187.554 62.6404C187.555 62.6334 187.607 62.3655 187.638 62.2558C187.657 62.1906 187.678 62.1264 187.701 62.0625C187.705 62.0503 187.748 61.9485 187.711 62.033C187.67 62.1281 187.755 61.9504 187.755 61.9497C187.788 61.8953 187.82 61.8396 187.853 61.7852C187.929 61.662 187.786 61.8482 187.884 61.7422C187.927 61.6956 187.971 61.6508 188.016 61.6063C188.047 61.5768 188.079 61.549 188.112 61.523C188.056 61.5674 188.046 61.5707 188.112 61.5315C188.17 61.4974 188.227 61.4636 188.286 61.4321C188.399 61.3723 188.226 61.4237 188.357 61.4016C188.73 61.359 189.106 61.3434 189.482 61.355C190.147 61.342 190.813 61.3521 191.477 61.3966C192.393 61.4447 193.299 61.6012 194.178 61.8626C194.356 61.9184 194.532 61.9807 194.705 62.0495C194.832 62.0998 194.63 62.0104 194.788 62.0863C194.858 62.1203 194.929 62.1532 194.999 62.1893C195.105 62.2441 195.209 62.3024 195.31 62.3659C195.389 62.4156 195.636 62.6121 195.437 62.4435C195.538 62.5285 195.629 62.6404 195.732 62.7189C195.84 62.8013 195.61 62.5253 195.699 62.6791C196.199 63.5493 197.548 62.7644 197.046 61.8917L197.046 61.8916Z" fill="black"/>
<path d="M163.719 92.478L165.57 89.134C166.823 86.8662 167.818 84.4652 168.536 81.9758C169.092 80.0536 169.519 79.1477 170.033 76.0628C171.514 67.1815 180.818 64.4325 182.509 64.8554C184.201 65.2783 186.046 68.6687 185.681 69.9304C184.099 75.3979 182.821 81.3444 182.821 81.3444L182.457 94.9658L178.26 104.57" fill="#FC7F3A"/>
<path d="M164.393 92.8718C165.3 91.2328 166.256 89.6099 167.076 87.9248C167.962 86.1042 168.693 84.2127 169.263 82.27C169.62 81.0545 170.031 79.8552 170.322 78.6215C170.699 77.0271 170.855 75.3904 171.427 73.8462C171.881 72.6304 172.533 71.4985 173.358 70.4968C174.805 68.7729 176.63 67.4073 178.693 66.5071C179.033 66.3553 179.457 66.1913 179.888 66.0491C180.265 65.9232 180.649 65.8167 181.037 65.73C181.193 65.6956 181.35 65.6691 181.508 65.6394C181.728 65.5978 181.439 65.6427 181.567 65.6293C181.649 65.6208 181.73 65.6111 181.812 65.6054C181.926 65.5975 182.039 65.5956 182.153 65.5952C182.201 65.5952 182.25 65.6041 182.298 65.6028C182.348 65.6015 182.11 65.5426 182.275 65.6018C183.321 65.9758 184.061 67.1191 184.541 68.1259C184.783 68.584 184.921 69.0895 184.947 69.6069C184.943 69.779 184.974 69.6005 184.903 69.8118C184.826 70.0437 184.768 70.2846 184.702 70.5198C184.56 71.0214 184.422 71.5236 184.286 72.0267C183.497 74.9507 182.778 77.8931 182.131 80.8541C181.993 81.7833 181.942 82.7233 181.979 83.662L181.684 94.7032L181.677 94.9662L181.784 94.5725L178.106 102.986L177.586 104.177C177.488 104.357 177.462 104.568 177.514 104.766C177.566 104.964 177.692 105.135 177.865 105.244C178.044 105.347 178.257 105.375 178.456 105.323C178.656 105.271 178.827 105.142 178.933 104.964L181.269 99.6195L182.714 96.3129C182.969 95.8661 183.147 95.3792 183.24 94.873C183.346 92.9024 183.345 90.92 183.398 88.9474L183.585 81.941C183.616 81.7517 183.621 81.5591 183.6 81.3684C183.582 81.3108 183.533 81.6831 183.592 81.4667C183.639 81.2907 183.67 81.1082 183.71 80.9304C184.087 79.2327 184.486 77.54 184.907 75.8522C185.213 74.6237 185.531 73.3984 185.862 72.1763C186.117 71.2409 186.597 70.2087 186.482 69.2229C186.216 67.504 185.337 65.9393 184.008 64.8172C183.618 64.4864 183.157 64.2516 182.66 64.1316C182.163 64.0116 181.645 64.0098 181.148 64.1264C180.098 64.3128 179.075 64.6308 178.105 65.0729C175.313 66.2544 172.929 68.2301 171.251 70.7547C170.28 72.2645 169.618 73.9521 169.304 75.7197C168.974 77.5346 168.534 79.3277 167.987 81.0894C167.318 83.4219 166.44 85.6894 165.364 87.8642C164.803 88.9523 164.19 90.0157 163.598 91.087L163.046 92.0843C162.559 92.9636 163.906 93.7515 164.393 92.8718H164.393Z" fill="black"/>
<path d="M177.646 70.9008L195.296 61.7002C195.296 61.7002 197.924 62.4513 197.361 65.2677C199.239 66.7699 199.051 68.272 198.112 69.5863C199.802 70.9007 200.178 72.966 198.675 74.0927C200.178 75.407 200.365 77.4723 198.488 79.1621C196.943 80.5521 195.142 81.9947 193.053 82.7704C191.077 83.4991 189.283 84.6525 187.801 86.1492C186.318 87.646 185.181 89.4497 184.471 91.4333L183.091 95.3099L179.33 103.724" fill="#FC7F3A"/>
<path d="M194.567 62.0127C194.693 62.061 194.341 61.9017 194.531 61.9984C194.642 62.0543 194.755 62.1049 194.864 62.1641C195.147 62.314 195.414 62.4935 195.66 62.6996C196.015 62.9717 196.291 63.3344 196.458 63.7498C196.625 64.1651 196.677 64.6177 196.609 65.0601C196.573 65.1931 196.573 65.3333 196.608 65.4665C196.643 65.5997 196.713 65.7213 196.81 65.8192C197.349 66.2641 197.939 66.8183 198.018 67.5562C198.028 68.1535 197.823 68.7345 197.439 69.1924C197.352 69.3413 197.316 69.5148 197.339 69.6859C197.361 69.8569 197.439 70.0158 197.561 70.1378C198.642 71.0066 199.438 72.5039 198.124 73.5409C197.979 73.6876 197.897 73.8859 197.897 74.0925C197.897 74.2991 197.979 74.4974 198.124 74.6441C198.395 74.8599 198.619 75.1293 198.782 75.4357C198.944 75.742 199.042 76.0786 199.068 76.4244C199.054 76.8198 198.957 77.2079 198.784 77.5639C198.611 77.9198 198.366 78.2359 198.064 78.4919C196.666 79.895 195.029 81.0375 193.23 81.8656C192.381 82.2297 191.525 82.5408 190.713 82.9868C189.952 83.4093 189.228 83.895 188.548 84.4387C187.164 85.5396 185.985 86.8754 185.064 88.3848C183.883 90.3156 183.245 92.5553 182.491 94.6753C182.439 94.8001 182.393 94.9277 182.355 95.0575C182.318 95.2144 182.472 94.8073 182.397 94.9611C182.3 95.1621 182.215 95.3694 182.124 95.5731L180.957 98.1838L178.656 103.33C178.558 103.51 178.533 103.721 178.585 103.92C178.637 104.118 178.762 104.289 178.936 104.398C179.115 104.501 179.328 104.529 179.527 104.476C179.727 104.424 179.898 104.295 180.004 104.118L182.025 99.5954C182.643 98.212 183.349 96.8391 183.878 95.4184C184.609 93.4589 185.147 91.3762 186.188 89.5502C187.07 88.0014 188.247 86.6398 189.651 85.542C190.332 85.0156 191.059 84.5533 191.825 84.1611C192.683 83.7178 193.602 83.4279 194.468 83.0035C195.512 82.4714 196.498 81.8316 197.409 81.0945C198.336 80.439 199.166 79.6555 199.873 78.7675C200.44 77.9738 200.688 76.9962 200.569 76.0283C200.449 75.0603 199.97 74.1725 199.227 73.5408V74.644C201.192 73.0938 200.37 70.4059 198.664 69.0344L198.786 69.9797C199.341 69.2526 199.618 68.3513 199.567 67.4381C199.483 66.898 199.294 66.3795 199.011 65.9124C198.727 65.4453 198.354 65.0387 197.913 64.7158L198.114 65.4748C198.25 64.7969 198.21 64.0952 197.997 63.4372C197.785 62.7793 197.406 62.1872 196.898 61.718C196.344 61.1942 195.693 60.7833 194.982 60.5082C194.782 60.4548 194.57 60.482 194.39 60.5839C194.211 60.6858 194.078 60.8543 194.022 61.0529C193.972 61.2522 194 61.4633 194.102 61.6421C194.203 61.8209 194.37 61.9536 194.567 62.0125L194.567 62.0127Z" fill="black"/>
<path d="M178.04 71.5744L191.02 64.8082L192.879 63.8391C193.769 63.3747 192.982 62.0278 192.091 62.4919L179.111 69.258L177.252 70.2272C176.362 70.6915 177.149 72.0384 178.039 71.5744H178.04Z" fill="black"/>
<path d="M69.7286 106.027L70.0984 87.7108L85.6347 93.6928L86.1198 105.717" fill="#FC7F3A"/>
<path d="M70.5089 106.026L70.6337 99.8447L70.8327 89.9842L70.8787 87.7107L69.891 88.4629L83.5303 93.7142L85.4274 94.4446L84.8549 93.6924L85.2799 104.23L85.3399 105.717C85.3802 106.717 86.9406 106.723 86.9 105.717L86.4751 95.1796L86.4151 93.6926C86.4098 93.5232 86.3518 93.3597 86.2491 93.2249C86.1465 93.0901 86.0044 92.9906 85.8426 92.9403L72.2034 87.689L70.3062 86.9586C70.1904 86.9279 70.0692 86.9241 69.9518 86.9474C69.8343 86.9708 69.7237 87.0206 69.6285 87.0932C69.5332 87.1657 69.4558 87.2591 69.4021 87.3661C69.3484 87.4732 69.3199 87.5911 69.3187 87.7108L69.1939 93.8925L68.9948 103.753L68.9489 106.027C68.9286 107.031 70.4888 107.031 70.5091 106.027L70.5089 106.026Z" fill="black"/>
<path d="M83.0526 96.1309C84.4235 96.4242 85.8132 96.6213 87.2115 96.7205C87.6413 96.7522 88.0733 96.7134 88.4905 96.6054C94.4303 95.0658 96.8084 89.4973 97.5773 83.5851H98.1447C100.014 83.8485 100.724 83.3912 100.508 82.2168C98.8147 80.3668 98.1016 79.3352 97.9161 77.9991L97.8702 77.1335C97.772 73.6693 97.374 70.2201 96.6807 66.8245L66.8575 65.7571C66.8575 65.7571 62.9836 72.1395 63.2684 75.0789C63.7588 80.1409 68.6911 83.7659 70.0533 90.2922" fill="#FC7F3A"/>
<path d="M82.8452 96.8828C83.7915 97.0849 84.7463 97.2388 85.707 97.3546C86.6954 97.5386 87.7091 97.5395 88.6978 97.3574C90.1191 97.0023 91.4548 96.3655 92.6255 95.4847C94.9232 93.7495 96.3909 91.2252 97.2863 88.5247C97.7981 86.9155 98.1567 85.2615 98.3573 83.5848L97.5772 84.3649C98.7578 84.3649 100.448 84.765 101.126 83.4603C101.271 83.1656 101.339 82.8388 101.323 82.5106C101.305 81.9063 101 81.6064 100.617 81.174C100.025 80.551 99.5107 79.8594 99.0838 79.114C98.9561 78.873 98.8555 78.6187 98.7836 78.3557C98.7409 78.2048 98.7076 78.0513 98.684 77.8963C98.7147 78.111 98.6859 77.8065 98.6827 77.7464C98.6399 76.9383 98.6199 76.1295 98.5719 75.3216C98.4552 73.3594 98.2386 71.4033 97.9429 69.4601C97.7981 68.5092 97.6419 67.5562 97.4328 66.6169C97.3855 66.4533 97.2869 66.3093 97.1514 66.2062C97.0159 66.1031 96.8508 66.0463 96.6806 66.0443L86.6 65.6835L70.5377 65.1085L66.8574 64.9768C66.7212 64.9769 66.5874 65.0126 66.4692 65.0804C66.3511 65.1482 66.2527 65.2457 66.1838 65.3632C65.6705 66.2103 65.1996 67.0857 64.7513 67.9686C63.8788 69.5757 63.1943 71.2779 62.7112 73.0415C61.7803 76.8781 64.3334 80.3521 66.2305 83.4518C67.5843 85.6639 68.7547 87.9452 69.301 90.4994C69.5109 91.4807 71.0152 91.0655 70.8055 90.0847C70.2825 87.8439 69.4086 85.6999 68.2161 83.732C67.2107 81.9998 66.0519 80.352 65.1541 78.5586C64.459 77.1701 63.8324 75.46 64.1082 73.9565C64.4773 72.2967 65.0727 70.6955 65.8775 69.1977C66.388 68.1625 66.9326 67.1381 67.5311 66.1507L66.8575 66.537L76.938 66.8978L93.0004 67.4727L96.6807 67.6045L95.9284 67.0319C96.2658 68.5477 96.4932 70.095 96.6786 71.6355C96.8711 73.2365 97.0046 74.845 97.0678 76.4563C97.0352 77.3555 97.1441 78.2541 97.3905 79.1194C97.9082 80.5306 98.9597 81.6754 99.9565 82.7684L99.7559 82.4242C99.7901 82.6338 99.7634 82.7418 99.7068 82.7984C99.8361 82.669 99.6963 82.7834 99.6586 82.7984C99.5704 82.8252 99.4806 82.8467 99.3898 82.8627C98.785 82.8858 98.1794 82.8665 97.5773 82.805C97.3723 82.8109 97.1773 82.895 97.0323 83.0401C96.8873 83.1851 96.8032 83.3801 96.7972 83.5851C96.1464 88.5062 94.1157 93.9697 88.9684 95.6528C88.5796 95.7959 88.1754 95.893 87.7641 95.9424C87.2625 95.9592 86.7605 95.9306 86.2641 95.8568C85.2549 95.7516 84.2522 95.5919 83.2602 95.3786C82.281 95.1694 81.8625 96.6731 82.8455 96.883L82.8452 96.8828Z" fill="black"/>
<path d="M84.267 79.9623C84.0734 79.3275 83.8402 78.7054 83.5688 78.0997C83.1599 77.1614 82.6396 76.1402 81.8255 75.489C81.5732 75.2635 81.2712 75.1006 80.9441 75.0138C80.617 74.927 80.274 74.9187 79.9431 74.9894C79.7446 75.046 79.5763 75.1783 79.4745 75.3578C79.3726 75.5373 79.3453 75.7496 79.3984 75.949C79.4571 76.1461 79.5897 76.3129 79.7686 76.4144C79.9475 76.516 80.1587 76.5444 80.358 76.4937C80.3798 76.4904 80.4013 76.4856 80.4224 76.4794C80.515 76.4413 80.326 76.4966 80.311 76.4931C80.3533 76.495 80.3956 76.4932 80.4375 76.4877C80.4574 76.488 80.4799 76.4917 80.5001 76.4905C80.6041 76.4853 80.391 76.4758 80.3859 76.4735C80.4362 76.4883 80.4873 76.5001 80.5391 76.5087C80.5587 76.5145 80.5795 76.5238 80.5996 76.5286C80.7015 76.5522 80.5078 76.4888 80.5032 76.4855C80.5413 76.5073 80.5808 76.5267 80.6214 76.5434C80.6612 76.5649 80.6999 76.5882 80.7378 76.6127C80.8133 76.6613 80.9115 76.7869 80.7507 76.6143C80.8938 76.7681 81.0594 76.8958 81.196 77.0591C81.2177 77.0851 81.2385 77.1118 81.2602 77.1377C81.3093 77.1967 81.2607 77.1964 81.2139 77.0775C81.242 77.1259 81.2751 77.1712 81.3127 77.2127C81.3829 77.3119 81.4501 77.413 81.5144 77.5163C81.7695 77.9311 81.9948 78.3636 82.1885 78.8105C82.2109 78.8612 82.2327 78.9123 82.2549 78.963C82.2981 79.0614 82.1834 78.7884 82.2549 78.9634C82.2984 79.07 82.3416 79.1767 82.3833 79.284C82.451 79.4586 82.5158 79.6343 82.5777 79.8111C82.6433 79.9984 82.7072 80.1866 82.7631 80.377C82.79 80.4762 82.8363 80.569 82.8992 80.6502C82.962 80.7314 83.0403 80.7994 83.1296 80.8503C83.2188 80.9012 83.3172 80.9339 83.4191 80.9467C83.521 80.9595 83.6245 80.952 83.7235 80.9247C83.8225 80.8974 83.9152 80.8508 83.9962 80.7876C84.0771 80.7244 84.1448 80.6459 84.1954 80.5564C84.2459 80.467 84.2783 80.3685 84.2907 80.2665C84.3031 80.1646 84.2952 80.0612 84.2676 79.9622L84.267 79.9623Z" fill="black"/>
<path d="M95.7368 73.3643C95.1295 72.9744 94.4542 72.7025 93.7462 72.5627C92.1764 72.2266 90.5379 72.4796 89.1426 73.2736C88.9648 73.3785 88.8357 73.5495 88.7837 73.7493C88.7317 73.949 88.761 74.1613 88.8652 74.3395C88.9694 74.5177 89.1399 74.6474 89.3395 74.7001C89.5391 74.7529 89.7515 74.7243 89.9301 74.6208C90.2557 74.4356 90.6004 74.2859 90.958 74.1743C91.2473 74.0855 91.5441 74.0231 91.8447 73.9877C92.3877 73.928 92.937 73.9654 93.4669 74.0982C93.6926 74.1527 93.9149 74.2203 94.1327 74.3006C94.1849 74.3199 94.2364 74.342 94.2888 74.3607C94.4261 74.4097 94.1865 74.3111 94.2696 74.3521C94.3451 74.3893 94.4232 74.4211 94.4987 74.4582C94.6547 74.5318 94.8053 74.6165 94.9492 74.7115C95.1279 74.8159 95.3407 74.8451 95.5408 74.7926C95.741 74.7401 95.9121 74.6103 96.0165 74.4316C96.121 74.253 96.1501 74.0402 96.0977 73.84C96.0452 73.6398 95.9153 73.4687 95.7367 73.3643H95.7368Z" fill="black"/>
<path d="M69.5787 106.301L58.4536 106.634C53.8654 106.773 47.1607 107.806 43.73 112.523L39.8792 116.827L40.1976 79.3683L24.1268 79.3517L18.9032 89.8084C16.5176 94.584 15.5915 99.9565 16.2404 105.255L22.7301 146.692C23.7229 151.415 26.3099 155.653 30.057 158.694C33.8041 161.736 38.4833 163.395 43.3094 163.395H63.1177" fill="white"/>
<path d="M69.5785 105.521L58.8286 105.843C56.3091 105.877 53.8026 106.211 51.362 106.838C49.6898 107.276 48.0897 107.953 46.6113 108.849C45.8779 109.304 45.1901 109.829 44.5574 110.416C44.2545 110.699 43.9678 110.998 43.6985 111.312C43.5344 111.504 43.3765 111.702 43.2247 111.904C43.2162 111.915 43.0722 112.096 43.1766 111.973C43.1696 111.981 43.162 111.989 43.155 111.997C41.9219 113.457 40.6017 114.851 39.3274 116.275L40.659 116.827L40.6909 113.101L40.7669 104.154L40.8589 93.3299L40.9384 83.9739C40.9512 82.4667 41.0318 80.9423 40.977 79.4356C40.9761 79.4132 40.9774 79.3905 40.9775 79.368C40.9747 79.162 40.8916 78.9652 40.7459 78.8195C40.6003 78.6738 40.4035 78.5907 40.1975 78.5879L26.0865 78.5733L24.1263 78.5713C23.9899 78.5705 23.8558 78.6059 23.7374 78.6737C23.6191 78.7416 23.5209 78.8395 23.4527 78.9577L18.8632 88.1453C17.777 90.2073 16.8983 92.3721 16.2401 94.6078C15.2532 98.1439 14.9983 101.844 15.4909 105.482C15.7644 107.343 16.0732 109.2 16.3643 111.059L18.2422 123.049L20.3086 136.244L21.745 145.413C21.8223 145.907 21.8863 146.405 21.9773 146.897C22.5842 149.915 23.8551 152.76 25.6978 155.226C27.5784 157.777 29.9874 159.892 32.7604 161.427C35.5334 162.962 38.605 163.88 41.7654 164.119C42.925 164.204 44.094 164.175 45.2561 164.175H63.1175C64.1214 164.175 64.1231 162.615 63.1175 162.615H43.7015C38.54 162.678 33.5427 160.802 29.6975 157.359C26.3785 154.374 24.1605 150.36 23.4002 145.962L22.2188 138.418L20.245 125.815L18.2746 113.234L17.0822 105.62C16.3298 100.329 17.2083 94.9336 19.6005 90.154C21.1708 87.0008 22.745 83.8494 24.3231 80.7L24.8002 79.7451L24.1266 80.1314L38.2376 80.146L40.1978 80.148L39.4177 79.3679L39.3859 83.0937L39.3099 92.041L39.2179 102.865L39.1383 112.221C39.1255 113.728 39.0449 115.253 39.0998 116.759C39.1006 116.782 39.0994 116.804 39.0992 116.827C39.1029 116.98 39.1509 117.128 39.2372 117.254C39.3235 117.38 39.4446 117.478 39.5856 117.536C39.7266 117.594 39.8816 117.611 40.0316 117.583C40.1817 117.555 40.3204 117.484 40.4309 117.379L44.0203 113.367C44.7397 112.463 45.5417 111.629 46.4157 110.874C47.7204 109.896 49.181 109.146 50.7357 108.656C55.0363 107.234 59.642 107.378 64.1156 107.244L69.5786 107.081C70.5804 107.051 70.5846 105.491 69.5786 105.521L69.5785 105.521Z" fill="black"/>
<path d="M93.3136 78.5728C93.8903 78.5728 94.3579 78.1053 94.3579 77.5285C94.3579 76.9518 93.8903 76.4843 93.3136 76.4843C92.7369 76.4843 92.2693 76.9518 92.2693 77.5285C92.2693 78.1053 92.7369 78.5728 93.3136 78.5728Z" fill="black"/>
<path d="M91.8795 77.5123C91.8797 77.8079 91.9698 78.0965 92.1378 78.3397C92.3059 78.5829 92.544 78.7691 92.8205 78.8738C93.0919 78.9734 93.3871 78.9886 93.6672 78.9174C93.9474 78.8461 94.1995 78.6918 94.3903 78.4746C94.5427 78.3009 94.6508 78.093 94.7055 77.8685C94.7601 77.644 94.7597 77.4096 94.7043 77.1853C94.6489 76.961 94.54 76.7535 94.387 76.5803C94.2341 76.4072 94.0415 76.2736 93.8258 76.1909C93.61 76.1082 93.3775 76.0789 93.148 76.1055C92.9184 76.132 92.6988 76.2137 92.5076 76.3435C92.3165 76.4733 92.1595 76.6474 92.0502 76.8509C91.9408 77.0544 91.8823 77.2814 91.8795 77.5124C91.8804 77.6156 91.9218 77.7142 91.9948 77.7872C92.0677 77.8602 92.1664 77.9015 92.2696 77.9024C92.3724 77.9005 92.4705 77.8587 92.5433 77.786C92.616 77.7133 92.6577 77.6152 92.6597 77.5124C92.6563 77.4833 92.658 77.4539 92.6646 77.4253C92.643 77.4586 92.6522 77.4898 92.6626 77.4441C92.6729 77.3984 92.6824 77.3527 92.697 77.3079L92.706 77.2816C92.7213 77.2414 92.7186 77.2468 92.6976 77.2978C92.7035 77.2803 92.7115 77.2637 92.7215 77.2482C92.7413 77.1968 92.7705 77.1495 92.8077 77.1088C92.7468 77.1486 92.7804 77.1405 92.8065 77.1137C92.8224 77.0975 92.837 77.0801 92.8531 77.0642C92.8659 77.0514 92.879 77.039 92.8926 77.0268L92.913 77.0089C92.9458 76.9822 92.9409 76.9857 92.8983 77.0195C92.9118 76.9917 92.9892 76.9601 93.0136 76.9468C93.0297 76.9381 93.0463 76.9306 93.0625 76.922C93.1291 76.8865 92.989 76.9407 93.0844 76.9149C93.1295 76.9026 93.1733 76.8882 93.2196 76.8793L93.2334 76.8767C93.277 76.8697 93.2707 76.8705 93.2143 76.8791C93.2262 76.87 93.2705 76.8751 93.2863 76.8749C93.3106 76.8743 93.3349 76.8744 93.3593 76.8755C93.3652 76.8757 93.4607 76.8788 93.3937 76.8761C93.3293 76.8736 93.4173 76.8811 93.4261 76.8829C93.4536 76.8887 93.4808 76.8956 93.5078 76.9036C93.5355 76.908 93.5622 76.9171 93.5868 76.9306C93.5839 76.9274 93.5033 76.889 93.5696 76.9242C93.6101 76.9456 93.6504 76.9664 93.6889 76.9916C93.6941 76.995 93.7659 77.0483 93.7158 77.0088C93.6656 76.9694 93.7345 77.0264 93.7391 77.0304C93.7831 77.0629 93.821 77.103 93.8509 77.1489C93.8268 77.0882 93.8222 77.1082 93.8387 77.1355C93.8529 77.1588 93.8687 77.181 93.8824 77.2047C93.8915 77.2206 93.9002 77.2367 93.9085 77.2528L93.9207 77.2774C93.9384 77.3165 93.9361 77.3107 93.9138 77.2602C93.9381 77.2794 93.9478 77.3644 93.9546 77.3932C93.9589 77.4115 93.9622 77.4299 93.9659 77.4483C93.9819 77.5271 93.961 77.3677 93.9666 77.4722C93.9689 77.5159 93.9657 77.5594 93.9655 77.6031C93.9652 77.6996 93.9847 77.5196 93.9651 77.6131C93.9612 77.6316 93.9579 77.6501 93.9535 77.6685C93.9459 77.7003 93.937 77.7786 93.9121 77.8016L93.9301 77.7595C93.9226 77.7762 93.9146 77.7927 93.9062 77.809C93.8937 77.8334 93.8802 77.8573 93.8658 77.8806C93.8542 77.8993 93.8376 77.9177 93.8279 77.9374C93.8047 77.9848 93.8896 77.8711 93.8302 77.9334C93.7987 77.9664 93.7692 77.9999 93.7351 78.0304C93.7297 78.0353 93.6596 78.0874 93.7116 78.0517C93.7644 78.0153 93.6894 78.0654 93.6845 78.0686C93.6417 78.1033 93.5927 78.1298 93.5402 78.1468C93.5473 78.1458 93.626 78.1174 93.5565 78.138C93.5297 78.1459 93.5036 78.1553 93.4766 78.1625C93.4586 78.1672 93.4403 78.1714 93.422 78.1753C93.411 78.1775 93.3274 78.1809 93.3899 78.1816C93.4562 78.1824 93.3629 78.1816 93.3559 78.182C93.3316 78.1829 93.3074 78.1829 93.2831 78.1822C93.2589 78.1851 93.2343 78.1836 93.2107 78.1777C93.2669 78.1862 93.2731 78.1869 93.2294 78.1798L93.2016 78.1743C93.1658 78.1668 93.0676 78.1563 93.0409 78.1266L93.0831 78.1446C93.0705 78.139 93.0581 78.1331 93.0458 78.1269C93.018 78.1113 92.9893 78.0972 92.9619 78.0803C92.9465 78.0707 92.9318 78.0599 92.9163 78.0503C92.882 78.0255 92.8866 78.0295 92.93 78.0623C92.9159 78.0508 92.9022 78.0389 92.8888 78.0268C92.855 77.9962 92.8251 77.9624 92.7942 77.9293C92.732 77.8629 92.8362 77.9997 92.7891 77.9218C92.7749 77.8984 92.7591 77.8763 92.7453 77.8525C92.7315 77.8288 92.7199 77.8041 92.7071 77.7798C92.6708 77.711 92.7275 77.8525 92.7044 77.771C92.689 77.7167 92.6739 77.6642 92.6618 77.6089C92.651 77.5592 92.6456 77.6032 92.6643 77.628C92.6497 77.6087 92.6597 77.5362 92.6597 77.5123C92.6597 77.4088 92.6186 77.3096 92.5455 77.2365C92.4723 77.1633 92.3731 77.1223 92.2697 77.1223C92.1662 77.1223 92.067 77.1633 91.9939 77.2365C91.9207 77.3096 91.8796 77.4088 91.8796 77.5123H91.8795Z" fill="black"/>
<path d="M77.9868 82.903C78.8024 84.1691 80.0649 85.0815 81.523 85.4587C82.2808 85.6351 83.0655 85.6642 83.8343 85.5444C84.0335 85.489 84.2027 85.3569 84.3048 85.1771C84.4069 84.9972 84.4335 84.7843 84.379 84.5848C84.3184 84.3889 84.1854 84.2235 84.0071 84.1223C83.8288 84.0211 83.6186 83.9917 83.4194 84.0401C83.5774 84.0186 83.2836 84.0503 83.2554 84.0523C83.16 84.0593 83.0644 84.0636 82.9686 84.0652C82.7862 84.0683 82.6037 84.0613 82.4221 84.0442C82.3784 84.04 82.3347 84.0353 82.2912 84.0299C82.391 84.0437 82.3961 84.0438 82.3064 84.0302C82.2237 84.0143 82.1407 84.0007 82.0583 83.9825C81.9193 83.9519 81.7819 83.915 81.6461 83.872C81.5711 83.8481 81.4968 83.8225 81.4231 83.7952C81.3826 83.7801 81.1473 83.6739 81.3436 83.7658C81.2102 83.7034 81.0775 83.6412 80.9484 83.57C80.8261 83.5026 80.7067 83.4303 80.5902 83.3532C80.5346 83.3163 80.4795 83.2784 80.425 83.2395C80.4058 83.2258 80.2373 83.1031 80.3484 83.1847C80.4583 83.2655 80.2994 83.1445 80.2805 83.1291C80.2342 83.0909 80.1884 83.0519 80.1433 83.0122C80.059 82.938 79.9768 82.8615 79.8968 82.7826C79.7671 82.6545 79.6437 82.5205 79.5265 82.3805C79.4712 82.3143 79.3373 82.0976 79.5055 82.3595C79.4767 82.3146 79.4408 82.2734 79.41 82.2296C79.3838 82.1923 79.3576 82.1546 79.3336 82.1157C79.2819 82.0273 79.2133 81.9499 79.1316 81.8879C79.05 81.826 78.957 81.7808 78.8579 81.7548C78.7588 81.7288 78.6555 81.7226 78.554 81.7365C78.4525 81.7504 78.3547 81.7842 78.2663 81.8359C78.1778 81.8876 78.1004 81.9562 78.0385 82.0378C77.9765 82.1194 77.9313 82.2125 77.9053 82.3116C77.8793 82.4107 77.8731 82.5139 77.887 82.6155C77.9009 82.717 77.9347 82.8147 77.9864 82.9032L77.9868 82.903Z" fill="black"/>
<path d="M69.5786 106.301L86.0884 104.142L108.922 127.236C108.922 127.236 100.223 151.549 98.9831 164.876L57.1142 164.241C53.165 146.841 48.6171 133.277 50.7519 120.905" fill="white"/>
<path d="M69.5785 107.082L84.0723 105.186L86.0883 104.923L85.5367 104.694L93.2805 112.526L105.542 124.927L108.37 127.788L108.169 127.029C107.093 130.038 106.097 133.078 105.128 136.123C103.175 142.266 101.361 148.467 99.9369 154.755C99.1424 158.088 98.5632 161.469 98.2028 164.876L98.9829 164.096L94.8114 164.033L84.7962 163.881L72.7346 163.698L62.265 163.539L58.8271 163.487C58.2801 163.449 57.7315 163.441 57.1837 163.462C57.1605 163.463 57.1372 163.463 57.114 163.461L57.8663 164.034C56.4485 157.796 54.8232 151.606 53.4257 145.364C52.248 140.103 51.2171 134.767 51.0191 129.366C50.8975 126.605 51.06 123.839 51.504 121.112C51.6714 120.13 50.168 119.708 49.9995 120.697C49.1266 125.817 49.3698 131.003 50.0959 136.125C50.9212 141.946 52.3277 147.672 53.7179 153.378C54.6159 157.064 55.521 160.749 56.362 164.449C56.409 164.612 56.5077 164.756 56.6432 164.859C56.7787 164.963 56.9439 165.019 57.1142 165.021L61.2858 165.084L71.3009 165.236L83.3625 165.419L93.8321 165.578C95.5194 165.603 97.2262 165.706 98.9135 165.655C98.9366 165.654 98.96 165.655 98.9831 165.656C99.1885 165.651 99.3842 165.567 99.5295 165.422C99.6747 165.277 99.7585 165.081 99.7632 164.875C100.351 158.639 101.985 152.475 103.663 146.457C105.152 141.119 106.811 135.826 108.59 130.577C108.945 129.53 109.302 128.484 109.674 127.443C109.711 127.31 109.713 127.17 109.677 127.036C109.642 126.903 109.572 126.781 109.473 126.684L104.617 121.773L94.9192 111.964L87.4077 104.367C86.9759 103.931 86.5684 103.323 85.8971 103.387C84.3985 103.53 82.9023 103.779 81.4097 103.974L69.8193 105.49L69.5786 105.522C69.3737 105.528 69.179 105.612 69.0341 105.757C68.8892 105.902 68.8049 106.097 68.7985 106.302C68.7997 106.508 68.8822 106.706 69.0283 106.852C69.1743 106.998 69.3721 107.081 69.5786 107.082H69.5785Z" fill="black"/>
<path d="M162.69 93.2043L166.676 87.0546L183.014 96.4706L180.111 102.278" fill="white"/>
<path d="M163.363 93.598L167.349 87.4486L166.282 87.7284L171.787 90.9008L180.608 95.9844L182.621 97.1444L182.341 96.0771L179.438 101.884C178.99 102.78 180.335 103.571 180.785 102.672L183.688 96.8645C183.789 96.6849 183.815 96.4735 183.763 96.2745C183.711 96.0756 183.584 95.9045 183.408 95.7972L177.904 92.6249L169.082 87.5412L167.069 86.3812C166.89 86.2811 166.678 86.2543 166.479 86.3064C166.28 86.3586 166.109 86.4857 166.002 86.6611L162.016 92.8106C161.469 93.6556 162.819 94.4385 163.363 93.598Z" fill="black"/>
<path d="M83.0917 105.96L98.2408 105.919C101.12 105.911 103.96 106.592 106.523 107.903L132.134 121.007L144.361 127.684L150.75 110.28C153.462 102.892 158.029 96.326 164.012 91.2134L164.868 90.4822L181.382 100.463L183.674 110.596C184.416 113.878 183.871 117.319 182.15 120.21L165.492 148.206C162.511 152.767 157.97 156.085 152.719 157.541C147.468 158.997 141.867 158.49 136.962 156.117L123.555 149.627L91.7342 133.491" fill="white"/>
<path d="M83.0915 106.74L96.4807 106.704C97.0626 106.702 97.6445 106.699 98.2264 106.699C100.669 106.69 103.087 107.197 105.32 108.188C106.452 108.698 107.547 109.302 108.652 109.867L122.982 117.199C125.922 118.704 128.895 120.159 131.807 121.717C135.751 123.828 139.66 126.005 143.586 128.149L143.967 128.358C144.071 128.415 144.186 128.449 144.305 128.456C144.423 128.464 144.542 128.444 144.652 128.399C144.762 128.355 144.861 128.286 144.94 128.198C145.02 128.11 145.079 128.005 145.113 127.891L149.362 116.316L151.377 110.827C152.584 107.509 154.166 104.34 156.09 101.381C158.689 97.5034 161.831 94.019 165.419 91.0338L164.474 91.1557L170.065 94.5348L178.933 99.895L180.988 101.137L180.629 100.67L181.875 106.178L182.668 109.686C182.891 110.547 183.056 111.421 183.163 112.304C183.384 115.094 182.702 117.882 181.216 120.254L179.007 123.966L171.21 137.071L165.154 147.248C162.614 151.401 158.746 154.574 154.177 156.253C149.608 157.932 144.606 158.019 139.982 156.499C138.225 155.86 136.514 155.103 134.859 154.234C131.222 152.474 127.567 150.747 123.947 148.952C121.491 147.735 119.056 146.472 116.611 145.233L102.501 138.078L92.6384 133.076L92.1277 132.817C91.2341 132.364 90.4435 133.71 91.3404 134.165L100.918 139.022L117.377 147.367C119.853 148.623 122.32 149.893 124.818 151.103L132.877 155.003C134.981 156.021 137.08 157.157 139.296 157.913C143.629 159.354 148.29 159.495 152.702 158.317C157.114 157.139 161.085 154.695 164.124 151.287C165.287 149.907 166.319 148.422 167.207 146.85L170.901 140.641L180.202 125.011L182.696 120.818C184.609 117.645 185.217 113.855 184.393 110.243C183.811 107.656 183.226 105.071 182.638 102.486L182.27 100.859C182.245 100.519 182.128 100.191 181.933 99.9115C181.521 99.5844 181.074 99.3051 180.599 99.0789L166.437 90.5192L165.261 89.8085C165.111 89.7251 164.939 89.6919 164.768 89.7139C164.598 89.7358 164.44 89.8118 164.316 89.9305C161.099 92.6215 158.227 95.6996 155.765 99.0949C153.353 102.503 151.405 106.217 149.973 110.138C148.44 114.309 146.908 118.481 145.379 122.654L143.609 127.477L144.755 127.01L133.174 120.687C130.629 119.297 128.015 118.025 125.433 116.704L110.621 109.125C109.41 108.505 108.198 107.885 106.986 107.265C104.102 105.819 100.911 105.09 97.6852 105.14L83.4942 105.178L83.0915 105.179C82.0877 105.182 82.0858 106.742 83.0915 106.74H83.0915Z" fill="black"/>
<path d="M91.332 105.848H65.0737C65.328 104.145 66.1853 102.591 67.4896 101.467C68.7938 100.343 70.4583 99.7246 72.18 99.7246H77.4829C78.607 99.7246 79.7154 99.9883 80.719 100.495L91.332 105.848Z" fill="white"/>
<path d="M91.3321 105.068H65.0737L65.826 106.056C66.0345 104.606 66.728 103.27 67.7933 102.265C68.8585 101.26 70.2328 100.645 71.6921 100.521C73.42 100.405 75.1811 100.505 76.9121 100.505C78.0865 100.455 79.2562 100.682 80.3263 101.169C80.6768 101.341 81.0242 101.521 81.3731 101.697L86.7736 104.421L90.9384 106.522C91.8326 106.973 92.6234 105.628 91.7258 105.175L82.3322 100.436C81.9279 100.232 81.5253 100.024 81.1192 99.8242C79.8891 99.2264 78.536 98.9251 77.1684 98.9445C75.4158 98.9445 73.6518 98.8824 71.9004 98.9499C70.0614 99.0271 68.3049 99.734 66.9251 100.952C65.5453 102.17 64.6261 103.826 64.3216 105.641C64.2924 105.757 64.2896 105.877 64.3135 105.994C64.3374 106.111 64.3874 106.221 64.4597 106.316C64.532 106.411 64.6247 106.488 64.7311 106.542C64.8374 106.596 64.9546 106.626 65.0738 106.628H91.3321C92.3359 106.628 92.3376 105.068 91.3321 105.068Z" fill="black"/>
<path d="M92.9261 86.5313C93.4712 87.4392 94.3421 88.105 95.3612 88.3929C95.8763 88.5165 96.4125 88.5246 96.9312 88.4167C97.1301 88.3607 97.2988 88.2286 97.4008 88.0489C97.5028 87.8692 97.5298 87.6566 97.4759 87.4571C97.4164 87.2606 97.2836 87.0944 97.105 86.993C96.9264 86.8916 96.7156 86.8628 96.5163 86.9124C96.4431 86.9264 96.2599 86.9192 96.5038 86.9194C96.4476 86.9194 96.3894 86.9311 96.333 86.9341C96.2239 86.94 96.1146 86.939 96.0056 86.9311C95.934 86.9259 95.7609 86.8791 96.018 86.9371C95.9684 86.9259 95.9172 86.9204 95.8674 86.9098C95.7705 86.8892 95.6748 86.863 95.5809 86.8316C95.5351 86.8163 95.4903 86.7989 95.4451 86.7821C95.3205 86.7358 95.6453 86.8733 95.4689 86.7905C95.3858 86.7515 95.3045 86.7087 95.2252 86.662C95.1489 86.6173 95.0746 86.5695 95.0022 86.5186C94.9672 86.494 94.9334 86.4678 94.8989 86.443C95.1212 86.6017 94.9844 86.5094 94.9346 86.4682C94.7245 86.2892 94.5314 86.091 94.3578 85.8763C94.2881 85.7926 94.5034 86.0702 94.4225 85.9598C94.4094 85.9421 94.3961 85.9245 94.3832 85.9067C94.3625 85.8781 94.3422 85.8492 94.3225 85.82C94.3056 85.7949 94.2889 85.7698 94.2734 85.7439C94.1686 85.5661 93.9975 85.437 93.7977 85.385C93.598 85.333 93.3857 85.3623 93.2075 85.4665C93.0293 85.5707 92.8996 85.7412 92.8469 85.9408C92.7942 86.1404 92.8227 86.3527 92.9262 86.5313L92.9261 86.5313Z" fill="black"/>
<path d="M134.628 123.257L140.072 126.354L148.762 131.297L150.773 132.441C151.647 132.938 152.434 131.591 151.56 131.094L146.116 127.997L137.426 123.054L135.415 121.91C134.541 121.413 133.754 122.761 134.628 123.257L134.628 123.257Z" fill="black"/>
<path d="M45.734 117.733H73.8565C82.031 104.919 79.85 83.8348 79.85 83.8348C78.4025 82.7708 76.2465 78.606 76.175 76.1822C76.0671 72.5204 78.0074 71.6009 80.565 71.5255C83.1227 71.45 86.0924 76.1984 86.1976 79.7672L86.3818 72.0287C86.3951 71.4641 86.5263 70.9085 86.767 70.3975C87.0077 69.8866 87.3526 69.4316 87.7795 69.0619C88.2064 68.6921 88.7059 68.4157 89.246 68.2504C89.786 68.0851 90.3547 68.0346 90.9154 68.102L96.4641 68.1974C97.0068 68.2067 97.5428 68.0761 98.0203 67.8182C98.4979 67.5603 98.901 67.1837 99.1908 66.7248C99.4806 66.2659 99.6474 65.74 99.6751 65.198C99.7027 64.6559 99.5903 64.1159 99.3487 63.6298L98.8915 62.7105C97.1356 59.1793 93.5871 54.9998 89.6458 54.8606L74.6746 54.3321C70.3317 54.1789 62.2282 59.4107 60.4607 66.9223L58.2267 78.546C55.9125 79.7031 53.9662 81.4818 52.6059 83.6828C51.2456 85.8838 50.5251 88.42 50.5252 91.0074V91.4575L47.6624 92.6026C44.6467 93.8089 42.1472 96.0309 40.596 98.8845C39.0448 101.738 38.5394 105.044 39.1671 108.231C38.7655 109.293 38.6277 110.438 38.7655 111.565C38.9034 112.693 39.3127 113.77 39.9585 114.704C40.6043 115.639 41.4672 116.403 42.4732 116.93C43.4791 117.458 44.5981 117.733 45.734 117.733Z" fill="#FFC41F"/>
<path d="M45.7341 118.513H73.1561C73.3504 118.513 73.5457 118.519 73.7399 118.513C74.2941 118.497 74.5391 118.122 74.8127 117.674C75.9387 115.797 76.8777 113.814 77.6164 111.754C79.0552 107.658 79.9962 103.405 80.4193 99.0845C80.8034 95.5731 80.956 92.0403 80.876 88.5089C80.8439 86.9573 80.8053 85.3873 80.631 83.8434C80.5789 83.3823 80.3355 83.2523 80.0862 83.0139C79.8057 82.739 79.553 82.4371 79.3316 82.1128C78.7206 81.2315 78.2037 80.2887 77.7892 79.2998C77.0887 77.6457 76.4508 75.4261 77.3867 73.7279C77.548 73.4413 77.7646 73.1896 78.024 72.9874C78.2834 72.7852 78.5803 72.6366 78.8976 72.5501C79.5995 72.2992 80.3557 72.2403 81.088 72.3795C81.8849 72.6187 82.5446 73.2896 83.0707 73.9177C83.7486 74.7477 84.2956 75.6766 84.6925 76.6722C85.112 77.6539 85.3573 78.7012 85.4175 79.7671C85.4245 79.9693 85.5098 80.1608 85.6554 80.3013C85.8009 80.4419 85.9953 80.5204 86.1976 80.5204C86.3999 80.5204 86.5943 80.4419 86.7398 80.3013C86.8853 80.1608 86.9706 79.9693 86.9777 79.7671L87.1476 72.6297C87.1396 72.269 87.1598 71.9082 87.2081 71.5507C87.2995 71.0591 87.5008 70.5945 87.7968 70.1916C88.0928 69.7886 88.476 69.4577 88.9178 69.2235C90.003 68.6392 91.5141 68.8923 92.7178 68.913C93.954 68.9342 95.1913 68.9741 96.4277 68.9766C97.4385 68.9877 98.416 68.615 99.1628 67.9337C99.9095 67.2523 100.37 66.3131 100.451 65.3055C100.525 64.3446 100.167 63.5263 99.7513 62.6905C99.3342 61.8337 98.8632 61.0043 98.3412 60.2072C97.0066 58.2047 95.3075 56.3065 93.1826 55.1258C91.9655 54.4572 90.6046 54.0932 89.2162 54.065L86.1685 53.9574L77.1833 53.6402C76.3812 53.6119 75.5792 53.5803 74.777 53.5553C73.5662 53.5416 72.3641 53.7604 71.2358 54.2001C67.345 55.6955 64.0339 58.395 61.7855 61.9049C60.7938 63.4021 60.0832 65.0674 59.6887 66.8193C59.4943 67.7671 59.3233 68.7204 59.1407 69.6706L57.5846 77.7674L57.4749 78.3383L57.8334 77.8721C55.2742 79.1635 53.1473 81.1735 51.7136 83.6558C50.378 86.036 49.6987 88.7283 49.7452 91.4573L50.3178 90.705C48.1464 91.5736 45.9151 92.3352 44.0283 93.7583C41.2103 95.8757 39.2394 98.9284 38.4695 102.368C38.04 104.367 38.0215 106.432 38.415 108.438V108.023C37.9858 109.186 37.8409 110.435 37.9922 111.666C38.1436 112.896 38.5869 114.073 39.2851 115.098C40.0056 116.144 40.9681 117.001 42.0908 117.596C43.2136 118.191 44.4634 118.505 45.7339 118.513C46.7381 118.523 46.739 116.963 45.7339 116.953C44.6081 116.948 43.5043 116.64 42.5377 116.063C41.5712 115.486 40.7772 114.66 40.2387 113.671C39.8392 112.937 39.5929 112.13 39.5145 111.298C39.4362 110.467 39.5276 109.628 39.7831 108.832C39.9094 108.531 39.9472 108.201 39.8918 107.879C39.8375 107.565 39.7864 107.253 39.7544 106.936C39.5045 104.447 39.9628 101.937 41.0766 99.6964C42.1903 97.4558 43.9142 95.5753 46.0497 94.2714C47.5111 93.3937 49.1553 92.8404 50.7325 92.2095C50.8945 92.1594 51.0368 92.06 51.1394 91.9252C51.2421 91.7903 51.3 91.6267 51.3051 91.4573C51.2578 89.1252 51.8018 86.8191 52.8864 84.754C54.088 82.5407 55.896 80.7161 58.0983 79.4943C58.4613 79.2932 58.858 79.1674 58.9839 78.7265C59.0117 78.6291 59.0229 78.5237 59.042 78.4243L59.3243 76.9551L60.245 72.1643C60.7641 69.4636 61.0592 66.587 62.3199 64.1061C64.2545 60.2993 67.8767 56.9872 71.9445 55.6002C72.9286 55.2433 73.9728 55.0816 75.0187 55.1242L78.3665 55.2424L87.953 55.5808C88.7195 55.5708 89.4858 55.6098 90.2472 55.6976C92.7481 56.1145 94.8086 58.0707 96.2928 60.0106C97.035 60.9868 97.6836 62.0309 98.2296 63.129C98.5853 63.8392 99.007 64.5361 98.885 65.3666C98.8138 65.8346 98.6071 66.2715 98.2905 66.6234C97.9739 66.9753 97.5613 67.2268 97.1034 67.3469C96.6178 67.43 96.1234 67.4488 95.6329 67.4029L91.1536 67.3259C90.3345 67.2545 89.5095 67.3496 88.7282 67.6053C87.5784 68.0428 86.6368 68.8992 86.0924 70.0025C85.4964 71.2524 85.5865 72.6426 85.5544 73.991L85.4401 78.7904L85.4174 79.7672H86.9776C86.8458 77.5461 86.084 75.4084 84.7815 73.6044C83.7097 72.0912 82.213 70.6379 80.2301 70.7605C78.5609 70.8638 76.8498 71.4172 76.0155 72.9859C75.0559 74.7897 75.3117 77.015 75.9611 78.8719C76.3611 80.0191 76.8788 81.1219 77.5058 82.1626C78.0027 83.0602 78.6644 83.8561 79.4563 84.5085L79.0699 83.8349C79.3094 86.4408 79.3936 89.0586 79.3221 91.6745C79.23 97.1938 78.6429 102.752 77.1574 108.08C76.2934 111.345 74.9543 114.465 73.1829 117.34L73.8565 116.953H45.734C44.7302 116.953 44.7285 118.513 45.7341 118.513Z" fill="black"/>
<path d="M74.725 54.3088L99.8581 54.6926C103.986 54.7638 106.843 60.8602 105.274 64.6793C105.274 64.6793 104.647 68.0271 100.449 70.6781C100.67 70.8991 101.996 67.3642 101.554 65.8177C99.6533 68.0262 97.1002 69.5735 94.263 70.2363C94.263 70.2363 95.3184 68.3981 95.343 66.7765" fill="#FFC41F"/>
<path d="M74.7252 55.0887L79.824 55.1666L90.2433 55.3256L98.6674 55.4542C99.2131 55.4344 99.7596 55.4519 100.303 55.5066C102.296 55.8172 103.73 57.7104 104.392 59.4888C104.787 60.5102 104.967 61.6017 104.921 62.6956C104.853 63.3497 104.708 63.9935 104.489 64.6136C104.348 65.1424 104.136 65.6498 103.859 66.1219C103.316 67.0787 102.623 67.9414 101.806 68.6768C101.262 69.1688 100.676 69.6129 100.056 70.0042C99.9404 70.0749 99.8452 70.1739 99.7792 70.2918C99.7132 70.4098 99.6785 70.5427 99.6785 70.6778C99.6785 70.813 99.7132 70.9459 99.7792 71.0638C99.8452 71.1818 99.9404 71.2808 100.056 71.3514C101.143 72.0563 101.715 70.0433 101.921 69.3883C102.289 68.2159 102.623 66.8292 102.306 65.61C102.268 65.4795 102.198 65.3611 102.1 65.2662C102.003 65.1713 101.883 65.1032 101.752 65.0685C101.621 65.0339 101.482 65.0338 101.351 65.0684C101.22 65.1029 101.1 65.171 101.002 65.2658C99.236 67.2432 96.7347 69.0286 94.056 69.4837L94.9369 70.6297C95.6325 69.4575 96.0392 68.1366 96.1235 66.7762C96.1581 65.772 94.5979 65.7733 94.5633 66.7762C94.4848 67.8606 94.1513 68.9112 93.5898 69.8422C93.5165 69.9767 93.4839 70.1295 93.4958 70.2821C93.5078 70.4348 93.5638 70.5807 93.6571 70.702C93.7505 70.8234 93.877 70.9151 94.0215 70.9659C94.1659 71.0167 94.322 71.0244 94.4707 70.9882C95.3673 70.8049 96.2372 70.5094 97.0599 70.1085C98.9838 69.227 100.702 67.9533 102.105 66.369L100.802 66.0248C100.987 66.7371 100.767 67.7133 100.56 68.4789C100.451 68.8914 100.318 69.2972 100.163 69.6946C100.114 69.8187 100.104 69.828 100.021 70.0057C99.9887 70.0512 99.9612 70.0998 99.9388 70.1507C100.004 70.0755 100.084 70.0148 100.174 69.9726C100.264 69.9304 100.362 69.9077 100.462 69.9059L100.855 70.0124L100.843 70.0042V71.3514C102.924 70.0195 104.731 68.202 105.69 65.8963C106.301 64.5217 106.562 63.0174 106.451 61.5174C106.082 57.8518 103.572 53.9689 99.5701 53.9078L92.3218 53.7971L81.359 53.6297C79.186 53.5965 76.9981 53.4853 74.8249 53.5299C74.7917 53.5306 74.7583 53.5289 74.7251 53.5284C73.7208 53.5131 73.7204 55.0733 74.7251 55.0886L74.7252 55.0887Z" fill="black"/>
<path d="M32.4791 75.3506H40.1974V69.2138L45.1789 65.7303C45.5901 65.4427 45.915 65.0485 46.1187 64.59C46.3224 64.1314 46.3972 63.626 46.335 63.1282C46.2836 62.7175 46.1405 62.3236 45.9162 61.9757C45.6919 61.6278 45.3921 61.3349 45.0392 61.1187C44.6862 60.9024 44.2891 60.7684 43.8774 60.7265C43.4656 60.6847 43.0496 60.736 42.6604 60.8768L38.111 62.5224C37.8371 62.6214 37.5457 62.663 37.2549 62.6445C36.9642 62.626 36.6804 62.5478 36.4212 62.4148C36.1621 62.2817 35.9331 62.0967 35.7486 61.8713C35.564 61.6459 35.4279 61.3849 35.3487 61.1045V61.1043" fill="#FC7F3A"/>
<path d="M32.4792 76.1307H40.1974C40.4034 76.1278 40.6002 76.0447 40.7458 75.899C40.8915 75.7533 40.9746 75.5566 40.9775 75.3506V69.2138L40.5911 69.8874L43.4463 67.891C44.4629 67.18 45.8213 66.4755 46.5381 65.4343C48.0376 63.2562 46.5287 60.2481 43.9695 59.9558C42.6479 59.8047 41.2053 60.5761 39.9943 61.014C39.3308 61.254 38.669 61.4993 38.0036 61.7341C37.2304 62.0069 36.3465 61.7655 36.1012 60.8969C35.8286 59.9322 34.3228 60.3422 34.5967 61.3117C34.7074 61.688 34.8924 62.0384 35.1408 62.342C35.3892 62.6457 35.696 62.8964 36.043 63.0794C36.39 63.2624 36.7702 63.374 37.1611 63.4075C37.5519 63.441 37.9456 63.3959 38.3187 63.2746C38.9751 63.0575 39.6215 62.8034 40.2716 62.5682C41.0989 62.269 41.9247 61.9651 42.7536 61.6705C43.7845 61.3042 44.9514 61.6045 45.4186 62.6792C45.5615 62.9574 45.6158 63.2726 45.5742 63.5825C45.5533 63.9585 45.4257 64.3207 45.2064 64.6267C45.0245 64.8604 44.8035 65.0608 44.5533 65.2191L42.2946 66.7986L40.0551 68.3647C39.741 68.5843 39.4468 68.7829 39.4175 69.215C39.4056 69.393 39.4175 69.5759 39.4175 69.7542V75.3507L40.1976 74.5706H32.4792C31.4753 74.5706 31.4736 76.1308 32.4792 76.1308V76.1307Z" fill="black"/>
<path d="M39.5477 116.621L37.2599 123.504L33.6166 134.465L32.7846 136.968C32.4672 137.923 33.9734 138.332 34.2891 137.383L36.5769 130.5L40.2202 119.539L41.0522 117.036C41.3696 116.081 39.8633 115.671 39.5477 116.621Z" fill="black"/>
<path d="M40.1975 75.3505H24.1266V79.3682H40.1975V75.3505Z" fill="white"/>
<path d="M40.1976 78.5884H24.1268L24.9069 79.3685V75.3507L24.1268 76.1308H40.1976L39.4175 75.3507V79.3685C39.4175 80.3724 40.9777 80.374 40.9777 79.3685V75.3507C40.9748 75.1448 40.8917 74.948 40.746 74.8024C40.6003 74.6567 40.4036 74.5736 40.1976 74.5707H24.1268C23.9208 74.5736 23.7241 74.6567 23.5784 74.8023C23.4327 74.948 23.3496 75.1448 23.3467 75.3507V79.3685C23.3496 79.5745 23.4327 79.7712 23.5784 79.9169C23.7241 80.0626 23.9208 80.1457 24.1268 80.1486H40.1976C41.2015 80.1486 41.2031 78.5884 40.1976 78.5884Z" fill="black"/>
</svg>
