<svg width="170" height="173" viewBox="0 0 170 173" fill="none" xmlns="http://www.w3.org/2000/svg">
<path d="M146.088 57.3188C145.681 58.8541 145.343 60.4115 145.077 61.9849L150.827 63.7096L152.462 64.2003L145.886 92.7774L155.979 95.5213L164.636 67.7335C165.99 61.7401 163.103 55.492 158.1 52.9178L154.76 51.5047L148.803 49.6672C147.673 52.111 146.764 54.6741 146.088 57.3188Z" fill="#A8542A"/>
<path d="M146.438 57.427C146.035 58.9634 145.693 60.5194 145.428 62.0932L145.174 61.5933C147.091 62.1683 149.008 62.7434 150.925 63.3184L152.559 63.8087C152.651 63.8388 152.729 63.9079 152.777 64.0012C152.824 64.0945 152.837 64.2047 152.813 64.3086L152.154 67.1713L150.585 73.9902L148.689 82.2304L147.049 89.3566L146.505 91.7206C146.421 92.0876 146.362 92.4813 146.248 92.8385C146.243 92.8536 146.241 92.8701 146.237 92.8856L145.983 92.3857L149.397 93.3137L154.833 94.7918L156.076 95.1296L155.628 95.4134L156.229 93.4856L157.741 88.6293L159.741 82.2098L161.779 75.6688L163.429 70.3749C163.704 69.4896 163.989 68.6069 164.256 67.7184C164.515 66.7424 164.633 65.7266 164.605 64.7091C164.6 63.0597 164.297 61.4285 163.714 59.9128C163.122 58.3743 162.268 56.9785 161.2 55.8024C160.668 55.2141 160.084 54.6859 159.459 54.2254C159.138 53.9899 158.808 53.7722 158.467 53.5725C158.306 53.4779 158.144 53.3848 157.978 53.3011C158.029 53.3269 157.961 53.2925 157.945 53.2853C157.141 52.927 156.325 52.6 155.516 52.2577C155.11 52.086 154.715 51.9128 154.298 51.7841L149.143 50.1941L148.706 50.0593L149.117 49.8725C147.999 52.2836 147.102 54.8146 146.438 57.427C146.306 57.9275 145.603 57.7145 145.737 57.211C146.419 54.5313 147.341 51.9352 148.489 49.4622C148.53 49.3855 148.592 49.3258 148.666 49.2921C148.741 49.2584 148.823 49.2526 148.9 49.2754L153.501 50.6948C153.963 50.8372 154.439 50.9537 154.892 51.1279C155.704 51.4403 156.502 51.809 157.304 52.1487C157.595 52.2718 157.888 52.3904 158.178 52.5182C158.798 52.8098 159.388 53.1748 159.938 53.6068C161.223 54.5755 162.334 55.804 163.214 57.2289C164.971 60.0606 165.669 63.547 165.158 66.9449C164.992 67.8156 164.762 68.6697 164.471 69.4984L163 74.2204L161.004 80.6267L158.942 87.2453L157.25 92.6761L156.369 95.5019L156.33 95.6295C156.302 95.732 156.24 95.8187 156.157 95.8715C156.073 95.9244 155.975 95.9394 155.882 95.9133L152.469 94.9853L147.032 93.5072L145.79 93.1694C145.697 93.1394 145.619 93.0704 145.572 92.977C145.524 92.8837 145.511 92.7734 145.535 92.6695L146.194 89.8068L147.763 82.9879L149.659 74.7477L151.299 67.6215L151.843 65.2576C151.928 64.8906 151.986 64.4969 152.101 64.1396C152.105 64.1246 152.108 64.1081 152.111 64.0926L152.366 64.5925L146.1 62.7128L144.981 62.3771C144.889 62.3463 144.811 62.2771 144.764 62.184C144.717 62.0909 144.703 61.9811 144.727 61.8772C144.991 60.3034 145.333 58.7474 145.737 57.2111C145.868 56.7101 146.571 56.9233 146.438 57.427Z" fill="black"/>
<path d="M146.947 88.2297L146.426 90.5146C146.074 92.0615 145.568 93.5597 144.917 94.981C144.533 95.8833 144.095 96.7563 143.608 97.5944C141.388 101.624 142.35 103.574 149.901 105.868C150.149 105.938 150.397 106.008 150.642 106.077C151.211 106.237 151.804 106.256 152.38 106.133C152.956 106.01 153.501 105.748 153.977 105.366C154.453 104.984 154.849 104.49 155.136 103.919C155.424 103.348 155.597 102.714 155.643 102.061L156.182 94.7166L157.339 88.9612" fill="#FC7272"/>
<path d="M147.299 88.338C146.959 89.8246 146.656 91.3282 146.179 92.7693C145.801 93.8632 145.367 94.9317 144.878 95.9693C144.536 96.7228 144.112 97.4234 143.733 98.1538C143.431 98.6974 143.196 99.2839 143.035 99.8976C142.968 100.136 142.931 100.384 142.927 100.634C142.925 100.756 142.928 100.878 142.937 100.999C142.938 101.017 142.953 101.126 142.939 101.02C142.942 101.042 142.944 101.063 142.948 101.084C142.962 101.159 142.974 101.232 142.992 101.306C143.04 101.531 143.127 101.744 143.248 101.932C143.371 102.142 143.518 102.333 143.685 102.501C144.176 102.982 144.729 103.379 145.325 103.677C146.177 104.122 147.056 104.499 147.955 104.806C148.522 105.009 149.093 105.196 149.666 105.374C150.214 105.577 150.778 105.72 151.351 105.799C152.272 105.865 153.181 105.545 153.903 104.902C154.624 104.259 155.105 103.339 155.252 102.321C155.299 101.989 155.31 101.646 155.334 101.311L155.477 99.3659L155.781 95.2228C155.853 94.515 155.97 93.8136 156.13 93.124L156.935 89.1174L156.988 88.8532C157.091 88.3431 157.793 88.559 157.69 89.0693L157.02 92.4024L156.622 94.3794C156.603 94.5229 156.574 94.6646 156.537 94.8037C156.511 94.8791 156.543 94.6602 156.545 94.734C156.543 94.7784 156.54 94.8226 156.535 94.8666C156.359 97.2569 156.195 99.6487 156.008 102.038C155.936 103.083 155.571 104.076 154.965 104.876C154.358 105.676 153.542 106.242 152.631 106.493C151.501 106.787 150.439 106.461 149.35 106.12C148.263 105.79 147.191 105.4 146.14 104.951C144.865 104.391 143.392 103.682 142.619 102.342C142.025 101.312 142.145 100.084 142.546 98.9984C142.874 98.1869 143.258 97.4046 143.694 96.6585C144.04 96.0184 144.341 95.3578 144.642 94.6907C145.232 93.3824 145.698 92.0087 146.033 90.5921C146.179 89.9726 146.317 89.3502 146.458 88.7292L146.597 88.1218C146.712 87.6153 147.414 87.83 147.299 88.3379L147.299 88.338Z" fill="black"/>
<path d="M146.81 87.4661L146.082 91.9251L156.183 94.6245L157.214 90.7789" fill="white"/>
<path d="M146.809 87.4661L146.082 91.9251L156.183 94.6245L157.214 90.7789" fill="white"/>
<path d="M147.16 87.5744L146.524 91.4746L146.433 92.0334L146.179 91.5336L149.595 92.4465L155.036 93.9005L156.28 94.2329L155.832 94.5168L156.863 90.6712C156.997 90.1714 157.7 90.3843 157.565 90.8873L156.534 94.7329C156.506 94.8356 156.445 94.9225 156.361 94.9754C156.278 95.0283 156.179 95.0431 156.086 95.0167L152.67 94.1037L147.229 92.6497L145.986 92.3174C145.894 92.2866 145.816 92.2175 145.769 92.1244C145.721 92.0312 145.708 91.9213 145.731 91.8174L146.368 87.9172L146.459 87.3584C146.542 86.8445 147.244 87.0622 147.16 87.5745V87.5744Z" fill="black"/>
<path d="M121.954 55.0818L145.078 61.9848L152.497 64.1711L148.48 74.7145C146.774 79.1928 146.123 84.084 146.587 88.923L146.654 89.6152L157.038 92.1345L161.784 88.5482C163.323 87.383 164.405 85.6037 164.806 83.5757L168.713 63.9074C169.246 60.5969 168.684 57.1827 167.132 54.3001C165.581 51.4175 163.144 49.2628 160.276 48.2369L152.455 45.4654L136.166 40.0636C134.475 39.5026 132.72 39.2177 130.956 39.2177H121.535" fill="white"/>
<path d="M122.051 54.69L125.889 55.836L134.161 58.3054L142.143 60.6881C143.221 61.0099 144.298 61.3349 145.377 61.6528L152.39 63.7196L152.593 63.7793C152.646 63.7971 152.695 63.8279 152.736 63.8695C152.777 63.9111 152.809 63.9624 152.83 64.0197C152.851 64.077 152.86 64.1387 152.857 64.2005C152.853 64.2622 152.838 64.3223 152.811 64.3763L150.261 71.0678L148.938 74.5409C148.209 76.4261 147.656 78.39 147.287 80.4016C146.981 82.1162 146.821 83.859 146.806 85.6071C146.807 86.9467 146.877 88.2851 147.017 89.6155L146.75 89.2236L150.259 90.075L155.852 91.4318L157.134 91.7428L156.854 91.7838L159.959 89.4372L161.477 88.2906C163.014 87.1693 164.09 85.4116 164.468 83.4042C164.523 83.1247 164.579 82.8451 164.634 82.5655L165.408 78.6716L166.485 73.247L167.54 67.9357L168.245 64.3841C168.908 61.1053 168.446 57.6681 166.952 54.7508C165.457 51.8336 163.037 49.6482 160.17 48.6259C159.102 48.2448 158.034 47.8662 156.965 47.4898L152.756 45.9983C152.345 45.8526 151.932 45.716 151.518 45.5789L147.966 44.4008L143.104 42.7885L138.632 41.3053L136.172 40.4895C134.41 39.9089 132.583 39.6174 130.747 39.6242H121.534C121.066 39.6242 121.065 38.8113 121.534 38.8113H130.392C132.406 38.7836 134.413 39.0831 136.35 39.7005C137.352 40.0325 138.354 40.3647 139.355 40.6974L144.793 42.5006L150.057 44.2464C150.886 44.5214 151.718 44.7885 152.545 45.0715C153.719 45.4733 154.886 45.901 156.056 46.3156C157.48 46.8202 158.904 47.3248 160.328 47.8293C162.917 48.7401 165.179 50.5475 166.786 52.99C168.394 55.4325 169.264 58.3833 169.271 61.415C169.274 62.7916 169.051 64.0787 168.787 65.4062L167.769 70.5305L166.485 76.9976L165.456 82.179C165.192 83.5045 164.963 84.8066 164.357 86.0112C163.747 87.1996 162.898 88.2123 161.876 88.9684L160.08 90.3254L157.808 92.0422C157.623 92.1822 157.441 92.3395 157.248 92.4655C157.183 92.5025 157.112 92.5244 157.039 92.5301C156.967 92.5358 156.894 92.5251 156.825 92.4986L152.691 91.4958L147.468 90.2285L146.556 90.0074C146.48 89.9823 146.414 89.9307 146.365 89.8602C146.317 89.7898 146.291 89.7041 146.289 89.6155C146.177 88.4438 146.086 87.2741 146.078 86.0945C146.07 84.5329 146.173 82.973 146.388 81.4299C146.733 78.9965 147.349 76.6209 148.223 74.3585L151.13 66.7284L152.182 63.9661L152.4 64.5631L145.706 62.5905C144.697 62.2931 143.688 61.993 142.68 61.6901L135.061 59.4156L126.533 56.8695C124.998 56.4114 123.451 55.9896 121.926 55.4941C121.903 55.4868 121.88 55.4805 121.857 55.4738C121.405 55.3389 121.597 54.5546 122.051 54.69L122.051 54.69Z" fill="black"/>
<path d="M146.926 62.1092L150.284 63.0291L155.635 64.4949L156.861 64.8308C157.316 64.9553 157.123 65.7393 156.668 65.6146L153.309 64.6946L147.959 63.2287L146.733 62.8929C146.278 62.7683 146.47 61.9843 146.926 62.1091L146.926 62.1092Z" fill="black"/>
<path d="M106.749 78.1727C106.749 78.1727 105.843 84.1191 111.954 83.5272C118.697 82.9353 137.353 82.957 137.353 82.957C137.353 82.957 139.591 84.5792 138.468 77.6016C137.345 70.6241 126.598 70.1505 126.598 70.1505" fill="black"/>
<path d="M107.1 78.2811C107.083 78.3902 107.106 78.1987 107.101 78.2635C107.096 78.3391 107.086 78.4144 107.081 78.4902C107.063 78.7516 107.06 79.0141 107.072 79.276C107.076 79.355 107.081 79.4338 107.087 79.5126C107.091 79.5563 107.095 79.5999 107.099 79.6435C107.101 79.6632 107.103 79.683 107.105 79.7027C107.115 79.806 107.092 79.6109 107.106 79.7151C107.131 79.8998 107.161 80.0831 107.202 80.2644C107.245 80.4577 107.299 80.6478 107.363 80.8337C107.37 80.8555 107.378 80.8773 107.386 80.899C107.424 81.0043 107.367 80.8523 107.392 80.916C107.412 80.9651 107.432 81.0139 107.453 81.0621C107.496 81.1604 107.542 81.2566 107.591 81.3508C107.783 81.7148 108.034 82.0348 108.333 82.2938C108.726 82.6197 109.175 82.8522 109.651 82.9769C110.781 83.297 111.945 83.1111 113.091 83.0341C115.396 82.8794 117.705 82.808 120.012 82.7473C122.666 82.6775 125.32 82.63 127.974 82.6047C130.176 82.5796 132.377 82.5633 134.578 82.5559C135.251 82.5535 135.923 82.5519 136.596 82.5511C136.846 82.5509 137.102 82.5325 137.351 82.551C137.426 82.5587 137.498 82.5838 137.563 82.6246C137.613 82.6517 137.731 82.6843 137.589 82.6443C137.645 82.6599 137.701 82.6858 137.757 82.7042C137.837 82.7309 137.814 82.707 137.76 82.7087C137.795 82.7075 137.836 82.7112 137.872 82.714C137.979 82.722 137.821 82.7436 137.893 82.7134C137.928 82.6986 137.97 82.6866 138.006 82.6753C137.878 82.7153 138 82.6683 138.044 82.6411C138.111 82.5999 138.003 82.6862 138.032 82.6521C138.05 82.6303 138.071 82.6092 138.091 82.5887C138.108 82.5709 138.122 82.5489 138.137 82.5294C138.06 82.6259 138.125 82.5498 138.141 82.5172C138.173 82.4542 138.205 82.3926 138.233 82.3274C138.256 82.2752 138.201 82.4247 138.229 82.3382C138.235 82.3206 138.242 82.3033 138.247 82.2855C138.259 82.2479 138.271 82.2105 138.281 82.1726C138.307 82.0763 138.329 81.9786 138.346 81.8799C138.365 81.7861 138.378 81.6911 138.386 81.5955C138.399 81.4561 138.408 81.3167 138.413 81.1767C138.424 80.829 138.419 80.4808 138.397 80.1337C138.351 79.2312 138.241 78.3342 138.07 77.4508C137.839 76.3316 137.329 75.308 136.6 74.4979C135.132 72.8299 133.065 71.9298 131.067 71.3488C130.192 71.0963 129.305 70.8993 128.411 70.7587C128.363 70.7511 128.315 70.7437 128.268 70.7364C128.252 70.734 128.195 70.7256 128.271 70.7369C128.251 70.7339 128.231 70.7308 128.21 70.7279C128.123 70.7154 128.035 70.7028 127.947 70.6911C127.792 70.6702 127.636 70.651 127.48 70.6336C127.262 70.6092 127.044 70.5881 126.826 70.5719C126.75 70.5662 126.674 70.5607 126.598 70.5572C126.131 70.5363 126.129 69.7235 126.598 69.7444C127.434 69.7928 128.266 69.8974 129.091 70.0578C130.823 70.3481 132.513 70.8931 134.117 71.6785C135.781 72.5207 137.387 73.7903 138.247 75.6407C138.806 76.843 138.961 78.2057 139.081 79.5373C139.168 80.504 139.253 81.625 138.931 82.5545C138.757 83.056 138.432 83.4759 137.928 83.5227C137.673 83.542 137.419 83.4744 137.2 83.329C137.189 83.3219 137.178 83.3158 137.168 83.3085L137.352 83.364C136.096 83.3626 134.839 83.3656 133.583 83.3731C130.73 83.3866 127.877 83.4147 125.024 83.4574C121.946 83.5057 118.868 83.5696 115.792 83.7026C114.592 83.7544 113.392 83.815 112.194 83.9137C110.783 84.0299 109.249 84.0075 108.043 83.0586C106.689 81.9933 106.182 80.054 106.372 78.2733C106.38 78.2039 106.387 78.1343 106.398 78.0654C106.476 77.5507 107.177 77.769 107.1 78.2815L107.1 78.2811Z" fill="black"/>
<path d="M111.637 150.885V161.657L122.805 164.143L123.121 147.807" fill="#FC7272"/>
<path d="M112.001 150.885V161.657L111.734 161.265L115.516 162.107L121.519 163.443L122.902 163.751L122.441 164.143L122.548 158.622L122.718 149.824L122.757 147.807C122.768 147.284 123.495 147.282 123.485 147.807L123.378 153.327L123.208 162.125L123.169 164.143C123.168 164.205 123.154 164.266 123.129 164.322C123.104 164.377 123.068 164.425 123.024 164.463C122.979 164.501 122.928 164.527 122.873 164.539C122.819 164.552 122.763 164.55 122.709 164.535L118.926 163.693L112.924 162.357L111.541 162.049C111.464 162.025 111.397 161.973 111.349 161.903C111.3 161.832 111.274 161.746 111.274 161.657V150.885C111.274 150.362 112.001 150.361 112.001 150.885H112.001Z" fill="black"/>
<path d="M124.638 39.254L124.443 28.4097L116.256 31.9512L116 39.0708" fill="#FC7272"/>
<path d="M124.274 39.2536L124.208 35.576L124.103 29.7479L124.079 28.4092L124.539 28.8011L121.774 29.9973L117.366 31.9044L116.352 32.3428L116.62 31.9509L116.396 38.1919L116.364 39.0705C116.345 39.5917 115.618 39.5944 115.636 39.0705L115.86 32.8294L115.892 31.9509C115.894 31.8626 115.921 31.7775 115.969 31.7072C116.017 31.637 116.083 31.5852 116.159 31.559L118.924 30.3627L123.333 28.4556L124.346 28.0173C124.4 28.0013 124.457 27.9994 124.511 28.0115C124.566 28.0237 124.618 28.0496 124.662 28.0874C124.706 28.1252 124.743 28.1739 124.768 28.2296C124.793 28.2854 124.806 28.3468 124.806 28.4092L124.873 32.0868L124.977 37.9149L125.001 39.2536C125.011 39.7769 124.283 39.7768 124.274 39.2536H124.274Z" fill="black"/>
<path d="M117.617 33.3952C116.895 33.5689 116.162 33.6856 115.425 33.7444C115.199 33.7631 114.971 33.7401 114.751 33.6762C111.621 32.7646 110.368 29.4676 109.963 25.9672H109.664C108.679 26.1231 108.305 25.8523 108.419 25.157C109.311 24.0616 109.687 23.4508 109.785 22.6598L109.809 22.1473C109.86 20.0964 110.07 18.0542 110.436 16.0435L126.151 15.4115C126.151 15.4115 128.192 19.1904 128.042 20.9308C127.784 23.9279 125.185 26.0742 124.467 29.9383" fill="#FC7272"/>
<path d="M117.713 33.7865C117.218 33.9057 116.718 33.9962 116.214 34.0644C115.693 34.135 115.171 34.2104 114.654 34.0676C113.912 33.8595 113.214 33.4866 112.604 32.9709C111.404 31.9557 110.638 30.4781 110.169 28.9016C109.896 27.9456 109.705 26.9629 109.599 25.9666L109.963 26.373C109.361 26.373 108.469 26.6138 108.131 25.8586C108.058 25.6888 108.026 25.501 108.037 25.3132C108.035 25.1884 108.058 25.0647 108.104 24.9513C108.207 24.7908 108.324 24.6415 108.452 24.5056C108.75 24.1474 109.008 23.7503 109.221 23.3227C109.287 23.1796 109.339 23.029 109.376 22.8736C109.397 22.7857 109.414 22.6963 109.426 22.6061C109.412 22.7216 109.428 22.504 109.429 22.4788C109.452 21.9847 109.463 21.4901 109.49 20.9962C109.553 19.8477 109.667 18.7027 109.823 17.5654C109.897 17.0201 109.978 16.4737 110.084 15.9349C110.106 15.8497 110.152 15.7746 110.216 15.7209C110.279 15.6672 110.356 15.6376 110.435 15.6365L115.744 15.423L124.207 15.0827L126.151 15.0045C126.214 15.0045 126.277 15.0231 126.332 15.0584C126.387 15.0938 126.433 15.1446 126.465 15.2058C126.733 15.7023 126.978 16.2151 127.213 16.7321C127.669 17.6768 128.028 18.6759 128.284 19.7105C128.393 20.149 128.43 20.6058 128.393 21.059C128.33 21.6358 128.197 22.2003 127.997 22.737C127.586 23.8561 126.983 24.8627 126.423 25.8925C125.714 27.196 125.103 28.5434 124.818 30.0457C124.721 30.5571 124.019 30.3407 124.116 29.8296C124.39 28.5068 124.85 27.2407 125.478 26.078C126.007 25.0528 126.618 24.0768 127.091 23.0154C127.464 22.1776 127.795 21.1609 127.644 20.2437C127.482 19.2601 127.102 18.3191 126.711 17.4263C126.441 16.8113 126.153 16.2028 125.837 15.616L126.151 15.8173L120.842 16.0308L112.379 16.3711L110.435 16.4493L110.786 16.1509C110.61 17.038 110.492 17.9432 110.394 18.8445C110.292 19.7893 110.221 20.7385 110.186 21.6895C110.166 22.2286 110.185 22.7832 110.019 23.2982C109.751 24.1273 109.197 24.8017 108.676 25.4437L108.769 25.2644C108.761 25.3272 108.76 25.3909 108.765 25.454C108.764 25.44 108.784 25.4998 108.792 25.5157C108.758 25.45 108.831 25.5471 108.782 25.5075C108.802 25.5243 108.823 25.5386 108.846 25.5502C108.806 25.5318 108.916 25.5738 108.914 25.5733C108.945 25.5823 108.977 25.5895 109.008 25.5947C109.327 25.6065 109.646 25.595 109.963 25.5601C110.058 25.5632 110.149 25.607 110.217 25.6826C110.285 25.7581 110.324 25.8597 110.327 25.9665C110.673 28.913 111.757 32.1851 114.524 33.1787C114.732 33.2634 114.95 33.318 115.17 33.3409C115.433 33.3451 115.695 33.3262 115.955 33.2844C116.481 33.2218 117.003 33.1278 117.52 33.0028C117.977 32.893 118.172 33.6764 117.713 33.7866L117.713 33.7865Z" fill="black"/>
<path d="M119.304 26.1144C120.067 25.4844 121.203 23.0185 121.241 21.5835C121.298 19.4155 120.275 18.871 118.927 18.8264C117.58 18.7817 116.015 21.5931 115.959 23.7061L115.862 19.1243C115.856 18.791 115.788 18.4629 115.662 18.1608C115.535 17.8588 115.354 17.5897 115.129 17.3707C114.904 17.1517 114.64 16.9878 114.355 16.8894C114.07 16.791 113.77 16.7603 113.473 16.7994L110.549 16.8559C110.262 16.8598 109.979 16.7814 109.727 16.628C109.475 16.4746 109.263 16.2515 109.11 15.98C108.958 15.7085 108.87 15.3977 108.856 15.0775C108.842 14.7573 108.901 14.4385 109.029 14.1515L109.27 13.6071C109.722 12.5828 110.413 11.7141 111.271 11.0932C112.128 10.4722 113.121 10.1223 114.142 10.0803L122.031 9.76739C123.159 9.7238 124.278 10.0011 125.283 10.5733C126.289 11.1455 127.147 11.9937 127.779 13.0384L129.658 16.1404C129.658 16.1404 133.628 23.5964 124.474 32.6452C123.775 32.6093 120.283 32.3272 119.166 30.7035C118.048 29.0797 119.304 26.1144 119.304 26.1144Z" fill="#EA2F2F"/>
<path d="M119.121 25.7638C119.224 25.6595 119.321 25.5478 119.411 25.4296C119.542 25.2518 119.662 25.0644 119.77 24.8686C120.028 24.4148 120.251 23.9374 120.437 23.4415C120.787 22.5097 121.035 21.4696 120.775 20.468C120.576 19.7011 120.02 19.3592 119.342 19.265C119.032 19.1875 118.707 19.2283 118.42 19.381C118.057 19.6157 117.743 19.9326 117.496 20.3113C116.806 21.2839 116.397 22.468 116.323 23.7064C116.32 23.8117 116.28 23.9114 116.212 23.9846C116.145 24.0578 116.054 24.0987 115.96 24.0987C115.865 24.0987 115.775 24.0578 115.707 23.9846C115.639 23.9114 115.599 23.8117 115.596 23.7064L115.537 20.9243L115.504 19.382C115.523 18.8785 115.394 18.3819 115.136 17.9679C114.924 17.6564 114.634 17.4222 114.303 17.2949C114.026 17.2045 113.736 17.1745 113.45 17.2065C113.049 17.2267 112.645 17.2221 112.244 17.2298L110.725 17.2591C110.156 17.3002 109.595 17.0917 109.162 16.6778C108.882 16.3914 108.678 16.024 108.573 15.6161C108.468 15.2083 108.465 14.7759 108.567 14.3668C108.658 14.0686 108.773 13.7802 108.911 13.505C109.066 13.1475 109.247 12.8053 109.454 12.4821C109.96 11.701 110.609 11.049 111.358 10.5693C112.107 10.0896 112.939 9.79319 113.798 9.69964C114.41 9.6334 115.033 9.6389 115.647 9.61454L118.966 9.48292L121.677 9.37536C122.82 9.3001 123.963 9.51083 125.023 9.99217C126.338 10.6444 127.454 11.712 128.232 13.0634L129.88 15.7827C130.347 16.5536 130.58 17.543 130.724 18.4461C131.123 20.9522 130.694 23.5022 129.748 25.7978C129.007 27.5314 128.041 29.1333 126.882 30.5514C126.53 30.9924 126.166 31.4197 125.788 31.8332C125.598 32.042 125.405 32.2475 125.209 32.4497C125.016 32.6491 124.753 33.0389 124.474 33.0519C124.034 33.0474 123.596 33.0011 123.163 32.9134C121.838 32.7151 120.371 32.3908 119.302 31.4323C118.119 30.3705 118.221 28.5227 118.61 27.0498C118.711 26.6595 118.838 26.2784 118.99 25.9097C119.19 25.4368 119.817 25.8489 119.619 26.3199C119.606 26.3508 119.593 26.3822 119.581 26.4135C119.545 26.5071 119.607 26.3369 119.566 26.4546C119.543 26.5185 119.52 26.5821 119.498 26.6464C119.394 26.9548 119.305 27.2696 119.233 27.5894C119.056 28.3714 118.951 29.2771 119.239 30.0434C119.493 30.721 120.095 31.1223 120.676 31.3977C121.364 31.7047 122.082 31.9203 122.815 32.0399C123.364 32.1428 123.918 32.2093 124.474 32.2391L124.217 32.3581C126.423 30.1704 128.451 27.5496 129.479 24.4153C129.824 23.384 130.04 22.3048 130.123 21.2079C130.154 20.7488 130.159 20.2881 130.139 19.8283C130.129 19.6246 130.114 19.4213 130.094 19.2185C130.09 19.1747 130.085 19.131 130.081 19.0873C130.078 19.0627 130.075 19.0381 130.072 19.0136C130.082 19.092 130.074 19.028 130.072 19.0124C130.06 18.9184 130.047 18.8243 130.033 18.7305C129.945 18.142 129.805 17.5646 129.617 17.0063C129.601 16.9586 129.584 16.9112 129.567 16.8638C129.56 16.8431 129.552 16.8227 129.544 16.8021C129.531 16.7635 129.582 16.8954 129.547 16.8085C129.517 16.7354 129.489 16.6619 129.458 16.5895C129.424 16.5123 129.391 16.4337 129.352 16.3602C129.075 15.8447 128.745 15.3569 128.444 14.8594C128.031 14.1784 127.645 13.4538 127.181 12.8132C126.263 11.5405 124.98 10.6591 123.549 10.3167C122.867 10.1813 122.172 10.1408 121.481 10.196L116.327 10.4004L114.357 10.4785C113.443 10.4933 112.546 10.7574 111.744 11.2478C111.146 11.6271 110.618 12.1313 110.19 12.7331C109.866 13.2213 109.59 13.7475 109.368 14.3024C109.258 14.5331 109.206 14.7923 109.217 15.0532C109.227 15.3141 109.3 15.5671 109.427 15.786C109.555 16.0049 109.732 16.1818 109.941 16.2983C110.151 16.4147 110.384 16.4666 110.617 16.4484C111.423 16.4354 112.228 16.4173 113.034 16.4017C113.359 16.3759 113.686 16.3742 114.011 16.3966C114.35 16.4417 114.676 16.563 114.972 16.7534C115.267 16.9437 115.524 17.1991 115.728 17.5039C116.247 18.2725 116.227 19.1605 116.246 20.0667L116.31 23.0855L116.323 23.7065H115.596C115.664 22.4094 116.059 21.1603 116.736 20.1029C117.283 19.2282 118.06 18.3611 119.086 18.4281C119.958 18.4851 120.856 18.806 121.288 19.7264C121.786 20.7903 121.643 22.0939 121.301 23.1845C121.088 23.8652 120.812 24.5192 120.478 25.1359C120.225 25.6442 119.889 26.0952 119.488 26.4659C119.405 26.5196 119.306 26.5344 119.212 26.5071C119.119 26.4798 119.039 26.4126 118.99 26.3201C118.944 26.2264 118.931 26.1163 118.956 26.0127C118.98 25.9091 119.039 25.8199 119.121 25.7638Z" fill="black"/>
<path d="M117.022 23.8365C117.123 23.4653 117.244 23.1014 117.386 22.747C117.599 22.1966 117.87 21.5947 118.297 21.2124C118.424 21.0856 118.575 20.994 118.74 20.9451C118.904 20.8962 119.076 20.8913 119.243 20.9309C119.335 20.9604 119.414 21.0293 119.461 21.1228C119.509 21.2163 119.522 21.3269 119.497 21.4308C119.47 21.5335 119.408 21.6205 119.324 21.6734C119.241 21.7263 119.142 21.7411 119.049 21.7147C119.039 21.7118 119.026 21.71 119.015 21.7062C118.966 21.6881 119.055 21.7155 119.062 21.7124C119.039 21.7145 119.017 21.7134 118.995 21.7091C118.984 21.7093 118.973 21.7113 118.962 21.7108C118.911 21.7082 119.005 21.7062 119.01 21.7027C118.984 21.7129 118.956 21.72 118.929 21.7236C118.919 21.7271 118.908 21.7325 118.897 21.7353C118.847 21.7488 118.933 21.7209 118.937 21.7154C118.926 21.7297 118.889 21.7407 118.874 21.7497C118.853 21.7624 118.833 21.7762 118.813 21.7907C118.803 21.7981 118.793 21.8062 118.783 21.8136C118.736 21.8475 118.771 21.8513 118.797 21.8004C118.776 21.8417 118.711 21.8831 118.68 21.9177C118.639 21.9642 118.6 22.0132 118.562 22.0638C118.554 22.0746 118.53 22.0971 118.528 22.1103C118.529 22.1071 118.582 22.0283 118.545 22.0859C118.528 22.1126 118.51 22.1389 118.493 22.1659C118.456 22.2247 118.421 22.2846 118.387 22.3457C118.253 22.5914 118.134 22.8475 118.032 23.112C118.018 23.141 118.006 23.1712 117.997 23.2024C118.021 23.0921 118.005 23.1814 117.992 23.2158C117.969 23.2788 117.946 23.3421 117.924 23.4057C117.889 23.509 117.855 23.613 117.822 23.7177C117.787 23.8285 117.754 23.9401 117.724 24.0528C117.712 24.1045 117.69 24.1529 117.661 24.1952C117.632 24.2375 117.595 24.273 117.553 24.2995C117.512 24.326 117.466 24.3431 117.418 24.3498C117.371 24.3564 117.322 24.3526 117.276 24.3383C117.23 24.3241 117.187 24.2998 117.149 24.2669C117.111 24.2339 117.08 24.193 117.056 24.1464C117.033 24.0998 117.017 24.0484 117.012 23.9953C117.006 23.9421 117.01 23.8882 117.023 23.8367L117.022 23.8365Z" fill="black"/>
<path d="M110.957 19.9632C111.273 19.7352 111.625 19.576 111.994 19.4942C112.809 19.2987 113.66 19.4466 114.384 19.9095C114.793 20.1648 114.426 20.8672 114.017 20.6114C113.441 20.2441 112.763 20.1317 112.116 20.2963C111.997 20.3286 111.88 20.3687 111.766 20.4162C111.738 20.4276 111.711 20.4404 111.683 20.4518C111.617 20.4789 111.721 20.4323 111.682 20.4522C111.642 20.473 111.601 20.4931 111.561 20.5151C111.479 20.5587 111.4 20.6088 111.324 20.6651C111.24 20.7184 111.141 20.7331 111.048 20.7058C110.955 20.6786 110.875 20.6116 110.826 20.5193C110.779 20.4257 110.767 20.3155 110.791 20.2119C110.815 20.1082 110.875 20.0191 110.957 19.9632H110.957Z" fill="black"/>
<path d="M112.21 22.999C111.906 22.999 111.659 22.7222 111.659 22.3807C111.659 22.0393 111.906 21.7625 112.21 21.7625C112.513 21.7625 112.76 22.0393 112.76 22.3807C112.76 22.7222 112.513 22.999 112.21 22.999Z" fill="black"/>
<path d="M112.942 22.3712C112.942 22.5399 112.896 22.7048 112.811 22.8439C112.725 22.9831 112.604 23.09 112.463 23.1506C112.324 23.2082 112.173 23.2171 112.029 23.1761C111.885 23.1352 111.756 23.0463 111.659 22.9213C111.581 22.8222 111.525 22.7034 111.497 22.575C111.468 22.4467 111.468 22.3125 111.496 22.1841C111.524 22.0557 111.58 21.9368 111.658 21.8375C111.737 21.7383 111.835 21.6618 111.946 21.6144C112.056 21.567 112.175 21.5502 112.293 21.5654C112.41 21.5806 112.523 21.6274 112.621 21.7018C112.719 21.7761 112.799 21.8759 112.855 21.9924C112.911 22.109 112.941 22.239 112.942 22.3712C112.941 22.425 112.922 22.4764 112.888 22.5144C112.854 22.5524 112.808 22.574 112.76 22.5744C112.712 22.5734 112.666 22.5516 112.632 22.5137C112.598 22.4758 112.579 22.4248 112.578 22.3712C112.577 22.354 112.576 22.3368 112.575 22.3197C112.576 22.3596 112.578 22.3349 112.576 22.3234C112.57 22.2962 112.565 22.2693 112.557 22.2428C112.555 22.2348 112.536 22.185 112.555 22.2303C112.551 22.2204 112.547 22.2106 112.542 22.201C112.529 22.1723 112.513 22.1448 112.497 22.1185C112.519 22.154 112.501 22.1242 112.494 22.1157C112.485 22.106 112.478 22.0959 112.469 22.0864C112.46 22.0763 112.405 22.0279 112.44 22.0557C112.421 22.0401 112.401 22.0257 112.38 22.0126C112.371 22.0074 112.362 22.003 112.354 21.998C112.323 21.9799 112.381 22.0048 112.337 21.991C112.313 21.9835 112.29 21.9752 112.266 21.97C112.254 21.9675 112.222 21.9662 112.262 21.9688C112.249 21.968 112.237 21.9667 112.224 21.9663C112.211 21.9659 112.198 21.966 112.186 21.9667C112.185 21.9667 112.135 21.9707 112.164 21.9676C112.193 21.9645 112.145 21.9718 112.144 21.9721C112.13 21.9755 112.115 21.9796 112.101 21.9843C112.087 21.989 112.073 21.9946 112.059 22.0003C112.066 21.9977 112.092 21.982 112.063 21.9993C112.041 22.0118 112.02 22.0244 112 22.0392C111.999 22.0398 111.962 22.071 111.984 22.0516C112.005 22.0321 111.969 22.066 111.969 22.0666C111.948 22.0884 111.928 22.1118 111.91 22.1367C111.934 22.1046 111.917 22.1264 111.913 22.1343C111.905 22.1482 111.897 22.1613 111.89 22.1753C111.885 22.1847 111.88 22.1942 111.876 22.2038C111.872 22.2122 111.857 22.2609 111.871 22.2148C111.862 22.2407 111.855 22.2669 111.849 22.2936C111.847 22.3044 111.845 22.3153 111.843 22.3262C111.836 22.3664 111.845 22.2937 111.842 22.3478C111.841 22.3737 111.843 22.3994 111.843 22.4253C111.843 22.48 111.834 22.3856 111.844 22.4386C111.846 22.4495 111.847 22.4605 111.85 22.4714C111.856 22.4981 111.863 22.5244 111.872 22.5502C111.857 22.5042 111.874 22.5531 111.877 22.5612C111.884 22.5756 111.891 22.5897 111.898 22.6036C111.906 22.6144 111.912 22.6256 111.918 22.6372C111.929 22.6631 111.891 22.6051 111.921 22.6405C111.937 22.6601 111.953 22.6798 111.971 22.6979C111.972 22.6986 112.008 22.7315 111.986 22.7127C111.964 22.6938 112.002 22.7243 112.002 22.7248C112.027 22.7424 112.052 22.7578 112.078 22.7711C112.072 22.7678 112.044 22.7578 112.076 22.7687C112.09 22.7736 112.103 22.779 112.118 22.7832C112.127 22.786 112.137 22.7885 112.146 22.7908C112.148 22.7912 112.195 22.7974 112.166 22.795C112.137 22.7926 112.187 22.7956 112.188 22.7957C112.2 22.7962 112.213 22.7963 112.226 22.7958C112.239 22.7954 112.251 22.7941 112.264 22.7932C112.221 22.7965 112.265 22.7926 112.275 22.7902C112.304 22.783 112.332 22.7736 112.36 22.762C112.323 22.7771 112.354 22.7651 112.363 22.7593C112.378 22.7501 112.393 22.7417 112.407 22.7317C112.415 22.726 112.423 22.7198 112.431 22.714C112.448 22.7006 112.447 22.7015 112.429 22.7167C112.436 22.7099 112.443 22.7029 112.45 22.6958C112.468 22.6777 112.484 22.6578 112.5 22.638C112.531 22.6001 112.483 22.6723 112.507 22.628C112.514 22.6141 112.522 22.601 112.53 22.587C112.537 22.5729 112.543 22.5583 112.55 22.5439C112.567 22.5067 112.543 22.5763 112.553 22.5321C112.562 22.4999 112.57 22.4689 112.576 22.4361C112.578 22.4239 112.576 22.4009 112.576 22.4401C112.576 22.4173 112.578 22.3944 112.578 22.3715C112.578 22.3447 112.582 22.318 112.591 22.2931C112.6 22.2682 112.614 22.2456 112.631 22.2265C112.647 22.2074 112.668 22.1923 112.69 22.1819C112.712 22.1716 112.736 22.1663 112.76 22.1663C112.784 22.1663 112.808 22.1716 112.83 22.1819C112.852 22.1923 112.872 22.2074 112.889 22.2265C112.906 22.2456 112.919 22.2682 112.928 22.2931C112.937 22.318 112.942 22.3447 112.942 22.3715L112.942 22.3712Z" fill="black"/>
<path d="M122.005 9.76038L107.686 10.0378C107.686 10.0378 104.394 17.3589 113.512 18.5002C114.46 18.618 115.419 18.4845 116.312 18.1106C117.205 17.7366 118.006 17.1328 118.651 16.348L119.393 15.4469" fill="#EA2F2F"/>
<path d="M122.005 10.1672L117.143 10.2613L109.454 10.4102L107.686 10.4445L108 10.2432C107.987 10.2714 107.974 10.3 107.964 10.3293C107.952 10.3624 107.938 10.3954 107.925 10.4277C107.915 10.4526 107.967 10.3097 107.936 10.3987C107.927 10.4248 107.917 10.4506 107.908 10.4765C107.808 10.7594 107.724 11.0488 107.656 11.3433C107.612 11.5337 107.575 11.7259 107.545 11.9198C107.538 11.9659 107.531 12.0121 107.525 12.0583C107.521 12.0865 107.517 12.1148 107.514 12.1431C107.529 12.027 107.515 12.1273 107.513 12.1497C107.502 12.263 107.491 12.3761 107.484 12.4899C107.469 12.7233 107.467 12.9575 107.477 13.1912C107.483 13.3101 107.493 13.4283 107.504 13.5467C107.515 13.6532 107.496 13.486 107.505 13.553C107.508 13.5803 107.511 13.6076 107.516 13.6348C107.526 13.7063 107.537 13.7776 107.55 13.8486C107.631 14.3527 107.803 14.8333 108.055 15.2612C108.352 15.7638 108.732 16.198 109.176 16.5403C109.789 16.9999 110.463 17.3492 111.174 17.5756C112.148 17.9229 113.162 18.1117 114.184 18.1362C115.405 18.132 116.594 17.694 117.578 16.8855C118.168 16.4023 118.643 15.7587 119.136 15.1599C119.453 14.774 119.967 15.3499 119.65 15.7346C119.22 16.3013 118.754 16.8318 118.254 17.3218C117.345 18.1497 116.253 18.6861 115.092 18.8735C113.958 19.0502 112.799 18.8569 111.69 18.5698C110.842 18.3639 110.024 18.0234 109.261 17.5586C108.192 16.883 107.327 15.8514 106.955 14.5273C106.699 13.5294 106.674 12.4749 106.884 11.4635C106.984 10.899 107.147 10.3511 107.371 9.83299C107.403 9.77159 107.449 9.72066 107.504 9.68533C107.56 9.65 107.622 9.63151 107.686 9.63172L112.547 9.53753L120.237 9.38857L122.005 9.35432C122.473 9.34525 122.473 10.1581 122.005 10.1671L122.005 10.1672Z" fill="black"/>
<path d="M120.245 25.5347C119.934 26.0971 119.48 26.5436 118.941 26.8175C118.402 27.0914 117.802 27.1803 117.217 27.0731C117.125 27.0439 117.046 26.975 116.998 26.8814C116.951 26.7878 116.938 26.6771 116.963 26.5732C116.991 26.4708 117.053 26.3843 117.136 26.3316C117.22 26.2788 117.318 26.2637 117.411 26.2895C117.365 26.2824 117.496 26.2975 117.51 26.2987C117.56 26.3028 117.611 26.3053 117.661 26.3063C117.757 26.3081 117.853 26.304 117.949 26.2938C117.972 26.2913 117.995 26.2885 118.018 26.2854C117.978 26.2914 117.979 26.2908 118.022 26.2836C118.066 26.2742 118.11 26.2661 118.153 26.2554C118.226 26.2373 118.299 26.2154 118.37 26.19C118.41 26.1759 118.449 26.1607 118.488 26.1445C118.507 26.1365 118.526 26.1283 118.545 26.1198C118.505 26.1393 118.503 26.1399 118.541 26.1215C118.612 26.0852 118.681 26.0476 118.749 26.0056C118.814 25.9657 118.877 25.9229 118.938 25.8772C118.967 25.8554 118.997 25.8329 119.025 25.8099C119.033 25.8034 119.117 25.733 119.07 25.7731C119.024 25.8133 119.103 25.7429 119.111 25.7357C119.135 25.7131 119.159 25.69 119.183 25.6665C119.228 25.6226 119.271 25.5773 119.313 25.5306C119.381 25.4548 119.446 25.3754 119.508 25.2926C119.52 25.2772 119.531 25.2616 119.542 25.2463C119.595 25.1742 119.495 25.3186 119.527 25.2689C119.543 25.243 119.561 25.218 119.577 25.192C119.591 25.1699 119.604 25.1476 119.617 25.1246C119.641 25.0785 119.673 25.0382 119.711 25.0059C119.749 24.9736 119.793 24.95 119.839 24.9365C119.885 24.923 119.933 24.9197 119.981 24.927C120.028 24.9342 120.074 24.9518 120.115 24.9788C120.156 25.0057 120.192 25.0415 120.221 25.084C120.25 25.1265 120.271 25.175 120.283 25.2266C120.295 25.2782 120.298 25.332 120.292 25.3849C120.285 25.4378 120.27 25.4887 120.245 25.5348L120.245 25.5347Z" fill="black"/>
<path d="M123.443 160.62L123.398 172.548H99.8271C99.8271 172.548 99.4251 165.027 108.227 164.234C109.021 164.157 109.76 163.746 110.294 163.085C110.828 162.424 111.119 161.562 111.107 160.671C111.102 160.148 111.097 159.724 111.092 159.382C111.089 159.201 111.118 159.02 111.178 158.851C111.238 158.682 111.328 158.529 111.441 158.399C111.555 158.269 111.691 158.166 111.841 158.095C111.991 158.024 112.151 157.988 112.314 157.987H113.323L116.007 159.848C116.686 160.319 117.471 160.567 118.271 160.563C119.071 160.558 119.854 160.302 120.529 159.823L121.293 159.281C121.506 159.131 121.751 159.048 122.003 159.04C122.255 159.033 122.504 159.101 122.724 159.238C122.944 159.375 123.126 159.575 123.253 159.819C123.379 160.062 123.445 160.339 123.443 160.62Z" fill="#389B48"/>
<path d="M123.807 160.62L123.792 164.659L123.768 171.068L123.762 172.548C123.761 172.655 123.722 172.758 123.654 172.833C123.586 172.909 123.494 172.953 123.398 172.954H102.738C101.783 172.954 100.821 172.995 99.8669 172.954C99.8538 172.954 99.8405 172.954 99.8274 172.954C99.7315 172.952 99.6401 172.908 99.5723 172.833C99.5045 172.757 99.4655 172.655 99.4636 172.548C99.4396 171.502 99.616 170.463 99.981 169.5C100.793 167.238 102.433 165.624 104.444 164.737C105.142 164.435 105.865 164.209 106.602 164.063C107.043 163.973 107.488 163.906 107.934 163.857C108.331 163.837 108.721 163.742 109.09 163.578C109.43 163.406 109.737 163.16 109.991 162.854C110.245 162.549 110.443 162.189 110.571 161.798C110.699 161.373 110.757 160.927 110.742 160.48C110.737 159.996 110.678 159.471 110.763 158.994C110.844 158.586 111.049 158.222 111.343 157.964C111.638 157.707 112.003 157.571 112.377 157.581C112.631 157.58 112.885 157.581 113.139 157.581C113.28 157.566 113.422 157.595 113.548 157.665C114.365 158.182 115.149 158.775 115.946 159.327C116.412 159.674 116.931 159.926 117.476 160.07C118.387 160.277 119.335 160.112 120.146 159.605C120.572 159.338 120.958 158.966 121.413 158.763C121.768 158.613 122.156 158.595 122.521 158.711C122.886 158.827 123.208 159.071 123.44 159.406C123.677 159.755 123.806 160.182 123.807 160.62C123.815 161.143 123.087 161.143 123.079 160.62C123.078 160.409 123.026 160.203 122.929 160.022C122.832 159.842 122.693 159.694 122.527 159.594C122.36 159.495 122.173 159.447 121.985 159.456C121.796 159.466 121.613 159.532 121.456 159.647C120.76 160.126 120.11 160.626 119.296 160.835C118.108 161.136 116.862 160.908 115.823 160.198C115.413 159.919 115.007 159.633 114.6 159.35L113.14 158.338L113.323 158.394C112.751 158.394 111.922 158.212 111.577 158.866C111.476 159.087 111.435 159.337 111.459 159.583C111.464 159.914 111.468 160.244 111.47 160.574C111.48 161.204 111.364 161.829 111.13 162.403C110.907 162.935 110.579 163.404 110.171 163.776C109.763 164.147 109.285 164.412 108.773 164.549C108.214 164.693 107.625 164.693 107.058 164.796C106.539 164.889 106.025 165.018 105.521 165.183C104.056 165.665 102.701 166.505 101.711 167.81C101.048 168.694 100.584 169.742 100.358 170.866C100.308 171.105 100.27 171.345 100.237 171.587C100.226 171.673 100.248 171.485 100.24 171.57C100.236 171.599 100.233 171.629 100.23 171.658C100.226 171.7 100.222 171.742 100.218 171.784C100.21 171.871 100.204 171.958 100.199 172.045C100.187 172.212 100.185 172.38 100.191 172.548L99.8276 172.141H122.436C122.744 172.124 123.052 172.124 123.359 172.141C123.372 172.142 123.385 172.142 123.398 172.141L123.035 172.548L123.05 168.509L123.074 162.099L123.079 160.62C123.081 160.097 123.809 160.096 123.807 160.62Z" fill="black"/>
<path d="M131.408 72.3519C131.408 72.3519 136.498 73.4517 137.086 76.7512C137.673 80.0506 130.234 80.8204 130.234 80.8204" fill="black"/>
<path d="M131.505 71.96C132.348 72.155 133.169 72.4491 133.955 72.8373C135.249 73.4569 136.627 74.3998 137.218 75.896C137.461 76.5103 137.584 77.2041 137.363 77.8497C137.137 78.4347 136.758 78.9299 136.275 79.2705C135.25 80.0691 133.965 80.469 132.758 80.7689C131.926 80.9804 131.083 81.1334 130.234 81.2268C130.138 81.226 130.046 81.1829 129.978 81.1069C129.909 81.0308 129.871 80.9279 129.87 80.8204C129.872 80.7133 129.911 80.6112 129.979 80.5354C130.047 80.4597 130.138 80.4162 130.234 80.414C130.419 80.3947 130.603 80.3683 130.786 80.3411C130.673 80.3579 130.816 80.3364 130.841 80.3323C130.887 80.3251 130.933 80.3177 130.979 80.3102C131.091 80.2918 131.203 80.2725 131.315 80.2523C131.563 80.2074 131.81 80.1579 132.057 80.1038C133.208 79.8513 134.394 79.5181 135.41 78.9074C135.526 78.838 135.639 78.7647 135.75 78.6861C135.85 78.6154 135.997 78.4999 136.041 78.46C136.133 78.3783 136.221 78.2907 136.304 78.1976C136.343 78.1528 136.381 78.1067 136.418 78.0591C136.44 78.0311 136.462 78.0028 136.482 77.9736C136.437 78.0374 136.494 77.953 136.503 77.939C136.566 77.8372 136.621 77.7293 136.667 77.6166C136.692 77.5545 136.639 77.706 136.672 77.6012C136.683 77.5684 136.693 77.5358 136.702 77.5026C136.719 77.4414 136.732 77.3795 136.743 77.3168C136.747 77.2947 136.754 77.2165 136.746 77.3033C136.749 77.2679 136.752 77.2324 136.753 77.1969C136.756 77.1362 136.756 77.0755 136.753 77.0149C136.751 76.9901 136.749 76.9654 136.747 76.9407C136.737 76.818 136.762 77.0209 136.742 76.8974C136.725 76.7978 136.704 76.6992 136.679 76.6017C136.316 75.19 135.055 74.2978 133.929 73.7092C133.095 73.2704 132.216 72.9462 131.312 72.7437C130.853 72.6439 131.047 71.8604 131.506 71.9599L131.505 71.96Z" fill="black"/>
<path d="M141.816 144.955L146.953 154.051L157.568 149.427L150.045 135.443" fill="#FC7272"/>
<path d="M142.13 144.75L143.864 147.82L146.63 152.718L147.267 153.845L146.856 153.659L150.451 152.093L156.157 149.607L157.471 149.035L157.254 149.632L154.712 144.906L150.66 137.375L149.731 135.648C149.489 135.198 150.118 134.789 150.359 135.238L152.901 139.963L156.953 147.494L157.882 149.221C157.909 149.275 157.925 149.336 157.928 149.397C157.932 149.459 157.923 149.521 157.902 149.578C157.881 149.636 157.849 149.687 157.808 149.729C157.767 149.77 157.718 149.801 157.665 149.818L154.07 151.384L148.364 153.87L147.049 154.442C146.972 154.466 146.89 154.46 146.816 154.426C146.742 154.393 146.679 154.333 146.639 154.256L144.904 151.185L142.139 146.287L141.502 145.16C141.251 144.716 141.881 144.308 142.13 144.75L142.13 144.75Z" fill="black"/>
<path d="M156.426 146.069L162.076 156.167L142.174 170.356C142.174 170.356 138.248 164.248 145.302 158.28C145.936 157.738 146.363 156.948 146.499 156.069C146.635 155.19 146.469 154.286 146.035 153.538C145.781 153.099 145.575 152.744 145.408 152.458C145.318 152.306 145.257 152.136 145.227 151.957C145.198 151.778 145.2 151.594 145.234 151.416C145.268 151.238 145.333 151.07 145.426 150.92C145.519 150.771 145.637 150.643 145.774 150.545L146.626 149.938L149.779 149.893C150.58 149.881 151.362 149.617 152.035 149.132C152.708 148.646 153.245 147.96 153.586 147.15L153.973 146.232C154.079 145.977 154.245 145.76 154.454 145.602C154.662 145.444 154.905 145.351 155.156 145.335C155.407 145.318 155.658 145.377 155.881 145.506C156.105 145.636 156.293 145.83 156.426 146.069Z" fill="#389B48"/>
<path d="M156.741 145.863L158.651 149.278L161.695 154.718L162.391 155.962C162.438 156.055 162.45 156.165 162.426 156.269C162.402 156.373 162.342 156.462 162.26 156.518L160.275 157.933L155.511 161.33L149.79 165.408L144.809 168.959C144.007 169.532 143.218 170.155 142.391 170.683C142.38 170.691 142.369 170.699 142.358 170.707C142.274 170.759 142.175 170.773 142.083 170.746C141.99 170.719 141.91 170.653 141.86 170.561C141.189 169.513 140.849 168.124 140.748 166.86C140.5 163.746 142.014 160.947 144.027 158.929C144.669 158.285 145.459 157.788 145.87 156.911C146.194 156.204 146.268 155.387 146.077 154.622C145.951 154.188 145.766 153.779 145.528 153.409C145.313 153.039 145.041 152.666 144.917 152.242C144.813 151.858 144.827 151.446 144.955 151.071C145.083 150.696 145.319 150.379 145.626 150.169C145.812 150.034 146 149.903 146.187 149.769C146.316 149.648 146.471 149.566 146.638 149.531C146.96 149.507 147.29 149.522 147.613 149.517C148.444 149.505 149.294 149.553 150.122 149.466C150.875 149.383 151.591 149.053 152.177 148.518C152.673 148.05 153.068 147.463 153.333 146.801C153.538 146.314 153.709 145.759 154.088 145.403C154.282 145.217 154.509 145.079 154.754 145.001C155 144.922 155.258 144.904 155.51 144.948C155.762 144.992 156.003 145.096 156.215 145.255C156.428 145.413 156.607 145.62 156.741 145.864C156.997 146.303 156.368 146.711 156.112 146.274C155.644 145.472 154.642 145.632 154.283 146.449C153.922 147.268 153.618 148.072 153.035 148.739C152.242 149.641 151.183 150.191 150.054 150.286C149.517 150.332 148.972 150.311 148.434 150.318L146.626 150.344L146.81 150.289L146.197 150.726C145.965 150.891 145.74 151.04 145.631 151.343C145.454 151.841 145.708 152.228 145.942 152.63C146.251 153.106 146.509 153.62 146.71 154.162C147.016 155.156 146.961 156.244 146.555 157.193C146.092 158.292 145.129 158.891 144.358 159.691C143.062 161.038 141.982 162.703 141.596 164.661C141.352 165.913 141.41 167.214 141.765 168.432C141.878 168.862 142.034 169.276 142.229 169.668C142.306 169.835 142.393 169.996 142.488 170.151L141.991 170.005L143.975 168.59L148.74 165.194L154.461 161.115L159.441 157.564L161.082 156.394C161.337 156.212 161.59 155.991 161.86 155.84C161.871 155.833 161.882 155.824 161.893 155.816L161.762 156.372L159.852 152.957L156.808 147.518L156.112 146.274C155.863 145.829 156.493 145.42 156.741 145.863Z" fill="black"/>
<path d="M146.464 155.833C146.641 155.824 146.819 155.84 146.994 155.881C147.346 155.95 147.679 156.11 147.966 156.348C148.2 156.545 148.401 156.788 148.559 157.064C148.607 157.157 148.62 157.268 148.595 157.372C148.571 157.476 148.511 157.565 148.428 157.62C148.344 157.672 148.246 157.686 148.153 157.659C148.06 157.632 147.981 157.566 147.93 157.474C147.911 157.44 147.891 157.406 147.869 157.372C147.859 157.356 147.849 157.34 147.838 157.324C147.868 157.367 147.871 157.371 147.846 157.337C147.803 157.279 147.759 157.223 147.712 157.169C147.667 157.119 147.619 157.073 147.57 157.027C147.54 156.999 147.546 157.005 147.59 157.042C147.578 157.032 147.566 157.022 147.553 157.012C147.535 156.998 147.517 156.984 147.498 156.97C147.405 156.901 147.306 156.841 147.204 156.79C147.145 156.759 147.292 156.828 147.201 156.789C147.177 156.779 147.153 156.769 147.13 156.76C147.087 156.743 147.044 156.728 147 156.715C146.92 156.69 146.838 156.672 146.756 156.656C146.671 156.64 146.841 156.667 146.783 156.66C146.766 156.658 146.748 156.656 146.731 156.654C146.702 156.651 146.673 156.648 146.644 156.646C146.584 156.641 146.524 156.641 146.464 156.645C146.367 156.645 146.275 156.602 146.207 156.526C146.139 156.45 146.1 156.347 146.1 156.239C146.102 156.132 146.141 156.03 146.209 155.954C146.277 155.879 146.368 155.835 146.464 155.833L146.464 155.833Z" fill="black"/>
<path d="M145.599 157.564C145.777 157.555 145.955 157.571 146.129 157.612C146.481 157.681 146.815 157.841 147.101 158.08C147.336 158.277 147.537 158.519 147.694 158.795C147.742 158.889 147.755 158.999 147.731 159.103C147.706 159.207 147.646 159.296 147.564 159.351C147.48 159.403 147.381 159.417 147.289 159.39C147.196 159.363 147.116 159.297 147.066 159.206C147.046 159.171 147.026 159.137 147.005 159.104C146.995 159.087 146.984 159.071 146.973 159.055C147.004 159.098 147.006 159.102 146.982 159.068C146.938 159.01 146.895 158.954 146.847 158.901C146.802 158.85 146.754 158.804 146.706 158.758C146.675 158.731 146.682 158.736 146.725 158.774C146.713 158.764 146.701 158.754 146.689 158.744C146.671 158.729 146.652 158.715 146.634 158.701C146.54 158.633 146.442 158.572 146.34 158.521C146.281 158.491 146.428 158.559 146.336 158.52C146.313 158.51 146.289 158.5 146.265 158.491C146.222 158.475 146.179 158.46 146.136 158.446C146.055 158.422 145.974 158.404 145.891 158.388C145.806 158.372 145.977 158.398 145.918 158.392C145.901 158.389 145.884 158.387 145.866 158.385C145.837 158.382 145.808 158.379 145.779 158.378C145.719 158.373 145.659 158.372 145.599 158.377C145.503 158.376 145.411 158.333 145.342 158.257C145.274 158.181 145.236 158.078 145.235 157.97C145.238 157.863 145.277 157.762 145.345 157.686C145.412 157.61 145.503 157.567 145.599 157.564L145.599 157.564Z" fill="black"/>
<path d="M144.275 158.985C144.453 158.977 144.631 158.993 144.805 159.034C145.158 159.102 145.491 159.262 145.778 159.501C146.012 159.698 146.213 159.941 146.37 160.217C146.418 160.31 146.431 160.421 146.407 160.525C146.383 160.629 146.323 160.718 146.24 160.773C146.156 160.825 146.057 160.839 145.965 160.812C145.872 160.785 145.792 160.718 145.742 160.627C145.722 160.593 145.702 160.558 145.681 160.525C145.671 160.509 145.66 160.493 145.65 160.477C145.68 160.52 145.683 160.524 145.658 160.489C145.615 160.432 145.571 160.375 145.523 160.322C145.478 160.272 145.43 160.226 145.382 160.179C145.352 160.152 145.358 160.157 145.401 160.195C145.389 160.185 145.377 160.175 145.365 160.165C145.347 160.151 145.329 160.136 145.31 160.123C145.216 160.054 145.118 159.994 145.016 159.942C144.957 159.912 145.104 159.981 145.012 159.942C144.989 159.931 144.965 159.922 144.941 159.913C144.899 159.896 144.855 159.881 144.812 159.868C144.731 159.843 144.65 159.825 144.568 159.809C144.482 159.793 144.653 159.82 144.595 159.813C144.577 159.811 144.56 159.808 144.543 159.807C144.514 159.803 144.485 159.801 144.455 159.799C144.396 159.794 144.335 159.794 144.275 159.798C144.179 159.798 144.087 159.755 144.019 159.679C143.951 159.603 143.912 159.5 143.912 159.392C143.914 159.285 143.953 159.183 144.021 159.107C144.088 159.032 144.18 158.988 144.275 158.985L144.275 158.985Z" fill="black"/>
<path d="M141.22 167.693C141.381 168.641 141.705 169.546 142.174 170.356L162.076 156.167L161.193 154.548L161.204 154.541L159.626 151.745C159.626 151.745 156.388 152.652 154.629 157.27C153.002 159.692 151.081 157.837 149.026 159.723C146.972 161.608 148.183 161.907 146.825 162.855C146.825 162.855 145.26 164.09 143.572 163.752C141.883 163.413 140.814 164.919 141.22 167.693Z" fill="white"/>
<path d="M141.57 167.585C141.716 168.501 142.029 169.374 142.488 170.151L141.99 170.005L143.975 168.59L148.739 165.193L154.46 161.114L159.441 157.563L161.082 156.394C161.336 156.212 161.589 155.991 161.859 155.839C161.871 155.833 161.882 155.824 161.892 155.816L161.762 156.372L160.879 154.753C160.832 154.66 160.819 154.55 160.844 154.446C160.868 154.342 160.928 154.253 161.01 154.197L161.021 154.19L160.89 154.746L159.311 151.95L159.722 152.137C159.656 152.156 159.59 152.181 159.525 152.206C159.451 152.234 159.378 152.264 159.306 152.297C159.284 152.306 159.263 152.317 159.241 152.326C159.16 152.363 159.317 152.289 159.234 152.33C159.174 152.36 159.114 152.389 159.054 152.421C158.465 152.732 157.916 153.129 157.42 153.603C156.657 154.337 156.012 155.213 155.514 156.191C155.366 156.479 155.229 156.774 155.103 157.075C155.045 157.24 154.974 157.399 154.892 157.55C154.797 157.697 154.692 157.835 154.578 157.964C154.192 158.41 153.709 158.736 153.175 158.907C152.202 159.217 151.161 159.031 150.201 159.42C149.647 159.676 149.148 160.062 148.739 160.552C148.581 160.72 148.436 160.904 148.307 161.101C148.258 161.178 148.213 161.259 148.171 161.342C148.152 161.378 148.135 161.415 148.118 161.453C148.112 161.467 148.056 161.61 148.086 161.528C147.991 161.788 147.942 162.065 147.827 162.317C147.671 162.625 147.449 162.886 147.182 163.078C146.571 163.562 145.88 163.906 145.15 164.091C144.809 164.178 144.461 164.22 144.111 164.216C143.825 164.21 143.549 164.136 143.266 164.116C142.894 164.074 142.52 164.184 142.215 164.425C141.399 165.124 141.426 166.566 141.57 167.585C141.593 167.689 141.579 167.798 141.532 167.891C141.485 167.984 141.408 168.054 141.316 168.085C141.223 168.113 141.124 168.099 141.04 168.045C140.957 167.992 140.895 167.905 140.869 167.801C140.71 166.68 140.68 165.378 141.27 164.393C141.505 164.003 141.834 163.696 142.218 163.507C142.602 163.318 143.027 163.254 143.442 163.323C144.024 163.428 144.618 163.401 145.189 163.242C145.617 163.111 146.026 162.917 146.409 162.667C146.61 162.544 146.8 162.398 146.975 162.231C147.014 162.19 147.107 162.079 147.107 162.078C147.084 162.112 147.131 162.039 147.138 162.026C147.155 161.995 147.171 161.964 147.187 161.933C147.2 161.907 147.21 161.88 147.221 161.853C147.196 161.915 147.211 161.885 147.223 161.843C147.241 161.783 147.26 161.724 147.277 161.663C147.549 160.701 148.132 159.998 148.833 159.377C149.313 158.946 149.874 158.64 150.474 158.485C150.993 158.375 151.519 158.309 152.047 158.286C152.51 158.274 152.967 158.159 153.392 157.949C153.642 157.805 153.869 157.616 154.063 157.389C154.176 157.271 154.272 157.135 154.346 156.984C154.42 156.815 154.483 156.641 154.557 156.472C155.04 155.357 155.688 154.342 156.475 153.469C157.032 152.853 157.664 152.328 158.352 151.908C158.707 151.68 159.085 151.499 159.478 151.369C159.495 151.364 159.512 151.358 159.529 151.353C159.606 151.331 159.688 151.338 159.762 151.371C159.836 151.405 159.898 151.464 159.94 151.54L161.518 154.335C161.566 154.429 161.578 154.539 161.554 154.643C161.53 154.747 161.47 154.836 161.388 154.892L161.377 154.899L161.507 154.343L162.39 155.962C162.437 156.055 162.45 156.165 162.426 156.269C162.401 156.373 162.342 156.462 162.26 156.518L160.275 157.933L155.511 161.329L149.79 165.408L144.809 168.959C144.006 169.531 143.217 170.155 142.391 170.683C142.379 170.69 142.369 170.699 142.357 170.707C142.274 170.759 142.175 170.773 142.082 170.746C141.99 170.718 141.91 170.652 141.86 170.561C141.366 169.725 141.028 168.786 140.869 167.801C140.775 167.291 141.476 167.072 141.57 167.585Z" fill="black"/>
<path d="M125.018 70.1505L110.162 72.3996L104.69 149.673C104.64 150.343 104.737 151.018 104.973 151.637C105.209 152.256 105.576 152.802 106.043 153.227C106.511 153.652 107.064 153.944 107.655 154.076C108.245 154.209 108.856 154.178 109.434 153.987L111.826 153.188L113.496 154.103C114.437 154.62 115.485 154.846 116.53 154.758C117.576 154.671 118.582 154.273 119.444 153.607L120.324 152.926L122.299 153.823C123.171 154.219 124.115 154.376 125.052 154.28C125.989 154.185 126.892 153.84 127.686 153.274L128.357 152.795L128.421 152.828C129.581 153.423 130.881 153.582 132.128 153.281C133.375 152.98 134.5 152.236 135.336 151.159L136.507 149.656L139.506 149.531C140.514 149.488 141.494 149.158 142.355 148.573C143.216 147.987 143.929 147.165 144.426 146.185L145.588 143.901H149.161C151.208 143.9 153.18 143.038 154.684 141.487C154.812 141.354 154.896 141.178 154.924 140.985C154.951 140.792 154.919 140.595 154.834 140.425L138.835 108.582C138.835 108.582 142.726 83.3433 131.409 72.3519" fill="#FFC41F"/>
<path d="M125.115 70.5428L120.098 71.3022L112.1 72.5133L110.259 72.7919L110.526 72.4L110.234 76.5236L109.483 87.128L108.445 101.786L107.309 117.826L106.244 132.876L105.437 144.263C105.312 146.031 105.182 147.798 105.062 149.566C104.994 150.293 105.109 151.027 105.393 151.686C105.749 152.468 106.338 153.086 107.059 153.435C107.779 153.783 108.586 153.84 109.34 153.595C109.763 153.46 110.183 153.313 110.605 153.172C110.972 153.019 111.347 152.894 111.729 152.796C111.896 152.785 112.062 152.837 112.2 152.942L112.976 153.367C113.464 153.661 113.974 153.909 114.5 154.109C116.269 154.701 118.009 154.222 119.498 153.072C119.824 152.82 120.149 152.411 120.561 152.598L122.02 153.261C122.611 153.556 123.235 153.758 123.876 153.863C124.888 153.992 125.912 153.809 126.838 153.332C127.141 153.167 127.433 152.98 127.714 152.772C127.89 152.647 128.133 152.389 128.357 152.389C128.524 152.425 128.684 152.491 128.831 152.585C129.039 152.677 129.252 152.755 129.468 152.819C129.932 152.957 130.409 153.026 130.889 153.025C131.699 153.015 132.498 152.811 133.232 152.426C133.965 152.041 134.616 151.484 135.14 150.793C135.472 150.369 135.804 149.944 136.134 149.517C136.361 149.226 136.597 149.246 136.92 149.233C137.89 149.192 138.873 149.204 139.839 149.101C140.721 148.995 141.569 148.658 142.311 148.115C143.054 147.573 143.671 146.841 144.111 145.98C144.505 145.223 144.886 144.457 145.273 143.696C145.306 143.635 145.352 143.584 145.407 143.549C145.462 143.513 145.524 143.495 145.588 143.494H149.007C149.958 143.504 150.903 143.33 151.801 142.979C152.398 142.738 152.966 142.416 153.493 142.021C153.852 141.753 154.743 141.226 154.52 140.63C154.394 140.344 154.255 140.067 154.102 139.798L152.974 137.554L149.263 130.168L144.733 121.152L140.718 113.16L138.601 108.946C138.491 108.707 138.465 108.431 138.528 108.171C138.543 108.056 138.559 107.94 138.573 107.824C138.601 107.611 138.608 107.552 138.624 107.412C138.674 106.981 138.72 106.55 138.762 106.118C139.042 103.22 139.156 100.305 139.106 97.3911C139.037 93.4604 138.665 89.5174 137.788 85.7039C136.883 81.7666 135.412 77.9011 133.039 74.7783C132.458 74.014 131.827 73.2991 131.151 72.6395C130.798 72.2946 131.314 71.7217 131.666 72.0648C136.115 76.4087 138.262 82.9049 139.195 89.2677C139.971 94.567 140.018 100.005 139.56 105.344C139.464 106.461 139.356 107.584 139.186 108.691L139.149 108.377L141.425 112.908L146.543 123.093L151.933 133.822L155.029 139.984C155.19 140.247 155.282 140.554 155.297 140.872C155.288 141.647 154.612 142.124 154.11 142.529C153.477 143.036 152.784 143.444 152.051 143.739C150.187 144.501 148.152 144.307 146.203 144.307H145.588L145.902 144.106C145.202 145.481 144.58 147.02 143.519 148.101C142.667 148.973 141.616 149.565 140.481 149.813C139.821 149.924 139.154 149.98 138.486 149.98L136.507 150.063L136.764 149.944C135.89 151.067 135.074 152.257 133.88 152.982C133.007 153.505 132.035 153.792 131.045 153.821C130.054 153.849 129.07 153.618 128.174 153.147H128.541C127.952 153.603 127.32 153.987 126.656 154.291C125.637 154.703 124.54 154.814 123.471 154.614C122.348 154.409 121.275 153.794 120.228 153.318L120.508 153.278C119.995 153.709 119.455 154.098 118.892 154.443C117.867 155.015 116.721 155.262 115.579 155.158C114.139 155.018 112.912 154.235 111.642 153.539L111.922 153.58C110.397 154.09 108.736 154.94 107.138 154.351C106.267 154.025 105.518 153.383 105.009 152.528C104.501 151.673 104.261 150.653 104.329 149.63C104.394 148.61 104.474 147.592 104.546 146.573L105.045 139.529L105.747 129.614L106.576 117.908L107.449 105.571L108.288 93.735L109.008 83.5615L109.534 76.1292C109.619 74.9375 109.697 73.7451 109.788 72.554C109.791 72.5027 109.795 72.4514 109.798 72.4001C109.8 72.3114 109.826 72.2255 109.874 72.1549C109.922 72.0844 109.989 72.0329 110.066 72.0082L115.082 71.2487L123.08 70.0377L124.921 69.759C125.379 69.6897 125.577 70.4727 125.114 70.5428H125.115Z" fill="black"/>
<path d="M132.399 48.3289C134.371 56.3639 138.064 72.1151 138.704 79.8664C135.767 76.3101 114.261 77.6926 106.83 79.82C105.938 76.5088 111.351 47.5813 111.351 47.5813L112.164 39.2538H128.705" fill="white"/>
<path d="M132.749 48.2207C133.73 52.2168 134.669 56.2253 135.567 60.2462C136.557 64.709 137.499 69.1913 138.25 73.7128C138.589 75.7505 138.896 77.8015 139.068 79.8662C139.097 80.2199 138.651 80.3986 138.447 80.1536C138.412 80.1119 138.376 80.0717 138.338 80.0331C138.307 80.0012 138.168 79.877 138.256 79.9514C138.155 79.8668 138.05 79.789 137.941 79.7182C137.82 79.639 137.694 79.5677 137.566 79.5019C137.534 79.4854 137.502 79.4696 137.47 79.4534C137.389 79.4131 137.476 79.4552 137.431 79.435C137.352 79.3995 137.273 79.3647 137.194 79.3318C136.465 79.0465 135.714 78.8343 134.952 78.6978C132.903 78.2943 130.753 78.1693 128.641 78.1141C126.077 78.0472 123.509 78.1154 120.948 78.2665C118.43 78.4149 115.916 78.6449 113.413 78.9773C111.424 79.2175 109.448 79.5781 107.495 80.0574C107.305 80.1064 107.115 80.1578 106.926 80.2117C106.833 80.2383 106.735 80.2235 106.651 80.1706C106.568 80.1177 106.506 80.0306 106.479 79.9278C106.278 79.1688 106.359 78.2794 106.403 77.5034C106.48 76.1295 106.631 74.7606 106.794 73.3969C107.007 71.6277 107.251 69.8634 107.51 68.1021C107.792 66.1911 108.088 64.283 108.4 62.3778C108.702 60.5189 109.013 58.6619 109.333 56.8068C109.607 55.2151 109.886 53.6245 110.17 52.0351C110.368 50.9257 110.568 49.8168 110.771 48.7086C110.828 48.403 110.884 48.0975 110.94 47.7921C110.955 47.7115 110.969 47.6303 110.985 47.55C111.015 47.4034 110.966 47.5595 110.987 47.5795C110.985 47.4717 110.995 47.364 111.018 47.2593L111.094 46.478L111.333 44.0373L111.774 39.5235L111.8 39.2537C111.802 39.1467 111.841 39.0447 111.909 38.969C111.977 38.8933 112.068 38.8497 112.164 38.8473H126.666C127.334 38.8473 128.009 38.8152 128.676 38.8473C128.686 38.8477 128.696 38.8473 128.705 38.8473C129.173 38.8473 129.174 39.6601 128.705 39.6601H112.837C112.623 39.6735 112.408 39.6735 112.193 39.6601C112.184 39.6594 112.174 39.6594 112.164 39.6601L112.528 39.2537L112.192 42.695L111.746 47.2593C111.709 47.6343 111.645 47.9927 111.577 48.3624C111.404 49.2994 111.233 50.2369 111.064 51.175C110.798 52.6548 110.536 54.1355 110.278 55.6172C109.964 57.4215 109.657 59.2273 109.358 61.0347C109.043 62.939 108.739 64.8456 108.446 66.7545C108.171 68.5621 107.909 70.3724 107.674 72.1872C107.486 73.636 107.314 75.0755 107.195 76.5698C107.096 77.5184 107.073 78.475 107.127 79.4281C107.137 79.5452 107.112 79.3482 107.129 79.4438C107.134 79.4764 107.138 79.5094 107.144 79.542C107.154 79.5992 107.165 79.656 107.18 79.7119L106.733 79.4281C108.647 78.9151 110.588 78.5332 112.545 78.2845C115.046 77.9254 117.561 77.6772 120.078 77.5086C122.676 77.3347 125.28 77.2457 127.882 77.2858C130.119 77.2905 132.353 77.4653 134.568 77.809C135.397 77.9367 136.216 78.1366 137.017 78.407C137.627 78.5966 138.202 78.9085 138.713 79.3275C138.801 79.4043 138.884 79.4883 138.961 79.5789L138.34 79.8663C138.011 75.9099 137.247 71.988 136.48 68.1144C135.587 63.6074 134.587 59.127 133.541 54.6616C133.054 52.5834 132.556 50.5085 132.048 48.4368C131.924 47.9316 132.625 47.7161 132.749 48.2207L132.749 48.2207Z" fill="black"/>
<path d="M110.365 162.859C110.517 162.956 110.659 163.074 110.785 163.209C111.067 163.5 111.284 163.86 111.418 164.262C111.512 164.547 111.559 164.848 111.558 165.152C111.558 165.26 111.519 165.363 111.451 165.44C111.383 165.516 111.29 165.559 111.194 165.559C111.097 165.559 111.005 165.516 110.936 165.44C110.868 165.363 110.83 165.26 110.83 165.152C110.83 165.094 110.828 165.036 110.824 164.979C110.822 164.946 110.818 164.914 110.816 164.881C110.812 164.835 110.821 164.922 110.821 164.922C110.817 164.904 110.814 164.886 110.813 164.869C110.796 164.763 110.773 164.66 110.742 164.558C110.734 164.531 110.726 164.504 110.717 164.478C110.713 164.467 110.708 164.456 110.705 164.444C110.692 164.403 110.723 164.489 110.721 164.487C110.698 164.445 110.684 164.395 110.664 164.351C110.625 164.267 110.581 164.186 110.533 164.108C110.522 164.091 110.511 164.075 110.5 164.058C110.461 163.995 110.528 164.095 110.514 164.076C110.489 164.043 110.466 164.01 110.441 163.979C110.396 163.921 110.348 163.865 110.298 163.812C110.254 163.767 110.209 163.724 110.164 163.682C110.109 163.631 110.244 163.748 110.173 163.69C110.155 163.675 110.138 163.661 110.12 163.647C110.081 163.616 110.04 163.587 109.998 163.561C109.915 163.506 109.855 163.417 109.83 163.313C109.806 163.209 109.819 163.098 109.867 163.005C109.917 162.914 109.997 162.848 110.09 162.821C110.183 162.793 110.281 162.807 110.365 162.859L110.365 162.859Z" fill="black"/>
<path d="M108.809 163.8C108.961 163.897 109.103 164.015 109.229 164.15C109.511 164.441 109.728 164.801 109.862 165.203C109.956 165.488 110.003 165.789 110.002 166.093C110.002 166.201 109.963 166.304 109.895 166.381C109.827 166.457 109.734 166.5 109.638 166.5C109.541 166.5 109.449 166.457 109.38 166.381C109.312 166.304 109.274 166.201 109.274 166.093C109.274 166.035 109.272 165.977 109.268 165.92C109.266 165.887 109.262 165.855 109.26 165.822C109.256 165.776 109.265 165.863 109.265 165.863C109.261 165.845 109.258 165.827 109.257 165.81C109.24 165.704 109.217 165.601 109.186 165.499C109.178 165.472 109.17 165.445 109.161 165.419C109.157 165.408 109.152 165.397 109.149 165.385C109.136 165.344 109.167 165.43 109.165 165.428C109.142 165.386 109.128 165.336 109.108 165.292C109.069 165.208 109.025 165.127 108.977 165.049C108.966 165.032 108.955 165.016 108.944 164.999C108.905 164.936 108.972 165.036 108.958 165.017C108.933 164.984 108.91 164.951 108.885 164.92C108.84 164.862 108.792 164.806 108.742 164.753C108.698 164.708 108.653 164.665 108.608 164.623C108.553 164.572 108.688 164.689 108.617 164.631C108.599 164.616 108.582 164.602 108.564 164.588C108.525 164.557 108.484 164.528 108.442 164.502C108.359 164.447 108.299 164.358 108.274 164.254C108.25 164.15 108.263 164.04 108.311 163.946C108.361 163.855 108.441 163.789 108.534 163.762C108.627 163.734 108.725 163.748 108.809 163.8L108.809 163.8Z" fill="black"/>
<path d="M107.013 164.204C107.166 164.301 107.307 164.419 107.434 164.554C107.716 164.845 107.933 165.205 108.067 165.607C108.16 165.892 108.207 166.193 108.206 166.497C108.206 166.605 108.168 166.708 108.1 166.784C108.031 166.861 107.939 166.904 107.842 166.904C107.746 166.904 107.653 166.861 107.585 166.784C107.517 166.708 107.478 166.605 107.478 166.497C107.478 166.439 107.477 166.381 107.473 166.324C107.471 166.291 107.467 166.259 107.464 166.226C107.46 166.18 107.469 166.267 107.469 166.267C107.466 166.249 107.463 166.231 107.461 166.214C107.445 166.108 107.421 166.005 107.391 165.903C107.383 165.876 107.374 165.849 107.365 165.823C107.362 165.812 107.357 165.801 107.354 165.789C107.341 165.748 107.371 165.834 107.37 165.832C107.347 165.79 107.332 165.74 107.312 165.696C107.273 165.612 107.23 165.531 107.181 165.453C107.171 165.436 107.16 165.42 107.149 165.403C107.109 165.34 107.176 165.44 107.162 165.421C107.138 165.388 107.115 165.355 107.09 165.324C107.044 165.266 106.996 165.21 106.946 165.157C106.903 165.112 106.858 165.069 106.812 165.027C106.757 164.976 106.893 165.093 106.822 165.035C106.804 165.02 106.786 165.006 106.769 164.992C106.729 164.961 106.688 164.932 106.646 164.906C106.564 164.851 106.503 164.762 106.479 164.658C106.455 164.554 106.468 164.444 106.516 164.35C106.566 164.259 106.646 164.193 106.738 164.166C106.831 164.139 106.93 164.152 107.014 164.205L107.013 164.204Z" fill="black"/>
<path d="M93.2447 52.5238C92.6033 51.0937 91.8973 49.701 91.1295 48.3509L85.8944 51.5293L84.4048 52.4336L71.7343 26.5769L62.7174 32.3628L73.3921 59.2501C76.0676 64.6538 81.9836 66.9726 87.1955 64.9867L90.4879 63.4395L95.9427 60.1833C95.2726 57.5366 94.3688 54.9709 93.2447 52.5238Z" fill="#A8542A"/>
<path d="M92.93 52.7286C92.2878 51.2991 91.5818 49.9064 90.8149 48.5558L91.3126 48.7016L86.0761 51.8808L84.5879 52.7842C84.5043 52.837 84.4055 52.8512 84.3126 52.824C84.2196 52.7968 84.1398 52.7302 84.0901 52.6384L82.8323 50.0714L79.7999 43.8832L76.1421 36.4189L72.9724 29.9504L71.9374 27.8384C71.7745 27.5059 71.5746 27.1732 71.4406 26.8246C71.435 26.8099 71.4266 26.7959 71.4197 26.7819L71.9175 26.9277L68.8636 28.8873L64.0184 31.9963L62.9006 32.7134L63.0312 32.1574L63.7768 34.0356L65.6539 38.7635L68.1222 44.9808L70.6421 51.3277L72.6733 56.4441C73.0075 57.2858 73.3321 58.1332 73.6761 58.9699C74.101 59.9142 74.6617 60.7743 75.3358 61.5159C76.356 62.6945 77.5779 63.6322 78.9288 64.2732C80.2609 64.9034 81.6881 65.2449 83.1344 65.2796C84.4955 65.3382 85.8538 65.0999 87.1333 64.578C87.9199 64.2323 88.6937 63.8447 89.4727 63.4786C89.77 63.3388 90.0674 63.1991 90.3647 63.0594C90.4299 63.0288 90.2352 63.1338 90.3608 63.0541C90.4451 63.0006 90.532 62.9519 90.6175 62.9009L95.3582 60.071L95.7585 59.832L95.5913 60.291C94.9341 57.6767 94.0425 55.143 92.93 52.7286C92.7206 52.2624 93.3481 51.8502 93.5583 52.3184C94.7009 54.7947 95.617 57.3933 96.293 60.0749C96.3133 60.1613 96.3079 60.2527 96.2778 60.3355C96.2477 60.4182 96.1943 60.4878 96.1258 60.5339L91.8944 63.0596C91.4527 63.3232 91.0156 63.6278 90.5535 63.8452C89.7659 64.2158 88.9781 64.586 88.1902 64.9559C87.8971 65.0937 87.6061 65.2408 87.3098 65.3696C86.6972 65.6196 86.0632 65.7988 85.4179 65.9044C83.9141 66.1837 82.3771 66.1494 80.8846 65.8032C77.9043 65.1154 75.2803 63.1602 73.5671 60.3507C73.1359 59.5757 72.767 58.7594 72.4648 57.9117L70.6514 53.344L68.1945 47.1555L65.6412 40.7244L63.5374 35.4253L62.4519 32.6911L62.4029 32.5678C62.3566 32.4741 62.3443 32.3641 62.3686 32.2606C62.3929 32.1571 62.4519 32.068 62.5334 32.0117L65.5874 30.0521L70.4325 26.9431L71.5503 26.226C71.6339 26.173 71.7327 26.1586 71.8257 26.1858C71.9187 26.2131 71.9985 26.2798 72.0481 26.3718L73.306 28.9388L76.3384 35.127L79.996 42.5911L83.1657 49.0596L84.2007 51.1717C84.3636 51.5041 84.5635 51.8368 84.6975 52.1855C84.7031 52.2001 84.7115 52.2141 84.7184 52.2282L84.2206 52.0824L89.9265 48.6182L90.9452 47.9998C91.029 47.9477 91.1276 47.9338 91.2204 47.961C91.3131 47.9881 91.3929 48.0543 91.443 48.1456C92.21 49.4962 92.9159 50.8889 93.5582 52.3184C93.7686 52.7843 93.1411 53.1963 92.93 52.7286Z" fill="black"/>
<path d="M73.7396 30.7029L72.7231 28.6391C72.0312 27.2335 71.4823 25.7457 71.0869 24.2036C70.7789 23.0035 70.4165 21.4292 70.0712 19.5352C69.2247 14.8923 67.7122 15.9972 60.8183 20.1508C63.2828 22.5575 63.2228 23.8156 63.2228 23.8156L63.4232 32.2418L65.7343 38.1831" fill="#FC7272"/>
<path d="M73.4254 30.908C72.8732 29.7869 72.2886 28.6765 71.8072 27.5146C70.876 25.2664 70.3362 22.8482 69.8692 20.4352C69.7487 19.6512 69.5746 18.8786 69.3483 18.1243C69.2349 17.7413 69.0311 17.3994 68.7585 17.1347C68.8415 17.2085 68.7323 17.1177 68.7134 17.1045C68.6794 17.0806 68.6442 17.06 68.6092 17.0383C68.5917 17.0275 68.5731 17.0189 68.5551 17.0093C68.5076 16.984 68.6412 17.0433 68.5642 17.0142C68.5179 16.9965 68.4722 16.9784 68.4248 16.9644C68.3843 16.9524 68.3433 16.9444 68.3024 16.9345C68.1998 16.9096 68.352 16.9313 68.2447 16.9268C68.1422 16.9227 68.0415 16.9175 67.9389 16.9245C67.889 16.9278 67.8393 16.9334 67.7897 16.9395C67.774 16.9414 67.7191 16.9512 67.7937 16.9387C67.7619 16.9441 67.7302 16.9498 67.6985 16.956C67.5798 16.9794 67.4621 17.0097 67.3456 17.0441C67.0796 17.125 66.8179 17.2223 66.5617 17.3358C65.7724 17.6961 65.0012 18.104 64.2516 18.5578C63.1613 19.1907 62.0833 19.85 61.0021 20.5017L61.0757 19.8634C62.0118 20.7824 63.025 21.8681 63.4705 23.2055C63.5592 23.5064 63.6011 23.8221 63.5944 24.1388L63.7392 30.2255L63.7872 32.2419L63.7375 32.0368L65.7612 37.2393L66.0486 37.978C66.0941 38.0719 66.106 38.1816 66.0817 38.2849C66.0575 38.3882 65.999 38.4773 65.9181 38.5341C65.8346 38.5878 65.7356 38.6026 65.6424 38.5753C65.5492 38.548 65.4694 38.4808 65.4203 38.3883L64.0607 34.893L63.2752 32.874C63.156 32.6304 63.0814 32.3627 63.0558 32.0865L62.9562 27.8982C62.9246 26.5684 62.8903 25.2386 62.8613 23.9088C62.8603 23.8644 62.8572 23.8189 62.8581 23.7744C62.8598 23.6914 62.8572 23.7807 62.8635 23.8071C62.856 23.776 62.8542 23.7427 62.8474 23.7113C62.8274 23.6176 62.8026 23.5252 62.7732 23.4346C62.7644 23.4078 62.7549 23.3814 62.7457 23.3548C62.7243 23.2934 62.7687 23.4086 62.7322 23.3209C62.7024 23.2494 62.6719 23.1783 62.639 23.1085C62.5559 22.9336 62.4643 22.764 62.3646 22.6004C62.069 22.1262 61.7345 21.6838 61.3654 21.2791C61.107 20.9874 60.8371 20.709 60.5612 20.4382C60.5223 20.394 60.4929 20.3405 60.4752 20.2817C60.4576 20.223 60.4521 20.1605 60.4591 20.0991C60.4662 20.0376 60.4857 19.9787 60.5162 19.9269C60.5466 19.8751 60.5871 19.8316 60.6348 19.7999C62.366 18.7567 64.0835 17.6345 65.8947 16.7695C66.7943 16.3399 67.9351 15.8102 68.9004 16.2967C69.7973 16.7486 70.1241 17.9859 70.3312 18.9639C70.8329 21.3322 71.2194 23.732 72.0167 26.0084C72.5654 27.575 73.3296 29.0276 74.0537 30.4979C74.2796 30.9565 73.6514 31.367 73.4254 30.9081L73.4254 30.908Z" fill="black"/>
<path d="M65.2143 20.4874C65.3142 18.1299 64.8147 16.6706 64.8147 16.6706C63.8602 13.5229 62.5017 13.4485 60.0452 13.5107C57.5888 13.5729 56.9473 10.5981 59.0535 10.67C59.0535 10.67 65.5146 8.56244 67.9636 13.8461C68.2058 14.3566 68.4157 14.7835 68.5967 15.1399C69.3152 16.5564 69.829 18.0907 70.119 19.6862L70.3979 21.2165" fill="#FC7272"/>
<path d="M64.8506 20.4877C64.8988 19.2508 64.8288 17.9608 64.4647 16.7811C64.1123 15.6393 63.5763 14.4825 62.5182 14.1159C62.0143 13.9621 61.4931 13.8917 60.9709 13.9068C60.3107 13.8986 59.6351 13.9882 58.9956 13.7563C58.1123 13.4359 57.1545 12.4221 57.4778 11.2805C57.556 11.0334 57.6916 10.8139 57.8709 10.6447C58.0502 10.4755 58.2665 10.3628 58.4978 10.318C58.6447 10.2756 58.7963 10.2571 58.948 10.2628C59.0512 10.2746 58.9222 10.2826 58.9732 10.2733C59.0214 10.2644 59.0699 10.2443 59.1173 10.2311C59.7357 10.0629 60.3653 9.95038 60.9998 9.89469C63.1214 9.69478 65.4101 10.1264 67.0236 11.7876C67.4969 12.28 67.8959 12.8546 68.2051 13.4892C68.6289 14.3514 69.0789 15.2088 69.4463 16.1031C69.8464 17.0715 70.1592 18.082 70.3799 19.1197C70.4861 19.6241 70.5712 20.1346 70.6637 20.6422L70.7487 21.1087C70.8418 21.6193 70.1406 21.8378 70.0471 21.3248C69.8703 20.1959 69.6326 19.08 69.3351 17.9832C69.0424 17.0233 68.6682 16.0968 68.2176 15.2165C67.8603 14.507 67.5583 13.7467 67.1139 13.0972C65.8096 11.1912 63.6401 10.5935 61.5955 10.6684C60.9138 10.6867 60.2354 10.7801 59.5701 10.9473C59.4342 10.9805 59.3003 11.0255 59.1644 11.0577C59.0169 11.0927 58.8453 11.07 58.7125 11.0969C58.6248 11.1153 58.5391 11.1439 58.4567 11.1822C58.3834 11.2132 58.3186 11.2652 58.269 11.333C58.2364 11.3792 58.2077 11.4286 58.1832 11.4806C58.1631 11.5394 58.1514 11.6014 58.1488 11.6642C58.1432 11.8236 58.1752 11.9819 58.2415 12.1232C58.4509 12.5418 58.8006 12.8505 59.2137 12.9812C59.7969 13.1848 60.4234 13.0848 61.0251 13.0948C61.5726 13.0865 62.1187 13.1593 62.6491 13.3112C64.76 13.9923 65.4334 16.8519 65.5658 19.0186C65.5945 19.5077 65.5986 19.9981 65.5782 20.4877C65.5579 21.0087 64.8301 21.0116 64.8505 20.4877L64.8506 20.4877Z" fill="black"/>
<path d="M69.1109 36.7652L64.702 36.7999C64.702 36.7999 62.471 32.4306 61.098 29.6447C60.6635 28.7581 60.5033 27.736 60.6423 26.7372C60.8244 25.485 60.694 24.2009 60.2652 23.0261C60.2652 23.0261 57.9208 25.4271 56.2223 22.7329C56.2083 22.7071 56.1945 22.6815 56.1808 22.6562C55.3963 21.2056 54.7236 18.8039 56.5034 18.3003L56.7735 17.838C57.0022 17.4456 57.3149 17.1231 57.6832 16.8998C58.0516 16.6764 58.464 16.5592 58.8831 16.5587H59.919L60.0587 16.2623C60.5213 15.2804 61.4298 14.9213 62.4168 14.9871C63.7156 13.4155 65.8073 14.4954 66.5945 16.134" fill="#FC7272"/>
<path d="M69.1111 37.1714L65.257 37.2017L64.7023 37.2061C64.6388 37.206 64.5764 37.1874 64.5213 37.1521C64.4662 37.1168 64.4203 37.066 64.3881 37.0048C63.7166 35.6895 63.0485 34.3721 62.3839 33.0524C61.8665 32.0256 61.3524 30.9967 60.8415 29.9658C60.5227 29.3356 60.3223 28.6393 60.2527 27.9195C60.1872 27.2063 60.3373 26.5165 60.3515 25.8061C60.3658 25.165 60.2987 24.5249 60.152 23.9049C60.1085 23.7226 60.0584 23.542 59.9994 23.3653C59.9903 23.3379 59.9805 23.3108 59.9714 23.2834C59.9356 23.1764 59.9811 23.2676 59.972 23.2827C59.9749 23.2779 59.9548 23.2389 59.9514 23.2309L60.5228 23.3132C59.7553 24.0947 58.6126 24.6203 57.5759 24.3379C56.6807 24.0941 56.0418 23.2832 55.6373 22.4002C55.2945 21.6521 55.0118 20.807 55.0126 19.9556C54.9961 19.4866 55.1263 19.0258 55.3807 18.6523C55.6351 18.2787 55.9979 18.0156 56.407 17.9081L56.1895 18.0949C56.3567 17.7835 56.5449 17.4868 56.7525 17.2074C57.1143 16.7627 57.5801 16.4396 58.0974 16.2744C58.6799 16.0877 59.3197 16.1521 59.9193 16.1521L59.6052 16.3534C59.8199 15.8266 60.1582 15.3745 60.5842 15.045C61.1379 14.6834 61.7779 14.5211 62.4171 14.5805L62.1598 14.6995C63.6346 12.9643 65.999 14.0796 66.9089 15.9287C67.1346 16.3873 66.5065 16.7979 66.2806 16.3389C65.7337 15.2277 64.4 14.1886 63.2426 14.7968C63.1085 14.867 62.9832 14.9564 62.8698 15.0629C62.691 15.2319 62.6024 15.3863 62.3483 15.3894C62.0082 15.376 61.6685 15.4249 61.3425 15.534C60.7856 15.7453 60.4945 16.2093 60.2334 16.7636C60.2015 16.825 60.1556 16.8759 60.1005 16.9112C60.0453 16.9466 59.9828 16.9651 59.9193 16.9649C59.1629 16.9649 58.3902 16.8723 57.7203 17.3472C57.3215 17.6299 57.1014 18.0412 56.8427 18.4625C56.699 18.6967 56.4775 18.7028 56.2692 18.8282C56.1082 18.9205 55.9744 19.0624 55.8838 19.2373C55.4879 20.0178 55.9065 21.1911 56.241 21.936C56.6729 22.8975 57.4028 23.7511 58.4402 23.5854C58.8448 23.5117 59.2309 23.3433 59.5731 23.0911C59.6432 23.0426 59.712 22.9918 59.7795 22.9388C59.8065 22.9176 59.8328 22.8956 59.8596 22.8743C59.9324 22.8167 59.8513 22.8835 59.8806 22.8573C59.9238 22.8186 59.9673 22.7801 60.0082 22.7385C60.0479 22.6952 60.0958 22.6626 60.1484 22.643C60.2009 22.6234 60.2568 22.6173 60.3117 22.6253C60.3667 22.6332 60.4193 22.6548 60.4657 22.6887C60.5121 22.7225 60.5511 22.7677 60.5796 22.8207C60.8477 23.5028 61.008 24.2317 61.0532 24.975C61.113 25.6988 61.0169 26.3828 60.9696 27.1014C60.9208 27.7886 61.0226 28.4786 61.2663 29.1119C61.4766 29.6482 61.7665 30.1558 62.0215 30.6671C62.2845 31.1942 62.5483 31.7208 62.8131 32.2467C63.2895 33.1937 63.7678 34.1395 64.2478 35.0842C64.5036 35.588 64.7598 36.0915 65.0165 36.5947L64.7023 36.3934L68.5564 36.3631L69.1111 36.3587C69.5795 36.355 69.58 37.1679 69.1111 37.1715L69.1111 37.1714Z" fill="black"/>
<path d="M74.3065 31.152L72.1122 27.3479L63.1164 33.1727L64.715 36.765" fill="white"/>
<path d="M73.9918 31.3573L72.0763 28.0367L71.7974 27.5532L72.2952 27.699L69.2484 29.6718L64.4147 32.8016L63.2995 33.5237L63.4301 32.9677L65.0286 36.5599C65.2364 37.0269 64.609 37.4391 64.4003 36.9702L62.8018 33.3779C62.7551 33.2843 62.7426 33.1742 62.7669 33.0706C62.7912 32.9669 62.8505 32.8778 62.9323 32.8219L65.979 30.8491L70.8127 27.7193L71.9279 26.9972C72.0117 26.945 72.1103 26.931 72.2031 26.9581C72.2959 26.9853 72.3757 27.0516 72.4257 27.143L74.3412 30.4636L74.6201 30.947C74.8745 31.388 74.2449 31.7959 73.9918 31.3573Z" fill="black"/>
<path d="M118.13 39.0427L109.789 39.0176C108.203 39.013 106.64 39.4339 105.229 40.2449L91.1292 48.351L84.3974 52.4813L80.8799 41.7148C79.3901 37.1501 76.8761 33.0891 73.5786 29.9206L73.1075 29.4683L64.0155 35.6425L62.7537 41.9107C62.3449 43.94 62.6449 46.0671 63.5924 47.8578L72.7634 65.1763C74.3951 67.9936 76.8934 70.0466 79.787 70.948C82.6806 71.8494 85.7694 71.537 88.471 70.0696L95.8526 66.0551L113.372 56.0737" fill="white"/>
<path d="M118.13 39.4489L110.758 39.4267C110.436 39.4257 110.115 39.4235 109.793 39.4238C108.438 39.4195 107.096 39.7368 105.858 40.3549C105.23 40.6731 104.622 41.0503 104.009 41.4029L96.0876 45.9566C94.4845 46.8783 92.8641 47.7703 91.2761 48.7242C89.1034 50.0293 86.9509 51.3778 84.7887 52.7044L84.5807 52.8321C84.5323 52.8622 84.4785 52.8799 84.4232 52.8836C84.3679 52.8874 84.3125 52.8773 84.2612 52.854C84.2099 52.8307 84.1639 52.7948 84.1267 52.7489C84.0895 52.7031 84.062 52.6485 84.0462 52.5892L81.7088 45.435L80.5969 42.0317C79.9358 39.9888 79.0707 38.0357 78.018 36.2092C76.5948 33.7546 74.8294 31.6563 72.8498 29.7555L73.2907 29.8191L70.2077 31.9127L65.3228 35.23L64.1988 35.9933L64.366 35.7504L63.6865 39.1254L63.2496 41.2957C63.1317 41.8111 63.0409 42.3337 62.9778 42.8609C62.8301 44.6274 63.2034 46.3994 64.0408 47.907L65.2348 50.1616L69.5266 58.2663L72.876 64.5912C74.2549 67.1543 76.366 69.1244 78.8692 70.1842C81.3725 71.2441 84.1223 71.3319 86.6757 70.4335C87.6972 70.0746 88.6431 69.5246 89.6024 69.0029C91.6242 67.9034 93.6563 66.8246 95.6687 65.7038C97.0071 64.9584 98.3336 64.1855 99.6658 63.4265L107.453 58.9896L112.906 55.8826L113.188 55.7224C113.604 55.4852 113.973 56.1862 113.555 56.4242L108.236 59.4547L99.181 64.6137C97.8198 65.3893 96.4628 66.1735 95.0889 66.9206L90.6418 69.3391C89.4796 69.9712 88.3211 70.6741 87.0935 71.1357C84.6999 72.0102 82.1282 72.0742 79.7021 71.3194C77.2761 70.5647 75.1041 69.025 73.4598 66.8943C72.8562 66.0671 72.3179 65.1829 71.8508 64.2519L69.8083 60.3949L64.6897 50.729L63.3422 48.1844C62.2995 46.2348 61.9705 43.9109 62.4237 41.697C62.7478 40.0804 63.0732 38.464 63.3999 36.848L63.5961 35.8732C63.6082 35.6876 63.664 35.5088 63.7579 35.3551C63.9871 35.1515 64.2363 34.9778 64.5007 34.8371L72.2803 29.5541L72.9235 29.1173C72.9934 29.0738 73.0739 29.0564 73.1533 29.0679C73.2327 29.0793 73.3066 29.1189 73.3644 29.1808C75.1211 30.8321 76.6902 32.7175 78.0365 34.795C79.374 36.9094 80.4526 39.214 81.2436 41.6475C82.0872 44.2251 82.9296 46.8032 83.7706 49.3819L84.7479 52.3732L84.2135 52.1303L90.569 48.2309C91.9698 47.3716 93.4079 46.5843 94.8287 45.7675L103.006 41.0665C103.671 40.684 104.336 40.3016 105.002 39.9192C106.576 39.0309 108.32 38.5823 110.084 38.6119L117.908 38.6354L118.13 38.6361C118.598 38.6375 118.599 39.4503 118.13 39.4489L118.13 39.4489Z" fill="black"/>
<path d="M100.291 169.725C99.9749 170.623 99.8173 171.582 99.8272 172.548H123.398L123.424 170.65H123.437V167.339C123.437 167.339 120.271 166.155 116.584 168.996C114.055 170.062 113.318 167.339 110.684 167.694C108.05 168.049 108.93 169.031 107.331 169.014C107.331 169.014 105.421 169.115 104.157 167.813C102.893 166.51 101.272 167.139 100.291 169.725Z" fill="white"/>
<path d="M100.642 169.833C100.328 170.694 100.175 171.618 100.191 172.548L99.8272 172.141H122.436C122.743 172.123 123.051 172.123 123.359 172.141C123.372 172.142 123.385 172.142 123.398 172.141L123.034 172.548L123.06 170.65C123.062 170.542 123.101 170.44 123.169 170.364C123.237 170.288 123.328 170.245 123.424 170.243H123.437L123.074 170.65V167.339L123.341 167.731C123.023 167.62 122.695 167.553 122.363 167.531C121.471 167.449 120.573 167.54 119.708 167.8C119.135 167.97 118.578 168.205 118.047 168.501C117.442 168.838 116.903 169.361 116.241 169.541C115.324 169.79 114.479 169.544 113.661 169.065C112.933 168.638 112.229 168.138 111.385 168.076C110.825 168.048 110.265 168.127 109.729 168.308C109.563 168.357 109.402 168.424 109.249 168.509C109.186 168.546 109.124 168.585 109.064 168.628C109.033 168.65 108.878 168.778 108.94 168.723C108.773 168.893 108.593 169.047 108.402 169.182C108.101 169.347 107.769 169.428 107.434 169.42C106.78 169.438 106.128 169.335 105.504 169.116C104.912 168.905 104.365 168.559 103.9 168.1C103.599 167.771 103.2 167.579 102.78 167.561C101.686 167.574 100.986 168.942 100.605 169.93C100.556 170.022 100.477 170.089 100.383 170.117C100.29 170.144 100.191 170.129 100.108 170.075C100.026 170.019 99.9673 169.93 99.943 169.826C99.9187 169.723 99.931 169.613 99.9772 169.519C100.398 168.426 101.063 167.298 102.112 166.879C102.52 166.719 102.963 166.706 103.379 166.842C103.861 167 104.192 167.34 104.575 167.68C105.274 168.301 106.213 168.574 107.091 168.606C107.168 168.609 107.244 168.608 107.321 168.607C107.383 168.607 107.445 168.607 107.506 168.604C107.592 168.601 107.687 168.592 107.72 168.586C107.786 168.573 107.851 168.557 107.915 168.535C107.944 168.526 107.971 168.515 107.999 168.503C107.932 168.532 107.996 168.505 108.023 168.487C108.067 168.459 108.109 168.43 108.152 168.399C108.163 168.391 108.227 168.337 108.184 168.374C108.143 168.409 108.213 168.347 108.224 168.336C108.429 168.127 108.656 167.947 108.899 167.798C109.871 167.32 110.945 167.168 111.993 167.358C112.43 167.474 112.852 167.654 113.247 167.893C113.954 168.298 114.643 168.842 115.469 168.838C115.696 168.836 115.921 168.8 116.139 168.731C116.449 168.602 116.742 168.426 117.009 168.208C117.6 167.815 118.224 167.489 118.874 167.236C119.841 166.856 120.862 166.671 121.888 166.69C122.42 166.689 122.95 166.768 123.464 166.923C123.487 166.931 123.511 166.938 123.534 166.947C123.61 166.972 123.677 167.024 123.725 167.094C123.773 167.165 123.8 167.25 123.801 167.339V170.65C123.8 170.757 123.761 170.86 123.693 170.935C123.625 171.011 123.533 171.055 123.437 171.056H123.424L123.788 170.65L123.762 172.548C123.76 172.655 123.722 172.757 123.654 172.833C123.586 172.909 123.494 172.952 123.398 172.954H102.737C101.783 172.954 100.821 172.995 99.8666 172.954C99.8535 172.953 99.8403 172.954 99.8272 172.954C99.7313 172.952 99.6398 172.908 99.572 172.833C99.5042 172.757 99.4653 172.655 99.4633 172.548C99.4436 171.545 99.6059 170.548 99.9404 169.617C100.103 169.131 100.807 169.341 100.642 169.833Z" fill="black"/>
<path d="M60.4962 23.7716C60.4962 23.7716 59.7192 20.9366 58.6202 20.4875L60.4962 23.7716Z" fill="#FC7272"/>
<path d="M60.1455 23.8798C60.0576 23.5598 59.9486 23.2459 59.8335 22.937C59.8584 23.0039 59.8364 22.945 59.8243 22.9138C59.8123 22.8826 59.8003 22.8521 59.7881 22.8213C59.7587 22.7471 59.7285 22.6733 59.6976 22.5999C59.6353 22.4521 59.5696 22.3063 59.5003 22.1624C59.4298 22.0165 59.3552 21.8731 59.2751 21.7336C59.2372 21.6675 59.1979 21.6024 59.1574 21.5382C59.1389 21.5091 59.1201 21.4804 59.1011 21.4517C59.0951 21.4426 59.0541 21.3839 59.0817 21.4229C59.107 21.4586 59.066 21.4018 59.0616 21.3958C58.9673 21.2686 58.8644 21.1497 58.7538 21.0401C58.6917 20.9789 58.779 21.0545 58.7301 21.018C58.7005 20.9959 58.672 20.9724 58.6416 20.9515C58.6122 20.9312 58.582 20.913 58.5516 20.8947C58.5403 20.888 58.5286 20.8826 58.5173 20.8762C58.4736 20.8515 58.6009 20.9124 58.5236 20.8796C58.432 20.8484 58.3546 20.7792 58.3074 20.6862C58.2601 20.5932 58.2465 20.4835 58.2695 20.3797C58.2957 20.2762 58.3574 20.1884 58.4412 20.1353C58.5249 20.0822 58.624 20.068 58.717 20.0959C59.3116 20.3483 59.7129 20.9483 60.0236 21.5429C60.3056 22.0972 60.5422 22.6789 60.7305 23.2808C60.7716 23.4075 60.8118 23.5349 60.8472 23.6638C60.985 24.1649 60.2828 24.3792 60.1456 23.8798H60.1455Z" fill="black"/>
<path d="M113.593 39.2538H128.05C127.913 38.2033 127.442 37.2428 126.724 36.5475C126.006 35.8521 125.088 35.4682 124.138 35.4657H121.218C120.599 35.4658 119.989 35.629 119.437 35.942L113.593 39.2538Z" fill="white"/>
<path d="M113.593 38.8476H128.05L127.699 39.362C127.457 37.543 126.13 36.0412 124.465 35.8872C124.055 35.8493 123.636 35.8722 123.225 35.8722H121.528C120.871 35.8419 120.217 35.9862 119.62 36.2933C119.427 36.4003 119.236 36.5108 119.044 36.6196L116.059 38.3112L113.777 39.6048C113.36 39.8411 112.991 39.14 113.41 38.903L118.569 35.9789C118.795 35.8509 119.02 35.7209 119.246 35.5948C119.907 35.2323 120.634 35.0489 121.37 35.0595C122.335 35.0595 123.305 35.0254 124.269 35.0619C125.274 35.1066 126.234 35.5374 126.986 36.2816C127.739 37.0258 128.239 38.0377 128.401 39.146C128.414 39.2063 128.416 39.2692 128.405 39.33C128.393 39.3909 128.37 39.4482 128.336 39.4976C128.303 39.547 128.259 39.5873 128.21 39.6155C128.16 39.6437 128.106 39.659 128.05 39.6604H113.593C113.125 39.6605 113.124 38.8476 113.593 38.8476Z" fill="black"/>
<path d="M112.373 27.6832C112.093 28.2076 111.644 28.5927 111.118 28.7598C110.855 28.8308 110.581 28.8356 110.316 28.774C110.223 28.7448 110.144 28.676 110.097 28.5824C110.049 28.4888 110.037 28.378 110.062 28.2741C110.089 28.1716 110.151 28.085 110.235 28.0322C110.318 27.9794 110.416 27.9643 110.509 27.9902C110.525 27.9937 110.54 27.9969 110.556 27.9998C110.596 28.0067 110.587 28.0056 110.528 27.9963C110.559 27.9956 110.589 27.9985 110.618 28.005C110.676 28.0085 110.734 28.0079 110.791 28.0032C110.826 28.0004 110.906 27.9708 110.797 28.0048C110.822 27.9969 110.85 27.9949 110.876 27.9887C110.927 27.9764 110.978 27.961 111.027 27.9423C111.051 27.9333 111.075 27.923 111.099 27.9131C111.159 27.8881 111.011 27.9583 111.098 27.9125C111.141 27.8893 111.184 27.864 111.226 27.8364C111.266 27.8099 111.305 27.7816 111.344 27.7515C111.362 27.7368 111.38 27.7213 111.398 27.7067C111.298 27.7868 111.367 27.7336 111.389 27.713C111.5 27.6069 111.601 27.4896 111.693 27.3625C111.727 27.3168 111.626 27.4622 111.666 27.4008C111.673 27.3903 111.68 27.3799 111.687 27.3694C111.698 27.3525 111.708 27.3354 111.719 27.3181C111.728 27.3033 111.737 27.2884 111.745 27.2731C111.769 27.2267 111.801 27.1861 111.839 27.1536C111.877 27.1211 111.92 27.0973 111.967 27.0836C112.013 27.0699 112.061 27.0666 112.109 27.0738C112.156 27.081 112.202 27.0986 112.243 27.1256C112.285 27.1526 112.321 27.1885 112.35 27.2312C112.379 27.2739 112.4 27.3225 112.412 27.3744C112.424 27.4262 112.427 27.4801 112.42 27.5332C112.413 27.5862 112.397 27.6372 112.373 27.6833V27.6832Z" fill="black"/>
<path d="M89.7232 49.6773L86.7145 51.6002L81.9391 54.652L80.8344 55.358C80.4273 55.6182 80.0603 54.9162 80.4671 54.6562L83.4759 52.7333L88.2511 49.6815L89.3559 48.9755C89.763 48.7153 90.13 49.4173 89.7231 49.6773H89.7232Z" fill="black"/>
<path d="M128.131 17.3135C127.959 16.3062 128.07 15.2641 128.45 14.3303C128.829 13.3965 129.458 12.6168 130.25 12.0982L148.187 0.404175L149.64 6.11644L147.461 8.56452L149.64 9.87017L150.656 13.787L146.154 15.2559L151.238 17.0511L153.271 24.5585L131.856 21.2944C130.941 21.1493 130.089 20.6872 129.42 19.9731C128.752 19.259 128.301 18.3289 128.131 17.3135Z" fill="#EA2F2F"/>
<path d="M127.78 17.4215C127.621 16.4938 127.681 15.5359 127.955 14.6424C128.23 13.7489 128.708 12.9509 129.343 12.3275C129.701 12.0035 130.085 11.7167 130.49 11.4709L134.222 9.03789L139.903 5.33479L145.246 1.85088C146.151 1.26126 147.044 0.634893 147.965 0.0783856C147.978 0.070482 147.991 0.0616596 148.004 0.0532961C148.052 0.0227613 148.106 0.00483108 148.161 0.000848717C148.217 -0.00313364 148.272 0.00693422 148.324 0.0302995C148.375 0.0536648 148.421 0.0897215 148.458 0.135769C148.495 0.181815 148.523 0.236659 148.538 0.296193L149.807 5.28751L149.991 6.00838C150.008 6.07766 150.008 6.15068 149.991 6.22009C149.975 6.28949 149.942 6.35285 149.897 6.40379L147.718 8.85189L147.645 8.21358L148.693 8.84193C149.065 9.06455 149.467 9.26155 149.821 9.51773C149.88 9.56822 149.929 9.63115 149.966 9.70291C150.003 9.77467 150.026 9.85384 150.036 9.9359L150.201 10.5709L150.689 12.4514L151.008 13.679C151.032 13.7829 151.019 13.8932 150.971 13.9865C150.924 14.0798 150.846 14.1489 150.753 14.179L146.817 15.463L146.25 15.6478V14.8641L151.238 16.6252C151.316 16.6406 151.389 16.6779 151.45 16.7336C151.511 16.7893 151.559 16.8616 151.589 16.9436C151.608 17.0029 151.622 17.0652 151.638 17.1255L151.942 18.2496L152.937 21.9222L153.622 24.4506C153.711 24.7791 153.432 24.9898 153.175 24.9505L150.504 24.5434L144.359 23.6067L137.477 22.5578L132.598 21.8141C132.32 21.7717 132.042 21.7316 131.764 21.687C131.002 21.5583 130.279 21.226 129.657 20.7184C129.034 20.2108 128.53 19.5429 128.188 18.7713C128.001 18.343 127.863 17.8893 127.78 17.4215C127.69 16.9106 128.391 16.6919 128.482 17.2054C128.631 18.0878 129.008 18.9019 129.567 19.5474C130.126 20.1929 130.842 20.6413 131.627 20.8375C131.935 20.9123 132.252 20.9481 132.564 20.9957L137.098 21.6867L143.84 22.7143L150.134 23.6736L152.293 24.0027C152.632 24.0543 152.986 24.0783 153.321 24.1593C153.336 24.1631 153.352 24.1642 153.368 24.1665L152.92 24.6665L151.141 18.0988L150.887 17.159L151.141 17.4429L146.699 15.8742L146.057 15.6476C145.982 15.6219 145.916 15.5699 145.87 15.4994C145.823 15.4288 145.798 15.3434 145.798 15.2557C145.798 15.168 145.823 15.0826 145.87 15.012C145.916 14.9415 145.982 14.8896 146.057 14.8638L149.993 13.5798L150.56 13.395L150.306 13.8949L149.289 9.97797L149.456 10.2208L147.277 8.9152C147.23 8.8833 147.189 8.83982 147.159 8.78799C147.129 8.73617 147.109 8.67735 147.102 8.61595C147.095 8.55455 147.101 8.49215 147.118 8.43344C147.136 8.37472 147.165 8.3212 147.204 8.2769L149.383 5.82882L149.289 6.22422L148.02 1.23291L147.836 0.512034L148.371 0.75491L146.19 2.17647L141.13 5.47571L135.429 9.19262L131.272 11.9026C131 12.0797 130.728 12.256 130.457 12.4339C129.727 12.9041 129.145 13.6152 128.792 14.4695C128.438 15.3239 128.33 16.2796 128.482 17.2055C128.568 17.7166 127.867 17.9356 127.78 17.4215Z" fill="black"/>
<path d="M130.571 80.7429C130.969 82.7511 131.212 84.7939 131.296 86.8486C131.526 91.107 131.234 95.4841 130.045 99.5569C129.304 102.165 128.127 104.592 126.577 106.711L126.684 106.424C126.634 109.58 126.61 112.736 126.595 115.893C126.58 119.261 126.576 122.628 126.582 125.996C126.587 129.08 126.597 132.163 126.613 135.246C126.625 137.549 126.64 139.852 126.657 142.155C126.665 143.176 126.718 144.211 126.683 145.233C126.683 145.246 126.684 145.26 126.684 145.274C126.689 145.797 125.961 145.798 125.956 145.274C125.933 142.923 125.915 140.572 125.903 138.221C125.87 132.953 125.853 127.686 125.853 122.419C125.854 119.501 125.863 116.584 125.88 113.666C125.889 112.264 125.901 110.862 125.916 109.46C125.923 108.823 125.931 108.185 125.939 107.547C125.944 107.226 125.949 106.904 125.954 106.582C125.949 106.489 125.961 106.395 125.988 106.306C126.016 106.218 126.059 106.136 126.115 106.066C126.218 105.924 126.322 105.783 126.422 105.638C129.38 101.364 130.489 95.8578 130.624 90.5487C130.727 87.3782 130.483 84.2055 129.898 81.101C129.888 81.0536 129.879 81.0061 129.869 80.9588C129.761 80.4503 130.462 80.2333 130.571 80.7428L130.571 80.7429Z" fill="black"/>
<path d="M156.182 94.7167L146.053 91.9697C146.053 91.9697 143.376 96.1556 143.608 97.5945C143.841 99.0333 145.588 99.4258 145.588 99.4258L147.8 98.3793C147.8 98.3793 149.895 98.2485 150.477 95.1092" fill="#FC7272"/>
<path d="M156.085 95.1086L152.65 94.1769L147.205 92.7003L145.957 92.3616L146.368 92.1748C145.813 93.0423 145.303 93.9442 144.839 94.876C144.51 95.4942 144.244 96.152 144.046 96.837C144.012 96.9648 143.986 97.0948 143.967 97.2263C143.977 97.1501 143.96 97.3075 143.959 97.3382C143.957 97.4037 143.958 97.4694 143.964 97.5347C143.953 97.4153 143.969 97.5476 143.977 97.5774C143.989 97.6259 143.999 97.6751 144.013 97.723C144.038 97.7998 144.069 97.8738 144.106 97.9439C144.188 98.0985 144.293 98.2375 144.414 98.3556C144.776 98.7044 145.214 98.9386 145.684 99.0339L145.404 99.0749C146.136 98.7288 146.867 98.3827 147.599 98.0366C147.664 98.0038 147.733 97.9822 147.804 97.9726C147.869 97.964 147.845 97.9623 147.781 97.9779C147.892 97.9509 148.003 97.9313 148.113 97.8946C148.187 97.8701 148.259 97.8411 148.331 97.8106C148.394 97.7838 148.34 97.8072 148.327 97.8131C148.352 97.8015 148.376 97.7894 148.4 97.7769C148.45 97.7502 148.5 97.7227 148.549 97.6931C148.749 97.5768 148.933 97.4301 149.097 97.2573C149.669 96.6601 149.966 95.8421 150.126 95.0011C150.224 94.4898 150.926 94.7063 150.828 95.2172C150.597 96.4236 150.067 97.5763 149.12 98.2611C148.726 98.5569 148.272 98.7374 147.8 98.7859L147.983 98.7304L146.062 99.6392C145.845 99.7422 145.652 99.8623 145.411 99.797C145.049 99.6968 144.702 99.5378 144.382 99.3253C143.904 99.0306 143.532 98.5607 143.329 97.9952C143.204 97.5624 143.205 97.096 143.334 96.6642C143.593 95.6118 144.11 94.6234 144.611 93.6951C144.966 93.0377 145.34 92.3897 145.739 91.7647C145.781 91.6894 145.844 91.6308 145.918 91.5973C145.991 91.5638 146.073 91.557 146.15 91.578L149.585 92.5096L155.03 93.9863L156.279 94.325C156.733 94.4484 156.541 95.2325 156.085 95.1088L156.085 95.1086Z" fill="black"/>
<path d="M149.622 105.783L146.082 104.658C141.746 102.958 141.862 100.472 141.862 100.472C141.862 100.472 141.978 96.6788 143.143 96.1555C144.307 95.6323 145.122 97.856 145.122 97.856C145.122 97.856 146.985 95.7631 147.799 98.3793C148.614 97.0712 149.779 97.202 150.594 99.0333C151.525 98.183 152.194 98.2812 152.631 98.5918C152.839 98.748 153.002 98.9693 153.099 99.2279C153.195 99.4866 153.222 99.7713 153.175 100.047L152.827 102.225C152.787 102.474 152.82 102.73 152.921 102.957C153.022 103.183 153.186 103.367 153.388 103.481" fill="#FC7272"/>
<path d="M149.525 106.176L146.366 105.171C144.897 104.704 143.33 103.889 142.325 102.56C141.895 101.99 141.493 101.243 141.499 100.469C141.513 99.9487 141.559 99.4299 141.637 98.9165C141.743 98.1201 141.897 97.2768 142.263 96.5729C142.44 96.1929 142.735 95.8983 143.093 95.7443C143.303 95.6723 143.525 95.6573 143.74 95.7006C143.956 95.7439 144.159 95.8442 144.333 95.9931C144.849 96.4511 145.244 97.0581 145.473 97.7484L144.865 97.569C145.214 97.1698 145.65 96.8781 146.13 96.7222C146.508 96.6018 146.913 96.6534 147.257 96.8656C147.721 97.1674 147.976 97.7275 148.151 98.2715L147.486 98.1744C147.892 97.5376 148.482 97.0062 149.222 97.1259C150.025 97.2555 150.566 98.0766 150.908 98.8285L150.337 98.7462C150.856 98.2826 151.475 97.8781 152.164 97.9804C152.461 98.0255 152.741 98.1622 152.972 98.375C153.203 98.5879 153.376 98.8686 153.472 99.1854C153.611 99.6373 153.538 100.082 153.465 100.534L153.242 101.933C153.168 102.397 153.114 102.873 153.572 103.13C153.99 103.365 153.622 104.067 153.205 103.832C152.935 103.67 152.719 103.415 152.588 103.106C152.457 102.797 152.419 102.449 152.477 102.113C152.523 101.801 152.576 101.491 152.626 101.18C152.744 100.443 153.117 99.3236 152.343 98.8754C151.865 98.5989 151.265 98.951 150.851 99.3209C150.811 99.3637 150.764 99.3961 150.711 99.4155C150.659 99.4349 150.603 99.4409 150.548 99.433C150.493 99.4251 150.44 99.4035 150.394 99.3699C150.348 99.3362 150.309 99.2914 150.28 99.2386C150.048 98.7277 149.699 98.054 149.146 97.9315C148.733 97.8402 148.356 98.2054 148.114 98.5846C148.076 98.6512 148.023 98.7044 147.959 98.7379C147.895 98.7714 147.824 98.7837 147.754 98.7735C147.684 98.7633 147.618 98.731 147.564 98.6803C147.51 98.6296 147.47 98.5627 147.449 98.4875C147.329 98.1155 147.147 97.6885 146.818 97.5244C146.723 97.4825 146.622 97.4642 146.52 97.4708C146.404 97.4804 146.29 97.5087 146.182 97.5548C145.969 97.6532 145.769 97.7828 145.587 97.9403C145.653 97.8844 145.559 97.9651 145.539 97.9845C145.51 98.0108 145.482 98.0377 145.455 98.0651C145.429 98.0907 145.404 98.1165 145.38 98.1436C145.334 98.1922 145.278 98.227 145.217 98.2445C145.156 98.2621 145.092 98.2619 145.031 98.2439C144.97 98.2259 144.914 98.1908 144.868 98.1418C144.823 98.0928 144.79 98.0317 144.771 97.9642C144.837 98.1411 144.767 97.9567 144.746 97.9071C144.696 97.7912 144.643 97.6776 144.586 97.5661C144.44 97.2664 144.254 96.9943 144.032 96.7597C143.946 96.6524 143.836 96.5728 143.713 96.5291C143.59 96.4853 143.459 96.4791 143.333 96.5111C143.233 96.5557 143.141 96.6221 143.063 96.7065C142.986 96.7908 142.924 96.8915 142.881 97.0027C142.563 97.6271 142.435 98.412 142.339 99.1323C142.276 99.5714 142.239 100.015 142.227 100.459C142.226 100.495 142.228 100.53 142.229 100.565C142.229 100.587 142.233 100.608 142.234 100.629C142.236 100.694 142.211 100.502 142.232 100.614C142.245 100.681 142.255 100.748 142.271 100.815C142.291 100.899 142.314 100.982 142.341 101.063C142.35 101.09 142.401 101.227 142.359 101.12C142.381 101.175 142.404 101.23 142.428 101.285C142.53 101.508 142.652 101.72 142.79 101.918C143.688 103.14 145.1 103.923 146.438 104.348L149.719 105.391C150.169 105.534 149.978 106.319 149.526 106.175L149.525 106.176Z" fill="black"/>
</svg>
