<svg width="115" height="192" viewBox="0 0 115 192" fill="none" xmlns="http://www.w3.org/2000/svg">
<path d="M14.3772 44.5858L13.2907 38.1877C13.17 33.4797 18.9063 30.3104 23.1839 28.8685L27.0526 27.5645L28.1391 40.1192L26.3282 43.62" fill="#FC7F3A"/>
<path d="M14.8065 44.4673L14.2065 40.9341L13.8306 38.7204C13.7981 38.529 13.7573 38.337 13.7328 38.1444C13.7283 38.1087 13.7338 38.0216 13.7346 38.1161C13.7302 37.8518 13.7456 37.5876 13.7804 37.3257C14.0895 35.1491 15.7377 33.4309 17.4551 32.2025C19.2587 30.9488 21.237 29.9674 23.3263 29.2898C24.6075 28.8567 25.889 28.4247 27.1709 27.9938L26.6072 27.5644L26.9751 31.8166L27.5589 38.5627L27.6936 40.1191L27.7544 39.8944L25.9437 43.3951C25.6807 43.9036 26.4491 44.3545 26.7128 43.8447L28.3671 40.6463C28.503 40.4445 28.5741 40.2061 28.5708 39.9628L28.4769 38.8777L27.7196 30.126L27.4979 27.5643C27.4968 27.4961 27.4803 27.429 27.4496 27.3681C27.4188 27.3072 27.3746 27.254 27.3203 27.2127C27.266 27.1713 27.2031 27.1428 27.1362 27.1294C27.0693 27.1159 27.0002 27.1178 26.9342 27.1349C23.7033 28.2239 20.3886 29.1832 17.5161 31.0824C15.6129 32.3409 13.7812 34.0383 13.1026 36.2859C12.8649 37.0063 12.7949 37.7714 12.898 38.5229L13.2183 40.4092L13.9476 44.7041C14.0434 45.268 14.9019 45.0289 14.8065 44.4673V44.4673Z" fill="black"/>
<path d="M104.548 0.450195H25.4246C23.9277 0.450195 22.7142 1.66368 22.7142 3.16059V59.9153C22.7142 61.4122 23.9277 62.6257 25.4246 62.6257H104.548C106.045 62.6257 107.259 61.4122 107.259 59.9153V3.16059C107.259 1.66368 106.045 0.450195 104.548 0.450195Z" fill="#458DC9"/>
<path d="M104.548 62.1803H26.0778C25.8679 62.1803 25.6578 62.1834 25.448 62.1803C24.8402 62.178 24.258 61.9348 23.8291 61.5042C23.4002 61.0736 23.1593 60.4905 23.1594 59.8827C23.1467 58.9651 23.1594 58.0464 23.1594 57.1287V6.4357C23.1594 5.38119 23.1555 4.32659 23.1594 3.27208C23.1641 1.98078 24.0991 0.918603 25.4249 0.895541C25.5768 0.892885 25.7291 0.895541 25.8809 0.895541H102.553C103.212 0.895541 103.872 0.884736 104.531 0.895541C105.139 0.899652 105.721 1.1449 106.149 1.57749C106.577 2.01008 106.816 2.5947 106.813 3.20313C106.817 3.4998 106.813 3.79679 106.813 4.09348V58.7835C106.813 59.1221 106.815 59.4608 106.813 59.7995C106.809 61.0961 105.877 62.1521 104.548 62.1804C103.976 62.1926 103.974 63.0833 104.548 63.0711C105.39 63.0582 106.192 62.715 106.782 62.1156C107.373 61.5162 107.704 60.7087 107.704 59.8673C107.708 59.5605 107.704 59.2534 107.704 58.9466V4.05811C107.704 3.76984 107.708 3.48134 107.704 3.19314C107.7 2.3541 107.368 1.55001 106.777 0.953777C106.187 0.357544 105.386 0.0167945 104.547 0.00480202C103.958 -0.00600252 103.368 0.00480202 102.778 0.00480202H25.832C25.619 0.00480202 25.403 -0.00284733 25.1907 0.0147441C24.3901 0.0846899 23.6452 0.453221 23.1039 1.04712C22.5625 1.64102 22.2644 2.41682 22.2688 3.2204C22.262 4.20917 22.2688 5.19826 22.2688 6.18711V57.1678C22.2688 58.0752 22.2544 58.9839 22.2688 59.8913C22.2745 60.7292 22.6085 61.5315 23.1991 62.126C23.7896 62.7204 24.5897 63.0597 25.4275 63.071C25.5983 63.074 25.7694 63.071 25.9403 63.071H104.548C105.121 63.071 105.122 62.1803 104.548 62.1803Z" fill="black"/>
<path d="M22.7142 59.0007V39.7103L41.7739 19.1119C42.3831 18.4535 43.1195 17.9254 43.9386 17.5597C44.7576 17.1939 45.6424 16.998 46.5393 16.9839C47.4362 16.9697 48.3267 17.1375 49.1569 17.4773C49.9871 17.817 50.7398 18.3215 51.3695 18.9603L70.7989 38.6713L83.2667 26.2036C84.498 24.9723 86.1641 24.2744 87.9054 24.2604C89.6467 24.2465 91.3237 24.9177 92.5746 26.1291L107.259 40.3509V66.6947H22.8056L22.7142 59.0007Z" fill="#389B48"/>
<path d="M23.1594 59.0008V39.7104L23.0289 40.0254L25.2135 37.6644L30.3382 32.1259L36.259 25.727L40.8325 20.7846C41.9869 19.537 43.0505 18.2627 44.7489 17.7239C45.713 17.4184 46.7369 17.3517 47.7325 17.5293C48.7281 17.707 49.6656 18.1238 50.4646 18.744C50.8412 19.0602 51.1978 19.3996 51.5323 19.7601L55.4216 23.7057L61.3613 29.7315L67.1083 35.5617L70.3328 38.8329L70.484 38.9864C70.5683 39.0683 70.6813 39.1141 70.7989 39.1141C70.9165 39.1141 71.0295 39.0683 71.1138 38.9864L76.8403 33.2599C79.0519 31.0482 81.2635 28.8367 83.4751 26.6251C84.2702 25.8065 85.273 25.2197 86.3761 24.9274C87.4792 24.6351 88.641 24.6484 89.7372 24.9658C91.0696 25.3621 92.0264 26.2184 92.99 27.1517L100.54 34.4638L104.592 38.3884C105.337 39.1096 106.055 39.8855 106.839 40.5644C106.876 40.5961 106.909 40.6322 106.944 40.6658L106.813 40.351V66.6949L107.259 66.2495H26.2382C25.1485 66.2495 24.0336 66.1811 22.9455 66.2495C22.8992 66.2524 22.852 66.2495 22.8056 66.2495L23.2509 66.6949L23.171 59.9752L23.1595 59.0008C23.1526 58.4281 22.2619 58.4265 22.2688 59.0008L22.3487 65.7204L22.3602 66.6949C22.362 66.8124 22.4095 66.9247 22.4926 67.0078C22.5758 67.0909 22.688 67.1384 22.8056 67.1402H103.826C104.923 67.1402 106.022 67.1606 107.119 67.1402C107.165 67.1393 107.212 67.1402 107.259 67.1402C107.376 67.1385 107.489 67.0911 107.572 67.0079C107.655 66.9248 107.702 66.8125 107.704 66.6949V41.252C107.704 40.8562 107.813 40.2909 107.518 39.9826C106.09 38.4859 104.534 37.0922 103.048 35.6529L95.9901 28.8174L93.5641 26.4679C92.9725 25.843 92.3104 25.2889 91.5912 24.8166C90.5706 24.2145 89.4164 23.8753 88.2324 23.8295C87.0483 23.7837 85.8714 24.0326 84.8074 24.554C83.8437 25.0274 83.0979 25.7426 82.3521 26.4883L76.3595 32.481L70.7954 38.0451L70.484 38.3566H71.1138L67.2895 34.4769L59.3979 26.4709L52.8107 19.7885C52.4356 19.4079 52.0631 19.0244 51.6852 18.6467C50.7512 17.7112 49.5763 17.0527 48.2908 16.7446C47.0052 16.4364 45.6594 16.4905 44.4028 16.9009C42.1367 17.6652 40.6473 19.6743 39.0798 21.3683L31.8715 29.1585L24.6995 36.9096L22.7151 39.0542C22.6121 39.1654 22.4935 39.2729 22.4012 39.3935C22.2344 39.6114 22.2686 39.8431 22.2686 40.101V59.001C22.2688 59.5739 23.1594 59.5749 23.1594 59.0008Z" fill="black"/>
<path d="M69.742 19.8252C73.0494 19.8252 75.7306 17.144 75.7306 13.8366C75.7306 10.5292 73.0494 7.84802 69.742 7.84802C66.4346 7.84802 63.7534 10.5292 63.7534 13.8366C63.7534 17.144 66.4346 19.8252 69.742 19.8252Z" fill="#FFC41F"/>
<path d="M75.2851 13.8365C75.2846 14.9778 74.9318 16.0911 74.275 17.0243C73.6181 17.9576 72.6892 18.6654 71.6151 19.051C70.541 19.4366 69.374 19.4813 68.2736 19.1789C67.1731 18.8766 66.1928 18.2419 65.4665 17.3616C64.7402 16.4813 64.3033 15.3983 64.2155 14.2604C64.1277 13.1226 64.3933 11.9854 64.976 11.0041C65.5586 10.0228 66.4299 9.24523 67.471 8.77764C68.512 8.31004 69.6721 8.17519 70.7926 8.39147C72.0531 8.64461 73.188 9.32421 74.0062 10.3159C74.8244 11.3076 75.276 12.5509 75.2851 13.8365C75.2888 14.4095 76.1795 14.4108 76.1758 13.8365C76.1795 12.1698 75.5381 10.5662 74.3858 9.36189C73.2336 8.15755 71.66 7.44586 69.9946 7.37593C68.3293 7.306 66.7016 7.88326 65.4524 8.98676C64.2033 10.0903 63.4296 11.6344 63.2936 13.2956C63.1576 14.9568 63.6698 16.6062 64.7228 17.8982C65.7758 19.1902 67.288 20.0246 68.9425 20.2264C70.597 20.4283 72.2654 19.9821 73.5982 18.9812C74.931 17.9803 75.8248 16.5025 76.0922 14.8573C76.1445 14.5195 76.1725 14.1784 76.1758 13.8365C76.1795 13.2633 75.2888 13.2627 75.2851 13.8365Z" fill="black"/>
<path d="M54.3989 169.938V180.588L41.9941 183.045L41.6432 166.896" fill="#FC7F3A"/>
<path d="M53.9536 169.938V180.588L54.2805 180.158L50.0733 180.992L43.4051 182.313L41.8757 182.616L42.4394 183.045L42.3203 177.567L42.1319 168.899L42.0884 166.896C42.0759 166.323 41.1852 166.321 41.1977 166.896L41.3168 172.374L41.5052 181.042L41.5488 183.045C41.5501 183.113 41.5667 183.18 41.5976 183.241C41.6284 183.302 41.6726 183.355 41.7268 183.396C41.781 183.438 41.8439 183.466 41.9107 183.48C41.9774 183.493 42.0464 183.491 42.1125 183.475L46.3196 182.641L52.9878 181.32L54.5173 181.017C54.6109 180.991 54.6934 180.934 54.7524 180.857C54.8113 180.779 54.8435 180.685 54.8441 180.588V169.938C54.8441 169.365 53.9535 169.364 53.9535 169.938H53.9536Z" fill="black"/>
<path d="M41.286 179.563L41.3356 191.354H67.5171C67.5171 191.354 67.9635 183.92 58.187 183.136C57.3073 183.062 56.4882 182.657 55.8947 182.004C55.3012 181.35 54.9772 180.496 54.988 179.613C54.9931 179.096 54.9988 178.677 55.0044 178.339C55.0074 178.159 54.9744 177.98 54.9075 177.813C54.8406 177.646 54.7411 177.494 54.6148 177.365C54.4884 177.237 54.3378 177.135 54.1716 177.065C54.0055 176.996 53.8272 176.96 53.647 176.96H52.5265L49.5456 178.799C48.7899 179.266 47.9185 179.51 47.0305 179.506C46.1425 179.502 45.2735 179.248 44.5224 178.775L43.6735 178.239C43.4375 178.09 43.1658 178.008 42.8869 178C42.608 177.992 42.3321 178.059 42.0881 178.194C41.844 178.33 41.6408 178.528 41.4997 178.769C41.3587 179.01 41.2848 179.284 41.286 179.563Z" fill="#458DC9"/>
<path d="M40.8407 179.563L40.8575 183.561L40.8841 189.898L40.8903 191.354C40.892 191.472 40.9394 191.584 41.0226 191.667C41.1058 191.75 41.218 191.798 41.3356 191.799H64.291C65.3481 191.799 66.4139 191.839 67.4706 191.799C67.486 191.799 67.5016 191.799 67.5171 191.799C67.6344 191.797 67.7463 191.749 67.8294 191.666C67.9124 191.583 67.96 191.471 67.9624 191.354C67.989 190.316 67.7922 189.283 67.3853 188.328C66.4736 186.066 64.6314 184.462 62.3809 183.583C61.6093 183.287 60.8108 183.066 59.9966 182.923C59.501 182.834 59.0006 182.767 58.4993 182.718C58.0742 182.697 57.6553 182.608 57.259 182.453C56.8827 182.287 56.5438 182.047 56.2622 181.747C55.9807 181.447 55.7623 181.094 55.6201 180.708C55.4799 180.286 55.4173 179.842 55.4355 179.398C55.4408 178.907 55.513 178.361 55.3959 177.88C55.2892 177.479 55.0501 177.126 54.7176 176.878C54.385 176.63 53.9785 176.502 53.564 176.515C53.2837 176.513 53.0033 176.515 52.723 176.515C52.5612 176.501 52.3988 176.532 52.2536 176.605C51.3439 177.115 50.4709 177.705 49.5832 178.253C49.0564 178.601 48.4704 178.849 47.8542 178.987C46.8436 179.178 45.7978 179.001 44.9071 178.486C44.4409 178.217 44.008 177.85 43.4988 177.664C43.1966 177.56 42.8738 177.529 42.5574 177.575C42.241 177.621 41.9401 177.742 41.6799 177.928C41.4197 178.113 41.2078 178.359 41.0618 178.643C40.9158 178.928 40.8399 179.243 40.8406 179.563C40.8301 180.136 41.7208 180.136 41.7313 179.563C41.7338 179.36 41.7908 179.163 41.8963 178.99C42.0018 178.818 42.1519 178.677 42.3307 178.583C42.5095 178.488 42.7105 178.444 42.9124 178.455C43.1143 178.465 43.3096 178.53 43.4778 178.642C44.2664 179.123 45.0031 179.626 45.9264 179.827C47.2431 180.112 48.6188 179.882 49.7708 179.183C50.2297 178.905 50.6841 178.62 51.1407 178.338L52.7512 177.344L52.5265 177.405C53.1464 177.405 54.0475 177.225 54.4299 177.848C54.5426 178.07 54.5863 178.321 54.5555 178.568C54.5498 178.942 54.5367 179.318 54.5427 179.693C54.5531 180.284 54.6925 180.866 54.9513 181.398C55.2095 181.923 55.5815 182.384 56.0403 182.747C56.4991 183.11 57.033 183.365 57.6031 183.496C58.2305 183.633 58.886 183.636 59.5203 183.741C60.0754 183.831 60.6246 183.954 61.1649 184.11C62.8002 184.586 64.3085 185.418 65.41 186.718C65.8058 187.195 66.1394 187.722 66.4026 188.284C66.5101 188.508 66.6023 188.738 66.6787 188.974C66.7608 189.216 66.8312 189.462 66.8898 189.711C66.9439 189.941 66.9851 190.174 67.021 190.408C67.0353 190.502 67.0073 190.296 67.0184 190.388C67.0213 190.412 67.0246 190.436 67.0273 190.46C67.0332 190.513 67.0393 190.566 67.0444 190.619C67.0521 190.699 67.0585 190.779 67.0635 190.859C67.0761 191.024 67.0789 191.189 67.0718 191.354L67.5171 190.909H42.3964C42.0644 190.909 41.7129 190.875 41.3821 190.909C41.3669 190.91 41.3509 190.909 41.3356 190.909L41.781 191.354L41.7641 187.355L41.7375 181.018L41.7313 179.562C41.7289 178.99 40.8382 178.988 40.8407 179.563Z" fill="black"/>
<path d="M22.9471 164.077L17.2413 173.069L5.45056 168.498L13.8066 154.673" fill="#FC7F3A"/>
<path d="M22.5624 163.852L20.6353 166.889L17.5629 171.731L16.8568 172.844L17.3597 172.639L13.3608 171.089L7.02249 168.631L5.56876 168.068L5.8349 168.722L8.66959 164.033L13.1545 156.613L14.191 154.898C14.4884 154.406 13.7184 153.958 13.422 154.448L10.5873 159.138L6.10238 166.558L5.06583 168.273C5.0327 168.332 5.01331 168.398 5.00911 168.465C5.00491 168.533 5.01599 168.601 5.04155 168.664C5.0671 168.726 5.10647 168.783 5.15673 168.828C5.20699 168.874 5.26686 168.907 5.3319 168.927L9.33083 170.477L15.6691 172.934L17.1228 173.498C17.2175 173.523 17.3179 173.517 17.4087 173.48C17.4995 173.443 17.5757 173.378 17.6257 173.293L19.5528 170.256L22.6252 165.414L23.3314 164.301C23.6394 163.816 22.8689 163.369 22.5623 163.852L22.5624 163.852Z" fill="black"/>
<path d="M6.71854 165.177L0.44281 175.16L22.5494 189.188C22.5494 189.188 26.9097 183.149 19.0747 177.25C18.3715 176.716 17.8967 175.935 17.7457 175.066C17.5947 174.196 17.7787 173.301 18.2608 172.561C18.5422 172.127 18.7714 171.777 18.9574 171.494C19.0563 171.344 19.1244 171.175 19.1575 170.998C19.1906 170.821 19.1882 170.639 19.1503 170.463C19.1123 170.287 19.0398 170.12 18.9367 169.972C18.8337 169.825 18.7023 169.699 18.5502 169.603L17.6041 169.002L14.1017 168.958C13.2137 168.947 12.3467 168.687 11.5993 168.207C10.8518 167.728 10.2539 167.048 9.87347 166.246L9.44355 165.339C9.32403 165.087 9.13894 164.872 8.90767 164.716C8.67639 164.559 8.40742 164.468 8.12889 164.452C7.85036 164.435 7.57251 164.494 7.3244 164.622C7.07629 164.749 6.86704 164.941 6.71854 165.177Z" fill="#458DC9"/>
<path d="M6.3339 164.952L4.20566 168.338L0.832921 173.703L0.0582176 174.935C0.000560321 175.038 -0.0150053 175.159 0.0148109 175.272C0.0446271 175.386 0.117488 175.484 0.217993 175.545L2.42296 176.944L7.69303 180.288L14.0904 184.347L19.6006 187.844C20.4919 188.409 21.3682 189.024 22.2853 189.547C22.2988 189.555 22.3115 189.564 22.3246 189.572C22.4272 189.629 22.5478 189.644 22.6613 189.614C22.7748 189.585 22.8724 189.512 22.9339 189.412C23.6823 188.372 24.0612 186.991 24.1743 185.735C24.4553 182.613 22.7318 179.818 20.4678 177.813C19.7664 177.192 18.9156 176.713 18.4718 175.858C18.1202 175.166 18.0447 174.366 18.2607 173.621C18.4042 173.197 18.611 172.797 18.874 172.434C19.151 172.078 19.3783 171.686 19.5496 171.269C19.6595 170.885 19.6415 170.477 19.4982 170.104C19.355 169.732 19.0943 169.417 18.7557 169.206C18.5532 169.071 18.3448 168.945 18.1395 168.815C17.9833 168.684 17.7964 168.595 17.5963 168.557C17.2474 168.533 16.8915 168.548 16.542 168.543C15.6102 168.532 14.6571 168.578 13.7281 168.493C12.125 168.346 10.8585 167.288 10.1863 165.87C9.95113 165.374 9.75642 164.828 9.32034 164.469C9.10014 164.285 8.84302 164.151 8.56637 164.075C8.28973 163.999 8.00001 163.984 7.71684 164.03C7.43367 164.075 7.16365 164.182 6.92507 164.341C6.68649 164.5 6.48491 164.709 6.33397 164.953C6.01758 165.433 6.78856 165.879 7.10307 165.402C7.21631 165.228 7.37572 165.089 7.56354 165C7.75136 164.911 7.96019 164.876 8.16677 164.898C8.36386 164.925 8.5506 165.003 8.70882 165.124C8.86705 165.244 8.99139 165.404 9.06974 165.586C9.47977 166.415 9.8289 167.227 10.5003 167.893C11.4005 168.78 12.5905 169.313 13.852 169.394C14.4319 169.432 15.0187 169.415 15.5994 169.422L17.6041 169.447L17.3794 169.387L18.0587 169.818C18.3219 169.942 18.537 170.149 18.671 170.407C18.8574 170.867 18.5999 171.227 18.3567 171.599C18.0116 172.073 17.7204 172.584 17.4885 173.123C17.1345 174.105 17.1813 175.187 17.6187 176.134C18.1249 177.251 19.1926 177.845 20.0626 178.645C21.5031 179.971 22.7112 181.609 23.1473 183.546C23.4216 184.777 23.3598 186.06 22.9685 187.26C22.9259 187.395 22.8796 187.529 22.8297 187.661C22.8086 187.718 22.7866 187.773 22.7645 187.829C22.7538 187.856 22.7426 187.883 22.7316 187.91C22.7253 187.925 22.759 187.85 22.7174 187.942C22.6354 188.125 22.5504 188.305 22.4556 188.481C22.3692 188.648 22.2722 188.809 22.165 188.963L22.7743 188.803L20.5694 187.404L15.2991 184.06L8.90175 180L3.39153 176.504L1.56318 175.344C1.28251 175.166 1.00373 174.951 0.706785 174.801C0.693165 174.794 0.680454 174.784 0.667539 174.776L0.827292 175.385L2.95547 171.999L6.32827 166.634L7.103 165.402C7.40893 164.915 6.63859 164.468 6.3339 164.952Z" fill="black"/>
<path d="M46.1697 90.8285L44.6483 133.543L27.2114 170.758L8.14886 160.215C8.14886 160.215 20.8629 135.135 26.0412 128.16L26.9371 108.449C27.117 104.491 28.3045 100.645 30.387 97.2747L36.1055 88.0199" fill="#EA2F2F"/>
<path d="M45.7243 90.8284L45.5782 94.9323L45.2253 104.84L44.7956 116.905L44.4132 127.642L44.2111 133.317C44.2037 133.378 44.2016 133.438 44.2046 133.499C44.2244 133.634 44.1337 133.424 44.2615 133.323C44.1916 133.378 44.1407 133.581 44.1042 133.659L43.1209 135.758L39.2261 144.07L34.1483 154.907L29.499 164.83L26.9448 170.281L26.8269 170.533L27.4362 170.373L21.0029 166.815L10.7405 161.139L8.37362 159.83L8.5334 160.439C9.07049 159.38 9.61217 158.323 10.1584 157.268C11.4834 154.7 12.8225 152.138 14.1757 149.584C15.8542 146.418 17.5617 143.267 19.2983 140.131C20.8891 137.274 22.506 134.427 24.2394 131.654C24.8832 130.624 25.542 129.6 26.2556 128.617C26.404 128.434 26.4882 128.208 26.495 127.973L26.5313 127.172L26.8652 119.827L27.2534 111.285C27.3548 109.054 27.4019 106.83 27.8832 104.637C28.4399 102.111 29.4172 99.6967 30.7742 97.4948C31.1727 96.8466 31.5726 96.1993 31.974 95.553L36.1894 88.7306L36.4898 88.2445C36.792 87.7555 36.0218 87.3077 35.7207 87.795L32.3016 93.3286C30.8747 95.6383 29.3253 97.9134 28.2779 100.428C27.248 102.91 26.6478 105.549 26.5028 108.232C26.4764 108.715 26.4578 109.198 26.4359 109.681L26.0907 117.274L25.7075 125.704L25.6065 127.926C25.5988 127.992 25.5958 128.057 25.5976 128.123C25.5981 128.128 25.5923 128.154 25.596 128.157C25.5332 128.105 25.7183 127.948 25.5954 128.018C25.5481 128.045 25.5024 128.145 25.4708 128.189C25.1456 128.638 24.8329 129.096 24.5266 129.559C22.85 132.089 21.3296 134.725 19.8318 137.364C18.0549 140.494 16.3323 143.656 14.6338 146.83C13.1383 149.625 11.6616 152.43 10.2036 155.244C9.4213 156.753 8.64411 158.264 7.87207 159.778C7.83612 159.849 7.80019 159.919 7.7643 159.99C7.7068 160.092 7.69133 160.213 7.72113 160.327C7.75093 160.441 7.82369 160.538 7.92407 160.599L14.3573 164.157L24.6198 169.833L26.9867 171.142C27.0889 171.201 27.21 171.217 27.324 171.187C27.4379 171.157 27.5356 171.083 27.596 170.982L29.4051 167.122L33.7036 157.947L38.8412 146.983L43.1789 137.725L44.514 134.876C44.6851 134.51 44.8883 134.146 45.0323 133.769C45.17 133.409 45.1152 132.94 45.1287 132.561L45.2318 129.667L45.5816 119.844L46.0124 107.75L46.3965 96.9684L46.6056 91.0964L46.6151 90.8286C46.6356 90.2553 45.7448 90.2561 45.7244 90.8286L45.7243 90.8284Z" fill="black"/>
<path d="M17.7843 174.786C17.5832 174.778 17.3818 174.795 17.1848 174.836C16.7901 174.904 16.4168 175.064 16.0948 175.302C15.8289 175.501 15.6009 175.746 15.4216 176.025C15.363 176.128 15.3469 176.249 15.3767 176.363C15.4066 176.477 15.4801 176.574 15.5814 176.635C15.684 176.692 15.8046 176.707 15.9181 176.677C16.0317 176.647 16.1293 176.575 16.1907 176.475C16.2127 176.441 16.235 176.407 16.2585 176.374C16.2699 176.358 16.2816 176.342 16.2935 176.326C16.2534 176.377 16.2481 176.385 16.2776 176.348C16.3261 176.291 16.3744 176.235 16.4274 176.182C16.4775 176.132 16.5306 176.087 16.5844 176.041C16.6209 176.012 16.6109 176.019 16.5544 176.064C16.5678 176.054 16.5813 176.044 16.5949 176.034C16.6149 176.02 16.6353 176.005 16.6558 175.992C16.7599 175.924 16.8691 175.864 16.9825 175.814C17.0534 175.781 16.8692 175.858 16.9766 175.817C17.0028 175.807 17.0292 175.798 17.0557 175.788C17.1032 175.772 17.1511 175.758 17.1996 175.744C17.289 175.72 17.3794 175.702 17.4707 175.687C17.5698 175.67 17.3604 175.699 17.4298 175.692C17.4491 175.69 17.4683 175.687 17.4876 175.685C17.5198 175.682 17.5521 175.68 17.5844 175.678C17.651 175.673 17.7178 175.673 17.7844 175.677C17.9024 175.677 18.0153 175.629 18.0987 175.546C18.1822 175.463 18.2292 175.35 18.2298 175.232C18.2269 175.115 18.1791 175.003 18.0962 174.92C18.0133 174.837 17.9016 174.789 17.7844 174.786L17.7843 174.786Z" fill="black"/>
<path d="M18.745 176.498C18.5439 176.49 18.3425 176.506 18.1454 176.547C17.7507 176.616 17.3774 176.775 17.0554 177.014C16.7895 177.213 16.5615 177.458 16.3823 177.737C16.3237 177.839 16.3075 177.96 16.3374 178.074C16.3673 178.188 16.4408 178.286 16.5421 178.346C16.6446 178.403 16.7653 178.419 16.8788 178.389C16.9924 178.359 17.09 178.287 17.1514 178.187C17.1733 178.153 17.1957 178.119 17.2192 178.086C17.2306 178.07 17.2423 178.054 17.2542 178.038C17.2141 178.089 17.2088 178.096 17.2383 178.059C17.2868 178.003 17.3351 177.946 17.3881 177.894C17.4382 177.844 17.4913 177.798 17.5451 177.753C17.5816 177.724 17.5716 177.731 17.5151 177.775C17.5285 177.765 17.542 177.755 17.5555 177.746C17.5756 177.731 17.596 177.717 17.6165 177.703C17.7206 177.636 17.8298 177.576 17.9432 177.525C18.0141 177.493 17.8299 177.57 17.9373 177.529C17.9635 177.519 17.9899 177.509 18.0164 177.5C18.0639 177.484 18.1118 177.469 18.1603 177.456C18.2497 177.431 18.3401 177.414 18.4314 177.398C18.5305 177.381 18.3211 177.411 18.3905 177.403C18.4098 177.401 18.429 177.399 18.4483 177.397C18.4805 177.394 18.5128 177.391 18.5451 177.389C18.6117 177.385 18.6785 177.384 18.7451 177.389C18.8631 177.388 18.976 177.341 19.0594 177.258C19.1428 177.174 19.1899 177.061 19.1905 176.943C19.1876 176.826 19.1398 176.714 19.0569 176.632C18.974 176.549 18.8623 176.501 18.7451 176.498H18.745Z" fill="black"/>
<path d="M20.2149 177.903C20.0138 177.894 19.8124 177.911 19.6154 177.952C19.2206 178.021 18.8473 178.18 18.5253 178.419C18.2595 178.617 18.0315 178.862 17.8522 179.142C17.7936 179.244 17.7775 179.365 17.8073 179.479C17.8372 179.593 17.9107 179.691 18.012 179.751C18.1146 179.808 18.2352 179.823 18.3487 179.794C18.4623 179.764 18.5599 179.691 18.6213 179.591C18.6433 179.557 18.6656 179.524 18.6891 179.49C18.7006 179.474 18.7122 179.458 18.7241 179.443C18.684 179.494 18.6787 179.501 18.7082 179.464C18.7567 179.407 18.805 179.351 18.858 179.299C18.9081 179.249 18.9612 179.203 19.015 179.157C19.0515 179.128 19.0415 179.136 18.9851 179.18C18.9984 179.17 19.0119 179.16 19.0255 179.15C19.0455 179.136 19.0659 179.122 19.0865 179.108C19.1905 179.04 19.2997 178.981 19.4132 178.93C19.484 178.898 19.2998 178.975 19.4073 178.934C19.4334 178.924 19.4598 178.914 19.4863 178.905C19.5338 178.889 19.5817 178.874 19.6302 178.861C19.7196 178.836 19.81 178.818 19.9013 178.803C20.0004 178.786 19.791 178.815 19.8605 178.808C19.8797 178.806 19.8989 178.804 19.9182 178.802C19.9504 178.799 19.9827 178.796 20.0151 178.794C20.0816 178.79 20.1484 178.789 20.215 178.793C20.333 178.793 20.446 178.746 20.5294 178.662C20.6128 178.579 20.6598 178.466 20.6604 178.348C20.6575 178.231 20.6097 178.119 20.5268 178.036C20.4439 177.953 20.3323 177.906 20.215 177.903H20.2149Z" fill="black"/>
<path d="M23.6094 186.555C23.4304 187.493 23.0703 188.387 22.5494 189.188L0.44281 175.16L1.42339 173.561L1.41118 173.553L3.16474 170.789C3.16474 170.789 6.76119 171.685 8.71484 176.251C10.522 178.645 12.6558 176.812 14.938 178.675C17.2203 180.539 15.8747 180.835 17.3836 181.772C17.3836 181.772 19.1212 182.993 20.9966 182.658C22.8721 182.324 24.0594 183.813 23.6094 186.555Z" fill="white"/>
<path d="M23.1799 186.437C23.0178 187.339 22.6723 188.199 22.1649 188.963L22.7742 188.803L20.5692 187.404L15.2991 184.06L8.90174 180.001L3.3915 176.504L1.56315 175.344C1.28248 175.166 1.00369 174.951 0.706751 174.801C0.693131 174.794 0.68042 174.784 0.667504 174.776L0.827257 175.385L1.80784 173.785C1.86539 173.683 1.8809 173.562 1.85109 173.448C1.82128 173.335 1.74849 173.237 1.64806 173.176L1.63583 173.168L1.7956 173.778L3.54916 171.014L3.04623 171.219C3.1217 171.238 3.1959 171.263 3.26945 171.288C3.35236 171.316 3.43397 171.348 3.51577 171.379C3.53359 171.386 3.55116 171.394 3.56891 171.401C3.66638 171.44 3.47537 171.36 3.57595 171.404C3.6385 171.431 3.70095 171.459 3.76287 171.487C4.42843 171.798 5.04879 172.198 5.60702 172.675C6.44169 173.394 7.148 174.25 7.69572 175.206C7.85357 175.479 7.99997 175.758 8.13494 176.043C8.20468 176.221 8.29072 176.393 8.39198 176.556C8.50766 176.713 8.6354 176.862 8.77404 176.999C9.20115 177.429 9.73088 177.742 10.313 177.91C11.3721 178.212 12.5034 178.037 13.5527 178.394C14.1844 178.64 14.7533 179.023 15.2178 179.517C15.3958 179.683 15.5582 179.866 15.7027 180.062C15.7526 180.133 15.8 180.206 15.8433 180.282C15.8661 180.322 15.8879 180.362 15.9086 180.403C15.9163 180.419 15.9851 180.576 15.948 180.485C16.0502 180.737 16.1054 181.005 16.2281 181.25C16.4125 181.578 16.677 181.853 16.997 182.051C17.6601 182.511 18.4036 182.841 19.1888 183.026C19.5394 183.108 19.8976 183.153 20.2575 183.161C20.6153 183.167 20.9558 183.09 21.3094 183.064C21.7309 183.012 22.1563 183.123 22.4991 183.374C23.3524 184.038 23.3364 185.447 23.1798 186.437C23.1521 186.55 23.1688 186.67 23.2266 186.772C23.2844 186.874 23.3789 186.95 23.4908 186.984C23.6047 187.015 23.726 186.999 23.8285 186.941C23.931 186.883 24.0065 186.787 24.0386 186.673C24.2184 185.537 24.2484 184.217 23.5594 183.228C23.2895 182.846 22.9186 182.547 22.4884 182.365C22.0581 182.182 21.5854 182.122 21.1233 182.193C20.4785 182.297 19.8192 182.268 19.1863 182.107C18.7264 181.978 18.2846 181.792 17.8717 181.552C17.6484 181.431 17.4384 181.288 17.2451 181.124C17.1831 181.068 17.126 181.008 17.0742 180.942C17.1342 181.02 17.0412 180.881 17.027 180.858C17.0102 180.83 16.9975 180.8 16.9834 180.771C17.0353 180.877 16.9886 180.785 16.9804 180.761C16.9602 180.701 16.9396 180.641 16.9202 180.58C16.6128 179.618 15.9617 178.917 15.175 178.298C14.6372 177.868 14.0093 177.564 13.3378 177.409C12.7564 177.301 12.168 177.235 11.577 177.212C11.063 177.199 10.5567 177.084 10.088 176.873C9.83505 176.742 9.60421 176.572 9.40383 176.37C9.29054 176.266 9.18847 176.151 9.09931 176.026C8.99706 175.831 8.9049 175.631 8.8232 175.426C8.28493 174.324 7.56381 173.321 6.69044 172.46C5.7675 171.56 4.55884 170.681 3.28307 170.36C3.18837 170.336 3.0885 170.343 2.99803 170.38C2.90755 170.416 2.83121 170.481 2.78013 170.564L1.02655 173.328C0.968865 173.43 0.953283 173.551 0.983101 173.665C1.01292 173.779 1.0858 173.876 1.18633 173.937L1.19856 173.945L1.03879 173.336L0.0582059 174.936C0.000649799 175.038 -0.014862 175.159 0.014942 175.273C0.044746 175.386 0.117536 175.484 0.217959 175.545L2.42295 176.944L7.69302 180.288L14.0904 184.347L19.6006 187.844C20.4919 188.409 21.3682 189.024 22.2854 189.547C22.2988 189.555 22.3116 189.564 22.3246 189.572C22.4272 189.629 22.5478 189.644 22.6613 189.615C22.7749 189.585 22.8725 189.513 22.9339 189.413C23.484 188.584 23.86 187.652 24.0388 186.674C24.155 186.114 23.2966 185.875 23.1799 186.437Z" fill="black"/>
<path d="M36.7994 108.264C36.1641 116.928 39.8348 174.606 39.8348 174.606L62.5907 174.715L56.0372 92.3499L39.5365 90.1263" fill="#EA2F2F"/>
<path d="M36.3541 108.264C36.2617 109.539 36.2741 110.823 36.2837 112.1C36.2988 114.114 36.3518 116.128 36.4148 118.141C36.4945 120.692 36.5905 123.243 36.7029 125.792C36.826 128.682 36.9595 131.571 37.1036 134.46C37.2528 137.489 37.4091 140.519 37.5724 143.548C37.7325 146.534 37.8975 149.52 38.0672 152.506C38.2212 155.221 38.3784 157.935 38.5388 160.649C38.6722 162.908 38.8075 165.167 38.9449 167.426C39.0426 169.032 39.1414 170.638 39.2412 172.244C39.2882 172.999 39.3234 173.755 39.3832 174.509C39.3858 174.541 39.3873 174.573 39.3894 174.606C39.3917 174.723 39.4393 174.835 39.5224 174.918C39.6054 175.001 39.7173 175.049 39.8347 175.051L47.5539 175.088L59.7641 175.146L62.5906 175.16C62.7085 175.159 62.8213 175.112 62.9046 175.029C62.9879 174.945 63.0351 174.833 63.036 174.715L62.8612 172.517L62.383 166.507L61.6782 157.648L60.8184 146.842L59.8733 134.965L58.9228 123.018L58.0366 111.88L57.2875 102.467L56.7489 95.6978C56.6638 94.6281 56.5863 93.5575 56.4935 92.4885C56.4895 92.4423 56.4862 92.3961 56.4825 92.3499C56.4812 92.2527 56.4487 92.1586 56.3898 92.0813C56.331 92.004 56.2489 91.9476 56.1556 91.9204L50.5793 91.1689L41.6926 89.9714L39.655 89.6967C39.0945 89.6212 38.8519 90.4793 39.4182 90.5556L44.9947 91.307L53.8812 92.5045L55.9189 92.7792L55.592 92.3497L55.7669 94.5479L56.2451 100.557L56.9499 109.416L57.8097 120.222L58.7548 132.1L59.7053 144.046L60.5915 155.184L61.3405 164.597L61.8791 171.367C61.9633 172.425 61.9697 173.526 62.1345 174.576C62.1416 174.621 62.1418 174.669 62.1455 174.715L62.5908 174.269L54.8716 174.232L42.6614 174.174L39.8349 174.16L40.2802 174.606C40.2474 174.09 40.215 173.574 40.1828 173.058C40.0943 171.642 40.0068 170.226 39.9202 168.811C39.7907 166.693 39.6629 164.576 39.5369 162.458C39.381 159.837 39.2277 157.216 39.0773 154.595C38.9094 151.669 38.7456 148.743 38.5858 145.816C38.4196 142.768 38.2592 139.719 38.1046 136.67C37.9561 133.729 37.8156 130.787 37.6831 127.845C37.565 125.193 37.4584 122.542 37.3633 119.89C37.2882 117.727 37.223 115.563 37.1896 113.399C37.1669 111.923 37.1478 110.443 37.2065 108.968C37.2159 108.733 37.2278 108.498 37.2448 108.264C37.2863 107.692 36.3954 107.695 36.3541 108.264L36.3541 108.264Z" fill="black"/>
<path d="M55.7919 181.739C55.619 181.836 55.4589 181.955 55.3154 182.093C54.9967 182.386 54.7519 182.75 54.6008 183.156C54.4975 183.44 54.4453 183.741 54.4467 184.043C54.4467 184.161 54.4937 184.274 54.5772 184.358C54.6607 184.441 54.774 184.488 54.8921 184.488C55.0102 184.488 55.1235 184.441 55.207 184.358C55.2905 184.274 55.3374 184.161 55.3374 184.043C55.3378 183.986 55.3395 183.929 55.3437 183.873C55.346 183.841 55.35 183.809 55.3529 183.777C55.3575 183.727 55.3449 183.833 55.3459 183.829C55.35 183.812 55.3513 183.794 55.3543 183.777C55.3731 183.669 55.4002 183.564 55.4353 183.46C55.4431 183.438 55.4512 183.415 55.4597 183.393C55.4638 183.382 55.4688 183.371 55.4726 183.36C55.4877 183.315 55.4472 183.418 55.45 183.412C55.4746 183.365 55.4939 183.316 55.5185 183.269C55.5616 183.187 55.6099 183.107 55.663 183.031C55.6747 183.014 55.6866 182.998 55.6987 182.981C55.7046 182.973 55.7108 182.966 55.7167 182.957C55.7436 182.92 55.6704 183.016 55.6773 183.009C55.7049 182.978 55.7296 182.944 55.757 182.913C55.8072 182.856 55.8601 182.802 55.9155 182.75C55.9632 182.705 56.0128 182.663 56.0634 182.621C56.14 182.559 55.963 182.695 56.0493 182.633C56.0686 182.619 56.0879 182.605 56.1075 182.591C56.1504 182.561 56.1952 182.533 56.2414 182.508C56.3426 182.447 56.4162 182.35 56.446 182.236C56.4759 182.122 56.4598 182.001 56.4012 181.898C56.3398 181.798 56.2421 181.726 56.1286 181.696C56.0151 181.666 55.8944 181.682 55.7918 181.739H55.7919Z" fill="black"/>
<path d="M57.5199 182.669C57.347 182.767 57.1869 182.886 57.0433 183.023C56.7246 183.316 56.4798 183.681 56.3287 184.086C56.2254 184.371 56.1732 184.671 56.1746 184.973C56.1746 185.091 56.2216 185.205 56.3051 185.288C56.3886 185.372 56.5019 185.419 56.62 185.419C56.7381 185.419 56.8514 185.372 56.9349 185.288C57.0184 185.205 57.0653 185.091 57.0653 184.973C57.0657 184.917 57.0674 184.86 57.0716 184.803C57.074 184.771 57.0779 184.739 57.0808 184.707C57.0854 184.657 57.0729 184.763 57.0738 184.759C57.0779 184.742 57.0793 184.724 57.0823 184.707C57.101 184.6 57.1281 184.494 57.1633 184.391C57.171 184.368 57.1791 184.346 57.1876 184.323C57.1918 184.312 57.1967 184.301 57.2005 184.29C57.2156 184.245 57.1751 184.348 57.178 184.343C57.2026 184.296 57.2218 184.246 57.2464 184.199C57.2895 184.117 57.3378 184.038 57.391 183.962C57.4026 183.945 57.4145 183.928 57.4266 183.912C57.4325 183.904 57.4388 183.896 57.4446 183.888C57.4715 183.85 57.3983 183.947 57.4052 183.939C57.4328 183.908 57.4574 183.875 57.4849 183.844C57.5351 183.787 57.588 183.732 57.6434 183.68C57.6911 183.635 57.7407 183.593 57.7914 183.552C57.8679 183.489 57.6909 183.625 57.7772 183.563C57.7965 183.549 57.8158 183.535 57.8354 183.522C57.8784 183.491 57.9231 183.463 57.9693 183.438C58.0706 183.378 58.1441 183.28 58.1739 183.166C58.2038 183.052 58.1877 182.931 58.129 182.829C58.0677 182.729 57.97 182.656 57.8565 182.627C57.7429 182.597 57.6223 182.612 57.5197 182.669H57.5199Z" fill="black"/>
<path d="M59.5138 183.068C59.3408 183.166 59.1807 183.285 59.0371 183.422C58.7185 183.715 58.4737 184.08 58.3226 184.486C58.2192 184.77 58.1671 185.07 58.1685 185.372C58.1685 185.491 58.2154 185.604 58.2989 185.687C58.3824 185.771 58.4957 185.818 58.6138 185.818C58.7319 185.818 58.8452 185.771 58.9287 185.687C59.0123 185.604 59.0592 185.491 59.0592 185.372C59.0595 185.316 59.0613 185.259 59.0655 185.202C59.0679 185.17 59.0718 185.138 59.0747 185.107C59.0792 185.056 59.0667 185.162 59.0676 185.158C59.0718 185.142 59.0731 185.123 59.0761 185.106C59.0949 184.999 59.1219 184.893 59.1571 184.79C59.1648 184.767 59.1729 184.745 59.1814 184.722C59.1856 184.711 59.1905 184.7 59.1943 184.689C59.2094 184.644 59.169 184.747 59.1718 184.742C59.1964 184.695 59.2157 184.645 59.2403 184.598C59.2834 184.516 59.3317 184.437 59.3848 184.361C59.3965 184.344 59.4083 184.327 59.4204 184.311C59.4264 184.303 59.4326 184.295 59.4384 184.287C59.4653 184.249 59.3921 184.346 59.3991 184.338C59.4267 184.307 59.4513 184.274 59.4787 184.243C59.529 184.186 59.5818 184.131 59.6373 184.079C59.685 184.034 59.7346 183.992 59.7852 183.951C59.8617 183.888 59.6848 184.024 59.7711 183.962C59.7904 183.948 59.8096 183.934 59.8292 183.921C59.8722 183.89 59.9169 183.862 59.9631 183.837C60.0644 183.777 60.1379 183.679 60.1678 183.565C60.1977 183.451 60.1816 183.33 60.1229 183.228C60.0615 183.128 59.9639 183.055 59.8503 183.026C59.7368 182.996 59.6161 183.011 59.5136 183.068H59.5138Z" fill="black"/>
<path d="M67.0016 188.563C67.353 189.451 67.528 190.399 67.517 191.354H41.3356L41.3065 189.478H41.292V186.205C41.292 186.205 44.8088 185.035 48.9047 187.843C51.7133 188.897 52.5325 186.205 55.4582 186.556C58.3838 186.907 57.4061 187.878 59.1823 187.861C59.1823 187.861 61.3035 187.96 62.7078 186.673C64.1121 185.386 65.9122 186.007 67.0016 188.563Z" fill="white"/>
<path d="M66.5722 188.682C66.9192 189.529 67.0892 190.439 67.0718 191.354L67.5171 190.909H42.3964C42.0643 190.909 41.7129 190.876 41.3821 190.909C41.3669 190.91 41.3509 190.909 41.3356 190.909L41.7809 191.354L41.7518 189.478C41.75 189.36 41.7025 189.248 41.6194 189.165C41.5363 189.082 41.424 189.034 41.3065 189.033H41.292L41.7374 189.478V186.205L41.4105 186.634C41.7635 186.526 42.1283 186.46 42.4971 186.438C43.4667 186.359 44.4426 186.445 45.3834 186.693C46.0335 186.861 46.6644 187.096 47.2659 187.395C47.9289 187.724 48.5232 188.236 49.245 188.417C50.2536 188.669 51.1945 188.45 52.1016 187.985C52.9197 187.567 53.7037 187.049 54.6471 186.98C55.2602 186.949 55.8743 187.02 56.4636 187.193C56.6515 187.24 56.8344 187.306 57.0096 187.389C57.0757 187.422 57.1402 187.458 57.2032 187.496C57.2415 187.52 57.4348 187.657 57.3585 187.598C57.548 187.769 57.7512 187.924 57.9661 188.062C58.305 188.229 58.6793 188.313 59.0573 188.305C59.7639 188.324 60.469 188.23 61.1464 188.028C61.8259 187.825 62.4546 187.481 62.9907 187.017C63.3201 186.689 63.7581 186.494 64.2218 186.468C65.4222 186.471 66.1961 187.816 66.6172 188.788C66.6773 188.89 66.775 188.963 66.8891 188.993C67.0031 189.023 67.1244 189.007 67.2265 188.948C67.3263 188.886 67.3985 188.789 67.4282 188.675C67.4579 188.562 67.4429 188.441 67.3863 188.339C66.9089 187.237 66.1468 186.094 64.9533 185.696C64.4977 185.546 64.0074 185.539 63.5478 185.676C63.0013 185.84 62.6368 186.187 62.1974 186.525C61.3921 187.098 60.4298 187.408 59.4417 187.414C59.3594 187.417 59.2775 187.416 59.1953 187.416C59.1296 187.415 59.0639 187.415 58.9982 187.413C58.961 187.412 58.9238 187.41 58.8867 187.408C58.8689 187.406 58.6903 187.384 58.7619 187.396C58.6815 187.383 58.6047 187.361 58.5263 187.34C58.4039 187.308 58.5465 187.364 58.4438 187.308C58.3896 187.277 58.3385 187.245 58.286 187.212C58.2792 187.208 58.1998 187.148 58.2591 187.193C58.3176 187.238 58.2201 187.161 58.2105 187.153C57.9821 186.946 57.7299 186.767 57.4592 186.62C56.9606 186.387 56.4285 186.235 55.8825 186.168C55.2523 186.056 54.6069 186.062 53.9789 186.185C53.4796 186.306 52.9982 186.491 52.5471 186.737C51.7759 187.135 51.0222 187.654 50.1195 187.644C49.8788 187.639 49.6396 187.604 49.4078 187.539C49.0462 187.402 48.7045 187.218 48.3919 186.991C47.7453 186.613 47.0629 186.299 46.3548 186.055C45.1812 185.645 43.939 185.468 42.6976 185.533C42.1814 185.549 41.6693 185.63 41.1737 185.776C41.0808 185.803 40.9991 185.86 40.9403 185.937C40.8816 186.014 40.8489 186.108 40.8469 186.205V189.478C40.8485 189.596 40.896 189.708 40.9792 189.791C41.0623 189.874 41.1746 189.922 41.2922 189.923H41.3067L40.8613 189.478L40.8905 191.354C40.8923 191.472 40.9398 191.584 41.0229 191.667C41.106 191.75 41.2182 191.798 41.3358 191.799H64.291C65.3482 191.799 66.414 191.839 67.4706 191.799C67.4861 191.799 67.5016 191.799 67.5171 191.799C67.6345 191.797 67.7464 191.749 67.8294 191.666C67.9124 191.583 67.9601 191.472 67.9624 191.354C67.9841 190.358 67.8033 189.369 67.4311 188.445C67.2309 187.914 66.3696 188.144 66.5722 188.682Z" fill="black"/>
<path d="M39.4258 168.228H60.4095C60.692 168.228 60.9839 168.249 61.2658 168.228C61.2783 168.227 61.2911 168.228 61.3036 168.228C61.3613 168.226 61.416 168.202 61.4561 168.16C61.4962 168.119 61.5186 168.063 61.5186 168.006C61.5186 167.948 61.4962 167.892 61.4561 167.851C61.416 167.809 61.3613 167.785 61.3036 167.783H40.3199C40.0374 167.783 39.7455 167.762 39.4635 167.783C39.4511 167.784 39.4383 167.783 39.4258 167.783C39.3681 167.785 39.3134 167.809 39.2733 167.851C39.2332 167.892 39.2108 167.948 39.2108 168.006C39.2108 168.063 39.2332 168.119 39.2733 168.16C39.3134 168.202 39.3681 168.226 39.4258 168.228Z" fill="black"/>
<path d="M11.1834 154.449L13.0841 155.428L17.6235 157.768L23.1405 160.611L27.9111 163.069C28.6777 163.464 29.4363 163.911 30.2245 164.262C30.2362 164.267 30.2474 164.273 30.2587 164.279C30.513 164.41 30.7386 164.026 30.4835 163.895L28.5827 162.915L24.0434 160.576L18.5264 157.733L13.7558 155.274C12.9892 154.879 12.2306 154.433 11.4424 154.082C11.4307 154.077 11.4195 154.07 11.4082 154.064C11.1538 153.933 10.9283 154.317 11.1835 154.449L11.1834 154.449Z" fill="black"/>
<path d="M27.1593 106.579H32.0095L31.5641 106.134L31.2137 110.95L31.0195 113.62C30.9534 114.529 30.7267 115.365 30.054 116.03C29.457 116.616 28.6549 116.945 27.8186 116.948C27.3941 116.952 26.9696 116.948 26.5452 116.948C25.9721 116.948 25.9711 117.839 26.5452 117.839C27.7579 117.839 28.9419 117.889 30.0101 117.199C30.5573 116.839 31.0124 116.356 31.3386 115.788C31.6647 115.22 31.8528 114.584 31.8876 113.93C32.0292 112.022 32.168 110.114 32.304 108.206L32.4548 106.134C32.4536 106.016 32.4063 105.904 32.323 105.82C32.2398 105.737 32.1272 105.69 32.0094 105.689H27.1592C26.5861 105.689 26.5851 106.579 27.1592 106.579L27.1593 106.579Z" fill="black"/>
<path d="M43.5516 117.839C44.7644 117.839 45.9483 117.889 47.0165 117.199C47.5638 116.839 48.0188 116.356 48.345 115.788C48.6711 115.22 48.8592 114.584 48.894 113.93C49.0356 112.022 49.1745 110.114 49.3104 108.206L49.4612 106.134C49.46 106.016 49.4127 105.904 49.3295 105.82C49.2462 105.737 49.1336 105.69 49.0159 105.689H40.6485C40.5309 105.69 40.4186 105.738 40.3354 105.821C40.2522 105.904 40.2048 106.016 40.2031 106.134V113.28C40.1822 113.781 40.1892 114.283 40.224 114.783C40.3172 115.608 40.7052 116.371 41.3167 116.933C41.9281 117.494 42.7218 117.816 43.5517 117.839C44.125 117.85 44.125 116.96 43.5517 116.948C42.9229 116.929 42.3236 116.677 41.8702 116.241C41.4168 115.805 41.1415 115.216 41.0979 114.589C41.0756 114.154 41.0938 113.715 41.0938 113.28V106.134L40.6485 106.579H49.0159L48.5705 106.134L48.2201 110.95L48.0259 113.621C47.9598 114.529 47.733 115.365 47.0603 116.03C46.4634 116.616 45.6613 116.945 44.825 116.948C44.4005 116.952 43.976 116.948 43.5516 116.948C42.9785 116.948 42.9776 117.839 43.5516 117.839Z" fill="black"/>
<path d="M112.106 35.5576C112.106 35.5576 111.435 34.369 107.451 34.6105C105.158 35.3348 108.296 41.0086 108.296 41.0086L111.073 39.9221" fill="#FC7272"/>
<path d="M112.491 35.3328C112.271 34.9512 111.796 34.7278 111.409 34.5714C110.921 34.3881 110.411 34.2685 109.893 34.2156C109.521 34.1696 109.147 34.1431 108.773 34.1361C108.313 34.1071 107.85 34.1195 107.392 34.1731C106.396 34.3366 106.115 35.4833 106.178 36.3311C106.295 37.3727 106.577 38.3891 107.015 39.3416C107.279 39.9879 107.579 40.6194 107.912 41.2334C107.962 41.3178 108.038 41.3836 108.129 41.4205C108.22 41.4575 108.32 41.4637 108.415 41.4381L111.191 40.3516C111.303 40.3173 111.398 40.2414 111.456 40.1395C111.513 40.0376 111.53 39.9175 111.502 39.8038C111.47 39.6903 111.395 39.5941 111.292 39.5359C111.19 39.4777 111.068 39.4622 110.954 39.4928L108.178 40.5793L108.681 40.7839C107.976 39.5701 107.459 38.2558 107.15 36.8864C107.068 36.5171 107.041 36.1375 107.072 35.7603C107.072 35.7563 107.102 35.6034 107.12 35.5408C107.13 35.5035 107.143 35.4669 107.155 35.4304C107.158 35.4234 107.182 35.3653 107.161 35.4136C107.138 35.4679 107.186 35.3664 107.187 35.366C107.205 35.335 107.223 35.3032 107.242 35.2721C107.286 35.2018 107.204 35.3081 107.26 35.2476C107.285 35.221 107.31 35.1954 107.335 35.17C107.353 35.1531 107.371 35.1373 107.39 35.1225C107.358 35.1478 107.353 35.1497 107.39 35.1273C107.423 35.1078 107.456 35.0885 107.49 35.0705C107.554 35.0364 107.455 35.0658 107.53 35.0531C107.743 35.0288 107.958 35.0199 108.172 35.0265C108.552 35.0191 108.932 35.0248 109.311 35.0503C109.834 35.0778 110.351 35.1671 110.853 35.3163C110.955 35.3482 111.055 35.3837 111.154 35.423C111.227 35.4517 111.111 35.4007 111.201 35.444C111.241 35.4634 111.282 35.4822 111.322 35.5028C111.382 35.5341 111.442 35.5674 111.499 35.6036C111.544 35.632 111.686 35.7442 111.572 35.6479C111.629 35.6965 111.681 35.7603 111.74 35.8052C111.802 35.8522 111.671 35.6946 111.721 35.7825C112.007 36.2792 112.777 35.8311 112.49 35.3329L112.491 35.3328Z" fill="black"/>
<path d="M93.465 52.7943L94.5213 50.8853C95.2367 49.5906 95.8048 48.2199 96.2149 46.7987C96.5321 45.7014 96.7759 45.1843 97.0695 43.4231C97.9145 38.3529 103.226 36.7836 104.192 37.025C105.158 37.2664 106.211 39.202 106.003 39.9223C105.099 43.0435 104.37 46.4383 104.37 46.4383L104.162 54.2146L101.766 59.6976" fill="#FC7F3A"/>
<path d="M93.8492 53.019C94.367 52.0833 94.9129 51.1568 95.3808 50.1948C95.8864 49.1555 96.3041 48.0757 96.6295 46.9666C96.833 46.2727 97.0679 45.5881 97.2342 44.8837C97.4492 43.9735 97.538 43.0392 97.8647 42.1576C98.1237 41.4635 98.4964 40.8174 98.9673 40.2455C99.793 39.2613 100.835 38.4818 102.013 37.9678C102.207 37.8812 102.449 37.7876 102.695 37.7064C102.91 37.6345 103.129 37.5737 103.351 37.5242C103.44 37.5046 103.53 37.4894 103.62 37.4725C103.745 37.4487 103.58 37.4744 103.654 37.4667C103.7 37.4618 103.747 37.4563 103.794 37.4531C103.859 37.4485 103.923 37.4475 103.988 37.4472C104.016 37.4472 104.044 37.4523 104.071 37.4516C104.1 37.4509 103.963 37.4172 104.058 37.451C104.655 37.6645 105.078 38.3172 105.351 38.892C105.489 39.1535 105.568 39.4421 105.583 39.7375C105.581 39.8357 105.598 39.7338 105.558 39.8544C105.514 39.9868 105.481 40.1244 105.443 40.2586C105.362 40.545 105.283 40.8317 105.206 41.1189C104.755 42.7881 104.345 44.4679 103.975 46.1583C103.897 46.6888 103.868 47.2254 103.889 47.7613L103.72 54.0645L103.716 54.2147L103.777 53.9899L101.678 58.7928L101.381 59.4729C101.325 59.5757 101.31 59.696 101.34 59.8092C101.369 59.9225 101.441 60.0201 101.54 60.0822C101.643 60.141 101.764 60.1572 101.878 60.1273C101.992 60.0974 102.09 60.0238 102.15 59.9225L103.483 56.8712L104.308 54.9835C104.454 54.7284 104.556 54.4505 104.608 54.1615C104.669 53.0365 104.669 51.9048 104.699 50.7787L104.806 46.7788C104.823 46.6708 104.826 46.5608 104.814 46.4519C104.804 46.419 104.776 46.6316 104.809 46.508C104.836 46.4076 104.854 46.3034 104.877 46.2019C105.092 45.2327 105.32 44.2663 105.561 43.3028C105.735 42.6015 105.917 41.902 106.106 41.2043C106.251 40.6703 106.525 40.081 106.46 39.5183C106.307 38.537 105.806 37.6437 105.047 37.0031C104.825 36.8143 104.561 36.6802 104.278 36.6117C103.994 36.5432 103.698 36.5422 103.414 36.6087C102.815 36.7152 102.231 36.8967 101.677 37.1491C100.083 37.8236 98.7224 38.9515 97.7641 40.3927C97.2097 41.2546 96.832 42.2181 96.653 43.2272C96.4644 44.2632 96.2132 45.2869 95.9008 46.2926C95.5191 47.6242 95.018 48.9187 94.4037 50.1603C94.0832 50.7815 93.7336 51.3885 93.3952 52.0001L93.08 52.5695C92.8023 53.0714 93.5713 53.5212 93.8491 53.019H93.8492Z" fill="black"/>
<path d="M101.415 40.4762L111.491 35.2238C111.491 35.2238 112.992 35.6525 112.67 37.2604C113.742 38.1179 113.635 38.9755 113.099 39.7258C114.064 40.4762 114.278 41.6552 113.421 42.2984C114.278 43.0488 114.385 44.2278 113.314 45.1925C112.432 45.986 111.404 46.8096 110.211 47.2524C109.083 47.6684 108.059 48.3269 107.212 49.1813C106.366 50.0358 105.717 51.0655 105.311 52.1979L104.524 54.411L102.377 59.2146" fill="#FC7F3A"/>
<path d="M111.075 35.4021C111.147 35.4297 110.946 35.3388 111.055 35.3939C111.118 35.4259 111.182 35.4548 111.245 35.4886C111.407 35.5741 111.559 35.6766 111.699 35.7942C111.902 35.9496 112.059 36.1567 112.155 36.3938C112.25 36.6309 112.28 36.8893 112.241 37.1419C112.221 37.2178 112.22 37.2978 112.24 37.3738C112.26 37.4499 112.3 37.5193 112.356 37.5752C112.664 37.8292 113 38.1455 113.045 38.5668C113.051 38.9078 112.934 39.2395 112.715 39.5009C112.665 39.5859 112.645 39.685 112.658 39.7826C112.67 39.8803 112.715 39.971 112.784 40.0406C113.402 40.5366 113.856 41.3914 113.106 41.9834C113.023 42.0672 112.976 42.1803 112.976 42.2983C112.976 42.4162 113.023 42.5294 113.106 42.6132C113.261 42.7364 113.389 42.8902 113.482 43.0651C113.574 43.24 113.63 43.4321 113.645 43.6295C113.637 43.8553 113.581 44.0768 113.483 44.28C113.384 44.4833 113.244 44.6637 113.072 44.8098C112.274 45.6109 111.339 46.2631 110.312 46.7358C109.828 46.9437 109.339 47.1213 108.875 47.3759C108.441 47.6171 108.027 47.8944 107.639 48.2048C106.849 48.8333 106.176 49.5958 105.65 50.4576C104.976 51.5598 104.612 52.8384 104.181 54.0487C104.151 54.1199 104.125 54.1928 104.104 54.2669C104.083 54.3564 104.17 54.124 104.128 54.2118C104.073 54.3266 104.024 54.445 103.972 54.5612L103.306 56.0516L101.992 58.9897C101.936 59.0925 101.921 59.2128 101.951 59.3261C101.981 59.4394 102.053 59.537 102.152 59.599C102.254 59.6577 102.375 59.6739 102.489 59.644C102.603 59.6141 102.701 59.5406 102.761 59.4393L103.915 56.8575C104.268 56.0677 104.671 55.2839 104.973 54.4729C105.391 53.3543 105.698 52.1653 106.292 51.1229C106.796 50.2387 107.467 49.4614 108.269 48.8346C108.657 48.5341 109.073 48.2702 109.51 48.0463C110 47.7932 110.525 47.6277 111.019 47.3854C111.615 47.0817 112.177 46.7164 112.697 46.2956C113.227 45.9214 113.701 45.4741 114.105 44.9672C114.428 44.5141 114.57 43.956 114.502 43.4034C114.433 42.8508 114.16 42.344 113.736 41.9833V42.6131C114.857 41.7281 114.388 40.1937 113.414 39.4107L113.484 39.9504C113.801 39.5353 113.959 39.0207 113.93 38.4994C113.882 38.191 113.774 37.8951 113.612 37.6284C113.45 37.3617 113.237 37.1296 112.985 36.9453L113.1 37.3786C113.178 36.9916 113.155 36.591 113.034 36.2154C112.912 35.8398 112.696 35.5018 112.406 35.2339C112.09 34.9349 111.718 34.7003 111.312 34.5432C111.198 34.5127 111.077 34.5283 110.974 34.5865C110.872 34.6446 110.796 34.7408 110.764 34.8542C110.735 34.968 110.752 35.0885 110.81 35.1905C110.868 35.2926 110.963 35.3684 111.075 35.402L111.075 35.4021Z" fill="black"/>
<path d="M101.64 40.8608L109.05 36.9981L110.111 36.4448C110.62 36.1797 110.17 35.4108 109.662 35.6757L102.252 39.5384L101.19 40.0917C100.682 40.3567 101.132 41.1257 101.64 40.8608H101.64Z" fill="black"/>
<path d="M39.8069 60.5291L40.018 50.0728L48.8875 53.4878L49.1644 60.3523" fill="#FC7F3A"/>
<path d="M40.2524 60.5288L40.3237 56.9998L40.4373 51.3705L40.4635 50.0726L39.8997 50.502L47.6861 53.4999L48.7692 53.9169L48.4423 53.4875L48.685 59.5032L48.7192 60.3521C48.7423 60.9233 49.6331 60.9262 49.6099 60.3521L49.3673 54.3365L49.333 53.4876C49.33 53.3909 49.2969 53.2976 49.2383 53.2206C49.1797 53.1436 49.0986 53.0868 49.0062 53.0581L41.2198 50.0603L40.1367 49.6433C40.0706 49.6258 40.0014 49.6236 39.9344 49.6369C39.8673 49.6502 39.8042 49.6787 39.7498 49.7201C39.6954 49.7615 39.6512 49.8148 39.6206 49.8759C39.5899 49.937 39.5737 50.0043 39.573 50.0727L39.5017 53.6017L39.3881 59.231L39.3619 60.5289C39.3503 61.1023 40.241 61.1022 40.2526 60.5289L40.2524 60.5288Z" fill="black"/>
<path d="M47.4133 54.8795C48.1959 55.0469 48.9893 55.1594 49.7876 55.2161C50.0329 55.2342 50.2796 55.212 50.5177 55.1504C53.9087 54.2715 55.2663 51.0925 55.7052 47.7173H56.0291C57.0964 47.8677 57.5016 47.6066 57.3784 46.9362C56.4116 45.88 56.0046 45.2911 55.8986 44.5283L55.8724 44.0342C55.8163 42.0565 55.5891 40.0874 55.1934 38.1489L38.1678 37.5396C38.1678 37.5396 35.9562 41.1832 36.1188 42.8612C36.3988 45.751 39.2145 47.8205 39.9922 51.5463" fill="#FC7F3A"/>
<path d="M47.2949 55.3089C47.8352 55.4243 48.3802 55.5121 48.9287 55.5782C49.4929 55.6832 50.0716 55.6838 50.6361 55.5798C51.4475 55.3771 52.21 55.0135 52.8784 54.5107C54.1901 53.5201 55.0279 52.0791 55.5391 50.5374C55.8313 49.6187 56.036 48.6744 56.1506 47.7172L55.7052 48.1626C56.3792 48.1626 57.3443 48.391 57.7311 47.6461C57.814 47.4779 57.8528 47.2914 57.8439 47.104C57.8335 46.759 57.6594 46.5878 57.4404 46.341C57.1028 45.9853 56.809 45.5905 56.5653 45.1649C56.4924 45.0274 56.4349 44.8822 56.3939 44.732C56.3695 44.6459 56.3505 44.5583 56.337 44.4697C56.3546 44.5923 56.3381 44.4185 56.3363 44.3842C56.3118 43.9229 56.3005 43.4611 56.273 42.9999C56.2064 41.8797 56.0828 40.763 55.9139 39.6537C55.8313 39.1108 55.7421 38.5667 55.6228 38.0305C55.5958 37.9371 55.5394 37.8549 55.4621 37.7961C55.3848 37.7372 55.2905 37.7048 55.1933 37.7037L49.4385 37.4977L40.2687 37.1694L38.1677 37.0942C38.09 37.0943 38.0136 37.1147 37.9461 37.1534C37.8787 37.1921 37.8225 37.2477 37.7832 37.3148C37.4901 37.7984 37.2213 38.2982 36.9654 38.8022C36.4673 39.7197 36.0765 40.6914 35.8007 41.6983C35.2693 43.8885 36.7268 45.8718 37.8099 47.6413C38.5827 48.9042 39.2509 50.2065 39.5628 51.6647C39.6826 52.2249 40.5414 51.9878 40.4216 51.4279C40.1231 50.1487 39.6242 48.9247 38.9434 47.8013C38.3694 46.8124 37.7079 45.8717 37.1954 44.8479C36.7985 44.0552 36.4408 43.0789 36.5983 42.2206C36.809 41.2731 37.1489 40.3589 37.6084 39.5039C37.8998 38.9129 38.2107 38.3281 38.5523 37.7644L38.1678 37.9849L43.9226 38.1909L53.0924 38.5191L55.1934 38.5943L54.7639 38.2675C54.9565 39.1328 55.0864 40.0161 55.1922 40.8956C55.3021 41.8096 55.3783 42.7278 55.4144 43.6477C55.3958 44.161 55.4579 44.674 55.5986 45.168C55.8942 45.9736 56.4944 46.6272 57.0635 47.2512L56.949 47.0547C56.9685 47.1744 56.9532 47.236 56.921 47.2683C56.9947 47.1944 56.915 47.2597 56.8935 47.2683C56.8431 47.2836 56.7918 47.2958 56.74 47.305C56.3947 47.3182 56.049 47.3072 55.7052 47.272C55.5882 47.2755 55.4769 47.3235 55.3941 47.4063C55.3113 47.4891 55.2633 47.6004 55.2599 47.7174C54.8884 50.5268 53.7291 53.6458 50.7905 54.6067C50.5686 54.6883 50.3379 54.7438 50.103 54.772C49.8167 54.7816 49.5301 54.7653 49.2467 54.7231C48.6706 54.6631 48.0981 54.5719 47.5318 54.4501C46.9728 54.3307 46.7339 55.1891 47.2951 55.309L47.2949 55.3089Z" fill="black"/>
<path d="M48.1068 45.6492C47.9962 45.2867 47.8631 44.9316 47.7082 44.5858C47.4747 44.0501 47.1777 43.4672 46.7129 43.0954C46.5689 42.9667 46.3965 42.8737 46.2098 42.8242C46.023 42.7746 45.8272 42.7698 45.6383 42.8102C45.525 42.8425 45.4289 42.9181 45.3708 43.0205C45.3126 43.123 45.297 43.2442 45.3273 43.358C45.3608 43.4706 45.4366 43.5658 45.5387 43.6237C45.6408 43.6817 45.7614 43.6979 45.8752 43.669C45.8876 43.6671 45.8999 43.6644 45.9119 43.6608C45.9648 43.6391 45.8569 43.6706 45.8484 43.6687C45.8725 43.6697 45.8966 43.6687 45.9205 43.6655C45.9319 43.6657 45.9448 43.6678 45.9563 43.6671C46.0157 43.6642 45.894 43.6587 45.8911 43.6575C45.9198 43.6659 45.949 43.6726 45.9785 43.6775C45.9897 43.6809 46.0016 43.6862 46.0131 43.6889C46.0713 43.7024 45.9607 43.6662 45.958 43.6643C45.9798 43.6768 46.0023 43.6878 46.0255 43.6974C46.0482 43.7096 46.0703 43.7229 46.092 43.7369C46.1351 43.7647 46.1912 43.8363 46.0994 43.7378C46.1811 43.8256 46.2756 43.8985 46.3536 43.9918C46.366 44.0066 46.3778 44.0218 46.3902 44.0367C46.4182 44.0703 46.3905 44.0702 46.3638 44.0023C46.3798 44.0299 46.3987 44.0558 46.4202 44.0794C46.4603 44.1361 46.4986 44.1938 46.5353 44.2527C46.681 44.4896 46.8096 44.7365 46.9202 44.9916C46.933 45.0206 46.9454 45.0497 46.9581 45.0787C46.9827 45.1348 46.9172 44.979 46.9581 45.0789C46.9829 45.1397 47.0076 45.2006 47.0314 45.2619C47.07 45.3616 47.107 45.4619 47.1424 45.5628C47.1798 45.6697 47.2163 45.7772 47.2482 45.8859C47.2636 45.9425 47.29 45.9955 47.3259 46.0419C47.3618 46.0882 47.4065 46.127 47.4574 46.1561C47.5084 46.1851 47.5645 46.2038 47.6227 46.2111C47.6809 46.2184 47.74 46.2141 47.7965 46.1986C47.853 46.183 47.9059 46.1564 47.9521 46.1203C47.9984 46.0842 48.037 46.0394 48.0659 45.9883C48.0947 45.9373 48.1132 45.881 48.1203 45.8228C48.1274 45.7646 48.1229 45.7056 48.1071 45.6491L48.1068 45.6492Z" fill="black"/>
<path d="M54.6546 41.8824C54.3078 41.6599 53.9223 41.5046 53.5181 41.4248C52.622 41.2329 51.6865 41.3774 50.89 41.8307C50.7885 41.8905 50.7148 41.9881 50.6851 42.1022C50.6555 42.2162 50.6722 42.3374 50.7317 42.4392C50.7911 42.5409 50.8885 42.6149 51.0024 42.645C51.1164 42.6751 51.2376 42.6588 51.3396 42.5997C51.5255 42.494 51.7222 42.4085 51.9264 42.3449C52.0916 42.2942 52.261 42.2585 52.4326 42.2383C52.7426 42.2042 53.0562 42.2256 53.3587 42.3014C53.4875 42.3325 53.6144 42.3711 53.7388 42.417C53.7686 42.428 53.798 42.4406 53.8279 42.4512C53.9063 42.4792 53.7695 42.4229 53.8169 42.4463C53.8601 42.4676 53.9046 42.4857 53.9477 42.5069C54.0368 42.5489 54.1227 42.5973 54.2049 42.6515C54.3069 42.7111 54.4284 42.7278 54.5427 42.6978C54.6569 42.6679 54.7546 42.5937 54.8142 42.4917C54.8738 42.3898 54.8905 42.2683 54.8605 42.154C54.8306 42.0397 54.7564 41.942 54.6545 41.8824H54.6546Z" fill="black"/>
<path d="M39.7214 60.6859L33.3702 60.8757C30.7509 60.9549 26.9233 61.5447 24.9647 64.2379L22.7664 66.6949L22.9481 45.3101L13.7736 45.3007L10.7915 51.2702C9.42962 53.9966 8.90091 57.0636 9.27137 60.0886L12.9762 83.7443C13.543 86.4405 15.0199 88.8597 17.159 90.596C19.2982 92.3323 21.9695 93.2799 24.7246 93.2799H36.0329" fill="white"/>
<path d="M39.7212 60.2402L33.5842 60.4237C32.1459 60.4435 30.715 60.6341 29.3216 60.9917C28.367 61.2419 27.4535 61.6287 26.6096 62.1403C26.1909 62.4001 25.7982 62.6996 25.437 63.0348C25.2641 63.196 25.1004 63.3668 24.9467 63.5463C24.853 63.6559 24.7628 63.7689 24.6762 63.8841C24.6713 63.8906 24.5891 63.9939 24.6488 63.9236C24.6448 63.9283 24.6404 63.9327 24.6364 63.9374C23.9325 64.7709 23.1788 65.5666 22.4513 66.3796L23.2115 66.6946L23.2297 64.5676L23.2731 59.4597L23.3256 53.2804L23.371 47.9393C23.3783 47.0788 23.4243 46.2086 23.393 45.3484C23.3925 45.3356 23.3932 45.3226 23.3933 45.3098C23.3917 45.1922 23.3443 45.0799 23.2611 44.9967C23.1779 44.9135 23.0656 44.8661 22.948 44.8645L14.8923 44.8561L13.7732 44.855C13.6954 44.8545 13.6188 44.8747 13.5512 44.9135C13.4837 44.9522 13.4276 45.0081 13.3887 45.0756L10.7686 50.3206C10.1485 51.4978 9.64688 52.7336 9.27111 54.01C8.70773 56.0286 8.56219 58.1411 8.8434 60.2179C8.99957 61.2805 9.17582 62.3405 9.342 63.4015L10.4141 70.2469L11.5938 77.7792L12.4138 83.014C12.4579 83.2958 12.4944 83.5803 12.5464 83.8609C12.8929 85.5838 13.6184 87.208 14.6704 88.6158C15.744 90.0722 17.1193 91.2798 18.7023 92.156C20.2854 93.0322 22.0389 93.5564 23.8431 93.6928C24.5051 93.7411 25.1725 93.7248 25.8359 93.7248H36.0327C36.6058 93.7248 36.6067 92.8342 36.0327 92.8342H24.9484C22.0018 92.8701 19.1489 91.7993 16.9537 89.8334C15.059 88.1296 13.7927 85.8379 13.3587 83.327L12.6843 79.0206L11.5574 71.8258L10.4326 64.6433L9.75184 60.2969C9.32233 57.276 9.82383 54.196 11.1895 51.4674C12.086 49.6672 12.9847 47.8682 13.8856 46.0702L14.1579 45.5251L13.7734 45.7456L21.8291 45.754L22.9482 45.7551L22.5028 45.3098L22.4847 47.4368L22.4413 52.5446L22.3887 58.7239L22.3433 64.0651C22.336 64.9255 22.29 65.7957 22.3213 66.6559C22.3218 66.6688 22.3211 66.6817 22.321 66.6945C22.3231 66.7816 22.3505 66.8663 22.3998 66.9381C22.4491 67.01 22.5182 67.066 22.5987 67.0993C22.6792 67.1327 22.7676 67.1419 22.8533 67.126C22.939 67.11 23.0182 67.0695 23.0813 67.0094L25.1304 64.7191C25.5411 64.2034 25.9989 63.7269 26.4979 63.2959C27.2427 62.7379 28.0765 62.3098 28.9641 62.0298C31.4192 61.218 34.0486 61.3004 36.6024 61.224L39.7212 61.1308C40.2931 61.1137 40.2955 60.2228 39.7212 60.2401L39.7212 60.2402Z" fill="black"/>
<path d="M53.2713 44.856C53.6005 44.856 53.8674 44.5891 53.8674 44.2599C53.8674 43.9306 53.6005 43.6637 53.2713 43.6637C52.942 43.6637 52.6751 43.9306 52.6751 44.2599C52.6751 44.5891 52.942 44.856 53.2713 44.856Z" fill="black"/>
<path d="M52.4527 44.2505C52.4528 44.4192 52.5042 44.584 52.6001 44.7228C52.6961 44.8616 52.832 44.968 52.9899 45.0277C53.1448 45.0846 53.3133 45.0933 53.4733 45.0526C53.6332 45.0119 53.7771 44.9238 53.8861 44.7998C53.973 44.7007 54.0348 44.582 54.066 44.4538C54.0972 44.3256 54.097 44.1918 54.0653 44.0638C54.0337 43.9358 53.9715 43.8173 53.8842 43.7184C53.7969 43.6196 53.6869 43.5433 53.5638 43.4961C53.4406 43.4489 53.3078 43.4322 53.1768 43.4473C53.0458 43.4625 52.9204 43.5091 52.8112 43.5832C52.7021 43.6573 52.6125 43.7567 52.5501 43.8729C52.4877 43.9891 52.4543 44.1186 52.4527 44.2505C52.4532 44.3094 52.4768 44.3658 52.5185 44.4074C52.5601 44.4491 52.6165 44.4727 52.6754 44.4732C52.7341 44.4721 52.7901 44.4482 52.8316 44.4067C52.8731 44.3652 52.8969 44.3092 52.898 44.2505C52.8962 44.2339 52.8971 44.2171 52.9009 44.2008C52.8886 44.2198 52.8938 44.2376 52.8997 44.2115C52.9056 44.1855 52.9111 44.1593 52.9194 44.1338L52.9245 44.1188C52.9333 44.0958 52.9317 44.0989 52.9197 44.128C52.9231 44.118 52.9276 44.1085 52.9333 44.0997C52.9446 44.0703 52.9613 44.0433 52.9826 44.0201C52.9478 44.0428 52.967 44.0382 52.9819 44.0229C52.991 44.0137 52.9993 44.0038 53.0085 43.9946C53.0158 43.9874 53.0233 43.9802 53.031 43.9733L53.0427 43.9631C53.0614 43.9478 53.0586 43.9498 53.0343 43.9691C53.042 43.9532 53.0862 43.9352 53.1001 43.9276C53.1093 43.9227 53.1188 43.9184 53.128 43.9135C53.1661 43.8932 53.0861 43.9242 53.1405 43.9094C53.1663 43.9024 53.1913 43.8942 53.2177 43.8891L53.2256 43.8876C53.2505 43.8836 53.2469 43.8841 53.2147 43.889C53.2215 43.8838 53.2467 43.8867 53.2558 43.8866C53.2697 43.8862 53.2836 43.8863 53.2975 43.8869C53.3008 43.887 53.3554 43.8888 53.3171 43.8873C53.2804 43.8858 53.3306 43.8901 53.3356 43.8912C53.3513 43.8945 53.3668 43.8984 53.3823 43.903C53.398 43.9055 53.4133 43.9107 53.4273 43.9184C53.4257 43.9166 53.3797 43.8946 53.4175 43.9147C53.4406 43.927 53.4636 43.9388 53.4856 43.9532C53.4886 43.9552 53.5296 43.9856 53.501 43.963C53.4723 43.9405 53.5117 43.973 53.5143 43.9754C53.5394 43.9939 53.5611 44.0168 53.5781 44.043C53.5644 44.0083 53.5617 44.0198 53.5712 44.0353C53.5793 44.0487 53.5883 44.0613 53.5961 44.0749C53.6013 44.084 53.6063 44.0931 53.611 44.1023L53.6179 44.1164C53.628 44.1387 53.6267 44.1354 53.614 44.1066C53.6279 44.1175 53.6334 44.166 53.6373 44.1825C53.6398 44.1929 53.6417 44.2034 53.6438 44.2139C53.6529 44.2589 53.641 44.1679 53.6442 44.2276C53.6455 44.2525 53.6436 44.2773 53.6435 44.3023C53.6434 44.3574 53.6545 44.2546 53.6433 44.308C53.6411 44.3186 53.6392 44.3291 53.6367 44.3396C53.6323 44.3578 53.6273 44.4025 53.613 44.4156L53.6233 44.3916C53.619 44.4011 53.6145 44.4106 53.6097 44.4199C53.6026 44.4338 53.5949 44.4474 53.5866 44.4607C53.58 44.4714 53.5705 44.4819 53.565 44.4931C53.5517 44.5202 53.6002 44.4553 53.5663 44.4909C53.5483 44.5097 53.5315 44.5288 53.512 44.5462C53.5089 44.549 53.4689 44.5788 53.4986 44.5584C53.5288 44.5376 53.4859 44.5662 53.4831 44.568C53.4587 44.5879 53.4307 44.603 53.4008 44.6127C53.4048 44.6121 53.4497 44.5959 53.41 44.6077C53.3948 44.6122 53.3799 44.6176 53.3645 44.6216C53.3541 44.6243 53.3437 44.6268 53.3333 44.6289C53.327 44.6302 53.2793 44.6322 53.3149 44.6326C53.3528 44.633 53.2995 44.6326 53.2955 44.6328C53.2817 44.6333 53.2678 44.6333 53.2539 44.6329C53.2401 44.6346 53.2261 44.6337 53.2126 44.6304C53.2447 44.6352 53.2483 44.6356 53.2233 44.6315L53.2074 44.6284C53.187 44.6241 53.1309 44.6181 53.1157 44.6012L53.1398 44.6115C53.1326 44.6083 53.1255 44.6049 53.1185 44.6013C53.1026 44.5924 53.0862 44.5844 53.0706 44.5747C53.0618 44.5692 53.0534 44.5631 53.0446 44.5576C53.025 44.5434 53.0276 44.5457 53.0524 44.5644C53.0444 44.5579 53.0365 44.5511 53.0288 44.5442C53.0096 44.5267 52.9925 44.5074 52.9749 44.4885C52.9394 44.4506 52.9989 44.5287 52.9719 44.4842C52.9639 44.4709 52.9548 44.4583 52.947 44.4447C52.9391 44.4311 52.9325 44.417 52.9251 44.4032C52.9044 44.3639 52.9368 44.4447 52.9236 44.3982C52.9148 44.3672 52.9062 44.3372 52.8993 44.3056C52.8931 44.2772 52.89 44.3024 52.9007 44.3165C52.8924 44.3055 52.8981 44.2641 52.8981 44.2505C52.8981 44.1914 52.8746 44.1348 52.8329 44.093C52.7911 44.0513 52.7345 44.0278 52.6754 44.0278C52.6164 44.0278 52.5597 44.0513 52.518 44.093C52.4762 44.1348 52.4527 44.1914 52.4527 44.2505H52.4527Z" fill="black"/>
<path d="M44.5214 47.3279C44.987 48.0507 45.7078 48.5716 46.5402 48.7869C46.9728 48.8876 47.4208 48.9042 47.8597 48.8358C47.9734 48.8042 48.07 48.7288 48.1283 48.6261C48.1865 48.5235 48.2018 48.4019 48.1706 48.288C48.136 48.1762 48.0601 48.0818 47.9583 48.024C47.8565 47.9662 47.7365 47.9494 47.6228 47.9771C47.713 47.9648 47.5453 47.9829 47.5292 47.984C47.4747 47.988 47.4201 47.9905 47.3654 47.9914C47.2613 47.9932 47.1572 47.9892 47.0535 47.9794C47.0285 47.977 47.0036 47.9743 46.9787 47.9713C47.0357 47.9791 47.0387 47.9792 46.9874 47.9714C46.9402 47.9623 46.8928 47.9546 46.8458 47.9442C46.7664 47.9267 46.688 47.9057 46.6104 47.8811C46.5677 47.8675 46.5252 47.8529 46.4832 47.8372C46.4601 47.8286 46.3257 47.768 46.4378 47.8205C46.3616 47.7849 46.2859 47.7493 46.2122 47.7087C46.1424 47.6702 46.0742 47.629 46.0077 47.5849C45.9759 47.5639 45.9445 47.5422 45.9134 47.52C45.9024 47.5122 45.8062 47.4421 45.8697 47.4888C45.9324 47.5349 45.8416 47.4658 45.8309 47.457C45.8044 47.4352 45.7783 47.4129 45.7526 47.3903C45.7044 47.3479 45.6575 47.3042 45.6118 47.2592C45.5378 47.1861 45.4673 47.1095 45.4004 47.0296C45.3689 46.9918 45.2924 46.8681 45.3884 47.0176C45.372 46.992 45.3515 46.9685 45.3339 46.9435C45.3189 46.9222 45.304 46.9007 45.2903 46.8785C45.2608 46.828 45.2216 46.7838 45.175 46.7484C45.1284 46.7131 45.0753 46.6872 45.0187 46.6724C44.9621 46.6576 44.9032 46.654 44.8452 46.662C44.7873 46.6699 44.7315 46.6892 44.681 46.7187C44.6305 46.7482 44.5863 46.7874 44.5509 46.834C44.5156 46.8806 44.4897 46.9337 44.4749 46.9903C44.4601 47.0469 44.4565 47.1058 44.4645 47.1638C44.4724 47.2217 44.4917 47.2775 44.5212 47.328L44.5214 47.3279Z" fill="black"/>
<path d="M39.7214 60.6858L49.1466 59.4532L62.1817 72.637C62.1817 72.637 57.2155 86.5172 56.508 94.1249L32.6057 93.7628C30.3512 83.8294 27.7549 76.0855 28.9735 69.0225" fill="white"/>
<path d="M39.7213 61.1313L47.9955 60.0492L49.1465 59.8987L48.8316 59.7683L53.2524 64.2395L60.2521 71.3191L61.8667 72.9521L61.7521 72.5188C61.1377 74.2368 60.569 75.9722 60.0162 77.7108C58.9011 81.2174 57.8655 84.7573 57.0524 88.3474C56.5988 90.2501 56.2682 92.18 56.0625 94.1252L56.5078 93.6799L54.1263 93.6438L48.4088 93.557L41.5231 93.4526L35.5461 93.362L33.5835 93.3323C33.2712 93.3108 32.958 93.306 32.6453 93.3181C32.632 93.3186 32.6188 93.3184 32.6055 93.3175L33.035 93.6443C32.2256 90.0831 31.2977 86.5498 30.4999 82.986C29.8276 79.9825 29.239 76.9364 29.126 73.8531C29.0566 72.277 29.1494 70.698 29.4028 69.1409C29.4984 68.5802 28.6402 68.3393 28.544 68.9041C28.0456 71.8269 28.1845 74.7878 28.599 77.7116C29.0702 81.0348 29.8731 84.3035 30.6667 87.5612C31.1794 89.6655 31.6961 91.769 32.1762 93.8811C32.2031 93.9746 32.2594 94.0568 32.3367 94.1157C32.4141 94.1746 32.5084 94.207 32.6056 94.208L34.9871 94.2441L40.7046 94.3307L47.5904 94.4351L53.5673 94.5257C54.5306 94.5403 55.5049 94.5991 56.4682 94.5696C56.4814 94.5692 56.4947 94.57 56.5079 94.5702C56.6252 94.5675 56.7369 94.5197 56.8198 94.4368C56.9028 94.3538 56.9506 94.2421 56.9533 94.1249C57.2888 90.5644 58.2214 87.0456 59.1794 83.6103C60.0294 80.5624 60.9768 77.5411 61.9923 74.5445C62.1948 73.9469 62.3986 73.3496 62.6111 72.7554C62.6325 72.6796 62.6332 72.5993 62.613 72.5231C62.5929 72.4469 62.5527 72.3775 62.4966 72.3221L59.7244 69.5183L54.1879 63.9185L49.8997 59.5817C49.6532 59.3324 49.4205 58.9856 49.0373 59.0222C48.1818 59.1039 47.3276 59.2458 46.4756 59.3572L39.8587 60.2226L39.7213 60.2406C39.6044 60.2443 39.4932 60.2924 39.4105 60.3751C39.3278 60.4579 39.2797 60.569 39.276 60.686C39.2767 60.8039 39.3238 60.9168 39.4072 61.0001C39.4905 61.0835 39.6034 61.1307 39.7213 61.1313H39.7213Z" fill="black"/>
<path d="M92.8768 53.2088L95.1524 49.698L104.48 55.0735L102.822 58.3886" fill="white"/>
<path d="M93.2615 53.4336L95.5369 49.923L94.9276 50.0828L98.0702 51.8938L103.106 54.796L104.255 55.4582L104.096 54.8489L102.438 58.1641C102.182 58.6753 102.95 59.1269 103.207 58.6136L104.865 55.2984C104.922 55.1959 104.937 55.0752 104.907 54.9616C104.878 54.848 104.805 54.7504 104.705 54.6891L101.562 52.8781L96.5262 49.9759L95.3772 49.3137C95.2746 49.2565 95.1539 49.2412 95.0404 49.271C94.9268 49.3008 94.8291 49.3733 94.7679 49.4734L92.4924 52.9841C92.1797 53.4665 92.9505 53.9134 93.2615 53.4336Z" fill="black"/>
<path d="M47.4358 60.4907L56.0841 60.4676C57.728 60.4632 59.3491 60.8515 60.8126 61.6002L75.4333 69.0811L82.4136 72.8928L86.061 62.9569C87.6092 58.7394 90.2164 54.9911 93.6319 52.0724L94.1204 51.6549L103.548 57.3529L104.856 63.1376C105.28 65.011 104.969 66.9755 103.987 68.6261L94.4771 84.6086C92.7747 87.2122 90.1825 89.1066 87.1849 89.9377C84.1873 90.7689 80.9896 90.4798 78.1896 89.1245L70.5355 85.4197L52.3696 76.2081" fill="white"/>
<path d="M47.4354 60.9358L55.0791 60.9153C55.4113 60.9144 55.7435 60.9124 56.0757 60.9127C57.4703 60.9073 58.8503 61.1968 60.1252 61.7624C60.7714 62.0538 61.3967 62.3986 62.0273 62.7213L70.2081 66.9071C71.8867 67.766 73.5837 68.5965 75.2462 69.4863C77.4976 70.6913 79.7294 71.9344 81.9707 73.1582L82.1884 73.2771C82.2476 73.3101 82.3135 73.3294 82.3812 73.3336C82.4489 73.3377 82.5166 73.3266 82.5794 73.3011C82.6422 73.2755 82.6985 73.2362 82.744 73.186C82.7896 73.1357 82.8233 73.0759 82.8426 73.011L85.2684 66.4029L86.4188 63.2691C87.1078 61.3752 88.0105 59.566 89.1092 57.8764C90.5929 55.663 92.3864 53.6738 94.4349 51.9695L93.8952 52.0392L97.087 53.9683L102.15 57.0283L103.323 57.7372L103.118 57.471L103.829 60.615L104.282 62.6178C104.409 63.1092 104.503 63.6085 104.565 64.1123C104.691 65.7054 104.301 67.2968 103.453 68.6511L102.192 70.77L97.7407 78.2515L94.2837 84.0615C92.8337 86.432 90.6256 88.2434 88.0173 89.202C85.4089 90.1606 82.5533 90.2103 79.9133 89.3429C78.9105 88.9779 77.9334 88.5459 76.9887 88.0497C74.9125 87.0447 72.8258 86.059 70.7592 85.0344C69.3571 84.3392 67.9671 83.6186 66.5713 82.9108L58.5162 78.8262L52.8856 75.9711L52.594 75.8232C52.0839 75.5646 51.6326 76.3327 52.1446 76.5923L57.6125 79.365L67.0086 84.1296C68.4219 84.8462 69.8304 85.5715 71.2567 86.2619L75.8571 88.4886C77.0582 89.07 78.2565 89.7181 79.5217 90.15C81.9955 90.9726 84.6561 91.0528 87.175 90.3805C89.6939 89.7082 91.9607 88.313 93.6956 86.367C94.3597 85.5793 94.9489 84.7314 95.4556 83.8343L97.5647 80.2895L102.874 71.3663L104.298 68.9731C105.39 67.1617 105.737 64.9977 105.267 62.9357C104.935 61.4591 104.601 59.983 104.265 58.5073L104.055 57.5786C104.041 57.3843 103.974 57.1975 103.863 57.0377C103.628 56.851 103.372 56.6915 103.101 56.5624L95.0161 51.6758L94.3448 51.2701C94.2593 51.2225 94.1607 51.2035 94.0635 51.216C93.9664 51.2286 93.8758 51.2719 93.8051 51.3397C91.9688 52.876 90.3292 54.6332 88.9238 56.5715C87.5467 58.517 86.4347 60.6371 85.6173 62.8761C84.7416 65.2573 83.8673 67.6389 82.9944 70.0211L81.9838 72.7742L82.638 72.508L76.0269 68.898C74.5737 68.1045 73.0816 67.3783 71.6078 66.6242L63.1518 62.2976C62.46 61.9436 61.7681 61.5896 61.0763 61.2356C59.4297 60.4102 57.6084 59.9942 55.7667 60.0228L47.6653 60.0445L47.4354 60.0451C46.8624 60.0466 46.8613 60.9373 47.4354 60.9358H47.4354Z" fill="black"/>
<path d="M52.1399 60.4271H37.1495C37.2947 59.455 37.7841 58.5673 38.5287 57.9257C39.2733 57.2841 40.2235 56.9312 41.2064 56.9312H44.2337C44.8754 56.9312 45.5082 57.0817 46.0812 57.3707L52.1399 60.4271Z" fill="white"/>
<path d="M52.1399 59.9817H37.1495L37.5789 60.5455C37.698 59.7179 38.0939 58.9551 38.702 58.3814C39.3102 57.8076 40.0947 57.4568 40.9278 57.3861C41.9142 57.3196 42.9196 57.3765 43.9078 57.3765C44.5783 57.3481 45.246 57.4779 45.8569 57.7556C46.057 57.8542 46.2553 57.9565 46.4545 58.057L49.5376 59.6122L51.9152 60.8116C52.4257 61.0692 52.8771 60.301 52.3647 60.0425L47.002 57.3374C46.7713 57.2209 46.5414 57.1023 46.3096 56.988C45.6073 56.6468 44.8349 56.4748 44.0541 56.4858C43.0536 56.4858 42.0466 56.4504 41.0467 56.4889C39.9969 56.533 38.9941 56.9365 38.2064 57.632C37.4187 58.3274 36.8939 59.2724 36.7201 60.3087C36.7034 60.3747 36.7018 60.4437 36.7155 60.5104C36.7291 60.5771 36.7577 60.6399 36.7989 60.6941C36.8402 60.7482 36.8932 60.7924 36.9539 60.8233C37.0146 60.8542 37.0814 60.871 37.1495 60.8724H52.14C52.713 60.8724 52.714 59.9817 52.1399 59.9817Z" fill="black"/>
<path d="M53.05 49.3994C53.3612 49.9177 53.8583 50.2977 54.4401 50.4621C54.7342 50.5326 55.0403 50.5373 55.3364 50.4757C55.45 50.4437 55.5463 50.3683 55.6045 50.2657C55.6628 50.1631 55.6782 50.0417 55.6474 49.9279C55.6134 49.8157 55.5376 49.7208 55.4356 49.6629C55.3337 49.605 55.2133 49.5886 55.0996 49.6169C55.0578 49.6249 54.9532 49.6208 55.0924 49.6209C55.0603 49.6209 55.0271 49.6276 54.9949 49.6293C54.9327 49.6327 54.8702 49.6321 54.808 49.6276C54.7672 49.6246 54.6683 49.5979 54.8151 49.631C54.7868 49.6246 54.7576 49.6215 54.7291 49.6154C54.6738 49.6036 54.6192 49.5887 54.5656 49.5708C54.5394 49.562 54.5138 49.5521 54.488 49.5425C54.4169 49.5161 54.6023 49.5946 54.5016 49.5473C54.4542 49.525 54.4078 49.5006 54.3625 49.474C54.319 49.4485 54.2765 49.4212 54.2352 49.3921C54.2152 49.3781 54.1959 49.3631 54.1762 49.349C54.3031 49.4395 54.225 49.3868 54.1966 49.3633C54.0766 49.2611 53.9664 49.148 53.8673 49.0254C53.8275 48.9776 53.9505 49.1361 53.9042 49.0731C53.8968 49.063 53.8892 49.0529 53.8818 49.0428C53.87 49.0264 53.8584 49.01 53.8472 48.9933C53.8375 48.979 53.828 48.9646 53.8191 48.9498C53.7593 48.8483 53.6616 48.7746 53.5476 48.745C53.4335 48.7153 53.3124 48.732 53.2106 48.7915C53.1089 48.8509 53.0349 48.9483 53.0048 49.0622C52.9747 49.1762 52.9909 49.2974 53.05 49.3994L53.05 49.3994Z" fill="black"/>
<path d="M76.8568 70.3658L79.9649 72.1336L84.9257 74.9554L86.0738 75.6084C86.5728 75.8922 87.0221 75.123 86.5233 74.8394L83.4152 73.0714L78.4544 70.2497L77.3063 69.5967C76.8073 69.313 76.358 70.0821 76.8567 70.3658L76.8568 70.3658Z" fill="black"/>
<path d="M26.1089 67.212H42.1636C46.8303 59.8967 45.5852 47.8599 45.5852 47.8599C44.7588 47.2524 43.528 44.8748 43.4872 43.4911C43.4256 41.4007 44.5333 40.8757 45.9934 40.8327C47.4535 40.7896 49.1489 43.5003 49.2089 45.5377L49.3141 41.1199C49.3217 40.7976 49.3966 40.4804 49.534 40.1887C49.6714 39.897 49.8683 39.6373 50.112 39.4262C50.3557 39.2151 50.6409 39.0573 50.9492 38.963C51.2575 38.8686 51.5821 38.8397 51.9023 38.8783L55.0699 38.9327C55.3797 38.938 55.6857 38.8635 55.9583 38.7162C56.231 38.569 56.4611 38.354 56.6265 38.092C56.792 37.83 56.8872 37.5298 56.903 37.2204C56.9188 36.9109 56.8546 36.6026 56.7167 36.3252L56.4556 35.8003C55.4533 33.7844 53.4274 31.3984 51.1774 31.319L42.6306 31.0173C40.1513 30.9298 35.5251 33.9165 34.5162 38.2048L33.2408 44.8406C31.9196 45.5012 30.8085 46.5166 30.032 47.7731C29.2554 49.0296 28.8441 50.4775 28.8441 51.9546V52.2115L27.2098 52.8652C25.4882 53.5539 24.0613 54.8224 23.1757 56.4515C22.2902 58.0806 22.0016 59.9679 22.36 61.7872C22.1307 62.3938 22.052 63.0469 22.1307 63.6906C22.2094 64.3343 22.4431 64.9493 22.8118 65.4827C23.1804 66.0162 23.6731 66.4523 24.2473 66.7535C24.8216 67.0547 25.4604 67.212 26.1089 67.212Z" fill="#FFC41F"/>
<path d="M26.1089 67.6574H41.7637C41.8746 67.6574 41.9861 67.6606 42.097 67.6574C42.4134 67.6481 42.5532 67.434 42.7094 67.1782C43.3522 66.1066 43.8883 64.9746 44.31 63.7984C45.1314 61.4603 45.6686 59.032 45.9101 56.5657C46.1294 54.5611 46.2165 52.5443 46.1709 50.5283C46.1525 49.6425 46.1305 48.7462 46.0309 47.8648C46.0012 47.6016 45.8622 47.5274 45.72 47.3913C45.5598 47.2343 45.4155 47.062 45.2892 46.8768C44.9404 46.3738 44.6452 45.8355 44.4086 45.2709C44.0087 44.3267 43.6446 43.0595 44.1789 42.0901C44.2709 41.9264 44.3946 41.7828 44.5427 41.6673C44.6907 41.5519 44.8603 41.467 45.0414 41.4177C45.4421 41.2744 45.8738 41.2408 46.2919 41.3203C46.7468 41.4568 47.1234 41.8398 47.4237 42.1984C47.8108 42.6723 48.123 43.2026 48.3496 43.7709C48.5891 44.3314 48.7291 44.9292 48.7635 45.5377C48.7675 45.6532 48.8162 45.7625 48.8993 45.8427C48.9824 45.923 49.0934 45.9678 49.2088 45.9678C49.3243 45.9678 49.4353 45.923 49.5184 45.8427C49.6015 45.7625 49.6502 45.6532 49.6542 45.5377L49.7512 41.4631C49.7466 41.2572 49.7582 41.0512 49.7857 40.8471C49.8379 40.5665 49.9528 40.3013 50.1218 40.0712C50.2908 39.8412 50.5096 39.6523 50.7618 39.5186C51.3813 39.185 52.244 39.3295 52.9311 39.3413C53.6368 39.3534 54.3432 39.3762 55.049 39.3776C55.6261 39.384 56.1841 39.1712 56.6105 38.7822C57.0368 38.3932 57.2997 37.857 57.3462 37.2818C57.3883 36.7333 57.1837 36.2661 56.9464 35.7889C56.7083 35.2999 56.4395 34.8264 56.1414 34.3713C55.3795 33.2281 54.4095 32.1444 53.1965 31.4704C52.5016 31.0887 51.7247 30.8809 50.9321 30.8648L49.1922 30.8034L44.0627 30.6223C43.6048 30.6062 43.147 30.5881 42.689 30.5738C41.9978 30.566 41.3115 30.6909 40.6674 30.9419C38.4462 31.7956 36.5559 33.3368 35.2724 35.3405C34.7062 36.1952 34.3006 37.1459 34.0753 38.1461C33.9644 38.6872 33.8668 39.2314 33.7625 39.7738L32.8741 44.3962L32.8115 44.722L33.0162 44.4559C31.5552 45.1931 30.341 46.3406 29.5225 47.7577C28.76 49.1166 28.3722 50.6536 28.3988 52.2115L28.7256 51.782C27.486 52.2779 26.2122 52.7127 25.1351 53.5251C23.5263 54.7339 22.4012 56.4766 21.9616 58.4403C21.7165 59.5813 21.7059 60.7602 21.9305 61.9055V61.6687C21.6855 62.3327 21.6028 63.0457 21.6892 63.7483C21.7756 64.4508 22.0287 65.1225 22.4273 65.7073C22.8386 66.3048 23.388 66.7941 24.029 67.1336C24.67 67.4731 25.3835 67.6527 26.1088 67.6573C26.6821 67.6628 26.6826 66.7721 26.1088 66.7666C25.466 66.7635 24.8359 66.5881 24.2841 66.2585C23.7323 65.9289 23.2791 65.4573 22.9717 64.8929C22.7436 64.474 22.6029 64.0132 22.5582 63.5384C22.5135 63.0636 22.5657 62.5846 22.7116 62.1306C22.7837 61.9588 22.8052 61.7701 22.7736 61.5865C22.7426 61.4074 22.7135 61.2291 22.6952 61.0481C22.5525 59.6268 22.8142 58.1941 23.45 56.915C24.0858 55.6359 25.0699 54.5624 26.2891 53.818C27.1234 53.3169 28.062 53.001 28.9624 52.6409C29.0549 52.6123 29.1361 52.5556 29.1947 52.4786C29.2533 52.4016 29.2864 52.3082 29.2893 52.2115C29.2623 50.8801 29.5728 49.5636 30.192 48.3847C30.878 47.1211 31.9102 46.0795 33.1674 45.382C33.3746 45.2672 33.6011 45.1954 33.673 44.9437C33.6889 44.8881 33.6953 44.8279 33.7061 44.7711L33.8673 43.9324L34.3929 41.1974C34.6893 39.6556 34.8577 38.0134 35.5774 36.5971C36.6819 34.4239 38.7497 32.533 41.072 31.7412C41.6338 31.5375 42.2299 31.4452 42.827 31.4695L44.7382 31.537L50.211 31.7302C50.6486 31.7244 51.086 31.7467 51.5207 31.7968C52.9485 32.0348 54.1247 33.1516 54.972 34.2591C55.3958 34.8164 55.766 35.4124 56.0778 36.0393C56.2808 36.4448 56.5215 36.8426 56.4519 37.3167C56.4112 37.5839 56.2933 37.8333 56.1125 38.0342C55.9318 38.2351 55.6962 38.3787 55.4348 38.4473C55.1576 38.4947 54.8753 38.5054 54.5953 38.4792L52.0381 38.4352C51.5706 38.3945 51.0996 38.4488 50.6535 38.5948C49.9971 38.8445 49.4596 39.3334 49.1488 39.9633C48.8085 40.6768 48.86 41.4705 48.8416 42.2403L48.7764 44.9802L48.7634 45.5378H49.6541C49.5789 44.2698 49.144 43.0494 48.4005 42.0195C47.7885 41.1557 46.9341 40.326 45.8021 40.396C44.8492 40.455 43.8724 40.7709 43.396 41.6665C42.8482 42.6962 42.9943 43.9666 43.365 45.0267C43.5934 45.6816 43.8889 46.3112 44.2468 46.9053C44.5305 47.4177 44.9083 47.8721 45.3603 48.2445L45.1398 47.86C45.2765 49.3476 45.3246 50.8421 45.2838 52.3355C45.2312 55.4863 44.896 58.6593 44.0479 61.7013C43.5547 63.5649 42.7902 65.346 41.779 66.9873L42.1635 66.7667H26.1088C25.5358 66.7667 25.5348 67.6574 26.1089 67.6574Z" fill="black"/>
<path d="M42.6594 31.004L57.0075 31.2231C59.3641 31.2638 60.9951 34.7441 60.0995 36.9243C60.0995 36.9243 59.7412 38.8356 57.3448 40.349C57.4709 40.4751 58.2278 38.4571 57.9754 37.5742C56.8906 38.8351 55.433 39.7184 53.8133 40.0967C53.8133 40.0967 54.4158 39.0474 54.4299 38.1216" fill="#FFC41F"/>
<path d="M42.6594 31.4494L45.5703 31.4938L51.5185 31.5846L56.3277 31.6581C56.6392 31.6468 56.9512 31.6568 57.2614 31.688C58.3993 31.8653 59.2177 32.9461 59.5959 33.9614C59.8211 34.5444 59.9238 35.1676 59.8978 35.7921C59.859 36.1655 59.7762 36.533 59.6512 36.887C59.5705 37.1889 59.4495 37.4786 59.2913 37.7481C58.9818 38.2943 58.586 38.7868 58.1192 39.2066C57.8086 39.4875 57.4744 39.741 57.1202 39.9644C57.0544 40.0048 57.0001 40.0613 56.9624 40.1286C56.9247 40.196 56.9049 40.2718 56.9049 40.349C56.9049 40.4261 56.9247 40.502 56.9624 40.5693C57.0001 40.6367 57.0544 40.6932 57.1202 40.7335C57.7408 41.1359 58.0676 39.9868 58.185 39.6128C58.3952 38.9435 58.5861 38.1519 58.405 37.4558C58.3835 37.3814 58.343 37.3137 58.2875 37.2596C58.2321 37.2054 58.1635 37.1665 58.0885 37.1467C58.0136 37.1269 57.9348 37.1269 57.8598 37.1466C57.7848 37.1664 57.7162 37.2052 57.6607 37.2593C56.6523 38.3882 55.2243 39.4075 53.6951 39.6673L54.198 40.3215C54.5951 39.6523 54.8273 38.8983 54.8754 38.1216C54.8952 37.5483 54.0045 37.5491 53.9847 38.1216C53.9399 38.7407 53.7495 39.3404 53.4289 39.872C53.3871 39.9487 53.3685 40.036 53.3753 40.1231C53.3821 40.2102 53.4141 40.2935 53.4674 40.3628C53.5207 40.4321 53.5929 40.4844 53.6754 40.5134C53.7578 40.5424 53.847 40.5469 53.9319 40.5262C54.4437 40.4216 54.9403 40.2528 55.41 40.024C56.5083 39.5208 57.4895 38.7936 58.2904 37.8891L57.5461 37.6926C57.6518 38.0993 57.5261 38.6566 57.4083 39.0937C57.346 39.3291 57.2702 39.5608 57.1815 39.7877C57.1534 39.8585 57.1481 39.8639 57.1003 39.9653C57.082 39.9913 57.0663 40.019 57.0535 40.0481C57.0907 40.0051 57.1365 39.9705 57.1879 39.9464C57.2394 39.9223 57.2953 39.9093 57.3521 39.9083L57.5768 39.9691L57.5696 39.9644V40.7335C58.7575 39.9731 59.7893 38.9356 60.3367 37.6193C60.6854 36.8345 60.8346 35.9758 60.7709 35.1194C60.5605 33.0268 59.1279 30.8101 56.843 30.7753L52.7051 30.7121L46.4466 30.6165C45.206 30.5975 43.957 30.5341 42.7164 30.5595C42.6974 30.5599 42.6784 30.5589 42.6594 30.5587C42.086 30.5499 42.0858 31.4406 42.6594 31.4493L42.6594 31.4494Z" fill="black"/>
<path d="M18.5419 43.0164H22.9481V39.513L25.792 37.5243C26.0267 37.3601 26.2122 37.1351 26.3285 36.8733C26.4448 36.6115 26.4875 36.323 26.4519 36.0388C26.4226 35.8043 26.3409 35.5795 26.2129 35.3809C26.0848 35.1823 25.9137 35.0151 25.7122 34.8916C25.5107 34.7682 25.284 34.6916 25.0489 34.6677C24.8139 34.6438 24.5764 34.6732 24.3542 34.7535L21.757 35.6929C21.6006 35.7495 21.4343 35.7732 21.2683 35.7627C21.1023 35.7521 20.9403 35.7075 20.7924 35.6315C20.6444 35.5556 20.5137 35.45 20.4083 35.3213C20.303 35.1926 20.2253 35.0436 20.1801 34.8835V34.8834" fill="#FC7F3A"/>
<path d="M18.5418 43.4618H22.948C23.0656 43.4601 23.1779 43.4127 23.2611 43.3295C23.3442 43.2463 23.3917 43.134 23.3933 43.0164V39.5131L23.1728 39.8976L24.8027 38.7579C25.3831 38.352 26.1586 37.9498 26.5678 37.3554C27.4238 36.112 26.5624 34.3947 25.1014 34.2278C24.3469 34.1416 23.5234 34.5819 22.8321 34.8319C22.4533 34.9689 22.0754 35.109 21.6956 35.243C21.2542 35.3988 20.7496 35.261 20.6095 34.7651C20.4539 34.2143 19.5943 34.4484 19.7506 35.0018C19.8138 35.2167 19.9194 35.4167 20.0612 35.5901C20.2031 35.7634 20.3782 35.9065 20.5763 36.011C20.7744 36.1155 20.9914 36.1792 21.2146 36.1983C21.4377 36.2175 21.6624 36.1917 21.8754 36.1225C22.2502 35.9985 22.6192 35.8534 22.9904 35.7192C23.4626 35.5484 23.934 35.3749 24.4073 35.2067C24.9958 34.9976 25.662 35.169 25.9287 35.7826C26.0103 35.9413 26.0413 36.1213 26.0175 36.2983C26.0056 36.5129 25.9327 36.7196 25.8075 36.8943C25.7037 37.0278 25.5776 37.1422 25.4347 37.2326L24.1453 38.1342L22.8667 39.0283C22.6874 39.1537 22.5194 39.267 22.5028 39.5137C22.496 39.6153 22.5028 39.7198 22.5028 39.8215V43.0165L22.9481 42.5712H18.5418C17.9687 42.5712 17.9677 43.4618 18.5418 43.4618V43.4618Z" fill="black"/>
<path d="M22.5771 66.5772L21.271 70.5066L19.1911 76.764L18.7162 78.1929C18.535 78.7381 19.3948 78.9718 19.575 78.4296L20.8811 74.5003L22.961 68.2429L23.436 66.814C23.6172 66.2688 22.7573 66.035 22.5771 66.5772Z" fill="black"/>
<path d="M22.9481 43.0164H13.7734V45.31H22.9481V43.0164Z" fill="white"/>
<path d="M22.9482 44.8649H13.7737L14.219 45.3103V43.0166L13.7737 43.462H22.9482L22.5029 43.0166V45.3103C22.5029 45.8834 23.3935 45.8843 23.3935 45.3103V43.0166C23.3919 42.899 23.3444 42.7867 23.2613 42.7035C23.1781 42.6204 23.0658 42.5729 22.9482 42.5713H13.7737C13.6561 42.5729 13.5437 42.6204 13.4606 42.7035C13.3774 42.7867 13.33 42.899 13.3283 43.0166V45.3103C13.33 45.4279 13.3774 45.5402 13.4606 45.6234C13.5437 45.7065 13.6561 45.754 13.7737 45.7556H22.9482C23.5213 45.7556 23.5223 44.8649 22.9482 44.8649Z" fill="black"/>
</svg>
