<svg width="281" height="287" viewBox="0 0 281 287" fill="none" xmlns="http://www.w3.org/2000/svg">
<path d="M242.286 95.0629C241.611 97.6093 241.051 100.192 240.61 102.802L250.145 105.662L252.858 106.476L241.952 153.871L258.69 158.422L273.048 112.336C275.294 102.396 270.506 92.0332 262.208 87.764L256.668 85.4203L246.79 82.3729C244.916 86.4259 243.407 90.6768 242.286 95.0629Z" fill="#A8542A"/>
<path d="M242.867 95.2424C242.198 97.7905 241.631 100.371 241.192 102.981L240.771 102.152C243.95 103.106 247.129 104.06 250.308 105.013L253.019 105.826C253.171 105.876 253.301 105.991 253.38 106.146C253.458 106.3 253.48 106.483 253.44 106.655L252.347 111.403L249.745 122.712L246.6 136.379L243.881 148.197L242.979 152.118C242.839 152.727 242.741 153.38 242.552 153.972C242.544 153.997 242.54 154.025 242.534 154.05L242.113 153.221L247.774 154.76L256.79 157.212L258.851 157.772L258.108 158.243L259.105 155.045L261.614 146.991L264.931 136.345L268.31 125.496L271.046 116.716C271.503 115.248 271.975 113.784 272.418 112.311C272.848 110.692 273.043 109.007 272.998 107.32C272.988 104.584 272.486 101.879 271.52 99.3651C270.537 96.8135 269.121 94.4986 267.35 92.548C266.467 91.5723 265.499 90.6962 264.462 89.9325C263.93 89.5419 263.382 89.181 262.818 88.8497C262.551 88.6928 262.281 88.5384 262.006 88.3997C262.09 88.4423 261.977 88.3853 261.95 88.3733C260.618 87.7792 259.264 87.2369 257.922 86.6691C257.25 86.3844 256.594 86.0972 255.902 85.8836L247.354 83.2467L246.629 83.0231L247.31 82.7133C245.456 86.7121 243.967 90.9098 242.867 95.2424C242.648 96.0725 241.483 95.7191 241.704 94.8841C242.835 90.4398 244.364 86.1343 246.268 82.0328C246.337 81.9056 246.44 81.8066 246.563 81.7507C246.686 81.6949 246.822 81.6851 246.95 81.723L254.581 84.0772C255.346 84.3132 256.137 84.5065 256.888 84.7954C258.234 85.3135 259.557 85.9249 260.889 86.4883C261.371 86.6925 261.857 86.8893 262.337 87.1012C263.365 87.5848 264.344 88.1901 265.257 88.9066C267.387 90.5132 269.23 92.5507 270.69 94.9138C273.604 99.6102 274.761 105.392 273.914 111.028C273.638 112.472 273.257 113.888 272.774 115.263L270.334 123.094L267.024 133.719L263.604 144.696L260.798 153.703L259.338 158.389L259.272 158.601C259.226 158.771 259.124 158.915 258.985 159.002C258.847 159.09 258.684 159.115 258.53 159.072L252.869 157.533L243.852 155.081L241.792 154.521C241.639 154.471 241.509 154.357 241.43 154.202C241.352 154.047 241.33 153.864 241.37 153.692L242.462 148.944L245.065 137.635L248.21 123.969L250.929 112.15L251.832 108.229C251.972 107.621 252.069 106.968 252.258 106.375C252.266 106.35 252.27 106.323 252.276 106.297L252.698 107.126L242.306 104.009L240.45 103.452C240.298 103.401 240.169 103.286 240.091 103.132C240.012 102.978 239.99 102.795 240.029 102.623C240.467 100.013 241.034 97.4323 241.704 94.8843C241.922 94.0534 243.087 94.4071 242.867 95.2424Z" fill="black"/>
<path d="M243.712 146.329L242.847 150.118C242.263 152.684 241.423 155.168 240.345 157.526C239.707 159.022 238.982 160.47 238.174 161.86C234.492 168.544 236.087 171.777 248.611 175.582C249.022 175.697 249.432 175.814 249.84 175.929C250.783 176.194 251.767 176.225 252.722 176.021C253.677 175.817 254.581 175.383 255.371 174.749C256.16 174.115 256.816 173.296 257.294 172.35C257.771 171.403 258.057 170.352 258.133 169.269L259.027 157.087L260.946 147.542" fill="#FC7272"/>
<path d="M244.294 146.508C243.732 148.974 243.229 151.467 242.438 153.857C241.811 155.672 241.091 157.444 240.28 159.165C239.712 160.414 239.009 161.576 238.381 162.788C237.88 163.689 237.49 164.662 237.222 165.68C237.111 166.076 237.051 166.487 237.044 166.902C237.04 167.103 237.045 167.305 237.061 167.506C237.063 167.537 237.087 167.717 237.063 167.542C237.068 167.577 237.072 167.613 237.079 167.648C237.102 167.771 237.122 167.893 237.152 168.015C237.231 168.389 237.375 168.742 237.575 169.054C237.78 169.401 238.024 169.718 238.3 169.997C239.115 170.796 240.032 171.453 241.021 171.948C242.434 172.685 243.891 173.311 245.383 173.82C246.323 174.156 247.269 174.467 248.22 174.762C249.128 175.099 250.064 175.335 251.015 175.467C252.542 175.576 254.051 175.045 255.247 173.979C256.443 172.913 257.241 171.387 257.484 169.699C257.563 169.148 257.58 168.579 257.621 168.024L257.858 164.798L258.362 157.927C258.482 156.753 258.675 155.589 258.94 154.446L260.276 147.801L260.364 147.363C260.534 146.516 261.698 146.875 261.528 147.721L260.417 153.249L259.758 156.528C259.725 156.766 259.678 157.001 259.616 157.231C259.573 157.356 259.625 156.993 259.628 157.116C259.627 157.189 259.621 157.263 259.612 157.336C259.321 161.3 259.049 165.267 258.739 169.23C258.62 170.963 258.014 172.61 257.008 173.936C256.002 175.263 254.648 176.201 253.137 176.618C251.264 177.106 249.502 176.564 247.696 175.999C245.893 175.453 244.116 174.806 242.372 174.06C240.258 173.132 237.815 171.956 236.533 169.734C235.548 168.026 235.747 165.988 236.411 164.188C236.957 162.842 237.593 161.545 238.316 160.308C238.89 159.246 239.388 158.15 239.888 157.044C240.867 154.874 241.64 152.596 242.194 150.247C242.438 149.219 242.665 148.187 242.9 147.157L243.13 146.15C243.322 145.309 244.486 145.666 244.294 146.508L244.294 146.508Z" fill="black"/>
<path d="M243.483 145.062L242.277 152.457L259.029 156.934L260.739 150.556" fill="white"/>
<path d="M243.483 145.062L242.277 152.457L259.029 156.934L260.739 150.556" fill="white"/>
<path d="M244.065 145.241L243.01 151.71L242.859 152.637L242.438 151.808L248.103 153.322L257.127 155.733L259.19 156.285L258.447 156.755L260.158 150.377C260.38 149.548 261.545 149.902 261.321 150.736L259.611 157.114C259.566 157.284 259.463 157.428 259.325 157.516C259.186 157.604 259.023 157.628 258.869 157.584L253.203 156.07L244.179 153.659L242.117 153.108C241.965 153.057 241.836 152.942 241.757 152.787C241.679 152.633 241.657 152.451 241.695 152.278L242.75 145.81L242.901 144.883C243.04 144.031 244.204 144.392 244.065 145.242V145.241Z" fill="black"/>
<path d="M202.261 91.3528L240.611 102.801L252.915 106.427L246.253 123.914C243.424 131.341 242.344 139.453 243.114 147.478L243.224 148.626L260.446 152.805L268.318 146.857C270.871 144.924 272.664 141.973 273.33 138.61L279.809 105.99C280.694 100.5 279.762 94.8372 277.188 90.0564C274.615 85.2756 270.573 81.7021 265.817 80.0007L252.846 75.404L225.832 66.4452C223.027 65.5149 220.116 65.0423 217.19 65.0422H201.565" fill="white"/>
<path d="M202.421 90.7033L208.787 92.6038L222.506 96.6993L235.743 100.651C237.531 101.185 239.318 101.724 241.107 102.251L252.739 105.679L253.075 105.778C253.163 105.807 253.244 105.858 253.312 105.927C253.38 105.996 253.433 106.081 253.468 106.176C253.503 106.271 253.518 106.374 253.512 106.476C253.507 106.579 253.481 106.678 253.436 106.768L249.208 117.866L247.013 123.626C245.804 126.752 244.887 130.01 244.275 133.346C243.768 136.189 243.502 139.08 243.478 141.979C243.479 144.201 243.595 146.42 243.827 148.627L243.384 147.977L249.205 149.389L258.48 151.639L260.606 152.155L260.141 152.223L265.292 148.331L267.808 146.43C270.359 144.57 272.143 141.655 272.769 138.326C272.862 137.862 272.954 137.398 273.045 136.935L274.328 130.477L276.115 121.48L277.865 112.671L279.034 106.781C280.134 101.343 279.368 95.6424 276.889 90.8041C274.409 85.9658 270.397 82.3414 265.642 80.6459C263.871 80.014 262.099 79.3859 260.325 78.7617L253.345 76.288C252.663 76.0465 251.978 75.8199 251.292 75.5925L245.401 73.6386L237.338 70.9646L229.92 68.5047L225.84 67.1517C222.919 66.1888 219.889 65.7053 216.843 65.7166H201.564C200.788 65.7166 200.786 64.3685 201.564 64.3685H216.254C219.595 64.3225 222.923 64.8192 226.135 65.8433C227.797 66.3938 229.459 66.9449 231.12 67.4965L240.139 70.4872L248.869 73.3826C250.245 73.8387 251.624 74.2816 252.996 74.7511C254.943 75.4173 256.878 76.1267 258.819 76.8143C261.18 77.6512 263.542 78.488 265.903 79.3247C270.197 80.8353 273.948 83.833 276.615 87.8838C279.281 91.9347 280.724 96.8285 280.735 101.857C280.741 104.14 280.37 106.274 279.933 108.476L278.245 116.975L276.114 127.7L274.408 136.294C273.971 138.492 273.591 140.651 272.585 142.649C271.574 144.62 270.166 146.3 268.47 147.554L265.492 149.804L261.724 152.652C261.417 152.884 261.115 153.145 260.795 153.354C260.687 153.415 260.57 153.451 260.449 153.461C260.328 153.47 260.207 153.452 260.093 153.409L253.238 151.745L244.575 149.644L243.063 149.277C242.937 149.235 242.826 149.15 242.747 149.033C242.667 148.916 242.623 148.774 242.62 148.627C242.434 146.684 242.283 144.744 242.27 142.787C242.256 140.197 242.428 137.61 242.784 135.051C243.356 131.015 244.379 127.076 245.827 123.323L250.648 110.669L252.394 106.088L252.755 107.078L241.653 103.806C239.979 103.313 238.307 102.815 236.635 102.313L223.999 98.5406L209.854 94.3179C207.309 93.5582 204.743 92.8586 202.213 92.0368C202.176 92.0247 202.138 92.0143 202.1 92.0031C201.351 91.7794 201.669 90.4786 202.421 90.7032L202.421 90.7033Z" fill="black"/>
<path d="M243.677 103.008L249.246 104.534L258.12 106.965L260.154 107.522C260.908 107.728 260.589 109.029 259.833 108.822L254.264 107.296L245.389 104.865L243.356 104.308C242.602 104.101 242.921 102.801 243.677 103.008L243.677 103.008Z" fill="black"/>
<path d="M177.043 129.649C177.043 129.649 175.54 139.511 185.674 138.529C196.857 137.548 227.798 137.584 227.798 137.584C227.798 137.584 231.511 140.274 229.648 128.702C227.786 117.13 209.963 116.344 209.963 116.344" fill="black"/>
<path d="M177.625 129.829C177.598 130.01 177.635 129.692 177.628 129.8C177.618 129.925 177.603 130.05 177.594 130.175C177.564 130.609 177.56 131.044 177.58 131.479C177.586 131.61 177.594 131.741 177.604 131.871C177.61 131.944 177.617 132.016 177.624 132.088C177.627 132.121 177.631 132.154 177.634 132.187C177.651 132.358 177.613 132.034 177.636 132.207C177.677 132.513 177.727 132.817 177.795 133.118C177.866 133.439 177.955 133.754 178.061 134.062C178.074 134.098 178.087 134.134 178.1 134.171C178.163 134.345 178.069 134.093 178.111 134.199C178.143 134.28 178.176 134.361 178.211 134.441C178.282 134.604 178.358 134.764 178.441 134.92C178.758 135.523 179.175 136.054 179.67 136.484C180.322 137.024 181.066 137.41 181.857 137.617C183.731 138.148 185.661 137.839 187.562 137.712C191.384 137.455 195.213 137.337 199.04 137.236C203.442 137.12 207.843 137.041 212.246 136.999C215.896 136.958 219.547 136.931 223.198 136.918C224.313 136.914 225.429 136.912 226.545 136.911C226.959 136.91 227.384 136.88 227.797 136.91C227.921 136.923 228.04 136.965 228.148 137.032C228.232 137.077 228.427 137.131 228.191 137.065C228.284 137.091 228.378 137.134 228.47 137.164C228.603 137.209 228.565 137.169 228.474 137.172C228.534 137.17 228.602 137.176 228.661 137.181C228.838 137.194 228.577 137.23 228.696 137.18C228.754 137.155 228.824 137.135 228.884 137.117C228.671 137.183 228.873 137.105 228.947 137.06C229.058 136.991 228.878 137.135 228.926 137.078C228.956 137.042 228.991 137.007 229.024 136.973C229.052 136.943 229.075 136.907 229.101 136.875C228.973 137.035 229.08 136.908 229.107 136.854C229.16 136.75 229.212 136.648 229.26 136.54C229.298 136.453 229.206 136.701 229.253 136.557C229.263 136.528 229.274 136.5 229.283 136.47C229.302 136.408 229.322 136.346 229.339 136.283C229.383 136.123 229.419 135.961 229.448 135.797C229.478 135.642 229.5 135.484 229.513 135.326C229.534 135.095 229.55 134.863 229.558 134.631C229.576 134.054 229.567 133.477 229.532 132.901C229.455 131.405 229.273 129.917 228.989 128.452C228.605 126.596 227.761 124.898 226.552 123.554C224.117 120.788 220.689 119.295 217.375 118.332C215.924 117.913 214.453 117.586 212.969 117.353C212.89 117.34 212.811 117.328 212.732 117.316C212.706 117.312 212.612 117.298 212.738 117.317C212.704 117.312 212.671 117.307 212.637 117.302C212.492 117.281 212.346 117.26 212.201 117.241C211.943 117.206 211.684 117.174 211.426 117.145C211.064 117.105 210.703 117.07 210.34 117.043C210.214 117.034 210.088 117.025 209.962 117.019C209.188 116.984 209.184 115.636 209.962 115.671C211.349 115.751 212.73 115.924 214.098 116.19C216.97 116.672 219.773 117.576 222.433 118.878C225.193 120.275 227.857 122.381 229.283 125.45C230.209 127.444 230.467 129.704 230.666 131.912C230.81 133.515 230.951 135.375 230.417 136.916C230.129 137.748 229.589 138.444 228.753 138.522C228.331 138.554 227.91 138.442 227.546 138.201C227.528 138.189 227.51 138.179 227.494 138.167L227.798 138.259C225.715 138.256 223.631 138.261 221.548 138.274C216.816 138.296 212.084 138.343 207.352 138.414C202.248 138.494 197.143 138.6 192.042 138.82C190.051 138.906 188.061 139.007 186.074 139.17C183.733 139.363 181.189 139.326 179.189 137.752C176.944 135.985 176.102 132.769 176.419 129.816C176.431 129.701 176.444 129.585 176.461 129.471C176.59 128.617 177.753 128.979 177.625 129.829L177.625 129.829Z" fill="black"/>
<path d="M185.15 250.241V268.107L203.672 272.231L204.196 245.137" fill="#FC7272"/>
<path d="M185.754 250.241V268.107L185.311 267.457L191.583 268.854L201.539 271.07L203.833 271.58L203.069 272.23L203.246 263.074L203.528 248.483L203.593 245.137C203.61 244.27 204.817 244.267 204.8 245.137L204.623 254.293L204.34 268.884L204.276 272.23C204.274 272.333 204.251 272.435 204.21 272.527C204.168 272.619 204.108 272.699 204.034 272.761C203.961 272.824 203.876 272.867 203.785 272.888C203.695 272.908 203.601 272.906 203.512 272.88L197.239 271.484L187.284 269.268L184.99 268.757C184.863 268.717 184.751 268.632 184.671 268.515C184.591 268.398 184.548 268.255 184.547 268.107V250.241C184.547 249.374 185.754 249.373 185.754 250.241H185.754Z" fill="black"/>
<path d="M206.711 65.1024L206.388 47.1172L192.81 52.9908L192.386 64.7987" fill="#FC7272"/>
<path d="M206.108 65.1021L205.998 59.0028L205.825 49.3369L205.785 47.1166L206.548 47.7666L201.962 49.7506L194.651 52.9135L192.97 53.6405L193.413 52.9905L193.042 63.3413L192.989 64.7984C192.958 65.6629 191.751 65.6673 191.783 64.7984L192.154 54.4476L192.206 52.9905C192.211 52.8442 192.255 52.7029 192.335 52.5864C192.414 52.47 192.524 52.384 192.649 52.3406L197.236 50.3566L204.547 47.1937L206.228 46.4667C206.317 46.4402 206.411 46.437 206.502 46.4571C206.593 46.4773 206.678 46.5203 206.752 46.583C206.825 46.6457 206.885 46.7264 206.927 46.8189C206.968 46.9113 206.99 47.0132 206.991 47.1166L207.101 53.216L207.275 62.8819L207.315 65.1021C207.33 65.9699 206.123 65.9699 206.108 65.1021H206.108Z" fill="black"/>
<path d="M195.067 55.3854C193.869 55.6735 192.654 55.867 191.432 55.9645C191.057 55.9957 190.679 55.9575 190.314 55.8515C185.123 54.3396 183.045 48.8716 182.373 43.0661H181.877C180.243 43.3247 179.623 42.8756 179.812 41.7224C181.292 39.9058 181.915 38.8928 182.077 37.5808L182.117 36.7308C182.203 33.3294 182.551 29.9426 183.157 26.6078L209.221 25.5596C209.221 25.5596 212.606 31.8269 212.357 34.7133C211.929 39.684 207.618 43.2436 206.428 49.6522" fill="#FC7272"/>
<path d="M195.227 56.0349C194.405 56.2326 193.576 56.3827 192.741 56.4957C191.876 56.6128 191.011 56.7379 190.154 56.501C188.922 56.156 187.766 55.5374 186.753 54.6822C184.763 52.9985 183.492 50.5479 182.715 47.9332C182.262 46.3478 181.946 44.7179 181.769 43.0655L182.373 43.7395C181.375 43.7395 179.895 44.139 179.335 42.8865C179.214 42.6048 179.161 42.2934 179.178 41.9819C179.175 41.775 179.213 41.5698 179.29 41.3817C179.461 41.1155 179.654 40.8679 179.867 40.6424C180.361 40.0485 180.79 39.3898 181.143 38.6807C181.252 38.4434 181.338 38.1937 181.399 37.9358C181.435 37.79 181.463 37.6419 181.483 37.4921C181.46 37.6838 181.485 37.3228 181.487 37.281C181.526 36.4616 181.544 35.6414 181.589 34.8222C181.693 32.9174 181.883 31.0185 182.141 29.1322C182.264 28.2279 182.397 27.3216 182.574 26.428C182.611 26.2867 182.687 26.1622 182.792 26.0731C182.897 25.984 183.025 25.935 183.156 25.9332L191.961 25.5791L205.996 25.0147L209.221 24.885C209.326 24.8851 209.429 24.9159 209.521 24.9745C209.612 25.033 209.688 25.1173 209.742 25.2188C210.186 26.0422 210.593 26.8928 210.981 27.7503C211.738 29.317 212.334 30.974 212.758 32.6899C212.939 33.417 213.001 34.1747 212.94 34.9263C212.835 35.8829 212.614 36.8191 212.283 37.7093C211.601 39.5653 210.6 41.2348 209.671 42.9427C208.496 45.1045 207.483 47.3393 207.009 49.8307C206.848 50.6789 205.685 50.32 205.846 49.4724C206.301 47.2786 207.063 45.1787 208.104 43.2503C208.983 41.55 209.995 39.9313 210.779 38.171C211.398 36.7815 211.947 35.0954 211.697 33.5741C211.428 31.9429 210.799 30.3822 210.149 28.9016C209.702 27.8816 209.225 26.8723 208.699 25.8991L209.22 26.2329L200.416 26.587L186.38 27.1515L183.156 27.2812L183.738 26.7863C183.447 28.2575 183.25 29.7588 183.088 31.2536C182.919 32.8206 182.8 34.3949 182.743 35.972C182.71 36.8662 182.741 37.7859 182.466 38.64C182.022 40.0151 181.103 41.1336 180.238 42.1984L180.393 41.901C180.379 42.0051 180.377 42.1107 180.387 42.2154C180.384 42.1923 180.417 42.2913 180.431 42.3178C180.375 42.2088 180.496 42.3698 180.414 42.3042C180.447 42.3321 180.483 42.3558 180.52 42.375C180.454 42.3444 180.637 42.4141 180.634 42.4134C180.685 42.4283 180.737 42.4401 180.79 42.4488C181.318 42.4684 181.847 42.4493 182.373 42.3914C182.531 42.3966 182.682 42.4692 182.794 42.5945C182.906 42.7198 182.972 42.8883 182.976 43.0654C183.55 47.9521 185.349 53.3789 189.938 55.0267C190.283 55.1673 190.643 55.2578 191.009 55.2958C191.445 55.3028 191.88 55.2715 192.31 55.2022C193.182 55.0983 194.049 54.9424 194.906 54.7351C195.664 54.553 195.987 55.8523 195.227 56.035L195.227 56.0349Z" fill="black"/>
<path d="M197.866 43.3106C199.131 42.2657 201.015 38.176 201.078 35.7961C201.172 32.2004 199.476 31.2975 197.241 31.2234C195.006 31.1494 192.41 35.812 192.318 39.3165L192.157 31.7176C192.147 31.1648 192.034 30.6205 191.825 30.1196C191.615 29.6188 191.314 29.1724 190.941 28.8092C190.568 28.446 190.131 28.1741 189.658 28.011C189.185 27.8478 188.687 27.7969 188.195 27.8617L183.346 27.9553C182.87 27.9619 182.4 27.8318 181.983 27.5774C181.565 27.323 181.212 26.9529 180.959 26.5027C180.706 26.0524 180.561 25.537 180.537 25.006C180.514 24.475 180.613 23.9461 180.825 23.4702L181.224 22.5673C181.973 20.8685 183.119 19.4278 184.542 18.398C185.965 17.3682 187.61 16.7877 189.304 16.7182L202.389 16.1991C204.259 16.1269 206.115 16.5868 207.782 17.5358C209.45 18.4847 210.874 19.8916 211.92 21.6241L215.038 26.7687C215.038 26.7687 221.622 39.1345 206.439 54.1419C205.28 54.0824 199.49 53.6145 197.636 50.9215C195.782 48.2286 197.866 43.3106 197.866 43.3106Z" fill="#EA2F2F"/>
<path d="M197.561 42.7293C197.732 42.5562 197.893 42.3711 198.042 42.175C198.259 41.8801 198.458 41.5693 198.638 41.2446C199.066 40.4919 199.436 39.7002 199.744 38.8778C200.325 37.3323 200.736 35.6073 200.304 33.9463C199.974 32.6743 199.053 32.1072 197.927 31.9511C197.413 31.8224 196.875 31.8902 196.399 32.1435C195.797 32.5327 195.275 33.0582 194.866 33.6863C193.722 35.2994 193.044 37.2632 192.922 39.317C192.916 39.4917 192.85 39.6571 192.738 39.7785C192.625 39.8999 192.475 39.9678 192.318 39.9678C192.162 39.9678 192.011 39.8999 191.899 39.7785C191.786 39.6571 191.72 39.4917 191.715 39.317L191.617 34.703L191.563 32.1451C191.594 31.3099 191.38 30.4864 190.953 29.7998C190.601 29.2831 190.12 28.8947 189.57 28.6836C189.111 28.5337 188.631 28.484 188.155 28.537C187.49 28.5706 186.821 28.5628 186.156 28.5757L183.636 28.6242C182.693 28.6924 181.763 28.3465 181.045 27.6602C180.58 27.1852 180.242 26.5758 180.067 25.8994C179.893 25.223 179.889 24.5059 180.057 23.8273C180.209 23.3328 180.4 22.8545 180.628 22.398C180.885 21.8052 181.186 21.2377 181.528 20.7017C182.368 19.4062 183.445 18.3249 184.687 17.5293C185.929 16.7337 187.309 16.2421 188.734 16.0869C189.749 15.9771 190.782 15.9862 191.8 15.9458L197.304 15.7275L201.801 15.5491C203.696 15.4243 205.592 15.7738 207.35 16.5721C209.531 17.6538 211.381 19.4243 212.672 21.6657L215.405 26.1756C216.18 27.4542 216.566 29.0951 216.804 30.5928C217.466 34.7492 216.755 38.9784 215.186 42.7857C213.958 45.6609 212.356 48.3175 210.432 50.6694C209.849 51.4008 209.245 52.1095 208.618 52.7954C208.303 53.1416 207.983 53.4824 207.659 53.8178C207.339 54.1485 206.901 54.795 206.439 54.8165C205.71 54.8091 204.983 54.7323 204.266 54.5869C202.067 54.2579 199.634 53.7202 197.862 52.1304C195.9 50.3694 196.068 47.3049 196.714 44.8621C196.881 44.2148 197.092 43.5827 197.345 42.9712C197.675 42.1868 198.716 42.8704 198.387 43.6516C198.365 43.7028 198.345 43.7548 198.325 43.8067C198.264 43.962 198.368 43.6797 198.299 43.8749C198.262 43.981 198.223 44.0865 198.187 44.1931C198.014 44.7045 197.867 45.2267 197.747 45.757C197.454 47.0539 197.279 48.556 197.757 49.827C198.179 50.9507 199.177 51.6163 200.14 52.073C201.281 52.5822 202.472 52.9397 203.688 53.1381C204.598 53.3087 205.517 53.4191 206.439 53.4685L206.013 53.6659C209.672 50.0376 213.035 45.6911 214.739 40.4927C215.311 38.7824 215.671 36.9926 215.808 35.1732C215.86 34.412 215.869 33.6478 215.834 32.8853C215.818 32.5474 215.794 32.2103 215.761 31.8738C215.754 31.8013 215.746 31.7288 215.738 31.6564C215.734 31.6156 215.729 31.5747 215.724 31.534C215.74 31.6642 215.727 31.5579 215.724 31.5322C215.704 31.3761 215.682 31.2201 215.658 31.0645C215.512 30.0886 215.282 29.1309 214.969 28.205C214.942 28.1259 214.914 28.0473 214.886 27.9686C214.874 27.9344 214.861 27.9005 214.848 27.8662C214.826 27.8023 214.91 28.021 214.852 27.877C214.804 27.7556 214.756 27.6337 214.705 27.5137C214.65 27.3858 214.595 27.2553 214.529 27.1334C214.071 26.2784 213.523 25.4695 213.023 24.6443C212.339 23.515 211.698 22.3132 210.93 21.2508C209.406 19.14 207.279 17.6782 204.905 17.1103C203.774 16.8858 202.622 16.8185 201.476 16.9101L192.928 17.2491L189.66 17.3787C188.144 17.4032 186.657 17.8412 185.327 18.6546C184.335 19.2836 183.46 20.1199 182.75 21.1179C182.212 21.9275 181.755 22.8002 181.386 23.7205C181.204 24.1032 181.118 24.5332 181.135 24.9658C181.152 25.3985 181.273 25.8181 181.484 26.1811C181.696 26.5442 181.99 26.8375 182.337 27.0307C182.684 27.2239 183.071 27.3098 183.458 27.2797C184.794 27.2581 186.13 27.2281 187.466 27.2023C188.006 27.1594 188.547 27.1566 189.087 27.1939C189.648 27.2685 190.19 27.4698 190.68 27.7855C191.169 28.1012 191.596 28.5247 191.935 29.0303C192.795 30.3049 192.762 31.7777 192.794 33.2806L192.9 38.2874L192.921 39.3173H191.715C191.829 37.166 192.484 35.0944 193.605 33.3407C194.513 31.89 195.802 30.4519 197.503 30.5631C198.95 30.6576 200.44 31.1898 201.155 32.7162C201.982 34.4807 201.745 36.6428 201.177 38.4515C200.824 39.5804 200.366 40.6651 199.812 41.6879C199.392 42.5308 198.835 43.2789 198.17 43.8937C198.032 43.9827 197.868 44.0072 197.713 43.962C197.559 43.9167 197.426 43.8053 197.345 43.6519C197.268 43.4965 197.247 43.3139 197.287 43.1421C197.328 42.9702 197.426 42.8224 197.561 42.7293Z" fill="black"/>
<path d="M194.081 39.5328C194.248 38.9171 194.449 38.3136 194.683 37.7258C195.037 36.813 195.486 35.8147 196.195 35.1808C196.405 34.9704 196.656 34.8185 196.929 34.7374C197.202 34.6562 197.488 34.6482 197.764 34.7139C197.917 34.7628 198.047 34.8771 198.126 35.0321C198.205 35.1872 198.226 35.3707 198.185 35.543C198.14 35.7133 198.037 35.8575 197.899 35.9452C197.76 36.033 197.597 36.0575 197.443 36.0138C197.425 36.009 197.404 36.006 197.387 35.9997C197.304 35.9697 197.453 36.0151 197.463 36.0099C197.426 36.0134 197.389 36.0116 197.353 36.0045C197.335 36.0048 197.316 36.0082 197.298 36.0073C197.213 36.0031 197.369 35.9997 197.377 35.9939C197.334 36.0109 197.289 36.0225 197.243 36.0285C197.226 36.0343 197.208 36.0432 197.19 36.048C197.107 36.0704 197.249 36.024 197.256 36.015C197.239 36.0386 197.177 36.0569 197.152 36.0719C197.118 36.0929 197.084 36.1158 197.051 36.1399C197.034 36.1522 197.017 36.1655 197.001 36.1778C196.924 36.234 196.982 36.2402 197.024 36.1559C196.99 36.2244 196.882 36.2931 196.831 36.3505C196.762 36.4276 196.697 36.5089 196.635 36.5927C196.621 36.6107 196.582 36.648 196.579 36.6699C196.58 36.6645 196.668 36.5338 196.607 36.6293C196.578 36.6737 196.549 36.7173 196.52 36.7621C196.459 36.8595 196.4 36.9589 196.344 37.0603C196.121 37.4678 195.924 37.8925 195.755 38.3312C195.732 38.3793 195.713 38.4294 195.697 38.481C195.737 38.2982 195.71 38.4464 195.689 38.5033C195.651 38.6078 195.613 38.7128 195.577 38.8182C195.518 38.9896 195.461 39.1622 195.407 39.3358C195.35 39.5195 195.294 39.7045 195.245 39.8915C195.224 39.9772 195.189 40.0574 195.14 40.1277C195.091 40.1979 195.031 40.2567 194.962 40.3007C194.893 40.3447 194.816 40.373 194.738 40.384C194.659 40.3951 194.579 40.3886 194.502 40.365C194.425 40.3414 194.354 40.3012 194.291 40.2465C194.228 40.1919 194.176 40.124 194.137 40.0467C194.098 39.9694 194.073 39.8842 194.063 39.7961C194.054 39.708 194.06 39.6186 194.081 39.5331L194.081 39.5328Z" fill="black"/>
<path d="M184.021 33.1089C184.546 32.7306 185.129 32.4667 185.742 32.3309C187.094 32.0067 188.505 32.2521 189.705 33.0198C190.383 33.4433 189.775 34.608 189.096 34.1838C188.141 33.5748 187.016 33.3883 185.944 33.6613C185.747 33.7149 185.553 33.7813 185.362 33.8602C185.317 33.8791 185.272 33.9002 185.226 33.9191C185.117 33.9642 185.288 33.8868 185.224 33.9199C185.157 33.9544 185.09 33.9877 185.024 34.0241C184.887 34.0965 184.756 34.1796 184.63 34.2729C184.491 34.3614 184.327 34.3857 184.173 34.3405C184.018 34.2952 183.886 34.1841 183.804 34.031C183.727 33.8759 183.706 33.6932 183.746 33.5212C183.787 33.3493 183.885 33.2015 184.021 33.1089H184.021Z" fill="black"/>
<path d="M186.099 38.1437C185.595 38.1437 185.187 37.6846 185.187 37.1183C185.187 36.552 185.595 36.0929 186.099 36.0929C186.603 36.0929 187.012 36.552 187.012 37.1183C187.012 37.6846 186.603 38.1437 186.099 38.1437Z" fill="black"/>
<path d="M187.313 37.1027C187.314 37.3825 187.238 37.6559 187.096 37.8867C186.955 38.1175 186.754 38.2948 186.52 38.3952C186.289 38.4908 186.038 38.5056 185.8 38.4376C185.562 38.3697 185.347 38.2223 185.186 38.0151C185.056 37.8507 184.964 37.6537 184.917 37.4408C184.87 37.2278 184.869 37.0054 184.916 36.7924C184.963 36.5794 185.055 36.3822 185.185 36.2176C185.315 36.0531 185.478 35.9261 185.661 35.8475C185.845 35.7689 186.042 35.741 186.237 35.7662C186.432 35.7915 186.619 35.8691 186.781 35.9924C186.944 36.1158 187.077 36.2812 187.17 36.4745C187.262 36.6679 187.312 36.8834 187.313 37.1027C187.313 37.1918 187.281 37.2771 187.224 37.3402C187.168 37.4032 187.092 37.4389 187.012 37.4397C186.932 37.438 186.856 37.4019 186.8 37.3391C186.744 37.2762 186.712 37.1915 186.71 37.1027C186.709 37.0742 186.706 37.0456 186.706 37.0172C186.707 37.0834 186.71 37.0425 186.706 37.0234C186.697 36.9783 186.689 36.9337 186.676 36.8897C186.672 36.8765 186.641 36.7938 186.671 36.8689C186.665 36.8525 186.658 36.8362 186.651 36.8204C186.628 36.7729 186.603 36.7271 186.575 36.6835C186.612 36.7424 186.582 36.693 186.57 36.679C186.556 36.6629 186.544 36.646 186.53 36.6304C186.515 36.6137 186.423 36.5333 186.482 36.5794C186.45 36.5535 186.416 36.5297 186.381 36.508C186.367 36.4994 186.353 36.492 186.339 36.4837C186.288 36.4537 186.383 36.495 186.31 36.4721C186.271 36.4597 186.232 36.4459 186.192 36.4372C186.173 36.4332 186.12 36.431 186.186 36.4353C186.165 36.434 186.144 36.4319 186.123 36.4312C186.102 36.4306 186.081 36.4307 186.059 36.4317C186.059 36.4317 185.976 36.4384 186.024 36.4333C186.072 36.4282 185.993 36.4402 185.991 36.4407C185.967 36.4465 185.943 36.4532 185.919 36.461C185.896 36.4688 185.873 36.4781 185.85 36.4875C185.861 36.4832 185.905 36.4572 185.856 36.4859C185.82 36.5067 185.785 36.5275 185.752 36.552C185.75 36.553 185.688 36.6049 185.724 36.5726C185.76 36.5403 185.701 36.5965 185.7 36.5974C185.665 36.6336 185.632 36.6725 185.602 36.7138C185.642 36.6605 185.614 36.6966 185.607 36.7099C185.594 36.7328 185.581 36.7546 185.569 36.7779C185.561 36.7934 185.553 36.8091 185.546 36.8251C185.54 36.839 185.514 36.9197 185.537 36.8434C185.523 36.8862 185.511 36.9297 185.502 36.9739C185.498 36.9919 185.495 37.01 185.492 37.028C185.48 37.0947 185.494 36.9742 185.49 37.0638C185.488 37.1069 185.49 37.1494 185.491 37.1924C185.491 37.2832 185.476 37.1265 185.492 37.2144C185.496 37.2326 185.499 37.2508 185.503 37.2688C185.512 37.3131 185.525 37.3567 185.539 37.3995C185.514 37.3233 185.542 37.4044 185.548 37.4178C185.559 37.4417 185.571 37.4651 185.583 37.488C185.595 37.506 185.606 37.5246 185.616 37.5438C185.635 37.5867 185.571 37.4906 185.62 37.5493C185.648 37.5818 185.674 37.6145 185.703 37.6445C185.705 37.6457 185.765 37.7002 185.728 37.669C185.691 37.6378 185.755 37.6883 185.756 37.6892C185.796 37.7183 185.838 37.7439 185.882 37.7659C185.871 37.7605 185.825 37.7439 185.877 37.762C185.9 37.77 185.923 37.779 185.947 37.786C185.962 37.7907 185.978 37.7948 185.994 37.7986C185.997 37.7992 186.075 37.8095 186.028 37.8055C185.979 37.8015 186.062 37.8066 186.063 37.8067C186.084 37.8076 186.105 37.8076 186.126 37.8069C186.148 37.8062 186.168 37.8041 186.19 37.8025C186.118 37.808 186.191 37.8016 186.208 37.7975C186.256 37.7857 186.303 37.7701 186.348 37.7508C186.287 37.7758 186.338 37.756 186.353 37.7464C186.378 37.7311 186.403 37.7172 186.427 37.7006C186.44 37.6912 186.453 37.6807 186.467 37.6712C186.494 37.6491 186.492 37.6505 186.463 37.6757C186.475 37.6644 186.487 37.6528 186.499 37.641C186.528 37.6109 186.554 37.578 186.581 37.5452C186.633 37.4823 186.553 37.602 186.592 37.5286C186.604 37.5056 186.618 37.4839 186.63 37.4606C186.642 37.4373 186.652 37.413 186.663 37.3891C186.692 37.3274 186.651 37.4428 186.67 37.3696C186.683 37.3162 186.697 37.2647 186.707 37.2104C186.711 37.1901 186.706 37.152 186.706 37.2169C186.706 37.1791 186.71 37.1412 186.71 37.1032C186.71 37.0587 186.717 37.0145 186.732 36.9732C186.747 36.9319 186.769 36.8944 186.797 36.8627C186.825 36.831 186.859 36.8059 186.896 36.7888C186.932 36.7716 186.972 36.7628 187.012 36.7628C187.052 36.7628 187.091 36.7716 187.128 36.7888C187.165 36.8059 187.198 36.831 187.226 36.8627C187.254 36.8944 187.276 36.9319 187.291 36.9732C187.306 37.0145 187.314 37.0587 187.313 37.1032L187.313 37.1027Z" fill="black"/>
<path d="M202.345 16.1876L178.596 16.6477C178.596 16.6477 173.137 28.7897 188.26 30.6826C189.832 30.878 191.423 30.6566 192.904 30.0364C194.384 29.4162 195.713 28.4147 196.782 27.1132L198.013 25.6186" fill="#EA2F2F"/>
<path d="M202.345 16.862L194.282 17.0181L181.528 17.2652L178.596 17.3219L179.117 16.9881C179.097 17.0348 179.075 17.0824 179.057 17.1309C179.038 17.1858 179.015 17.2405 178.993 17.2941C178.976 17.3353 179.063 17.0984 179.012 17.2461C178.997 17.2893 178.981 17.332 178.965 17.3751C178.8 17.8442 178.66 18.3243 178.548 18.8126C178.475 19.1284 178.413 19.4471 178.363 19.7688C178.351 19.8453 178.34 19.9219 178.329 19.9985C178.323 20.0453 178.317 20.0921 178.311 20.139C178.336 19.9466 178.314 20.1129 178.31 20.1501C178.291 20.3379 178.273 20.5256 178.262 20.7142C178.237 21.1014 178.234 21.4898 178.251 21.8774C178.26 22.0746 178.276 22.2707 178.296 22.4669C178.313 22.6436 178.282 22.3664 178.296 22.4773C178.302 22.5226 178.308 22.568 178.314 22.6131C178.332 22.7316 178.35 22.8499 178.372 22.9676C178.506 23.8037 178.791 24.6008 179.208 25.3105C179.701 26.1439 180.332 26.8641 181.068 27.4318C182.085 28.194 183.203 28.7734 184.381 29.1488C185.997 29.7249 187.678 30.0381 189.374 30.0786C191.4 30.0716 193.371 29.3452 195.003 28.0043C195.982 27.203 196.768 26.1356 197.586 25.1424C198.113 24.5024 198.965 25.4576 198.439 26.0956C197.727 27.0354 196.953 27.9152 196.124 28.7279C194.617 30.101 192.805 30.9906 190.88 31.3015C188.999 31.5945 187.077 31.2739 185.238 30.7977C183.83 30.4563 182.474 29.8915 181.21 29.1207C179.436 28.0001 178.001 26.2892 177.385 24.0933C176.959 22.4382 176.919 20.6894 177.267 19.012C177.432 18.0758 177.704 17.167 178.075 16.3078C178.128 16.206 178.204 16.1215 178.296 16.0629C178.387 16.0043 178.491 15.9736 178.596 15.974L186.659 15.8178L199.413 15.5707L202.345 15.5139C203.121 15.4989 203.122 16.8469 202.345 16.862L202.345 16.862Z" fill="black"/>
<path d="M199.427 42.3493C198.91 43.2821 198.156 44.0226 197.262 44.4768C196.368 44.931 195.374 45.0786 194.405 44.9008C194.251 44.8523 194.12 44.7381 194.041 44.5829C193.963 44.4277 193.942 44.244 193.983 44.0716C194.029 43.9019 194.132 43.7585 194.27 43.6709C194.408 43.5834 194.571 43.5584 194.725 43.6011C194.649 43.5894 194.866 43.6145 194.89 43.6164C194.973 43.6232 195.057 43.6274 195.14 43.6291C195.3 43.6321 195.459 43.6251 195.618 43.6083C195.656 43.6042 195.694 43.5996 195.732 43.5944C195.666 43.6044 195.668 43.6034 195.74 43.5914C195.812 43.5758 195.885 43.5624 195.957 43.5446C196.078 43.5145 196.198 43.4784 196.317 43.4361C196.382 43.4127 196.447 43.3876 196.512 43.3607C196.543 43.3474 196.575 43.3338 196.606 43.3197C196.539 43.3521 196.537 43.353 196.6 43.3225C196.717 43.2623 196.833 43.2001 196.945 43.1303C197.052 43.0641 197.156 42.9931 197.258 42.9174C197.307 42.8812 197.355 42.844 197.403 42.8058C197.416 42.7949 197.554 42.6782 197.478 42.7448C197.401 42.8114 197.532 42.6946 197.545 42.6828C197.585 42.6452 197.625 42.607 197.665 42.568C197.739 42.4952 197.81 42.4201 197.88 42.3426C197.993 42.2168 198.101 42.0852 198.204 41.9478C198.223 41.9223 198.241 41.8964 198.26 41.871C198.348 41.7515 198.182 41.991 198.234 41.9085C198.261 41.8655 198.291 41.8241 198.318 41.781C198.341 41.7443 198.364 41.7073 198.384 41.6691C198.424 41.5927 198.478 41.5258 198.541 41.4723C198.604 41.4188 198.676 41.3797 198.752 41.3572C198.829 41.3348 198.909 41.3294 198.987 41.3415C199.066 41.3535 199.142 41.3827 199.21 41.4273C199.278 41.472 199.338 41.5313 199.386 41.6018C199.434 41.6723 199.469 41.7527 199.489 41.8384C199.509 41.924 199.514 42.0132 199.503 42.1009C199.493 42.1886 199.466 42.2731 199.426 42.3495L199.427 42.3493Z" fill="black"/>
<path d="M204.729 266.387L204.655 286.169H165.563C165.563 286.169 164.897 273.697 179.494 272.382C180.811 272.253 182.036 271.572 182.922 270.476C183.808 269.38 184.29 267.949 184.271 266.473C184.263 265.605 184.255 264.902 184.246 264.335C184.241 264.034 184.289 263.734 184.389 263.454C184.488 263.174 184.637 262.919 184.825 262.704C185.014 262.488 185.239 262.317 185.488 262.2C185.736 262.083 186.003 262.022 186.273 262.021H187.946L192.397 265.107C193.524 265.889 194.826 266.3 196.152 266.292C197.479 266.285 198.777 265.86 199.897 265.065L201.165 264.167C201.518 263.918 201.925 263.78 202.342 263.767C202.76 263.755 203.172 263.868 203.537 264.095C203.902 264.322 204.205 264.655 204.415 265.059C204.625 265.462 204.733 265.921 204.729 266.387Z" fill="#389B48"/>
<path d="M205.333 266.388L205.308 273.086L205.268 283.716L205.259 286.17C205.256 286.348 205.192 286.517 205.079 286.643C204.967 286.769 204.814 286.841 204.655 286.844H170.39C168.807 286.844 167.211 286.911 165.628 286.844C165.607 286.843 165.585 286.844 165.563 286.844C165.404 286.84 165.252 286.768 165.14 286.642C165.027 286.517 164.963 286.347 164.96 286.17C164.92 284.436 165.212 282.712 165.818 281.115C167.164 277.364 169.884 274.687 173.219 273.216C174.377 272.714 175.576 272.34 176.798 272.098C177.53 271.949 178.268 271.838 179.008 271.756C179.666 271.722 180.314 271.566 180.925 271.293C181.49 271.008 181.998 270.6 182.419 270.093C182.841 269.586 183.168 268.99 183.382 268.341C183.594 267.637 183.689 266.896 183.664 266.155C183.657 265.353 183.559 264.482 183.699 263.691C183.833 263.014 184.174 262.411 184.662 261.983C185.15 261.556 185.756 261.331 186.376 261.347C186.798 261.345 187.219 261.347 187.64 261.347C187.874 261.322 188.109 261.371 188.319 261.487C189.673 262.344 190.973 263.327 192.296 264.243C193.069 264.819 193.928 265.236 194.833 265.475C196.344 265.819 197.916 265.545 199.261 264.704C199.968 264.262 200.608 263.644 201.362 263.308C201.951 263.06 202.596 263.029 203.201 263.221C203.806 263.413 204.34 263.818 204.724 264.375C205.118 264.954 205.332 265.66 205.333 266.388C205.346 267.255 204.139 267.256 204.126 266.388C204.124 266.038 204.038 265.695 203.877 265.396C203.716 265.097 203.485 264.851 203.209 264.686C202.934 264.521 202.623 264.442 202.311 264.457C201.998 264.473 201.695 264.582 201.434 264.774C200.28 265.568 199.201 266.398 197.851 266.744C195.881 267.244 193.815 266.865 192.091 265.688C191.412 265.225 190.739 264.75 190.063 264.282L187.641 262.603L187.946 262.695C186.997 262.695 185.622 262.394 185.049 263.478C184.882 263.845 184.814 264.259 184.854 264.668C184.862 265.216 184.869 265.764 184.873 266.312C184.889 267.357 184.697 268.393 184.309 269.344C183.938 270.227 183.394 271.005 182.717 271.622C182.04 272.238 181.248 272.676 180.399 272.903C179.471 273.142 178.496 273.143 177.555 273.314C176.694 273.468 175.842 273.682 175.005 273.955C172.575 274.755 170.328 276.148 168.686 278.313C167.587 279.778 166.818 281.516 166.443 283.381C166.36 283.776 166.297 284.175 166.243 284.576C166.224 284.719 166.261 284.407 166.246 284.548C166.241 284.597 166.236 284.645 166.231 284.694C166.223 284.764 166.217 284.833 166.21 284.903C166.198 285.047 166.187 285.191 166.179 285.336C166.16 285.613 166.156 285.892 166.167 286.17L165.563 285.496H203.059C203.569 285.466 204.08 285.466 204.59 285.496C204.612 285.497 204.634 285.497 204.655 285.496L204.052 286.17L204.077 279.471L204.117 268.841L204.126 266.388C204.129 265.52 205.336 265.519 205.333 266.388Z" fill="black"/>
<path d="M217.94 119.995C217.94 119.995 226.382 121.819 227.356 127.291C228.33 132.764 215.992 134.04 215.992 134.04" fill="black"/>
<path d="M218.101 119.345C219.498 119.669 220.86 120.157 222.164 120.8C224.31 121.828 226.596 123.392 227.575 125.873C227.978 126.892 228.183 128.043 227.815 129.113C227.44 130.084 226.812 130.905 226.012 131.47C224.311 132.794 222.18 133.458 220.179 133.955C218.799 134.306 217.401 134.559 215.992 134.714C215.833 134.713 215.68 134.642 215.567 134.515C215.454 134.389 215.39 134.219 215.389 134.04C215.392 133.863 215.457 133.693 215.569 133.568C215.682 133.442 215.833 133.37 215.992 133.366C216.299 133.334 216.604 133.291 216.908 133.245C216.72 133.273 216.957 133.238 217 133.231C217.076 133.219 217.152 133.207 217.228 133.194C217.414 133.164 217.599 133.132 217.785 133.098C218.196 133.024 218.606 132.942 219.016 132.852C220.925 132.433 222.892 131.88 224.577 130.868C224.769 130.753 224.957 130.631 225.141 130.501C225.306 130.383 225.55 130.192 225.624 130.126C225.776 129.99 225.921 129.845 226.059 129.69C226.124 129.616 226.188 129.54 226.249 129.461C226.285 129.414 226.321 129.367 226.354 129.319C226.281 129.425 226.375 129.285 226.389 129.262C226.494 129.093 226.585 128.914 226.662 128.727C226.704 128.624 226.616 128.875 226.67 128.701C226.687 128.647 226.705 128.593 226.72 128.538C226.748 128.436 226.769 128.334 226.787 128.23C226.794 128.193 226.806 128.063 226.792 128.207C226.798 128.149 226.802 128.09 226.805 128.031C226.809 127.93 226.809 127.83 226.803 127.729C226.801 127.688 226.798 127.647 226.795 127.606C226.778 127.402 226.82 127.739 226.785 127.534C226.758 127.369 226.723 127.205 226.682 127.044C226.08 124.702 223.988 123.223 222.121 122.247C220.737 121.519 219.28 120.981 217.78 120.645C217.019 120.48 217.341 119.18 218.101 119.345L218.101 119.345Z" fill="black"/>
<path d="M235.201 240.407L243.721 255.493L261.326 247.824L248.849 224.631" fill="#FC7272"/>
<path d="M235.722 240.067L238.599 245.16L243.186 253.282L244.242 255.152L243.56 254.842L249.523 252.245L258.985 248.123L261.165 247.173L260.805 248.164L256.589 240.326L249.869 227.836L248.328 224.971C247.927 224.226 248.97 223.547 249.37 224.291L253.586 232.129L260.306 244.619L261.847 247.483C261.892 247.573 261.918 247.673 261.924 247.775C261.929 247.877 261.914 247.98 261.88 248.075C261.845 248.17 261.792 248.255 261.724 248.324C261.655 248.393 261.574 248.444 261.486 248.473L255.524 251.071L246.061 255.192L243.881 256.142C243.753 256.181 243.617 256.171 243.494 256.115C243.371 256.059 243.267 255.96 243.2 255.832L240.323 250.739L235.736 242.617L234.68 240.747C234.265 240.011 235.309 239.334 235.722 240.067L235.722 240.067Z" fill="black"/>
<path d="M259.432 242.254L268.803 259.002L235.795 282.535C235.795 282.535 229.285 272.405 240.983 262.507C242.034 261.607 242.743 260.298 242.968 258.84C243.193 257.382 242.918 255.883 242.198 254.642C241.778 253.914 241.436 253.326 241.158 252.852C241.01 252.599 240.909 252.316 240.859 252.02C240.81 251.723 240.814 251.418 240.87 251.123C240.927 250.828 241.035 250.549 241.189 250.3C241.343 250.052 241.539 249.841 241.766 249.678L243.179 248.671L248.408 248.597C249.737 248.576 251.033 248.139 252.15 247.334C253.266 246.529 254.157 245.39 254.722 244.047L255.364 242.526C255.54 242.103 255.816 241.742 256.161 241.48C256.507 241.218 256.909 241.065 257.326 241.037C257.742 241.009 258.158 241.108 258.529 241.322C258.9 241.536 259.212 241.858 259.432 242.254Z" fill="#389B48"/>
<path d="M259.954 241.914L263.122 247.577L268.17 256.599L269.324 258.662C269.402 258.817 269.423 259 269.383 259.172C269.342 259.344 269.244 259.492 269.108 259.584L265.816 261.931L257.914 267.564L248.426 274.329L240.165 280.218C238.834 281.167 237.526 282.201 236.155 283.078C236.136 283.09 236.118 283.104 236.1 283.117C235.961 283.203 235.797 283.226 235.643 283.181C235.49 283.136 235.357 283.027 235.274 282.875C234.161 281.137 233.597 278.833 233.43 276.737C233.018 271.573 235.53 266.93 238.868 263.583C239.933 262.515 241.243 261.691 241.925 260.236C242.463 259.063 242.585 257.708 242.268 256.439C242.059 255.721 241.752 255.043 241.358 254.429C241.002 253.814 240.55 253.196 240.345 252.493C240.172 251.855 240.194 251.172 240.407 250.55C240.619 249.928 241.011 249.402 241.519 249.055C241.828 248.831 242.14 248.613 242.45 248.392C242.665 248.19 242.922 248.054 243.198 247.997C243.733 247.956 244.279 247.981 244.816 247.974C246.193 247.954 247.603 248.033 248.976 247.889C250.226 247.75 251.412 247.203 252.386 246.316C253.208 245.54 253.863 244.567 254.302 243.468C254.642 242.662 254.926 241.74 255.555 241.15C255.875 240.841 256.252 240.614 256.659 240.483C257.066 240.353 257.494 240.323 257.912 240.396C258.331 240.469 258.73 240.642 259.083 240.904C259.435 241.166 259.732 241.511 259.954 241.914C260.38 242.643 259.335 243.319 258.912 242.594C258.135 241.264 256.474 241.53 255.877 242.885C255.279 244.243 254.775 245.576 253.809 246.684C252.493 248.179 250.736 249.091 248.863 249.248C247.974 249.325 247.069 249.29 246.177 249.302L243.179 249.345L243.484 249.253L242.467 249.978C242.082 250.252 241.708 250.5 241.529 251.002C241.234 251.828 241.657 252.47 242.045 253.137C242.557 253.925 242.984 254.778 243.317 255.678C243.826 257.326 243.734 259.131 243.062 260.704C242.292 262.527 240.695 263.519 239.418 264.846C237.267 267.08 235.477 269.842 234.836 273.09C234.431 275.166 234.528 277.324 235.117 279.343C235.305 280.056 235.563 280.744 235.886 281.393C236.014 281.671 236.158 281.938 236.316 282.195L235.491 281.953L238.782 279.606L246.684 273.973L256.173 267.208L264.433 261.319L267.154 259.378C267.576 259.078 267.996 258.711 268.443 258.459C268.462 258.449 268.48 258.433 268.498 258.42L268.282 259.342L265.113 253.678L260.066 244.657L258.912 242.594C258.499 241.857 259.543 241.179 259.954 241.914Z" fill="black"/>
<path d="M242.909 258.448C243.204 258.433 243.5 258.46 243.788 258.528C244.373 258.642 244.925 258.907 245.401 259.303C245.79 259.63 246.123 260.032 246.384 260.49C246.464 260.645 246.486 260.828 246.445 261.001C246.405 261.173 246.305 261.321 246.168 261.412C246.029 261.499 245.865 261.522 245.711 261.477C245.558 261.432 245.425 261.322 245.342 261.17C245.309 261.113 245.276 261.057 245.241 261.001C245.224 260.974 245.206 260.947 245.189 260.921C245.239 260.992 245.244 260.999 245.203 260.942C245.131 260.847 245.058 260.753 244.979 260.665C244.904 260.581 244.825 260.505 244.745 260.428C244.694 260.383 244.705 260.392 244.777 260.454C244.757 260.437 244.737 260.421 244.717 260.404C244.687 260.38 244.656 260.357 244.626 260.334C244.47 260.22 244.307 260.12 244.138 260.035C244.04 259.984 244.284 260.099 244.132 260.033C244.093 260.017 244.054 260.001 244.014 259.985C243.943 259.958 243.872 259.933 243.799 259.911C243.666 259.87 243.531 259.84 243.394 259.814C243.253 259.787 243.536 259.831 243.439 259.82C243.41 259.817 243.382 259.813 243.353 259.809C243.305 259.804 243.256 259.8 243.208 259.797C243.109 259.789 243.009 259.788 242.91 259.796C242.75 259.795 242.597 259.724 242.484 259.597C242.371 259.471 242.307 259.3 242.306 259.122C242.31 258.944 242.375 258.775 242.487 258.65C242.6 258.524 242.751 258.452 242.91 258.448L242.909 258.448Z" fill="black"/>
<path d="M241.475 261.319C241.77 261.305 242.065 261.332 242.354 261.399C242.939 261.513 243.491 261.778 243.967 262.174C244.356 262.501 244.689 262.903 244.95 263.361C245.029 263.516 245.051 263.699 245.011 263.872C244.97 264.044 244.871 264.192 244.733 264.283C244.595 264.37 244.431 264.393 244.277 264.348C244.123 264.303 243.991 264.193 243.908 264.042C243.875 263.984 243.842 263.928 243.807 263.872C243.79 263.845 243.772 263.819 243.754 263.792C243.805 263.863 243.809 263.871 243.769 263.813C243.696 263.718 243.624 263.624 243.545 263.536C243.47 263.452 243.391 263.376 243.311 263.299C243.26 263.254 243.271 263.263 243.343 263.325C243.323 263.309 243.303 263.292 243.283 263.276C243.253 263.251 243.222 263.228 243.191 263.205C243.036 263.091 242.873 262.991 242.704 262.906C242.606 262.856 242.85 262.97 242.698 262.905C242.659 262.888 242.619 262.872 242.58 262.857C242.509 262.829 242.437 262.805 242.365 262.782C242.232 262.741 242.097 262.711 241.96 262.685C241.819 262.659 242.102 262.703 242.005 262.692C241.976 262.688 241.947 262.684 241.919 262.681C241.871 262.676 241.822 262.671 241.774 262.668C241.675 262.66 241.575 262.66 241.475 262.667C241.316 262.666 241.163 262.595 241.05 262.469C240.937 262.343 240.873 262.172 240.872 261.993C240.876 261.816 240.941 261.647 241.053 261.521C241.165 261.396 241.317 261.323 241.475 261.319L241.475 261.319Z" fill="black"/>
<path d="M239.28 263.676C239.575 263.662 239.871 263.689 240.159 263.757C240.744 263.87 241.296 264.136 241.772 264.532C242.161 264.858 242.494 265.261 242.755 265.719C242.835 265.873 242.856 266.057 242.816 266.229C242.775 266.402 242.676 266.55 242.539 266.641C242.4 266.727 242.236 266.75 242.082 266.705C241.928 266.66 241.796 266.551 241.713 266.399C241.68 266.342 241.647 266.285 241.612 266.23C241.595 266.203 241.577 266.176 241.56 266.15C241.61 266.221 241.614 266.228 241.574 266.171C241.501 266.075 241.429 265.982 241.35 265.893C241.275 265.81 241.196 265.734 241.116 265.657C241.065 265.612 241.076 265.62 241.148 265.683C241.128 265.666 241.108 265.649 241.088 265.633C241.058 265.609 241.027 265.585 240.997 265.563C240.841 265.449 240.678 265.349 240.509 265.264C240.411 265.213 240.655 265.328 240.503 265.262C240.464 265.245 240.424 265.229 240.385 265.214C240.314 265.187 240.243 265.162 240.17 265.14C240.037 265.099 239.902 265.069 239.765 265.043C239.624 265.016 239.907 265.06 239.81 265.049C239.781 265.046 239.753 265.042 239.724 265.038C239.676 265.033 239.628 265.029 239.579 265.026C239.48 265.018 239.38 265.017 239.281 265.025C239.121 265.024 238.968 264.953 238.855 264.826C238.742 264.7 238.678 264.529 238.677 264.351C238.681 264.173 238.746 264.004 238.858 263.879C238.971 263.753 239.122 263.681 239.281 263.677L239.28 263.676Z" fill="black"/>
<path d="M234.212 278.118C234.479 279.691 235.017 281.191 235.795 282.535L268.803 259.002L267.339 256.318L267.357 256.305L264.739 251.669C264.739 251.669 259.369 253.172 256.452 260.832C253.753 264.849 250.567 261.772 247.16 264.899C243.752 268.026 245.761 268.522 243.508 270.094C243.508 270.094 240.914 272.143 238.113 271.581C235.313 271.02 233.54 273.517 234.212 278.118Z" fill="white"/>
<path d="M234.794 277.939C235.036 279.459 235.554 280.907 236.316 282.195L235.49 281.953L238.782 279.606L246.684 273.973L256.172 267.208L264.433 261.319L267.154 259.378C267.576 259.078 267.996 258.711 268.443 258.459C268.462 258.449 268.48 258.433 268.498 258.42L268.282 259.342L266.818 256.658C266.74 256.503 266.719 256.32 266.759 256.148C266.8 255.976 266.898 255.828 267.034 255.736L267.052 255.723L266.836 256.645L264.218 252.009L264.899 252.319C264.788 252.35 264.68 252.391 264.572 252.432C264.45 252.479 264.329 252.53 264.209 252.584C264.173 252.6 264.137 252.617 264.1 252.633C263.967 252.693 264.226 252.571 264.089 252.638C263.99 252.688 263.89 252.737 263.791 252.789C262.814 253.305 261.903 253.965 261.081 254.749C259.816 255.968 258.746 257.421 257.92 259.043C257.674 259.52 257.446 260.009 257.238 260.509C257.142 260.782 257.025 261.045 256.888 261.296C256.731 261.54 256.557 261.769 256.367 261.982C255.728 262.723 254.925 263.263 254.04 263.547C252.426 264.062 250.701 263.752 249.108 264.398C248.189 264.823 247.362 265.463 246.683 266.276C246.42 266.554 246.181 266.858 245.967 267.185C245.886 267.314 245.81 267.448 245.741 267.585C245.711 267.646 245.682 267.707 245.654 267.769C245.644 267.792 245.55 268.03 245.6 267.894C245.442 268.325 245.361 268.785 245.171 269.201C244.912 269.713 244.544 270.147 244.1 270.464C243.087 271.266 241.942 271.837 240.731 272.144C240.166 272.288 239.588 272.358 239.008 272.352C238.534 272.342 238.076 272.219 237.606 272.186C236.989 272.117 236.37 272.298 235.863 272.698C234.51 273.858 234.555 276.249 234.794 277.939C234.832 278.111 234.809 278.293 234.731 278.447C234.652 278.601 234.524 278.716 234.373 278.768C234.218 278.814 234.054 278.791 233.915 278.703C233.776 278.615 233.674 278.469 233.63 278.298C233.368 276.438 233.318 274.279 234.297 272.645C234.686 271.999 235.231 271.49 235.868 271.176C236.506 270.862 237.21 270.756 237.899 270.87C238.863 271.045 239.849 271 240.796 270.737C241.505 270.518 242.185 270.198 242.818 269.782C243.153 269.578 243.467 269.336 243.757 269.06C243.823 268.992 243.976 268.808 243.977 268.806C243.938 268.862 244.017 268.741 244.029 268.719C244.056 268.668 244.083 268.617 244.109 268.565C244.13 268.522 244.148 268.477 244.166 268.433C244.124 268.535 244.149 268.486 244.17 268.416C244.199 268.317 244.23 268.218 244.258 268.118C244.71 266.522 245.677 265.357 246.839 264.327C247.635 263.611 248.565 263.105 249.56 262.847C250.422 262.665 251.293 262.555 252.169 262.517C252.938 262.496 253.696 262.306 254.4 261.957C254.815 261.719 255.191 261.406 255.513 261.029C255.701 260.834 255.859 260.607 255.983 260.357C256.104 260.077 256.21 259.788 256.333 259.508C257.133 257.659 258.209 255.975 259.514 254.527C260.438 253.506 261.486 252.635 262.626 251.939C263.215 251.561 263.842 251.261 264.493 251.045C264.522 251.037 264.55 251.027 264.578 251.019C264.707 250.983 264.842 250.993 264.965 251.049C265.087 251.105 265.191 251.203 265.26 251.329L267.878 255.965C267.956 256.12 267.977 256.303 267.937 256.475C267.896 256.647 267.798 256.795 267.662 256.887L267.643 256.9L267.86 255.978L269.324 258.662C269.402 258.817 269.423 259 269.382 259.172C269.342 259.344 269.244 259.492 269.107 259.584L265.816 261.931L257.914 267.564L248.426 274.329L240.165 280.218C238.834 281.167 237.526 282.201 236.155 283.078C236.136 283.09 236.118 283.104 236.1 283.117C235.961 283.203 235.797 283.226 235.643 283.181C235.49 283.136 235.357 283.026 235.274 282.875C234.455 281.489 233.895 279.932 233.631 278.298C233.474 277.451 234.637 277.089 234.794 277.939Z" fill="black"/>
<path d="M207.342 116.344L182.704 120.074L173.629 248.231C173.545 249.344 173.706 250.462 174.097 251.489C174.488 252.517 175.098 253.422 175.873 254.127C176.648 254.832 177.565 255.315 178.545 255.534C179.524 255.754 180.537 255.703 181.496 255.387L185.462 254.061L188.233 255.58C189.794 256.436 191.531 256.811 193.265 256.666C194.999 256.521 196.667 255.861 198.097 254.756L199.558 253.627L202.832 255.115C204.278 255.771 205.844 256.032 207.398 255.873C208.953 255.715 210.45 255.142 211.766 254.204L212.88 253.411L212.987 253.465C214.909 254.452 217.066 254.715 219.133 254.216C221.201 253.717 223.068 252.482 224.454 250.697L226.396 248.204L231.37 247.997C233.041 247.925 234.668 247.378 236.096 246.407C237.524 245.436 238.706 244.073 239.529 242.448L241.457 238.658H247.383C250.778 238.657 254.048 237.228 256.542 234.655C256.755 234.436 256.895 234.142 256.94 233.823C256.985 233.503 256.933 233.176 256.791 232.894L230.258 180.083C230.258 180.083 236.71 138.224 217.941 119.995" fill="#FFC41F"/>
<path d="M207.502 116.995L199.183 118.254L185.917 120.263L182.864 120.725L183.307 120.075L182.823 126.914L181.578 144.501L179.856 168.811L177.972 195.413L176.205 220.375L174.867 239.259C174.66 242.191 174.444 245.122 174.244 248.054C174.132 249.261 174.322 250.478 174.794 251.571C175.384 252.867 176.361 253.893 177.556 254.471C178.751 255.049 180.09 255.142 181.34 254.736C182.042 254.512 182.738 254.269 183.437 254.035C184.046 253.782 184.669 253.574 185.302 253.412C185.579 253.394 185.854 253.479 186.084 253.654L187.37 254.359C188.18 254.846 189.026 255.258 189.897 255.589C192.831 256.571 195.718 255.776 198.186 253.87C198.727 253.452 199.267 252.774 199.95 253.084L202.369 254.183C203.35 254.672 204.386 255.008 205.448 255.18C207.126 255.395 208.825 255.091 210.36 254.301C210.862 254.027 211.348 253.717 211.814 253.372C212.105 253.164 212.509 252.737 212.88 252.737C213.156 252.795 213.422 252.905 213.666 253.062C214.011 253.214 214.363 253.344 214.722 253.449C215.491 253.678 216.283 253.792 217.079 253.791C218.423 253.775 219.748 253.436 220.965 252.798C222.181 252.159 223.261 251.236 224.13 250.09C224.68 249.386 225.23 248.681 225.778 247.974C226.154 247.491 226.546 247.524 227.082 247.502C228.689 247.435 230.32 247.454 231.922 247.283C233.386 247.108 234.791 246.548 236.023 245.648C237.255 244.749 238.278 243.535 239.008 242.108C239.66 240.851 240.293 239.582 240.936 238.319C240.989 238.217 241.065 238.133 241.156 238.075C241.248 238.016 241.351 237.985 241.457 237.985H247.128C248.705 238.001 250.273 237.712 251.761 237.13C252.751 236.73 253.693 236.196 254.567 235.541C255.163 235.097 256.641 234.223 256.27 233.235C256.062 232.761 255.831 232.3 255.577 231.855L253.707 228.132L247.552 215.882L240.039 200.93L233.38 187.676L229.869 180.687C229.687 180.291 229.644 179.832 229.747 179.402C229.774 179.21 229.799 179.018 229.823 178.826C229.869 178.473 229.88 178.375 229.907 178.143C229.99 177.428 230.067 176.712 230.136 175.996C230.6 171.19 230.79 166.356 230.706 161.523C230.593 155.004 229.975 148.464 228.521 142.14C227.019 135.61 224.581 129.199 220.645 124.019C219.682 122.752 218.635 121.566 217.514 120.472C216.928 119.9 217.784 118.95 218.367 119.519C225.746 126.723 229.308 137.497 230.854 148.05C232.141 156.839 232.219 165.857 231.46 174.712C231.301 176.566 231.122 178.427 230.839 180.263L230.779 179.744L234.554 187.257L243.041 204.149L251.981 221.943L257.116 232.163C257.382 232.599 257.535 233.109 257.559 233.635C257.544 234.92 256.423 235.712 255.59 236.384C254.54 237.225 253.391 237.9 252.176 238.391C249.085 239.654 245.71 239.333 242.477 239.333H241.457L241.978 238.999C240.817 241.28 239.786 243.833 238.026 245.625C236.612 247.071 234.869 248.053 232.988 248.464C231.892 248.649 230.786 248.742 229.679 248.742L226.396 248.879L226.823 248.681C225.373 250.543 224.02 252.518 222.04 253.72C220.591 254.587 218.98 255.063 217.337 255.111C215.694 255.158 214.063 254.776 212.576 253.993H213.185C212.207 254.75 211.159 255.386 210.059 255.891C208.369 256.575 206.549 256.759 204.776 256.426C202.914 256.086 201.134 255.067 199.397 254.278L199.862 254.21C199.011 254.925 198.115 255.571 197.181 256.142C195.481 257.091 193.581 257.502 191.687 257.33C189.3 257.097 187.264 255.798 185.158 254.644L185.623 254.712C183.094 255.557 180.338 256.967 177.688 255.991C176.243 255.449 175.001 254.386 174.157 252.968C173.314 251.549 172.917 249.858 173.03 248.16C173.137 246.47 173.269 244.781 173.389 243.091L174.216 231.408L175.381 214.965L176.756 195.55L178.205 175.089L179.595 155.459L180.79 138.586L181.662 126.26C181.802 124.284 181.932 122.306 182.082 120.33C182.089 120.245 182.094 120.16 182.1 120.075C182.102 119.928 182.146 119.786 182.226 119.669C182.306 119.552 182.417 119.466 182.543 119.425L190.863 118.166L204.128 116.157L207.181 115.695C207.941 115.58 208.269 116.879 207.502 116.995H207.502Z" fill="black"/>
<path d="M219.583 80.1533C222.854 93.4794 228.979 119.603 230.04 132.458C225.17 126.56 189.501 128.853 177.177 132.381C175.697 126.89 184.675 78.9134 184.675 78.9134L186.024 65.1023H213.458" fill="white"/>
<path d="M220.165 79.974C221.791 86.6015 223.348 93.2496 224.837 99.9183C226.479 107.32 228.042 114.754 229.288 122.252C229.85 125.632 230.358 129.034 230.643 132.458C230.692 133.045 229.952 133.341 229.613 132.934C229.555 132.865 229.496 132.799 229.433 132.735C229.382 132.682 229.151 132.476 229.297 132.599C229.13 132.459 228.956 132.33 228.776 132.212C228.574 132.081 228.365 131.963 228.153 131.854C228.1 131.826 228.047 131.8 227.993 131.773C227.86 131.706 228.003 131.776 227.929 131.743C227.799 131.684 227.667 131.626 227.535 131.572C226.326 131.098 225.082 130.747 223.817 130.52C220.42 129.851 216.853 129.644 213.352 129.552C209.098 129.441 204.84 129.554 200.591 129.805C196.417 130.051 192.246 130.432 188.095 130.984C184.796 131.382 181.52 131.98 178.28 132.775C177.965 132.856 177.65 132.942 177.337 133.031C177.183 133.075 177.019 133.051 176.881 132.963C176.742 132.875 176.64 132.731 176.595 132.56C176.262 131.301 176.397 129.826 176.469 128.539C176.596 126.261 176.847 123.99 177.118 121.729C177.471 118.794 177.876 115.868 178.306 112.947C178.772 109.778 179.264 106.613 179.782 103.454C180.282 100.371 180.798 97.2907 181.329 94.214C181.783 91.5742 182.245 88.9362 182.716 86.3001C183.045 84.4602 183.377 82.6212 183.714 80.7831C183.807 80.2764 183.901 79.7697 183.994 79.2632C184.019 79.1294 184.042 78.9949 184.069 78.8616C184.118 78.6185 184.037 78.8773 184.071 78.9105C184.068 78.7317 184.085 78.5532 184.123 78.3795L184.25 77.0837L184.645 73.0359L185.377 65.5497L185.42 65.1022C185.424 64.9247 185.489 64.7556 185.601 64.6301C185.714 64.5046 185.865 64.4323 186.024 64.4282H210.075C211.183 64.4282 212.302 64.375 213.409 64.4282C213.425 64.4289 213.441 64.4282 213.457 64.4282C214.234 64.4282 214.235 65.7762 213.457 65.7762H187.14C186.784 65.7985 186.428 65.7985 186.072 65.7762C186.056 65.7752 186.04 65.7752 186.024 65.7762L186.627 65.1022L186.07 70.8097L185.33 78.3794C185.269 79.0015 185.163 79.5959 185.049 80.2089C184.763 81.763 184.479 83.3179 184.2 84.8736C183.758 87.3279 183.323 89.7837 182.895 92.241C182.375 95.2334 181.866 98.2283 181.369 101.226C180.847 104.384 180.343 107.546 179.858 110.712C179.402 113.71 178.966 116.712 178.577 119.722C178.266 122.125 177.98 124.513 177.782 126.991C177.618 128.564 177.58 130.151 177.67 131.731C177.686 131.925 177.645 131.599 177.673 131.757C177.682 131.811 177.688 131.866 177.698 131.92C177.714 132.015 177.734 132.109 177.758 132.202L177.016 131.731C180.191 130.881 183.41 130.247 186.655 129.835C190.803 129.239 194.974 128.827 199.149 128.548C203.457 128.259 207.776 128.112 212.093 128.178C215.802 128.186 219.507 128.476 223.181 129.046C224.556 129.258 225.913 129.589 227.242 130.038C228.255 130.352 229.208 130.87 230.056 131.564C230.202 131.692 230.339 131.831 230.466 131.981L229.436 132.458C228.89 125.896 227.624 119.392 226.351 112.968C224.87 105.493 223.212 98.062 221.477 90.6561C220.67 87.2095 219.844 83.7682 219.001 80.3324C218.795 79.4946 219.959 79.1371 220.164 79.9741L220.165 79.974Z" fill="black"/>
<path d="M183.039 270.101C183.292 270.262 183.527 270.457 183.737 270.682C184.204 271.164 184.564 271.762 184.787 272.427C184.941 272.9 185.019 273.401 185.017 273.904C185.017 274.083 184.954 274.254 184.841 274.381C184.727 274.507 184.574 274.578 184.414 274.578C184.254 274.578 184.1 274.507 183.987 274.381C183.874 274.254 183.811 274.083 183.811 273.904C183.81 273.808 183.807 273.712 183.801 273.616C183.797 273.562 183.791 273.509 183.787 273.455C183.781 273.378 183.795 273.523 183.795 273.522C183.789 273.493 183.785 273.463 183.782 273.434C183.755 273.259 183.716 273.087 183.666 272.919C183.652 272.874 183.638 272.83 183.623 272.786C183.617 272.767 183.609 272.749 183.603 272.73C183.583 272.662 183.633 272.804 183.631 272.801C183.593 272.731 183.568 272.648 183.535 272.575C183.47 272.436 183.398 272.302 183.318 272.173C183.3 272.145 183.282 272.117 183.264 272.089C183.198 271.986 183.309 272.15 183.286 272.119C183.246 272.065 183.207 272.01 183.166 271.958C183.091 271.862 183.011 271.77 182.928 271.682C182.856 271.606 182.781 271.535 182.705 271.465C182.615 271.381 182.839 271.575 182.721 271.479C182.692 271.455 182.663 271.431 182.633 271.408C182.568 271.356 182.5 271.309 182.43 271.266C182.293 271.174 182.194 271.027 182.153 270.854C182.113 270.682 182.134 270.498 182.214 270.343C182.297 270.192 182.429 270.082 182.583 270.037C182.737 269.992 182.9 270.015 183.039 270.102L183.039 270.101Z" fill="black"/>
<path d="M180.459 271.662C180.712 271.822 180.946 272.017 181.156 272.242C181.624 272.724 181.984 273.322 182.207 273.988C182.361 274.461 182.439 274.961 182.437 275.465C182.437 275.643 182.374 275.815 182.26 275.941C182.147 276.068 181.994 276.139 181.834 276.139C181.674 276.139 181.52 276.068 181.407 275.941C181.294 275.815 181.23 275.643 181.23 275.465C181.23 275.368 181.227 275.273 181.221 275.177C181.217 275.123 181.211 275.069 181.207 275.015C181.2 274.938 181.215 275.084 181.215 275.082C181.209 275.053 181.205 275.024 181.202 274.994C181.175 274.82 181.136 274.648 181.085 274.48C181.072 274.435 181.058 274.39 181.043 274.346C181.037 274.328 181.029 274.309 181.023 274.291C181.002 274.222 181.052 274.365 181.05 274.361C181.012 274.292 180.988 274.208 180.955 274.136C180.89 273.997 180.818 273.862 180.738 273.734C180.72 273.705 180.702 273.678 180.684 273.65C180.618 273.546 180.729 273.711 180.706 273.679C180.666 273.626 180.627 273.571 180.586 273.518C180.511 273.422 180.431 273.33 180.348 273.242C180.276 273.167 180.201 273.096 180.125 273.026C180.035 272.942 180.259 273.136 180.141 273.039C180.112 273.015 180.083 272.992 180.053 272.969C179.988 272.917 179.92 272.869 179.85 272.826C179.713 272.735 179.613 272.587 179.573 272.415C179.532 272.242 179.554 272.059 179.634 271.904C179.717 271.753 179.849 271.643 180.003 271.598C180.157 271.553 180.32 271.576 180.459 271.662L180.459 271.662Z" fill="black"/>
<path d="M177.482 272.332C177.735 272.492 177.969 272.687 178.179 272.912C178.647 273.394 179.006 273.992 179.229 274.658C179.384 275.131 179.462 275.631 179.46 276.135C179.46 276.313 179.396 276.485 179.283 276.611C179.17 276.738 179.017 276.809 178.857 276.809C178.697 276.809 178.543 276.738 178.43 276.611C178.317 276.485 178.253 276.313 178.253 276.135C178.253 276.039 178.25 275.943 178.244 275.847C178.24 275.793 178.234 275.739 178.23 275.686C178.223 275.608 178.238 275.754 178.238 275.752C178.232 275.723 178.228 275.694 178.225 275.664C178.198 275.49 178.159 275.318 178.108 275.15C178.095 275.105 178.081 275.061 178.066 275.016C178.059 274.998 178.052 274.98 178.046 274.961C178.025 274.892 178.075 275.035 178.073 275.031C178.035 274.962 178.011 274.878 177.977 274.806C177.913 274.667 177.84 274.533 177.76 274.404C177.743 274.376 177.725 274.348 177.707 274.32C177.641 274.216 177.752 274.381 177.729 274.35C177.689 274.296 177.65 274.241 177.609 274.188C177.533 274.092 177.454 274 177.37 273.912C177.299 273.837 177.224 273.766 177.148 273.696C177.057 273.612 177.282 273.806 177.164 273.709C177.134 273.685 177.105 273.662 177.076 273.639C177.011 273.587 176.943 273.539 176.873 273.496C176.736 273.405 176.636 273.257 176.596 273.085C176.555 272.912 176.577 272.729 176.656 272.574C176.74 272.423 176.872 272.313 177.026 272.268C177.18 272.223 177.343 272.246 177.482 272.332L177.482 272.332Z" fill="black"/>
<path d="M154.646 87.1107C153.582 84.739 152.411 82.4291 151.138 80.19L142.455 85.4613L139.985 86.961L118.971 44.0779L104.016 53.6738L121.72 98.2663C126.158 107.228 135.969 111.074 144.613 107.78L150.073 105.214L159.12 99.8139C158.009 95.4244 156.51 91.1691 154.646 87.1107Z" fill="#A8542A"/>
<path d="M154.125 87.4504C153.059 85.0796 151.889 82.7698 150.617 80.5298L151.442 80.7716L142.757 86.0443L140.289 87.5425C140.15 87.6301 139.987 87.6538 139.833 87.6086C139.678 87.5635 139.546 87.453 139.464 87.3007L137.377 83.0434L132.348 72.7802L126.282 60.4008L121.025 49.6729L119.308 46.17C119.038 45.6187 118.707 45.0668 118.484 44.4886C118.475 44.4644 118.461 44.4412 118.45 44.4179L119.275 44.6597L114.21 47.9097L106.175 53.0659L104.321 54.2553L104.537 53.3331L105.774 56.4481L108.887 64.2893L112.981 74.6007L117.16 85.1271L120.529 93.6125C121.083 95.0084 121.621 96.4139 122.192 97.8015C122.897 99.3676 123.827 100.794 124.945 102.024C126.637 103.979 128.663 105.534 130.904 106.597C133.113 107.642 135.48 108.209 137.878 108.266C140.136 108.363 142.389 107.968 144.511 107.103C145.815 106.529 147.099 105.886 148.391 105.279C148.884 105.047 149.377 104.816 149.87 104.584C149.978 104.533 149.655 104.707 149.864 104.575C150.003 104.486 150.147 104.406 150.289 104.321L158.152 99.6277L158.816 99.2314L158.538 99.9926C157.448 95.6567 155.97 91.4547 154.124 87.4504C153.777 86.6771 154.818 85.9936 155.167 86.77C157.061 90.877 158.581 95.1868 159.702 99.6342C159.736 99.7775 159.727 99.9291 159.677 100.066C159.627 100.204 159.538 100.319 159.425 100.395L152.407 104.584C151.674 105.022 150.95 105.527 150.183 105.887C148.877 106.502 147.57 107.116 146.263 107.729C145.777 107.958 145.295 108.202 144.803 108.415C143.787 108.83 142.736 109.127 141.666 109.302C139.172 109.766 136.623 109.709 134.147 109.135C129.205 107.994 124.853 104.751 122.011 100.092C121.296 98.8062 120.684 97.4525 120.183 96.0465L117.176 88.4711L113.101 78.2075L108.866 67.5414L105.377 58.7529L103.577 54.2183L103.495 54.0137C103.419 53.8584 103.398 53.6759 103.439 53.5043C103.479 53.3326 103.577 53.1848 103.712 53.0915L108.777 49.8415L116.812 44.6853L118.666 43.4959C118.805 43.408 118.969 43.3842 119.123 43.4293C119.277 43.4745 119.41 43.5851 119.492 43.7377L121.578 47.995L126.607 58.2581L132.673 70.6373L137.93 81.3653L139.647 84.8682C139.917 85.4196 140.249 85.9714 140.471 86.5496C140.48 86.5739 140.494 86.5971 140.506 86.6204L139.68 86.3786L149.143 80.6334L150.833 79.6076C150.972 79.5213 151.135 79.4982 151.289 79.5433C151.443 79.5883 151.575 79.698 151.658 79.8494C152.93 82.0895 154.101 84.3992 155.166 86.77C155.515 87.5428 154.475 88.226 154.125 87.4504Z" fill="black"/>
<path d="M122.297 50.9205L120.611 47.4976C119.464 45.1664 118.553 42.699 117.897 40.1415C117.387 38.151 116.786 35.5401 116.213 32.3989C114.809 24.6986 112.301 26.5312 100.867 33.4198C104.954 37.4114 104.855 39.498 104.855 39.498L105.187 53.4728L109.02 63.3263" fill="#FC7272"/>
<path d="M121.776 51.2609C120.86 49.4014 119.89 47.56 119.092 45.6328C117.548 41.9043 116.652 37.8937 115.878 33.8918C115.678 32.5914 115.389 31.3102 115.014 30.0592C114.826 29.4239 114.488 28.8569 114.036 28.4179C114.173 28.5402 113.992 28.3896 113.961 28.3677C113.905 28.3281 113.846 28.294 113.788 28.258C113.759 28.2401 113.728 28.2259 113.699 28.21C113.62 28.168 113.841 28.2664 113.714 28.218C113.637 28.1887 113.561 28.1586 113.482 28.1354C113.415 28.1156 113.347 28.1022 113.279 28.0858C113.109 28.0446 113.362 28.0805 113.184 28.0731C113.014 28.0662 112.847 28.0577 112.677 28.0692C112.594 28.0748 112.511 28.084 112.429 28.0941C112.403 28.0973 112.312 28.1135 112.436 28.0928C112.383 28.1017 112.33 28.1113 112.278 28.1216C112.081 28.1604 111.886 28.2105 111.693 28.2677C111.251 28.4017 110.817 28.5632 110.392 28.7514C109.083 29.3489 107.804 30.0255 106.561 30.7781C104.753 31.8278 102.965 32.9211 101.172 34.0021L101.294 32.9434C102.846 34.4675 104.527 36.2682 105.266 38.4863C105.413 38.9854 105.482 39.5089 105.471 40.0342L105.711 50.129L105.791 53.4731L105.709 53.1329L109.065 61.7612L109.541 62.9865C109.617 63.1421 109.637 63.3241 109.596 63.4954C109.556 63.6666 109.459 63.8144 109.325 63.9087C109.187 63.9978 109.022 64.0223 108.868 63.9771C108.713 63.9318 108.581 63.8204 108.499 63.6669L106.245 57.87L104.942 54.5214C104.744 54.1174 104.62 53.6734 104.578 53.2154L104.413 46.2692C104.36 44.0637 104.303 41.8582 104.255 39.6528C104.254 39.579 104.249 39.5037 104.25 39.4299C104.253 39.2922 104.248 39.4403 104.259 39.4841C104.247 39.4325 104.244 39.3773 104.232 39.3251C104.199 39.1697 104.158 39.0165 104.109 38.8663C104.095 38.8219 104.079 38.778 104.064 38.7339C104.028 38.632 104.102 38.8231 104.041 38.6777C103.992 38.559 103.941 38.4412 103.887 38.3253C103.749 38.0354 103.597 37.7541 103.432 37.4827C102.941 36.6962 102.387 35.9626 101.774 35.2913C101.346 34.8076 100.898 34.3459 100.441 33.8967C100.376 33.8234 100.327 33.7346 100.298 33.6372C100.269 33.5398 100.26 33.4362 100.271 33.3343C100.283 33.2323 100.315 33.1347 100.366 33.0487C100.416 32.9628 100.484 32.8908 100.563 32.8381C103.434 31.1079 106.282 29.2468 109.286 27.8123C110.778 27.0998 112.67 26.2213 114.271 27.028C115.759 27.7776 116.301 29.8296 116.644 31.4516C117.476 35.3794 118.117 39.3595 119.44 43.1348C120.35 45.7331 121.617 48.1422 122.818 50.5806C123.193 51.3412 122.151 52.0221 121.776 51.261L121.776 51.2609Z" fill="black"/>
<path d="M108.158 33.9782C108.324 30.0685 107.495 27.6481 107.495 27.6481C105.912 22.4277 103.659 22.3044 99.5852 22.4075C95.5112 22.5106 94.4474 17.577 97.9405 17.6963C97.9405 17.6963 108.656 14.2008 112.718 22.9637C113.119 23.8105 113.468 24.5184 113.768 25.1096C114.959 27.4588 115.811 30.0034 116.293 32.6496L116.755 35.1874" fill="#FC7272"/>
<path d="M107.555 33.9786C107.635 31.9273 107.518 29.7879 106.915 27.8314C106.33 25.9377 105.441 24.0192 103.686 23.4111C102.851 23.1561 101.986 23.0393 101.12 23.0643C100.025 23.0508 98.9048 23.1993 97.8442 22.8146C96.3792 22.2834 94.7908 20.602 95.327 18.7087C95.4565 18.2987 95.6815 17.9347 95.9789 17.6542C96.2762 17.3736 96.635 17.1865 97.0185 17.1123C97.2622 17.042 97.5136 17.0112 97.7652 17.0208C97.9364 17.0404 97.7224 17.0537 97.807 17.0382C97.8869 17.0234 97.9674 16.9901 98.046 16.9681C99.0717 16.6892 100.116 16.5026 101.168 16.4103C104.687 16.0787 108.483 16.7945 111.158 19.5496C111.943 20.3663 112.605 21.3193 113.118 22.3717C113.821 23.8017 114.567 25.2237 115.177 26.7068C115.84 28.3129 116.359 29.9889 116.725 31.7099C116.901 32.5464 117.042 33.393 117.196 34.235L117.337 35.0086C117.491 35.8555 116.328 36.2178 116.173 35.367C115.88 33.4948 115.485 31.644 114.992 29.825C114.507 28.233 113.886 26.6965 113.139 25.2365C112.546 24.0597 112.045 22.7987 111.308 21.7217C109.145 18.5604 105.547 17.5693 102.156 17.6934C101.025 17.7238 99.9003 17.8788 98.797 18.1561C98.5716 18.211 98.3495 18.2857 98.1241 18.3391C97.8795 18.3971 97.5948 18.3595 97.3747 18.4042C97.2292 18.4346 97.087 18.482 96.9504 18.5456C96.8288 18.597 96.7214 18.6833 96.6391 18.7957C96.5851 18.8723 96.5375 18.9542 96.4968 19.0404C96.4634 19.1379 96.4441 19.2408 96.4397 19.345C96.4304 19.6094 96.4835 19.8719 96.5935 20.1062C96.9408 20.8005 97.5208 21.3124 98.2058 21.5292C99.1732 21.8669 100.212 21.701 101.21 21.7176C102.118 21.7039 103.024 21.8246 103.904 22.0766C107.404 23.2061 108.521 27.9487 108.741 31.5423C108.788 32.3534 108.795 33.1668 108.761 33.9787C108.728 34.8429 107.521 34.8475 107.555 33.9787L107.555 33.9786Z" fill="black"/>
<path d="M114.621 60.9749L107.309 61.0324C107.309 61.0324 103.609 53.786 101.331 49.1656C100.611 47.6952 100.345 46 100.576 44.3435C100.878 42.2667 100.661 40.137 99.9502 38.1886C99.9502 38.1886 96.062 42.1707 93.245 37.7024C93.2218 37.6596 93.1989 37.6172 93.1761 37.5751C91.8751 35.1694 90.7595 31.1861 93.7112 30.3509L94.1593 29.5842C94.5385 28.9334 95.057 28.3986 95.668 28.0281C96.2789 27.6577 96.9629 27.4633 97.658 27.4625H99.376L99.6077 26.9709C100.375 25.3425 101.882 24.7468 103.519 24.856C105.673 22.2495 109.142 24.0406 110.447 26.7582" fill="#FC7272"/>
<path d="M114.621 61.6487L108.228 61.699L107.308 61.7063C107.203 61.7061 107.1 61.6753 107.008 61.6167C106.917 61.5581 106.841 61.4739 106.787 61.3724C105.674 59.1911 104.566 57.006 103.464 54.8173C102.605 53.1144 101.753 51.4081 100.905 49.6983C100.377 48.6531 100.044 47.4982 99.9289 46.3045C99.8203 45.1216 100.069 43.9776 100.093 42.7994C100.117 41.7362 100.005 40.6746 99.7619 39.6463C99.6897 39.344 99.6066 39.0445 99.5088 38.7513C99.4937 38.7059 99.4775 38.661 99.4623 38.6156C99.4029 38.438 99.4784 38.5893 99.4634 38.6144C99.4681 38.6065 99.4347 38.5418 99.4291 38.5285L100.377 38.6649C99.104 39.9611 97.2088 40.8328 95.4895 40.3644C94.0048 39.96 92.9451 38.6152 92.2742 37.1508C91.7057 35.91 91.2369 34.5084 91.2381 33.0964C91.2109 32.3186 91.4267 31.5544 91.8487 30.9348C92.2706 30.3153 92.8724 29.8789 93.5507 29.7007L93.1901 30.0105C93.4674 29.494 93.7795 29.002 94.1238 28.5386C94.7239 27.801 95.4963 27.2651 96.3542 26.9911C97.3204 26.6815 98.3815 26.7883 99.3759 26.7883L98.8549 27.1221C99.211 26.2484 99.7721 25.4986 100.479 24.9522C101.397 24.3524 102.458 24.0834 103.519 24.1817L103.092 24.3792C105.538 21.5014 109.459 23.3511 110.968 26.4178C111.343 27.1785 110.301 27.8594 109.926 27.0982C109.019 25.2552 106.807 23.5318 104.888 24.5405C104.665 24.6569 104.457 24.8053 104.269 24.9819C103.973 25.2622 103.826 25.5183 103.404 25.5233C102.84 25.5012 102.277 25.5822 101.736 25.7632C100.813 26.1136 100.33 26.8833 99.8969 27.8025C99.844 27.9043 99.7679 27.9888 99.6764 28.0474C99.585 28.106 99.4813 28.1366 99.3759 28.1363C98.1215 28.1363 96.8399 27.9827 95.7288 28.7705C95.0676 29.2393 94.7025 29.9214 94.2735 30.6201C94.0351 31.0085 93.6677 31.0186 93.3222 31.2267C93.0553 31.3796 92.8334 31.6151 92.683 31.905C92.0265 33.1996 92.7207 35.1455 93.2756 36.3809C93.9918 37.9755 95.2023 39.3913 96.9229 39.1163C97.5939 38.9942 98.2342 38.7149 98.8017 38.2966C98.918 38.2161 99.0322 38.1319 99.1441 38.044C99.1888 38.0089 99.2325 37.9723 99.277 37.9371C99.3977 37.8414 99.2632 37.9523 99.3117 37.9089C99.3833 37.8447 99.4555 37.7809 99.5234 37.7117C99.5892 37.6401 99.6687 37.586 99.7558 37.5535C99.843 37.521 99.9356 37.5109 100.027 37.524C100.118 37.5371 100.205 37.5731 100.282 37.6292C100.359 37.6853 100.424 37.7602 100.471 37.8481C100.916 38.9795 101.181 40.1884 101.257 41.4211C101.356 42.6214 101.196 43.7559 101.118 44.9477C101.037 46.0874 101.206 47.2318 101.61 48.2821C101.959 49.1716 102.44 50.0135 102.862 50.8613C103.299 51.7356 103.736 52.6089 104.175 53.4812C104.965 55.0517 105.759 56.6204 106.555 58.1871C106.979 59.0226 107.404 59.8577 107.83 60.6922L107.309 60.3584L113.701 60.3081L114.621 60.3009C115.397 60.2948 115.398 61.6429 114.621 61.6489L114.621 61.6487Z" fill="black"/>
<path d="M123.237 51.6656L119.598 45.3564L104.678 55.0168L107.33 60.9747" fill="white"/>
<path d="M122.716 52.0059L119.539 46.4987L119.076 45.6969L119.902 45.9387L114.849 49.2105L106.832 54.4014L104.983 55.5989L105.199 54.6767L107.851 60.6345C108.195 61.409 107.155 62.0926 106.808 61.3149L104.157 55.3571C104.08 55.2019 104.059 55.0193 104.099 54.8474C104.14 54.6755 104.238 54.5277 104.374 54.4349L109.427 51.1631L117.443 45.9723L119.293 44.7748C119.432 44.6881 119.595 44.6649 119.749 44.71C119.903 44.7551 120.036 44.8649 120.119 45.0166L123.295 50.5237L123.758 51.3255C124.18 52.0569 123.136 52.7334 122.716 52.0059Z" fill="black"/>
<path d="M195.918 64.7521L182.086 64.7105C179.455 64.7029 176.861 65.401 174.523 66.7461L151.138 80.1901L139.973 87.04L134.139 69.1839C131.668 61.6133 127.499 54.8781 122.03 49.6232L121.249 48.873L106.17 59.113L104.077 69.5087C103.399 72.8744 103.897 76.4021 105.468 79.372L120.678 108.095C123.384 112.767 127.528 116.172 132.327 117.667C137.126 119.162 142.248 118.644 146.729 116.21L158.971 109.552L188.027 92.998" fill="white"/>
<path d="M195.918 65.4256L183.692 65.3889C183.159 65.3873 182.626 65.3835 182.093 65.3841C179.844 65.3768 177.619 65.9032 175.567 66.9284C174.524 67.456 173.516 68.0816 172.499 68.6664L159.362 76.2187C156.703 77.7473 154.015 79.2266 151.382 80.8087C147.778 82.9732 144.208 85.2098 140.622 87.4099L140.277 87.6216C140.197 87.6716 140.108 87.7009 140.016 87.7071C139.925 87.7134 139.833 87.6966 139.748 87.6579C139.663 87.6193 139.586 87.5597 139.525 87.4837C139.463 87.4077 139.417 87.3172 139.391 87.2188L135.514 75.3536L133.67 69.7092C132.574 66.3211 131.139 63.0818 129.393 60.0527C127.033 55.9818 124.105 52.5016 120.822 49.3493L121.553 49.4547L116.44 52.927L108.338 58.4287L106.474 59.6946L106.751 59.2918L105.625 64.8891L104.9 68.4886C104.704 69.3433 104.554 70.2101 104.449 71.0845C104.204 74.0142 104.823 76.9531 106.212 79.4534L108.192 83.1927L115.31 96.6342L120.865 107.124C123.152 111.375 126.653 114.642 130.805 116.4C134.957 118.158 139.517 118.303 143.752 116.814C145.446 116.218 147.015 115.306 148.606 114.441C151.959 112.617 155.329 110.828 158.667 108.969C160.887 107.733 163.087 106.451 165.296 105.192L178.211 97.8339L187.255 92.6809L187.722 92.4152C188.412 92.0218 189.024 93.1844 188.331 93.5792L179.51 98.6051L164.492 107.161C162.234 108.448 159.984 109.748 157.705 110.987L150.33 114.999C148.402 116.047 146.481 117.213 144.445 117.978C140.475 119.428 136.21 119.535 132.186 118.283C128.163 117.031 124.561 114.478 121.834 110.944C120.832 109.572 119.94 108.105 119.165 106.561L115.778 100.164L107.288 84.1337L105.054 79.9135C103.324 76.68 102.779 72.8259 103.53 69.1541C104.068 66.4729 104.607 63.7923 105.149 61.1121L105.475 59.4954C105.495 59.1876 105.587 58.8911 105.743 58.6361C106.123 58.2985 106.536 58.0103 106.975 57.7771L119.877 49.0152L120.944 48.2908C121.06 48.2186 121.194 48.1898 121.325 48.2088C121.457 48.2278 121.579 48.2935 121.675 48.3962C124.589 51.1347 127.191 54.2617 129.424 57.7072C131.642 61.2139 133.431 65.036 134.743 69.0721C136.142 73.347 137.539 77.6228 138.934 81.8995L140.555 86.8605L139.668 86.4577L150.209 79.9906C152.532 78.5654 154.917 77.2597 157.274 75.905L170.836 68.1084C171.939 67.4741 173.042 66.8399 174.145 66.2056C176.757 64.7324 179.649 63.9885 182.574 64.0375L195.55 64.0766L195.918 64.0777C196.695 64.08 196.696 65.428 195.918 65.4257L195.918 65.4256Z" fill="black"/>
<path d="M166.333 281.488C165.808 282.978 165.547 284.568 165.563 286.169H204.655L204.699 283.022H204.721V277.531C204.721 277.531 199.47 275.568 193.354 280.28C189.16 282.047 187.937 277.531 183.569 278.12C179.2 278.709 180.66 280.337 178.008 280.308C178.008 280.308 174.841 280.476 172.744 278.316C170.647 276.157 167.959 277.198 166.333 281.488Z" fill="white"/>
<path d="M166.915 281.667C166.394 283.095 166.139 284.627 166.166 286.169L165.563 285.495H203.059C203.569 285.466 204.08 285.466 204.59 285.495C204.612 285.497 204.634 285.497 204.655 285.495L204.052 286.169L204.095 283.022C204.098 282.844 204.162 282.674 204.275 282.548C204.387 282.422 204.539 282.351 204.699 282.348H204.721L204.117 283.022V277.531L204.56 278.181C204.034 277.998 203.49 277.886 202.939 277.85C201.46 277.713 199.97 277.864 198.536 278.296C197.585 278.578 196.662 278.967 195.781 279.457C194.777 280.016 193.884 280.885 192.786 281.183C191.264 281.597 189.862 281.188 188.507 280.393C187.299 279.686 186.131 278.856 184.732 278.754C183.803 278.708 182.874 278.838 181.985 279.138C181.71 279.219 181.444 279.331 181.189 279.472C181.084 279.532 180.982 279.598 180.882 279.669C180.831 279.705 180.574 279.917 180.677 279.826C180.4 280.109 180.101 280.364 179.784 280.588C179.285 280.861 178.734 280.996 178.179 280.982C177.094 281.012 176.013 280.842 174.978 280.478C173.996 280.129 173.09 279.555 172.317 278.793C171.819 278.248 171.157 277.929 170.461 277.899C168.646 277.92 167.485 280.19 166.854 281.828C166.772 281.981 166.64 282.093 166.486 282.138C166.331 282.183 166.167 282.159 166.028 282.069C165.893 281.976 165.796 281.828 165.755 281.657C165.715 281.485 165.735 281.303 165.812 281.147C166.51 279.334 167.612 277.462 169.352 276.769C170.03 276.504 170.765 276.482 171.454 276.707C172.253 276.97 172.803 277.533 173.438 278.097C174.597 279.127 176.153 279.579 177.61 279.632C177.737 279.637 177.864 279.636 177.992 279.635C178.094 279.634 178.197 279.634 178.299 279.63C178.442 279.624 178.599 279.61 178.654 279.599C178.763 279.579 178.871 279.55 178.977 279.515C179.024 279.5 179.07 279.481 179.116 279.461C179.005 279.509 179.11 279.465 179.156 279.436C179.228 279.388 179.299 279.34 179.37 279.289C179.389 279.276 179.494 279.187 179.423 279.247C179.355 279.306 179.47 279.203 179.49 279.185C179.83 278.839 180.205 278.539 180.609 278.292C182.22 277.5 184.002 277.247 185.739 277.562C186.465 277.755 187.164 278.053 187.82 278.449C188.992 279.122 190.135 280.024 191.505 280.018C191.881 280.013 192.255 279.953 192.616 279.839C193.131 279.626 193.617 279.334 194.06 278.972C195.039 278.32 196.075 277.78 197.152 277.36C198.757 276.729 200.449 276.423 202.15 276.454C203.033 276.454 203.913 276.584 204.765 276.842C204.804 276.855 204.842 276.866 204.881 276.881C205.007 276.923 205.118 277.008 205.197 277.125C205.277 277.242 205.321 277.384 205.324 277.531V283.022C205.322 283.2 205.257 283.37 205.145 283.496C205.032 283.622 204.88 283.693 204.72 283.696H204.699L205.302 283.022L205.259 286.17C205.256 286.347 205.192 286.517 205.079 286.643C204.967 286.769 204.815 286.841 204.655 286.844H170.39C168.807 286.844 167.211 286.911 165.629 286.844C165.607 286.843 165.585 286.844 165.563 286.844C165.404 286.84 165.252 286.768 165.14 286.642C165.027 286.517 164.963 286.347 164.96 286.17C164.927 284.506 165.196 282.853 165.751 281.309C166.021 280.504 167.188 280.852 166.915 281.667Z" fill="black"/>
<path d="M100.333 39.4252C100.333 39.4252 99.0443 34.7234 97.2216 33.9786L100.333 39.4252Z" fill="#FC7272"/>
<path d="M99.7513 39.6044C99.6054 39.0736 99.4247 38.553 99.2337 38.0407C99.2751 38.1517 99.2386 38.0539 99.2186 38.0022C99.1986 37.9505 99.1788 37.8998 99.1586 37.8488C99.1098 37.7258 99.0597 37.6034 99.0085 37.4816C98.9052 37.2365 98.7961 36.9947 98.6813 36.756C98.5643 36.5141 98.4406 36.2762 98.3078 36.0448C98.2448 35.9352 98.1797 35.8272 98.1125 35.7208C98.0818 35.6726 98.0506 35.6249 98.0191 35.5773C98.0091 35.5622 97.9412 35.4649 97.987 35.5295C98.0289 35.5888 97.961 35.4946 97.9536 35.4847C97.7973 35.2737 97.6266 35.0764 97.4432 34.8947C97.3402 34.7932 97.4849 34.9186 97.4038 34.858C97.3547 34.8213 97.3075 34.7824 97.2571 34.7477C97.2084 34.714 97.1582 34.6839 97.1077 34.6536C97.0891 34.6425 97.0697 34.6335 97.051 34.6229C96.9785 34.5819 97.1896 34.683 97.0613 34.6285C96.9095 34.5768 96.7811 34.462 96.7027 34.3078C96.6243 34.1535 96.6018 33.9716 96.6399 33.7994C96.6835 33.6278 96.7857 33.4822 96.9246 33.3941C97.0635 33.306 97.2279 33.2825 97.3822 33.3287C98.3682 33.7474 99.0337 34.7425 99.5491 35.7286C100.017 36.6479 100.409 37.6126 100.722 38.6109C100.79 38.821 100.856 39.0323 100.915 39.246C101.144 40.0772 99.979 40.4326 99.7514 39.6044H99.7513Z" fill="black"/>
<path d="M188.394 65.1021H212.37C212.143 63.3599 211.363 61.7669 210.171 60.6137C208.98 59.4604 207.458 58.8237 205.882 58.8196H201.04C200.013 58.8197 199 59.0904 198.085 59.6096L188.394 65.1021Z" fill="white"/>
<path d="M188.394 64.4285H212.37L211.788 65.2815C211.387 62.2648 209.186 59.7741 206.424 59.5187C205.744 59.4558 205.049 59.4938 204.368 59.4938H201.553C200.464 59.4436 199.379 59.6829 198.388 60.1921C198.069 60.3696 197.752 60.5529 197.434 60.7333L192.484 63.5389L188.698 65.6843C188.007 66.0762 187.396 64.9134 188.089 64.5203L196.646 59.6707C197.02 59.4584 197.394 59.2428 197.77 59.0337C198.865 58.4325 200.072 58.1284 201.292 58.1459C202.892 58.1459 204.5 58.0894 206.1 58.15C207.766 58.224 209.358 58.9386 210.606 60.1729C211.855 61.4071 212.684 63.0852 212.952 64.9234C212.975 65.0233 212.977 65.1276 212.958 65.2286C212.94 65.3296 212.901 65.4245 212.845 65.5065C212.789 65.5885 212.718 65.6553 212.635 65.7021C212.553 65.7488 212.463 65.7742 212.37 65.7764H188.394C187.617 65.7766 187.616 64.4285 188.394 64.4285Z" fill="black"/>
<path d="M186.37 45.9121C185.905 46.7818 185.161 47.4206 184.289 47.6977C183.852 47.8154 183.398 47.8234 182.958 47.7212C182.804 47.6728 182.674 47.5586 182.595 47.4034C182.516 47.2482 182.495 47.0644 182.537 46.8921C182.583 46.7222 182.686 46.5786 182.824 46.4909C182.962 46.4033 183.125 46.3784 183.279 46.4213C183.305 46.4271 183.331 46.4324 183.357 46.4373C183.423 46.4487 183.408 46.4468 183.311 46.4315C183.361 46.4302 183.411 46.4351 183.46 46.4459C183.556 46.4517 183.651 46.4507 183.746 46.4429C183.805 46.4381 183.937 46.3891 183.756 46.4456C183.799 46.4324 183.845 46.429 183.888 46.4187C183.973 46.3985 184.056 46.3728 184.138 46.3419C184.178 46.3269 184.218 46.3098 184.257 46.2934C184.356 46.252 184.111 46.3684 184.255 46.2924C184.328 46.254 184.399 46.212 184.468 46.1662C184.535 46.1223 184.6 46.0753 184.663 46.0253C184.694 46.0011 184.723 45.9754 184.753 45.9511C184.587 46.0839 184.701 45.9957 184.738 45.9615C184.922 45.7856 185.09 45.591 185.242 45.3803C185.298 45.3044 185.131 45.5456 185.198 45.4438C185.209 45.4264 185.221 45.4091 185.232 45.3918C185.25 45.3637 185.268 45.3354 185.285 45.3066C185.3 45.282 185.315 45.2573 185.328 45.2319C185.368 45.1551 185.421 45.0877 185.484 45.0338C185.547 44.9799 185.619 44.9404 185.696 44.9177C185.773 44.895 185.853 44.8894 185.932 44.9014C186.011 44.9134 186.086 44.9426 186.155 44.9874C186.224 45.0322 186.284 45.0917 186.332 45.1625C186.38 45.2333 186.415 45.314 186.435 45.3999C186.455 45.4859 186.459 45.5754 186.448 45.6633C186.437 45.7512 186.411 45.8358 186.37 45.9123V45.9121Z" fill="black"/>
<path d="M148.806 82.3897L143.816 85.5787L135.896 90.6402L134.064 91.8112C133.388 92.2427 132.78 91.0784 133.455 90.6472L138.445 87.4581L146.364 82.3966L148.196 81.2257C148.872 80.7942 149.48 81.9585 148.806 82.3897H148.806Z" fill="black"/>
<path d="M212.505 28.7145C212.219 27.0438 212.404 25.3155 213.034 23.7668C213.663 22.2182 214.706 20.925 216.02 20.065L245.768 0.67041L248.177 10.1442L244.564 14.2043L248.177 16.3697L249.864 22.8658L242.396 25.3019L250.827 28.2793L254.2 40.7303L218.684 35.3167C217.165 35.0761 215.752 34.3097 214.644 33.1254C213.535 31.941 212.787 30.3984 212.505 28.7145Z" fill="#EA2F2F"/>
<path d="M211.923 28.8934C211.659 27.355 211.759 25.7661 212.214 24.2843C212.669 22.8025 213.462 21.479 214.515 20.445C215.109 19.9077 215.746 19.4322 216.418 19.0244L222.608 14.9893L232.028 8.84772L240.891 3.06968C242.391 2.09179 243.872 1.05297 245.4 0.130002C245.421 0.116894 245.442 0.102262 245.464 0.0883913C245.544 0.0377496 245.633 0.00801232 245.725 0.00140759C245.817 -0.00519713 245.909 0.0115004 245.994 0.0502516C246.079 0.0890028 246.156 0.148803 246.217 0.225171C246.279 0.30154 246.324 0.392498 246.35 0.491234L248.455 8.76931L248.759 9.96487C248.787 10.0798 248.787 10.2009 248.76 10.316C248.733 10.4311 248.679 10.5362 248.604 10.6207L244.99 14.6808L244.868 13.6222L246.607 14.6643C247.223 15.0335 247.891 15.3602 248.478 15.7851C248.575 15.8689 248.657 15.9732 248.718 16.0922C248.779 16.2112 248.818 16.3426 248.834 16.4786L249.107 17.5318L249.917 20.6505L250.445 22.6866C250.485 22.8589 250.464 23.0418 250.385 23.1966C250.306 23.3513 250.177 23.4658 250.024 23.5158L243.496 25.6453L242.556 25.9518V24.652L250.827 27.5728C250.957 27.5984 251.078 27.6603 251.18 27.7527C251.281 27.845 251.36 27.9649 251.409 28.1009C251.441 28.1993 251.464 28.3026 251.491 28.4026L251.996 30.2668L253.646 36.3579L254.782 40.5511C254.929 41.0961 254.467 41.4454 254.039 41.3802L249.61 40.7051L239.418 39.1516L228.005 37.412L219.913 36.1785C219.453 36.1083 218.991 36.0418 218.531 35.9678C217.267 35.7544 216.068 35.2033 215.035 34.3614C214.003 33.5195 213.167 32.4117 212.6 31.1321C212.288 30.4217 212.061 29.6693 211.923 28.8935C211.773 28.0462 212.936 27.6835 213.086 28.5351C213.334 29.9985 213.96 31.3488 214.887 32.4193C215.814 33.4898 217.001 34.2336 218.302 34.5589C218.813 34.683 219.34 34.7424 219.858 34.8213L227.376 35.9673L238.559 37.6716L248.997 39.2626L252.577 39.8083C253.139 39.894 253.727 39.9337 254.282 40.0681C254.307 40.0743 254.334 40.0761 254.36 40.0801L253.618 40.9092L250.667 30.0168L250.245 28.4581L250.667 28.9289L243.299 26.3272L242.235 25.9514C242.111 25.9088 242.002 25.8226 241.924 25.7056C241.847 25.5886 241.805 25.447 241.805 25.3015C241.805 25.156 241.847 25.0144 241.924 24.8974C242.002 24.7804 242.111 24.6943 242.235 24.6516L248.763 22.5221L249.703 22.2155L249.282 23.0446L247.595 16.5484L247.873 16.9512L244.259 14.7858C244.18 14.7329 244.113 14.6608 244.063 14.5748C244.013 14.4889 243.98 14.3913 243.969 14.2895C243.957 14.1877 243.966 14.0842 243.995 13.9868C244.024 13.8894 244.073 13.8007 244.137 13.7272L247.751 9.66706L247.595 10.3228L245.49 2.04477L245.186 0.849206L246.073 1.25201L242.456 3.60967L234.063 9.08144L224.608 15.2459L217.714 19.7404C217.264 20.0341 216.813 20.3265 216.363 20.6215C215.152 21.4014 214.187 22.5807 213.601 23.9977C213.014 25.4146 212.834 26.9996 213.086 28.5352C213.23 29.3829 212.067 29.7461 211.923 28.8934Z" fill="black"/>
<path d="M216.551 133.912C217.212 137.242 217.615 140.63 217.755 144.038C218.135 151.1 217.652 158.36 215.679 165.115C214.45 169.44 212.498 173.466 209.928 176.98L210.105 176.503C210.023 181.738 209.982 186.972 209.958 192.207C209.933 197.793 209.926 203.379 209.936 208.964C209.944 214.078 209.961 219.192 209.988 224.305C210.008 228.124 210.032 231.943 210.061 235.763C210.074 237.457 210.162 239.174 210.104 240.868C210.103 240.89 210.104 240.913 210.105 240.936C210.113 241.804 208.906 241.805 208.898 240.936C208.86 237.037 208.83 233.138 208.809 229.238C208.755 220.502 208.727 211.767 208.726 203.031C208.728 198.192 208.743 193.353 208.771 188.515C208.786 186.19 208.806 183.864 208.831 181.539C208.843 180.482 208.856 179.424 208.87 178.367C208.878 177.833 208.885 177.3 208.894 176.766C208.886 176.611 208.905 176.455 208.951 176.308C208.997 176.161 209.069 176.026 209.161 175.91C209.332 175.674 209.504 175.44 209.67 175.201C214.576 168.111 216.416 158.98 216.639 150.175C216.81 144.916 216.406 139.654 215.435 134.506C215.42 134.427 215.404 134.348 215.388 134.27C215.208 133.426 216.371 133.067 216.551 133.911L216.551 133.912Z" fill="black"/>
<path d="M259.027 157.087L242.229 152.531C242.229 152.531 237.788 159.473 238.174 161.86C238.56 164.246 241.457 164.897 241.457 164.897L245.125 163.161C245.125 163.161 248.601 162.944 249.566 157.738" fill="#FC7272"/>
<path d="M258.867 157.737L253.169 156.192L244.139 153.743L242.068 153.181L242.75 152.872C241.83 154.31 240.984 155.806 240.215 157.351C239.669 158.377 239.227 159.468 238.9 160.604C238.844 160.816 238.8 161.031 238.768 161.249C238.785 161.123 238.757 161.384 238.756 161.435C238.751 161.544 238.754 161.653 238.764 161.761C238.745 161.563 238.771 161.782 238.784 161.832C238.805 161.912 238.821 161.994 238.846 162.073C238.886 162.201 238.937 162.323 238.998 162.44C239.136 162.696 239.308 162.926 239.51 163.122C240.11 163.701 240.837 164.089 241.617 164.247L241.152 164.315C242.365 163.741 243.578 163.167 244.792 162.593C244.9 162.539 245.015 162.503 245.132 162.487C245.241 162.473 245.2 162.47 245.093 162.496C245.279 162.451 245.463 162.419 245.645 162.358C245.767 162.317 245.887 162.269 246.006 162.219C246.11 162.174 246.021 162.213 246 162.223C246.041 162.203 246.081 162.183 246.12 162.163C246.204 162.118 246.287 162.073 246.369 162.024C246.7 161.831 247.005 161.588 247.276 161.301C248.225 160.31 248.717 158.954 248.984 157.559C249.146 156.711 250.31 157.07 250.148 157.917C249.765 159.918 248.886 161.83 247.314 162.966C246.661 163.456 245.908 163.756 245.125 163.836L245.429 163.744L242.243 165.251C241.882 165.422 241.564 165.621 241.164 165.513C240.563 165.347 239.988 165.083 239.456 164.731C238.664 164.242 238.048 163.463 237.711 162.525C237.503 161.807 237.505 161.033 237.718 160.317C238.149 158.572 239.006 156.933 239.837 155.393C240.426 154.303 241.045 153.228 241.708 152.191C241.778 152.067 241.881 151.969 242.004 151.914C242.126 151.858 242.261 151.847 242.389 151.882L248.086 153.427L257.116 155.876L259.187 156.438C259.942 156.642 259.622 157.943 258.866 157.738L258.867 157.737Z" fill="black"/>
<path d="M248.147 175.441L242.277 173.575C235.085 170.755 235.278 166.633 235.278 166.633C235.278 166.633 235.471 160.341 237.402 159.474C239.333 158.606 240.684 162.294 240.684 162.294C240.684 162.294 243.773 158.823 245.125 163.162C246.477 160.992 248.407 161.209 249.759 164.246C251.304 162.836 252.414 162.999 253.138 163.514C253.484 163.773 253.753 164.14 253.914 164.569C254.074 164.998 254.118 165.47 254.04 165.927L253.463 169.539C253.397 169.952 253.451 170.378 253.619 170.753C253.787 171.128 254.058 171.433 254.393 171.622" fill="#FC7272"/>
<path d="M247.987 176.092L242.747 174.426C240.311 173.651 237.712 172.299 236.046 170.096C235.331 169.151 234.666 167.911 234.675 166.628C234.698 165.764 234.775 164.904 234.905 164.052C235.08 162.732 235.335 161.333 235.942 160.166C236.236 159.535 236.726 159.047 237.319 158.791C237.667 158.672 238.035 158.647 238.393 158.719C238.75 158.791 239.088 158.957 239.376 159.204C240.232 159.964 240.886 160.97 241.266 162.115L240.258 161.818C240.837 161.156 241.56 160.672 242.356 160.413C242.983 160.214 243.655 160.299 244.225 160.651C244.995 161.151 245.417 162.08 245.707 162.983L244.604 162.822C245.278 161.766 246.256 160.884 247.485 161.083C248.815 161.298 249.714 162.659 250.28 163.906L249.333 163.77C250.193 163.001 251.22 162.33 252.364 162.5C252.856 162.575 253.32 162.801 253.703 163.154C254.086 163.507 254.373 163.973 254.532 164.498C254.764 165.248 254.641 165.985 254.521 166.736L254.151 169.056C254.028 169.824 253.939 170.614 254.698 171.041C255.392 171.431 254.781 172.594 254.089 172.205C253.642 171.935 253.284 171.513 253.067 171C252.85 170.488 252.785 169.911 252.883 169.354C252.958 168.837 253.047 168.323 253.129 167.807C253.325 166.584 253.944 164.728 252.66 163.984C251.868 163.526 250.873 164.11 250.186 164.723C250.12 164.794 250.04 164.848 249.953 164.88C249.866 164.912 249.774 164.922 249.683 164.909C249.592 164.896 249.505 164.86 249.428 164.804C249.351 164.749 249.286 164.674 249.238 164.587C248.853 163.739 248.275 162.622 247.358 162.419C246.674 162.267 246.048 162.873 245.646 163.502C245.584 163.612 245.494 163.701 245.389 163.756C245.283 163.812 245.165 163.832 245.049 163.815C244.933 163.798 244.824 163.745 244.734 163.661C244.644 163.577 244.578 163.466 244.543 163.341C244.345 162.724 244.042 162.016 243.496 161.744C243.34 161.674 243.171 161.644 243.003 161.655C242.811 161.671 242.622 161.718 242.442 161.794C242.089 161.957 241.757 162.172 241.454 162.433C241.565 162.341 241.409 162.474 241.375 162.507C241.328 162.55 241.282 162.595 241.236 162.64C241.194 162.683 241.151 162.726 241.111 162.771C241.035 162.851 240.942 162.909 240.841 162.938C240.74 162.967 240.633 162.967 240.532 162.937C240.431 162.907 240.339 162.849 240.263 162.768C240.188 162.686 240.133 162.585 240.102 162.473C240.211 162.766 240.095 162.461 240.06 162.378C239.978 162.186 239.89 161.998 239.795 161.813C239.554 161.316 239.244 160.864 238.876 160.475C238.734 160.297 238.551 160.165 238.347 160.093C238.144 160.02 237.926 160.01 237.718 160.063C237.551 160.137 237.398 160.247 237.27 160.387C237.141 160.527 237.038 160.694 236.967 160.878C236.439 161.914 236.227 163.216 236.068 164.41C235.964 165.139 235.902 165.874 235.882 166.611C235.882 166.67 235.885 166.728 235.885 166.787C235.886 166.822 235.893 166.857 235.894 166.892C235.898 167 235.856 166.682 235.892 166.867C235.913 166.979 235.93 167.09 235.955 167.2C235.988 167.34 236.027 167.478 236.072 167.613C236.086 167.657 236.171 167.884 236.102 167.707C236.138 167.799 236.176 167.89 236.216 167.98C236.386 168.351 236.587 168.703 236.817 169.03C238.305 171.057 240.647 172.356 242.866 173.061L248.308 174.791C249.054 175.028 248.737 176.329 247.987 176.091L247.987 176.092Z" fill="black"/>
</svg>
