<svg width="750" height="675" viewBox="0 0 750 675" fill="none" xmlns="http://www.w3.org/2000/svg">
<ellipse cx="177.678" cy="181.466" rx="108.604" ry="98.7858" fill="white"/>
<ellipse cx="20.7913" cy="21.4694" rx="20.7913" ry="21.4694" transform="matrix(0.995475 0.0950258 -0.0890687 0.996026 112.391 113.819)" fill="black"/>
<ellipse cx="224.4" cy="181.466" rx="22.2991" ry="22.5489" fill="black"/>
<path d="M111.196 0.705688C125.08 -7.3687 169.302 56.5082 169.349 56.5758C181.241 54.2126 193.674 53.6291 206.342 55.0768C241.395 59.0825 271.398 77.8586 291.184 104.74C294.654 104.157 298.955 103.33 303.785 102.403C329.932 97.3826 371.596 89.383 381.036 100.727C389.094 110.411 343.042 175.231 320.984 231.689C313.445 245.573 309.146 261.588 309.146 278.64C309.146 331.716 350.79 374.742 402.16 374.742C451.673 374.742 492.148 334.771 495.011 284.357C500.933 274.448 506.944 263.125 512.998 250.186C585.435 202.347 655.153 220.111 725.189 228.214C788.696 235.56 717.222 279.034 643.024 324.165C584.604 359.698 524.495 396.26 527.249 417.024C528.377 425.528 528.519 434.311 527.565 443.23C526.181 456.155 522.61 468.282 517.274 479.259C517.078 479.704 516.856 480.16 516.608 480.628L516.368 481.077C515.308 483.157 514.184 485.194 512.998 487.185C464.77 571.872 371.509 624.038 270.861 612.537C242.786 609.329 216.32 601.417 192.117 589.644C194.738 612.019 198.721 634.029 204.29 655.59C206.702 664.926 200.038 674.32 190.686 674.32H185.557C175.215 674.32 165.854 667.912 162.056 657.974C148.166 621.634 136.328 583.717 128.054 544.664C121.808 538.614 115.871 532.241 110.267 525.575C111.457 534.554 112.464 543.089 113.437 551.33C117.286 583.936 120.594 611.954 132.537 644.8C132.664 645.149 132.9 645.708 133.205 646.432C136.049 653.179 144.958 674.321 128.696 674.321H124.222C111.746 674.321 98.3652 667.417 92.6116 655.98C41.4043 554.189 -11.0817 463.503 2.04126 340.919C8.51966 280.403 46.3494 201.713 73.6399 143.404L73.6438 143.395C75.3705 139.706 77.0872 136.038 78.7874 132.393C95.8103 95.9035 101.199 55.6116 104.723 29.2633C106.845 13.3935 108.291 2.58151 111.196 0.705688ZM242.779 158.276C230.241 152.514 216.861 152.683 206.51 157.646C199.664 160.929 194.141 166.309 191.064 173.458C183.333 191.415 193.953 213.732 214.783 223.304C235.614 232.877 258.768 226.081 266.498 208.124C274.229 190.167 263.609 167.849 242.779 158.276ZM146.404 114.635C134.396 109.157 121.613 109.318 111.745 114.041C105.219 117.164 99.9685 122.282 97.0618 129.083C89.7602 146.164 100.013 167.391 119.962 176.494C139.911 185.596 162.002 179.128 169.304 162.047C176.606 144.965 166.353 123.738 146.404 114.635Z" fill="black"/>
<path d="M144.176 199.342C144.388 196.683 146.646 194.704 149.22 194.923L148.837 199.738C149.214 195.011 149.221 194.924 149.222 194.923H149.228L149.236 194.924L149.26 194.926L149.328 194.933C149.383 194.938 149.457 194.945 149.548 194.955C149.73 194.975 149.982 195.005 150.296 195.048C150.922 195.133 151.799 195.27 152.857 195.484C154.961 195.908 157.842 196.645 160.919 197.904C164.062 199.19 166.965 200.95 169.025 202.332C170.069 203.033 170.93 203.659 171.536 204.115C171.84 204.344 172.082 204.531 172.252 204.665C172.337 204.732 172.405 204.786 172.453 204.825L172.513 204.872L172.531 204.888L172.538 204.893L172.542 204.896C172.543 204.896 172.529 204.914 169.817 208.464L172.543 204.897C174.57 206.55 174.916 209.589 173.316 211.684C171.716 213.777 168.778 214.134 166.751 212.484C166.75 212.484 166.749 212.483 166.748 212.483L166.747 212.482L166.722 212.462C166.695 212.441 166.65 212.405 166.589 212.357C166.466 212.26 166.277 212.114 166.03 211.928C165.535 211.555 164.812 211.028 163.93 210.437C163.338 210.039 162.687 209.623 161.998 209.207C159.949 213.586 159.777 216.691 160.198 218.674C160.657 220.828 161.938 222.282 163.621 223.113C165.395 223.99 167.516 224.108 169.259 223.495C170.893 222.92 172.132 221.75 172.669 219.848C173.392 217.286 175.988 215.815 178.468 216.562C180.947 217.309 182.372 219.992 181.649 222.554C180.171 227.787 176.486 231.161 172.274 232.644C168.17 234.088 163.52 233.776 159.586 231.832C155.951 230.036 152.855 226.798 151.453 222.25C148.76 223.66 145.899 224.117 143.147 223.767C139.244 223.269 135.794 221.189 133.418 218.432C131.067 215.703 129.411 211.858 129.985 207.713C130.352 205.072 132.721 203.237 135.277 203.615C137.834 203.994 139.61 206.442 139.244 209.083C139.157 209.712 139.376 210.813 140.404 212.006C141.408 213.171 142.842 213.99 144.291 214.175C145.608 214.343 147.162 214.027 148.785 212.499C150.117 211.246 151.611 209.05 152.873 205.383C152.22 205.217 151.612 205.079 151.065 204.969C150.218 204.798 149.533 204.692 149.073 204.629C148.844 204.598 148.672 204.577 148.566 204.566C148.513 204.56 148.476 204.557 148.457 204.555L148.443 204.553C145.874 204.328 143.964 201.998 144.176 199.342Z" fill="black"/>
</svg>
